<?xml version="1.0" encoding="UTF-8"?>
<svg xmlns="http://www.w3.org/2000/svg" xmlns:xlink="http://www.w3.org/1999/xlink" version="1.2" >
<font id="SEB Basic Web Medium">
<font-face  font-family="SEB Basic Web" units-per-em="1000" ascent="770" descent="-230" font-style="normal" font-weight="500" font-stretch="normal" cap-height="700" x-height="508" underline-position="-90" underline-thickness="65" />
<missing-glyph  horiz-adv-x="574" d="M82 750 L493 750 L493 -70 L82 -70 L82 750 Z M420 -10 L420 690 L154 690 L154 -10 L420 -10 Z " />
<glyph glyph-name=".null" d="" />
<glyph glyph-name="nonmarkingreturn" unicode="&#xd;" horiz-adv-x="208" d="" />
<glyph glyph-name="space" unicode="&#x20;" horiz-adv-x="219" d="" />
<glyph glyph-name="A" unicode="A" horiz-adv-x="590" d="M225 700 L377 700 L570 0 L448 0 L394 194 L169 194 L113 0 L20 0 L225 700 Z M375 270 L322 459 Q291 572 285 609 L283 609 Q278 592 269.5 556 Q261 520 244 461 L189 270 L375 270 Z " />
<glyph glyph-name="B" unicode="B" horiz-adv-x="561" d="M71 700 L252 700 Q380 700 440 655.5 Q500 611 500 536 Q500 474 463.5 435.5 Q427 397 361 380 L361 378 Q442 364 485.5 319 Q529 274 529 201 Q529 106 463.5 53 Q398 0 260 0 L71 0 L71 700 Z M249 70 Q330 70 363.5 104 Q397 138 397 202 Q397 267 359.5 301.5 Q322 336 233 336 L192 336 L192 70 L249 70 Z M242 408 Q315 408 346 437 Q377 466 377 523 Q377 576 347.5 602.5 Q318 629 247 629 L192 629 L192 408 L242 408 Z " />
<glyph glyph-name="C" unicode="C" horiz-adv-x="595" d="M574 139 Q547 67 488 28 Q429 -11 336 -11 Q264 -11 209.5 15.5 Q155 42 118.5 90 Q82 138 64 205 Q46 272 46 352 Q46 434 65 500.5 Q84 567 120.5 614 Q157 661 211.5 686 Q266 711 337 711 Q426 711 485 673.5 Q544 636 570 568 L459 528 Q445 578 414 609 Q383 640 335 640 Q295 640 265.5 620 Q236 600 216.5 563 Q197 526 187.5 473 Q178 420 178 355 Q178 290 187.5 236 Q197 182 217 143 Q237 104 267.5 82.5 Q298 61 339 61 Q428 61 463 177 L574 139 Z " />
<glyph glyph-name="D" unicode="D" horiz-adv-x="653" d="M71 700 L273 700 Q440 700 523.5 608.5 Q607 517 607 351 Q607 184 523.5 92 Q440 0 273 0 L71 0 L71 700 Z M271 72 Q328 72 367 91.5 Q406 111 430 147 Q454 183 464.5 234.5 Q475 286 475 351 Q475 415 464.5 466.5 Q454 518 430 554 Q406 590 367 609 Q328 628 271 628 L192 628 L192 72 L271 72 Z " />
<glyph glyph-name="E" unicode="E" horiz-adv-x="506" d="M71 700 L457 700 L457 625 L192 625 L192 405 L416 405 L416 329 L192 329 L192 75 L469 75 L469 0 L71 0 L71 700 Z " />
<glyph glyph-name="F" unicode="F" horiz-adv-x="491" d="M71 700 L468 700 L468 625 L192 625 L192 390 L426 390 L426 314 L192 314 L192 0 L71 0 L71 700 Z " />
<glyph glyph-name="G" unicode="G" horiz-adv-x="638" d="M477 57 Q450 28 410.5 9 Q371 -10 317 -10 Q255 -10 205 15 Q155 40 119.5 87 Q84 134 65 200.5 Q46 267 46 351 Q46 432 66 498.5 Q86 565 124.5 612 Q163 659 218 685 Q273 711 343 711 Q391 711 429.5 700 Q468 689 496.5 670.5 Q525 652 545 628 Q565 604 576 577 L468 537 Q462 551 453 569 Q444 587 428.5 602.5 Q413 618 390.5 629 Q368 640 336 640 Q261 640 219.5 569 Q178 498 178 355 Q178 210 223 138.5 Q268 67 344 67 Q386 67 418 88 Q450 109 468 137 L468 274 L350 274 L350 350 L582 350 L582 0 L490 0 L477 57 Z " />
<glyph glyph-name="H" unicode="H" horiz-adv-x="651" d="M71 700 L192 700 L192 406 L459 406 L459 700 L580 700 L580 0 L459 0 L459 328 L192 328 L192 0 L71 0 L71 700 Z " />
<glyph glyph-name="I" unicode="I" horiz-adv-x="263" d="M71 700 L192 700 L192 0 L71 0 L71 700 Z " />
<glyph glyph-name="J" unicode="J" horiz-adv-x="320" d="M21 75 Q43 70 69 70 Q80 70 91 71.5 Q102 73 111 79.5 Q120 86 125.5 99 Q131 112 131 134 L131 700 L249 700 L249 162 Q249 74 213.5 34.5 Q178 -5 92 -5 Q68 -5 48.5 -3 Q29 -1 21 1 L21 75 Z " />
<glyph glyph-name="K" unicode="K" horiz-adv-x="575" d="M71 700 L192 700 L192 375 L194 375 L449 700 L559 700 L336 425 L568 0 L434 0 L252 334 L192 261 L192 0 L71 0 L71 700 Z " />
<glyph glyph-name="L" unicode="L" horiz-adv-x="470" d="M71 700 L192 700 L192 75 L443 75 L443 0 L71 0 L71 700 Z " />
<glyph glyph-name="M" unicode="M" horiz-adv-x="775" d="M71 700 L240 700 L331 394 Q351 328 367.5 265.5 Q384 203 391 160 L394 160 Q402 202 418 265 Q434 328 453 393 L544 700 L703 700 L703 0 L592 0 L592 356 Q592 425 592.5 485.5 Q593 546 595 591 L592 591 Q581 543 565 483 Q549 423 529 357 L421 0 L334 0 L224 360 Q201 435 187 490 Q173 545 163 586 L161 586 Q163 544 163 483 Q163 422 163 357 L163 0 L71 0 L71 700 Z " />
<glyph glyph-name="N" unicode="N" horiz-adv-x="656" d="M71 700 L182 700 L382 382 Q397 358 412.5 331 Q428 304 443 277.5 Q458 251 470.5 227 Q483 203 492 185 L495 185 Q492 273 492 408 L492 700 L585 700 L585 0 L485 0 L267 347 Q253 368 238 393 Q223 418 209 443 Q195 468 183 491 Q171 514 164 531 L162 531 Q164 491 164 438 Q164 385 164 317 L164 0 L71 0 L71 700 Z " />
<glyph glyph-name="O" unicode="O" horiz-adv-x="683" d="M342 -11 Q271 -11 216 15 Q161 41 123.5 88.5 Q86 136 66 203 Q46 270 46 352 Q46 434 66 500.5 Q86 567 123.5 613.5 Q161 660 216 685.5 Q271 711 342 711 Q412 711 467 686 Q522 661 559.5 614 Q597 567 616.5 500.5 Q636 434 636 351 Q636 268 616.5 201.5 Q597 135 559.5 87.5 Q522 40 467 14.5 Q412 -11 342 -11 Z M342 60 Q383 60 413.5 81 Q444 102 464.5 140 Q485 178 495 231.5 Q505 285 505 351 Q505 416 495 469.5 Q485 523 464.5 561 Q444 599 413.5 619.5 Q383 640 342 640 Q301 640 270 619.5 Q239 599 218.5 561 Q198 523 188 469.5 Q178 416 178 351 Q178 286 188 232 Q198 178 218.5 140 Q239 102 270 81 Q301 60 342 60 Z " />
<glyph glyph-name="P" unicode="P" horiz-adv-x="565" d="M71 700 L255 700 Q314 700 365 689.5 Q416 679 453.5 654.5 Q491 630 512.5 590 Q534 550 534 490 Q534 431 513 390 Q492 349 454.5 324 Q417 299 366 288 Q315 277 256 277 L192 277 L192 0 L71 0 L71 700 Z M249 349 Q328 349 365 381 Q402 413 402 490 Q402 567 365 597.5 Q328 628 248 628 L192 628 L192 349 L249 349 Z " />
<glyph glyph-name="Q" unicode="Q" horiz-adv-x="683" d="M641 -89 Q604 -89 575.5 -80.5 Q547 -72 525 -58 Q503 -44 487.5 -26 Q472 -8 462 12 Q407 -11 342 -11 Q271 -11 216 15 Q161 41 123.5 88.5 Q86 136 66 203 Q46 270 46 352 Q46 434 66 500.5 Q86 567 123.5 613.5 Q161 660 216 685.5 Q271 711 342 711 Q412 711 467 686 Q522 661 559.5 614 Q597 567 616.5 500.5 Q636 434 636 351 Q636 250 607.5 174 Q579 98 523 51 Q550 21 612 21 Q628 21 633 22 Q637 23 641 24 L641 -89 Z M342 60 Q383 60 413.5 81 Q444 102 464.5 140 Q485 178 495 231.5 Q505 285 505 351 Q505 416 495 469.5 Q485 523 464.5 561 Q444 599 413.5 619.5 Q383 640 342 640 Q301 640 270 619.5 Q239 599 218.5 561 Q198 523 188 469.5 Q178 416 178 351 Q178 286 188 232 Q198 178 218.5 140 Q239 102 270 81 Q301 60 342 60 Z " />
<glyph glyph-name="R" unicode="R" horiz-adv-x="588" d="M71 700 L252 700 Q312 700 363 689 Q414 678 451 654 Q488 630 509 591 Q530 552 530 495 Q530 421 492.5 376 Q455 331 397 309 L559 0 L427 0 L286 286 Q277 285 267.5 285 Q258 285 248 285 L192 285 L192 0 L71 0 L71 700 Z M248 358 Q328 358 364.5 390 Q401 422 401 494 Q401 566 365 597 Q329 628 247 628 L192 628 L192 358 L248 358 Z " />
<glyph glyph-name="S" unicode="S" horiz-adv-x="515" d="M115 180 Q119 163 129.5 142.5 Q140 122 157 104 Q174 86 199 74 Q224 62 258 62 Q304 62 333 88 Q362 114 362 162 Q362 195 345.5 220 Q329 245 302.5 265.5 Q276 286 243 303.5 Q210 321 178 341 Q152 356 129 373.5 Q106 391 88 412.5 Q70 434 59.5 461 Q49 488 49 522 Q49 566 65 601 Q81 636 109.5 660.5 Q138 685 178 698 Q218 711 266 711 Q320 711 357.5 698 Q395 685 420 666.5 Q445 648 458.5 627 Q472 606 478 590 L375 551 Q371 563 362.5 578 Q354 593 340.5 607 Q327 621 307 630.5 Q287 640 259 640 Q210 640 187 613 Q164 586 164 549 Q164 518 181 494.5 Q198 471 225 451 Q252 431 285.5 413 Q319 395 352 375 Q377 359 400 341 Q423 323 440.5 301 Q458 279 468.5 251.5 Q479 224 479 190 Q479 96 419 42.5 Q359 -11 253 -11 Q193 -11 151 3.5 Q109 18 81 39.5 Q53 61 37.5 86.5 Q22 112 16 134 L115 180 Z " />
<glyph glyph-name="T" unicode="T" horiz-adv-x="541" d="M210 625 L22 625 L22 700 L519 700 L519 625 L331 625 L331 0 L210 0 L210 625 Z " />
<glyph glyph-name="U" unicode="U" horiz-adv-x="641" d="M71 700 L192 700 L192 275 Q192 216 203.5 179 Q215 142 235 120.5 Q255 99 282 91 Q309 83 339 83 Q369 83 394 91 Q419 99 437.5 119.5 Q456 140 466.5 175.5 Q477 211 477 266 L477 700 L570 700 L570 251 Q570 176 551.5 125.5 Q533 75 500.5 44.5 Q468 14 423 1.5 Q378 -11 325 -11 Q276 -11 230 1 Q184 13 149 43 Q114 73 92.5 124.5 Q71 176 71 255 L71 700 Z " />
<glyph glyph-name="V" unicode="V" horiz-adv-x="585" d="M20 700 L143 700 L247 322 Q266 253 282 194 Q298 135 305 99 L307 99 Q315 135 330.5 193 Q346 251 366 321 L470 700 L565 700 L363 0 L214 0 L20 700 Z " />
<glyph glyph-name="W" unicode="W" horiz-adv-x="859" d="M26 700 L148 700 L227 322 Q238 268 247.5 217 Q257 166 263 122 L266 122 Q274 165 283.5 216.5 Q293 268 304 322 L386 700 L503 700 L581 324 Q591 273 601 218.5 Q611 164 617 123 L619 123 Q627 164 636.5 216 Q646 268 658 321 L740 700 L833 700 L670 0 L535 0 L467 322 Q461 350 455.5 379.5 Q450 409 445.5 436.5 Q441 464 437 488 Q433 512 431 530 L428 530 Q425 513 421 488.5 Q417 464 411.5 436 Q406 408 400 378.5 Q394 349 388 322 L317 0 L177 0 L26 700 Z " />
<glyph glyph-name="X" unicode="X" horiz-adv-x="538" d="M202 363 L22 700 L150 700 L275 460 L403 700 L500 700 L323 381 L526 0 L398 0 L251 280 L108 0 L11 0 L202 363 Z " />
<glyph glyph-name="Y" unicode="Y" horiz-adv-x="523" d="M198 322 L15 700 L144 700 L274 416 L277 416 L412 700 L508 700 L318 320 L318 0 L198 0 L198 322 Z " />
<glyph glyph-name="Z" unicode="Z" horiz-adv-x="548" d="M21 58 L384 625 L46 625 L46 700 L527 700 L527 643 L163 75 L515 75 L515 0 L21 0 L21 58 Z " />
<glyph glyph-name="Agrave" unicode="&#xc0;" horiz-adv-x="590" d="M225 700 L377 700 L570 0 L448 0 L394 194 L169 194 L113 0 L20 0 L225 700 Z M375 270 L322 459 Q291 572 285 609 L283 609 Q278 592 269.5 556 Q261 520 244 461 L189 270 L375 270 Z M274 873 L368 750 L281 750 L138 873 L274 873 Z " />
<glyph glyph-name="Aacute" unicode="&#xc1;" horiz-adv-x="590" d="M225 700 L377 700 L570 0 L448 0 L394 194 L169 194 L113 0 L20 0 L225 700 Z M375 270 L322 459 Q291 572 285 609 L283 609 Q278 592 269.5 556 Q261 520 244 461 L189 270 L375 270 Z M324 873 L460 873 L317 750 L230 750 L324 873 Z " />
<glyph glyph-name="Acircumflex" unicode="&#xc2;" horiz-adv-x="590" d="M225 700 L377 700 L570 0 L448 0 L394 194 L169 194 L113 0 L20 0 L225 700 Z M375 270 L322 459 Q291 572 285 609 L283 609 Q278 592 269.5 556 Q261 520 244 461 L189 270 L375 270 Z M227 873 L367 873 L445 750 L370 750 L298 821 L296 821 L225 750 L149 750 L227 873 Z " />
<glyph glyph-name="Atilde" unicode="&#xc3;" horiz-adv-x="590" d="M225 700 L377 700 L570 0 L448 0 L394 194 L169 194 L113 0 L20 0 L225 700 Z M375 270 L322 459 Q291 572 285 609 L283 609 Q278 592 269.5 556 Q261 520 244 461 L189 270 L375 270 Z M138 756 Q139 774 144 793.5 Q149 813 159.5 829 Q170 845 186.5 855 Q203 865 227 865 Q246 865 264 859.5 Q282 854 299.5 848 Q317 842 332.5 836.5 Q348 831 363 831 Q386 831 392 862 L457 862 Q455 842 449.5 822 Q444 802 434.5 786.5 Q425 771 410.5 761.5 Q396 752 376 752 Q358 752 339 757.5 Q320 763 302 770 Q284 777 267 782.5 Q250 788 236 788 Q208 788 202 756 L138 756 Z " />
<glyph glyph-name="Adieresis" unicode="&#xc4;" horiz-adv-x="590" d="M225 700 L377 700 L570 0 L448 0 L394 194 L169 194 L113 0 L20 0 L225 700 Z M375 270 L322 459 Q291 572 285 609 L283 609 Q278 592 269.5 556 Q261 520 244 461 L189 270 L375 270 Z M146 860 L255 860 L255 756 L146 756 L146 860 Z M337 860 L446 860 L446 756 L337 756 L337 860 Z " />
<glyph glyph-name="Amacron" unicode="&#x100;" horiz-adv-x="590" d="M225 700 L377 700 L570 0 L448 0 L394 194 L169 194 L113 0 L20 0 L225 700 Z M375 270 L322 459 Q291 572 285 609 L283 609 Q278 592 269.5 556 Q261 520 244 461 L189 270 L375 270 Z M150 841 L443 841 L443 765 L150 765 L150 841 Z " />
<glyph glyph-name="Abreve" unicode="&#x102;" horiz-adv-x="590" d="M225 700 L377 700 L570 0 L448 0 L394 194 L169 194 L113 0 L20 0 L225 700 Z M375 270 L322 459 Q291 572 285 609 L283 609 Q278 592 269.5 556 Q261 520 244 461 L189 270 L375 270 Z M220 869 Q225 846 243.5 829 Q262 812 296 812 Q331 812 349.5 829 Q368 846 374 869 L433 869 Q431 846 423 822.5 Q415 799 399 780 Q383 761 357.5 749.5 Q332 738 296 738 Q260 738 234.5 749.5 Q209 761 193 779.5 Q177 798 169 821.5 Q161 845 160 869 L220 869 Z " />
<glyph glyph-name="Aring" unicode="&#xc5;" horiz-adv-x="590" d="M223 693 L379 693 L570 0 L448 0 L394 194 L169 194 L113 0 L20 0 L223 693 Z M375 270 L322 459 Q291 572 285 609 L283 609 Q278 586 269.5 553 Q261 520 244 461 L189 270 L375 270 Z M190 826 Q190 874 220.5 901.5 Q251 929 299 929 Q347 929 377.5 901.5 Q408 874 408 826 Q408 780 377.5 752 Q347 724 299 724 Q251 724 220.5 752 Q190 780 190 826 Z M299 768 Q325 768 341.5 784 Q358 800 358 826 Q358 852 341.5 868.5 Q325 885 299 885 Q273 885 257 868.5 Q241 852 241 826 Q241 800 257 784 Q273 768 299 768 Z " />
<glyph glyph-name="Aogonek" unicode="&#x104;" horiz-adv-x="590" d="M225 700 L377 700 L570 0 Q510 -20 482 -49.5 Q454 -79 454 -107 Q454 -140 492 -140 Q506 -140 520.5 -134 Q535 -128 546 -117 L572 -148 Q566 -157 556 -166.5 Q546 -176 531.5 -184 Q517 -192 498.5 -197.5 Q480 -203 457 -203 Q408 -203 385 -180.5 Q362 -158 362 -126 Q362 -95 383 -62.5 Q404 -30 448 0 L394 194 L169 194 L113 0 L20 0 L225 700 Z M375 270 L322 460 Q305 519 296.5 556 Q288 593 285 609 L283 609 Q278 592 269.5 556 Q261 520 244 461 L189 270 L375 270 Z " />
<glyph glyph-name="AE" unicode="&#xc6;" horiz-adv-x="801" d="M302 700 L752 700 L752 626 L486 626 L486 405 L711 405 L711 329 L486 329 L486 74 L764 74 L764 0 L366 0 L366 195 L174 195 L86 0 L-9 0 L302 700 Z M366 270 L366 626 L363 626 L205 270 L366 270 Z " />
<glyph glyph-name="AEacute" unicode="&#x1fc;" horiz-adv-x="801" d="M302 700 L752 700 L752 626 L486 626 L486 405 L711 405 L711 329 L486 329 L486 74 L764 74 L764 0 L366 0 L366 195 L174 195 L86 0 L-9 0 L302 700 Z M366 270 L366 626 L363 626 L205 270 L366 270 Z M517 873 L653 873 L510 750 L423 750 L517 873 Z " />
<glyph glyph-name="Cacute" unicode="&#x106;" horiz-adv-x="595" d="M574 139 Q547 67 488 28 Q429 -11 336 -11 Q264 -11 209.5 15.5 Q155 42 118.5 90 Q82 138 64 205 Q46 272 46 352 Q46 434 65 500.5 Q84 567 120.5 614 Q157 661 211.5 686 Q266 711 337 711 Q426 711 485 673.5 Q544 636 570 568 L459 528 Q445 578 414 609 Q383 640 335 640 Q295 640 265.5 620 Q236 600 216.5 563 Q197 526 187.5 473 Q178 420 178 355 Q178 290 187.5 236 Q197 182 217 143 Q237 104 267.5 82.5 Q298 61 339 61 Q428 61 463 177 L574 139 Z M347 873 L483 873 L340 750 L253 750 L347 873 Z " />
<glyph glyph-name="Ccircumflex" unicode="&#x108;" horiz-adv-x="595" d="M574 139 Q547 67 488 28 Q429 -11 336 -11 Q264 -11 209.5 15.5 Q155 42 118.5 90 Q82 138 64 205 Q46 272 46 352 Q46 434 65 500.5 Q84 567 120.5 614 Q157 661 211.5 686 Q266 711 337 711 Q426 711 485 673.5 Q544 636 570 568 L459 528 Q445 578 414 609 Q383 640 335 640 Q295 640 265.5 620 Q236 600 216.5 563 Q197 526 187.5 473 Q178 420 178 355 Q178 290 187.5 236 Q197 182 217 143 Q237 104 267.5 82.5 Q298 61 339 61 Q428 61 463 177 L574 139 Z M265 873 L405 873 L483 750 L408 750 L336 821 L334 821 L263 750 L187 750 L265 873 Z " />
<glyph glyph-name="Ccaron" unicode="&#x10c;" horiz-adv-x="595" d="M574 139 Q547 67 488 28 Q429 -11 336 -11 Q264 -11 209.5 15.5 Q155 42 118.5 90 Q82 138 64 205 Q46 272 46 352 Q46 434 65 500.5 Q84 567 120.5 614 Q157 661 211.5 686 Q266 711 337 711 Q426 711 485 673.5 Q544 636 570 568 L459 528 Q445 578 414 609 Q383 640 335 640 Q295 640 265.5 620 Q236 600 216.5 563 Q197 526 187.5 473 Q178 420 178 355 Q178 290 187.5 236 Q197 182 217 143 Q237 104 267.5 82.5 Q298 61 339 61 Q428 61 463 177 L574 139 Z M184 873 L260 873 L331 801 L333 801 L405 873 L480 873 L402 750 L262 750 L184 873 Z " />
<glyph glyph-name="Cdotaccent" unicode="&#x10a;" horiz-adv-x="595" d="M574 139 Q547 67 488 28 Q429 -11 336 -11 Q264 -11 209.5 15.5 Q155 42 118.5 90 Q82 138 64 205 Q46 272 46 352 Q46 434 65 500.5 Q84 567 120.5 614 Q157 661 211.5 686 Q266 711 337 711 Q426 711 485 673.5 Q544 636 570 568 L459 528 Q445 578 414 609 Q383 640 335 640 Q295 640 265.5 620 Q236 600 216.5 563 Q197 526 187.5 473 Q178 420 178 355 Q178 290 187.5 236 Q197 182 217 143 Q237 104 267.5 82.5 Q298 61 339 61 Q428 61 463 177 L574 139 Z M271 858 L385 858 L385 755 L271 755 L271 858 Z " />
<glyph glyph-name="Ccedilla" unicode="&#xc7;" horiz-adv-x="595" d="M574 139 Q547 67 488 28 Q429 -11 336 -11 Q264 -11 209.5 15.5 Q155 42 118.5 90 Q82 138 64 205 Q46 272 46 352 Q46 434 65 500.5 Q84 567 120.5 614 Q157 661 211.5 686 Q266 711 337 711 Q426 711 485 673.5 Q544 636 570 568 L459 528 Q445 578 414 609 Q383 640 335 640 Q295 640 265.5 620 Q236 600 216.5 563 Q197 526 187.5 473 Q178 420 178 355 Q178 290 187.5 236 Q197 182 217 143 Q237 104 267.5 82.5 Q298 61 339 61 Q428 61 463 177 L574 139 Z M246 -141 Q254 -148 269.5 -152.5 Q285 -157 302 -157 Q324 -157 332.5 -148 Q341 -139 341 -125 Q341 -112 332.5 -103.5 Q324 -95 312 -90.5 Q300 -86 287 -84 Q274 -82 264 -82 L295 11 L351 11 L331 -43 Q379 -51 404.5 -72 Q430 -93 430 -127 Q430 -162 403.5 -184 Q377 -206 326 -206 Q293 -206 268 -198 Q243 -190 230 -179 L246 -141 Z " />
<glyph glyph-name="Dcaron" unicode="&#x10e;" horiz-adv-x="653" d="M71 700 L273 700 Q440 700 523.5 608.5 Q607 517 607 351 Q607 184 523.5 92 Q440 0 273 0 L71 0 L71 700 Z M271 72 Q328 72 367 91.5 Q406 111 430 147 Q454 183 464.5 234.5 Q475 286 475 351 Q475 415 464.5 466.5 Q454 518 430 554 Q406 590 367 609 Q328 628 271 628 L192 628 L192 72 L271 72 Z M152 873 L228 873 L299 801 L301 801 L373 873 L448 873 L370 750 L230 750 L152 873 Z " />
<glyph glyph-name="Dcroat" unicode="&#x110;" horiz-adv-x="663" d="M82 329 L28 329 L28 405 L82 405 L82 700 L283 700 Q451 700 534 608.5 Q617 517 617 351 Q617 184 533.5 92 Q450 0 283 0 L82 0 L82 329 Z M283 71 Q339 71 377.5 90.5 Q416 110 440 146 Q464 182 474.5 234 Q485 286 485 351 Q485 416 474.5 467.5 Q464 519 440 555 Q416 591 377.5 610 Q339 629 283 629 L202 629 L202 405 L339 405 L339 329 L202 329 L202 71 L283 71 Z " />
<glyph glyph-name="Egrave" unicode="&#xc8;" horiz-adv-x="506" d="M71 700 L457 700 L457 625 L192 625 L192 405 L416 405 L416 329 L192 329 L192 75 L469 75 L469 0 L71 0 L71 700 Z M244 873 L338 750 L251 750 L108 873 L244 873 Z " />
<glyph glyph-name="Eacute" unicode="&#xc9;" horiz-adv-x="506" d="M71 700 L457 700 L457 625 L192 625 L192 405 L416 405 L416 329 L192 329 L192 75 L469 75 L469 0 L71 0 L71 700 Z M287 873 L423 873 L280 750 L193 750 L287 873 Z " />
<glyph glyph-name="Ecircumflex" unicode="&#xca;" horiz-adv-x="506" d="M71 700 L457 700 L457 625 L192 625 L192 405 L416 405 L416 329 L192 329 L192 75 L469 75 L469 0 L71 0 L71 700 Z M193 873 L333 873 L411 750 L336 750 L264 821 L262 821 L191 750 L115 750 L193 873 Z " />
<glyph glyph-name="Ecaron" unicode="&#x11a;" horiz-adv-x="506" d="M71 700 L457 700 L457 625 L192 625 L192 405 L416 405 L416 329 L192 329 L192 75 L469 75 L469 0 L71 0 L71 700 Z M111 873 L187 873 L258 801 L260 801 L332 873 L407 873 L329 750 L189 750 L111 873 Z " />
<glyph glyph-name="Edieresis" unicode="&#xcb;" horiz-adv-x="506" d="M71 700 L457 700 L457 625 L192 625 L192 405 L416 405 L416 329 L192 329 L192 75 L469 75 L469 0 L71 0 L71 700 Z M104 860 L213 860 L213 756 L104 756 L104 860 Z M295 860 L404 860 L404 756 L295 756 L295 860 Z " />
<glyph glyph-name="Emacron" unicode="&#x112;" horiz-adv-x="506" d="M71 700 L457 700 L457 625 L192 625 L192 405 L416 405 L416 329 L192 329 L192 75 L469 75 L469 0 L71 0 L71 700 Z M108 841 L401 841 L401 765 L108 765 L108 841 Z " />
<glyph glyph-name="Ebreve" unicode="&#x114;" horiz-adv-x="506" d="M71 700 L457 700 L457 625 L192 625 L192 405 L416 405 L416 329 L192 329 L192 75 L469 75 L469 0 L71 0 L71 700 Z M184 869 Q189 846 207.5 829 Q226 812 260 812 Q295 812 313.5 829 Q332 846 338 869 L397 869 Q395 846 387 822.5 Q379 799 363 780 Q347 761 321.5 749.5 Q296 738 260 738 Q224 738 198.5 749.5 Q173 761 157 779.5 Q141 798 133 821.5 Q125 845 124 869 L184 869 Z " />
<glyph glyph-name="Edotaccent" unicode="&#x116;" horiz-adv-x="506" d="M71 700 L457 700 L457 625 L192 625 L192 405 L416 405 L416 329 L192 329 L192 75 L469 75 L469 0 L71 0 L71 700 Z M196 858 L310 858 L310 755 L196 755 L196 858 Z " />
<glyph glyph-name="Eogonek" unicode="&#x118;" horiz-adv-x="506" d="M71 700 L457 700 L457 625 L192 625 L192 405 L416 405 L416 329 L192 329 L192 75 L469 75 L469 0 L71 0 L71 700 Z M471 -148 Q465 -157 454.5 -166.5 Q444 -176 429.5 -184 Q415 -192 396.5 -197.5 Q378 -203 355 -203 Q306 -203 283.5 -180.5 Q261 -158 261 -126 Q261 -83 301 -39.5 Q341 4 423 45 L442 25 Q399 -9 375.5 -40.5 Q352 -72 352 -103 Q352 -140 390 -140 Q422 -140 445 -117 L471 -148 Z " />
<glyph glyph-name="Gcircumflex" unicode="&#x11c;" horiz-adv-x="638" d="M477 57 Q450 28 410.5 9 Q371 -10 317 -10 Q255 -10 205 15 Q155 40 119.5 87 Q84 134 65 200.5 Q46 267 46 351 Q46 432 66 498.5 Q86 565 124.5 612 Q163 659 218 685 Q273 711 343 711 Q391 711 429.5 700 Q468 689 496.5 670.5 Q525 652 545 628 Q565 604 576 577 L468 537 Q462 551 453 569 Q444 587 428.5 602.5 Q413 618 390.5 629 Q368 640 336 640 Q261 640 219.5 569 Q178 498 178 355 Q178 210 223 138.5 Q268 67 344 67 Q386 67 418 88 Q450 109 468 137 L468 274 L350 274 L350 350 L582 350 L582 0 L490 0 L477 57 Z M269 873 L409 873 L487 750 L412 750 L340 821 L338 821 L267 750 L191 750 L269 873 Z " />
<glyph glyph-name="Gbreve" unicode="&#x11e;" horiz-adv-x="638" d="M477 57 Q450 28 410.5 9 Q371 -10 317 -10 Q255 -10 205 15 Q155 40 119.5 87 Q84 134 65 200.5 Q46 267 46 351 Q46 432 66 498.5 Q86 565 124.5 612 Q163 659 218 685 Q273 711 343 711 Q391 711 429.5 700 Q468 689 496.5 670.5 Q525 652 545 628 Q565 604 576 577 L468 537 Q462 551 453 569 Q444 587 428.5 602.5 Q413 618 390.5 629 Q368 640 336 640 Q261 640 219.5 569 Q178 498 178 355 Q178 210 223 138.5 Q268 67 344 67 Q386 67 418 88 Q450 109 468 137 L468 274 L350 274 L350 350 L582 350 L582 0 L490 0 L477 57 Z M265 869 Q270 846 288.5 829 Q307 812 341 812 Q376 812 394.5 829 Q413 846 419 869 L478 869 Q476 846 468 822.5 Q460 799 444 780 Q428 761 402.5 749.5 Q377 738 341 738 Q305 738 279.5 749.5 Q254 761 238 779.5 Q222 798 214 821.5 Q206 845 205 869 L265 869 Z " />
<glyph glyph-name="Gdotaccent" unicode="&#x120;" horiz-adv-x="638" d="M477 57 Q450 28 410.5 9 Q371 -10 317 -10 Q255 -10 205 15 Q155 40 119.5 87 Q84 134 65 200.5 Q46 267 46 351 Q46 432 66 498.5 Q86 565 124.5 612 Q163 659 218 685 Q273 711 343 711 Q391 711 429.5 700 Q468 689 496.5 670.5 Q525 652 545 628 Q565 604 576 577 L468 537 Q462 551 453 569 Q444 587 428.5 602.5 Q413 618 390.5 629 Q368 640 336 640 Q261 640 219.5 569 Q178 498 178 355 Q178 210 223 138.5 Q268 67 344 67 Q386 67 418 88 Q450 109 468 137 L468 274 L350 274 L350 350 L582 350 L582 0 L490 0 L477 57 Z M283 858 L397 858 L397 755 L283 755 L283 858 Z " />
<glyph glyph-name="Gcommaaccent" unicode="&#x122;" horiz-adv-x="638" d="M477 57 Q450 28 410.5 9 Q371 -10 317 -10 Q255 -10 205 15 Q155 40 119.5 87 Q84 134 65 200.5 Q46 267 46 351 Q46 432 66 498.5 Q86 565 124.5 612 Q163 659 218 685 Q273 711 343 711 Q391 711 429.5 700 Q468 689 496.5 670.5 Q525 652 545 628 Q565 604 576 577 L468 537 Q462 551 453 569 Q444 587 428.5 602.5 Q413 618 390.5 629 Q368 640 336 640 Q261 640 219.5 569 Q178 498 178 355 Q178 210 223 138.5 Q268 67 344 67 Q386 67 418 88 Q450 109 468 137 L468 274 L350 274 L350 350 L582 350 L582 0 L490 0 L477 57 Z M343 -157 L292 -157 L292 -54 L408 -54 L408 -152 L353 -249 L294 -249 L343 -157 Z " />
<glyph glyph-name="Hcircumflex" unicode="&#x124;" horiz-adv-x="651" d="M71 700 L192 700 L192 406 L459 406 L459 700 L580 700 L580 0 L459 0 L459 328 L192 328 L192 0 L71 0 L71 700 Z M255 873 L395 873 L473 750 L398 750 L326 821 L324 821 L253 750 L177 750 L255 873 Z " />
<glyph glyph-name="Hbar" unicode="&#x126;" horiz-adv-x="651" d="M27 595 L71 595 L71 700 L192 700 L192 595 L459 595 L459 700 L580 700 L580 595 L624 595 L624 532 L580 532 L580 0 L459 0 L459 328 L192 328 L192 0 L71 0 L71 532 L27 532 L27 595 Z M459 406 L459 532 L192 532 L192 406 L459 406 Z " />
<glyph glyph-name="Igrave" unicode="&#xcc;" horiz-adv-x="263" d="M71 700 L192 700 L192 0 L71 0 L71 700 Z M97 873 L191 750 L104 750 L-39 873 L97 873 Z " />
<glyph glyph-name="Iacute" unicode="&#xcd;" horiz-adv-x="263" d="M71 700 L192 700 L192 0 L71 0 L71 700 Z M166 873 L302 873 L159 750 L72 750 L166 873 Z " />
<glyph glyph-name="Icircumflex" unicode="&#xce;" horiz-adv-x="263" d="M71 700 L192 700 L192 0 L71 0 L71 700 Z M61 873 L201 873 L279 750 L204 750 L132 821 L130 821 L59 750 L-17 750 L61 873 Z " />
<glyph glyph-name="Itilde" unicode="&#x128;" horiz-adv-x="263" d="M71 700 L192 700 L192 0 L71 0 L71 700 Z M-29 756 Q-28 774 -23 793.5 Q-18 813 -7.5 829 Q3 845 19.5 855 Q36 865 60 865 Q79 865 97 859.5 Q115 854 132.5 848 Q150 842 165.5 836.5 Q181 831 196 831 Q219 831 225 862 L290 862 Q288 842 282.5 822 Q277 802 267.5 786.5 Q258 771 243.5 761.5 Q229 752 209 752 Q191 752 172 757.5 Q153 763 135 770 Q117 777 100 782.5 Q83 788 69 788 Q41 788 35 756 L-29 756 Z " />
<glyph glyph-name="Idieresis" unicode="&#xcf;" horiz-adv-x="263" d="M71 700 L192 700 L192 0 L71 0 L71 700 Z M-19 860 L90 860 L90 756 L-19 756 L-19 860 Z M172 860 L281 860 L281 756 L172 756 L172 860 Z " />
<glyph glyph-name="Imacron" unicode="&#x12a;" horiz-adv-x="263" d="M71 700 L192 700 L192 0 L71 0 L71 700 Z M-15 841 L278 841 L278 765 L-15 765 L-15 841 Z " />
<glyph glyph-name="Ibreve" unicode="&#x12c;" horiz-adv-x="263" d="M71 700 L192 700 L192 0 L71 0 L71 700 Z M55 869 Q60 846 78.5 829 Q97 812 131 812 Q166 812 184.5 829 Q203 846 209 869 L268 869 Q266 846 258 822.5 Q250 799 234 780 Q218 761 192.5 749.5 Q167 738 131 738 Q95 738 69.5 749.5 Q44 761 28 779.5 Q12 798 4 821.5 Q-4 845 -5 869 L55 869 Z " />
<glyph glyph-name="Idotaccent" unicode="&#x130;" horiz-adv-x="263" d="M71 700 L192 700 L192 0 L71 0 L71 700 Z M74 858 L188 858 L188 755 L74 755 L74 858 Z " />
<glyph glyph-name="Iogonek" unicode="&#x12e;" horiz-adv-x="263" d="M195 -148 Q189 -157 179 -166.5 Q169 -176 154.5 -184 Q140 -192 121.5 -197.5 Q103 -203 80 -203 Q31 -203 8 -180.5 Q-15 -158 -15 -126 Q-15 -94 4 -63.5 Q23 -33 71 0 L71 700 L192 700 L192 0 Q159 -7 136.5 -19.5 Q114 -32 101 -46.5 Q88 -61 82.5 -76 Q77 -91 77 -103 Q77 -140 115 -140 Q147 -140 170 -117 L195 -148 Z " />
<glyph glyph-name="IJ" unicode="&#x132;" horiz-adv-x="583" d="M71 700 L192 700 L192 0 L71 0 L71 700 Z M284 75 Q306 70 332 70 Q343 70 354 71.5 Q365 73 374 79.5 Q383 86 388.5 99 Q394 112 394 134 L394 700 L512 700 L512 162 Q512 74 476.5 34.5 Q441 -5 355 -5 Q331 -5 311.5 -3 Q292 -1 284 1 L284 75 Z " />
<glyph glyph-name="Jcircumflex" unicode="&#x134;" horiz-adv-x="320" d="M21 75 Q43 70 69 70 Q80 70 91 71.5 Q102 73 111 79.5 Q120 86 125.5 99 Q131 112 131 134 L131 700 L249 700 L249 162 Q249 74 213.5 34.5 Q178 -5 92 -5 Q68 -5 48.5 -3 Q29 -1 21 1 L21 75 Z M117 873 L257 873 L335 750 L260 750 L188 821 L186 821 L115 750 L39 750 L117 873 Z " />
<glyph glyph-name="Kcommaaccent" unicode="&#x136;" horiz-adv-x="575" d="M71 700 L192 700 L192 375 L194 375 L449 700 L559 700 L336 425 L568 0 L434 0 L252 334 L192 261 L192 0 L71 0 L71 700 Z M295 -157 L244 -157 L244 -54 L360 -54 L360 -152 L305 -249 L246 -249 L295 -157 Z " />
<glyph glyph-name="Lacute" unicode="&#x139;" horiz-adv-x="470" d="M71 700 L192 700 L192 75 L443 75 L443 0 L71 0 L71 700 Z M171 873 L307 873 L164 750 L77 750 L171 873 Z " />
<glyph glyph-name="Lcaron" unicode="&#x13d;" horiz-adv-x="470" d="M71 700 L192 700 L192 75 L443 75 L443 0 L71 0 L71 700 Z M313 581 L267 581 L267 701 L374 701 L374 587 L318 461 L266 461 L313 581 Z " />
<glyph glyph-name="Lcommaaccent" unicode="&#x13b;" horiz-adv-x="470" d="M71 700 L192 700 L192 75 L443 75 L443 0 L71 0 L71 700 Z M244 -157 L193 -157 L193 -54 L309 -54 L309 -152 L254 -249 L195 -249 L244 -157 Z " />
<glyph glyph-name="Lslash" unicode="&#x141;" horiz-adv-x="481" d="M82 208 L22 174 L22 249 L82 284 L82 700 L203 700 L203 347 L348 430 L348 354 L203 271 L203 75 L454 75 L454 0 L82 0 L82 208 Z " />
<glyph glyph-name="Ldot" unicode="&#x13f;" horiz-adv-x="470" d="M71 700 L192 700 L192 75 L443 75 L443 0 L71 0 L71 700 Z M178 906 L292 906 L292 802 L178 802 L178 906 Z " />
<glyph glyph-name="Nacute" unicode="&#x143;" horiz-adv-x="656" d="M71 700 L182 700 L382 382 Q397 358 412.5 331 Q428 304 443 277.5 Q458 251 470.5 227 Q483 203 492 185 L495 185 Q492 273 492 408 L492 700 L585 700 L585 0 L485 0 L267 347 Q253 368 238 393 Q223 418 209 443 Q195 468 183 491 Q171 514 164 531 L162 531 Q164 491 164 438 Q164 385 164 317 L164 0 L71 0 L71 700 Z M382 873 L518 873 L375 750 L288 750 L382 873 Z " />
<glyph glyph-name="Ncaron" unicode="&#x147;" horiz-adv-x="656" d="M71 700 L182 700 L382 382 Q397 358 412.5 331 Q428 304 443 277.5 Q458 251 470.5 227 Q483 203 492 185 L495 185 Q492 273 492 408 L492 700 L585 700 L585 0 L485 0 L267 347 Q253 368 238 393 Q223 418 209 443 Q195 468 183 491 Q171 514 164 531 L162 531 Q164 491 164 438 Q164 385 164 317 L164 0 L71 0 L71 700 Z M186 873 L262 873 L333 801 L335 801 L407 873 L482 873 L404 750 L264 750 L186 873 Z " />
<glyph glyph-name="Ntilde" unicode="&#xd1;" horiz-adv-x="656" d="M71 700 L182 700 L382 382 Q397 358 412.5 331 Q428 304 443 277.5 Q458 251 470.5 227 Q483 203 492 185 L495 185 Q492 273 492 408 L492 700 L585 700 L585 0 L485 0 L267 347 Q253 368 238 393 Q223 418 209 443 Q195 468 183 491 Q171 514 164 531 L162 531 Q164 491 164 438 Q164 385 164 317 L164 0 L71 0 L71 700 Z M181 756 Q182 774 187 793.5 Q192 813 202.5 829 Q213 845 229.5 855 Q246 865 270 865 Q289 865 307 859.5 Q325 854 342.5 848 Q360 842 375.5 836.5 Q391 831 406 831 Q429 831 435 862 L500 862 Q498 842 492.5 822 Q487 802 477.5 786.5 Q468 771 453.5 761.5 Q439 752 419 752 Q401 752 382 757.5 Q363 763 345 770 Q327 777 310 782.5 Q293 788 279 788 Q251 788 245 756 L181 756 Z " />
<glyph glyph-name="Ncommaaccent" unicode="&#x145;" horiz-adv-x="656" d="M71 700 L182 700 L382 382 Q397 358 412.5 331 Q428 304 443 277.5 Q458 251 470.5 227 Q483 203 492 185 L495 185 Q492 273 492 408 L492 700 L585 700 L585 0 L485 0 L267 347 Q253 368 238 393 Q223 418 209 443 Q195 468 183 491 Q171 514 164 531 L162 531 Q164 491 164 438 Q164 385 164 317 L164 0 L71 0 L71 700 Z M328 -157 L277 -157 L277 -54 L393 -54 L393 -152 L338 -249 L279 -249 L328 -157 Z " />
<glyph glyph-name="Ograve" unicode="&#xd2;" horiz-adv-x="683" d="M342 -11 Q271 -11 216 15 Q161 41 123.5 88.5 Q86 136 66 203 Q46 270 46 352 Q46 434 66 500.5 Q86 567 123.5 613.5 Q161 660 216 685.5 Q271 711 342 711 Q412 711 467 686 Q522 661 559.5 614 Q597 567 616.5 500.5 Q636 434 636 351 Q636 268 616.5 201.5 Q597 135 559.5 87.5 Q522 40 467 14.5 Q412 -11 342 -11 Z M342 60 Q383 60 413.5 81 Q444 102 464.5 140 Q485 178 495 231.5 Q505 285 505 351 Q505 416 495 469.5 Q485 523 464.5 561 Q444 599 413.5 619.5 Q383 640 342 640 Q301 640 270 619.5 Q239 599 218.5 561 Q198 523 188 469.5 Q178 416 178 351 Q178 286 188 232 Q198 178 218.5 140 Q239 102 270 81 Q301 60 342 60 Z M318 873 L412 750 L325 750 L182 873 L318 873 Z " />
<glyph glyph-name="Oacute" unicode="&#xd3;" horiz-adv-x="683" d="M342 -11 Q271 -11 216 15 Q161 41 123.5 88.5 Q86 136 66 203 Q46 270 46 352 Q46 434 66 500.5 Q86 567 123.5 613.5 Q161 660 216 685.5 Q271 711 342 711 Q412 711 467 686 Q522 661 559.5 614 Q597 567 616.5 500.5 Q636 434 636 351 Q636 268 616.5 201.5 Q597 135 559.5 87.5 Q522 40 467 14.5 Q412 -11 342 -11 Z M342 60 Q383 60 413.5 81 Q444 102 464.5 140 Q485 178 495 231.5 Q505 285 505 351 Q505 416 495 469.5 Q485 523 464.5 561 Q444 599 413.5 619.5 Q383 640 342 640 Q301 640 270 619.5 Q239 599 218.5 561 Q198 523 188 469.5 Q178 416 178 351 Q178 286 188 232 Q198 178 218.5 140 Q239 102 270 81 Q301 60 342 60 Z M364 873 L500 873 L357 750 L270 750 L364 873 Z " />
<glyph glyph-name="Ocircumflex" unicode="&#xd4;" horiz-adv-x="683" d="M342 -11 Q271 -11 216 15 Q161 41 123.5 88.5 Q86 136 66 203 Q46 270 46 352 Q46 434 66 500.5 Q86 567 123.5 613.5 Q161 660 216 685.5 Q271 711 342 711 Q412 711 467 686 Q522 661 559.5 614 Q597 567 616.5 500.5 Q636 434 636 351 Q636 268 616.5 201.5 Q597 135 559.5 87.5 Q522 40 467 14.5 Q412 -11 342 -11 Z M342 60 Q383 60 413.5 81 Q444 102 464.5 140 Q485 178 495 231.5 Q505 285 505 351 Q505 416 495 469.5 Q485 523 464.5 561 Q444 599 413.5 619.5 Q383 640 342 640 Q301 640 270 619.5 Q239 599 218.5 561 Q198 523 188 469.5 Q178 416 178 351 Q178 286 188 232 Q198 178 218.5 140 Q239 102 270 81 Q301 60 342 60 Z M271 873 L411 873 L489 750 L414 750 L342 821 L340 821 L269 750 L193 750 L271 873 Z " />
<glyph glyph-name="Otilde" unicode="&#xd5;" horiz-adv-x="683" d="M342 -11 Q271 -11 216 15 Q161 41 123.5 88.5 Q86 136 66 203 Q46 270 46 352 Q46 434 66 500.5 Q86 567 123.5 613.5 Q161 660 216 685.5 Q271 711 342 711 Q412 711 467 686 Q522 661 559.5 614 Q597 567 616.5 500.5 Q636 434 636 351 Q636 268 616.5 201.5 Q597 135 559.5 87.5 Q522 40 467 14.5 Q412 -11 342 -11 Z M342 60 Q383 60 413.5 81 Q444 102 464.5 140 Q485 178 495 231.5 Q505 285 505 351 Q505 416 495 469.5 Q485 523 464.5 561 Q444 599 413.5 619.5 Q383 640 342 640 Q301 640 270 619.5 Q239 599 218.5 561 Q198 523 188 469.5 Q178 416 178 351 Q178 286 188 232 Q198 178 218.5 140 Q239 102 270 81 Q301 60 342 60 Z M182 756 Q183 774 188 793.5 Q193 813 203.5 829 Q214 845 230.5 855 Q247 865 271 865 Q290 865 308 859.5 Q326 854 343.5 848 Q361 842 376.5 836.5 Q392 831 407 831 Q430 831 436 862 L501 862 Q499 842 493.5 822 Q488 802 478.5 786.5 Q469 771 454.5 761.5 Q440 752 420 752 Q402 752 383 757.5 Q364 763 346 770 Q328 777 311 782.5 Q294 788 280 788 Q252 788 246 756 L182 756 Z " />
<glyph glyph-name="Odieresis" unicode="&#xd6;" horiz-adv-x="683" d="M342 -11 Q271 -11 216 15 Q161 41 123.5 88.5 Q86 136 66 203 Q46 270 46 352 Q46 434 66 500.5 Q86 567 123.5 613.5 Q161 660 216 685.5 Q271 711 342 711 Q412 711 467 686 Q522 661 559.5 614 Q597 567 616.5 500.5 Q636 434 636 351 Q636 268 616.5 201.5 Q597 135 559.5 87.5 Q522 40 467 14.5 Q412 -11 342 -11 Z M342 60 Q383 60 413.5 81 Q444 102 464.5 140 Q485 178 495 231.5 Q505 285 505 351 Q505 416 495 469.5 Q485 523 464.5 561 Q444 599 413.5 619.5 Q383 640 342 640 Q301 640 270 619.5 Q239 599 218.5 561 Q198 523 188 469.5 Q178 416 178 351 Q178 286 188 232 Q198 178 218.5 140 Q239 102 270 81 Q301 60 342 60 Z M191 860 L300 860 L300 756 L191 756 L191 860 Z M382 860 L491 860 L491 756 L382 756 L382 860 Z " />
<glyph glyph-name="Omacron" unicode="&#x14c;" horiz-adv-x="683" d="M342 -11 Q271 -11 216 15 Q161 41 123.5 88.5 Q86 136 66 203 Q46 270 46 352 Q46 434 66 500.5 Q86 567 123.5 613.5 Q161 660 216 685.5 Q271 711 342 711 Q412 711 467 686 Q522 661 559.5 614 Q597 567 616.5 500.5 Q636 434 636 351 Q636 268 616.5 201.5 Q597 135 559.5 87.5 Q522 40 467 14.5 Q412 -11 342 -11 Z M342 60 Q383 60 413.5 81 Q444 102 464.5 140 Q485 178 495 231.5 Q505 285 505 351 Q505 416 495 469.5 Q485 523 464.5 561 Q444 599 413.5 619.5 Q383 640 342 640 Q301 640 270 619.5 Q239 599 218.5 561 Q198 523 188 469.5 Q178 416 178 351 Q178 286 188 232 Q198 178 218.5 140 Q239 102 270 81 Q301 60 342 60 Z M195 841 L488 841 L488 765 L195 765 L195 841 Z " />
<glyph glyph-name="Obreve" unicode="&#x14e;" horiz-adv-x="683" d="M342 -11 Q271 -11 216 15 Q161 41 123.5 88.5 Q86 136 66 203 Q46 270 46 352 Q46 434 66 500.5 Q86 567 123.5 613.5 Q161 660 216 685.5 Q271 711 342 711 Q412 711 467 686 Q522 661 559.5 614 Q597 567 616.5 500.5 Q636 434 636 351 Q636 268 616.5 201.5 Q597 135 559.5 87.5 Q522 40 467 14.5 Q412 -11 342 -11 Z M342 60 Q383 60 413.5 81 Q444 102 464.5 140 Q485 178 495 231.5 Q505 285 505 351 Q505 416 495 469.5 Q485 523 464.5 561 Q444 599 413.5 619.5 Q383 640 342 640 Q301 640 270 619.5 Q239 599 218.5 561 Q198 523 188 469.5 Q178 416 178 351 Q178 286 188 232 Q198 178 218.5 140 Q239 102 270 81 Q301 60 342 60 Z M265 869 Q270 846 288.5 829 Q307 812 341 812 Q376 812 394.5 829 Q413 846 419 869 L478 869 Q476 846 468 822.5 Q460 799 444 780 Q428 761 402.5 749.5 Q377 738 341 738 Q305 738 279.5 749.5 Q254 761 238 779.5 Q222 798 214 821.5 Q206 845 205 869 L265 869 Z " />
<glyph glyph-name="Ohungarumlaut" unicode="&#x150;" horiz-adv-x="683" d="M342 -11 Q271 -11 216 15 Q161 41 123.5 88.5 Q86 136 66 203 Q46 270 46 352 Q46 434 66 500.5 Q86 567 123.5 613.5 Q161 660 216 685.5 Q271 711 342 711 Q412 711 467 686 Q522 661 559.5 614 Q597 567 616.5 500.5 Q636 434 636 351 Q636 268 616.5 201.5 Q597 135 559.5 87.5 Q522 40 467 14.5 Q412 -11 342 -11 Z M342 60 Q383 60 413.5 81 Q444 102 464.5 140 Q485 178 495 231.5 Q505 285 505 351 Q505 416 495 469.5 Q485 523 464.5 561 Q444 599 413.5 619.5 Q383 640 342 640 Q301 640 270 619.5 Q239 599 218.5 561 Q198 523 188 469.5 Q178 416 178 351 Q178 286 188 232 Q198 178 218.5 140 Q239 102 270 81 Q301 60 342 60 Z M261 873 L375 873 L283 747 L207 747 L261 873 Z M429 873 L543 873 L450 747 L375 747 L429 873 Z " />
<glyph glyph-name="Oslash" unicode="&#xd8;" horiz-adv-x="683" d="M342 -11 Q298 -11 259 0 L238 -60 L182 -48 L206 20 Q128 60 87 145.5 Q46 231 46 352 Q46 434 66 500.5 Q86 567 123.5 613.5 Q161 660 216 685.5 Q271 711 342 711 Q370 711 395 707 Q420 703 443 695 L466 759 L521 747 L494 671 Q563 629 599.5 547 Q636 465 636 351 Q636 268 616.5 201.5 Q597 135 559.5 87.5 Q522 40 467 14.5 Q412 -11 342 -11 Z M178 351 Q178 273 192.5 211 Q207 149 237 111 L416 617 Q384 640 342 640 Q301 640 270 619.5 Q239 599 218.5 561 Q198 523 188 469.5 Q178 416 178 351 Z M342 60 Q383 60 413.5 81 Q444 102 464.5 140 Q485 178 495 231.5 Q505 285 505 351 Q505 419 494 474.5 Q483 530 460 568 L283 73 Q297 67 311 63.5 Q325 60 342 60 Z " />
<glyph glyph-name="Oslashacute" unicode="&#x1fe;" horiz-adv-x="683" d="M342 -11 Q298 -11 259 0 L238 -60 L182 -48 L206 20 Q128 60 87 145.5 Q46 231 46 352 Q46 434 66 500.5 Q86 567 123.5 613.5 Q161 660 216 685.5 Q271 711 342 711 Q370 711 395 707 Q420 703 443 695 L466 759 L521 747 L494 671 Q563 629 599.5 547 Q636 465 636 351 Q636 268 616.5 201.5 Q597 135 559.5 87.5 Q522 40 467 14.5 Q412 -11 342 -11 Z M178 351 Q178 273 192.5 211 Q207 149 237 111 L416 617 Q384 640 342 640 Q301 640 270 619.5 Q239 599 218.5 561 Q198 523 188 469.5 Q178 416 178 351 Z M342 60 Q383 60 413.5 81 Q444 102 464.5 140 Q485 178 495 231.5 Q505 285 505 351 Q505 419 494 474.5 Q483 530 460 568 L283 73 Q297 67 311 63.5 Q325 60 342 60 Z M367 873 L503 873 L360 750 L273 750 L367 873 Z " />
<glyph glyph-name="OE" unicode="&#x152;" horiz-adv-x="849" d="M812 74 L812 0 L426 0 Q406 -5 385.5 -8 Q365 -11 342 -11 Q271 -11 216 15 Q161 41 123.5 88.5 Q86 136 66 203 Q46 270 46 352 Q46 434 66 500.5 Q86 567 123.5 613.5 Q161 660 216 685.5 Q271 711 342 711 Q386 711 427 700 L800 700 L800 626 L535 626 L535 405 L759 405 L759 329 L535 329 L535 74 L812 74 Z M414 616 Q384 640 342 640 Q301 640 270 619.5 Q239 599 218.5 561 Q198 523 188 469.5 Q178 416 178 351 Q178 286 188 232 Q198 178 218.5 140 Q239 102 270 81 Q301 60 342 60 Q384 60 414 84 L414 616 Z " />
<glyph glyph-name="Racute" unicode="&#x154;" horiz-adv-x="588" d="M71 700 L252 700 Q312 700 363 689 Q414 678 451 654 Q488 630 509 591 Q530 552 530 495 Q530 421 492.5 376 Q455 331 397 309 L559 0 L427 0 L286 286 Q277 285 267.5 285 Q258 285 248 285 L192 285 L192 0 L71 0 L71 700 Z M248 358 Q328 358 364.5 390 Q401 422 401 494 Q401 566 365 597 Q329 628 247 628 L192 628 L192 358 L248 358 Z M302 873 L438 873 L295 750 L208 750 L302 873 Z " />
<glyph glyph-name="Rcaron" unicode="&#x158;" horiz-adv-x="588" d="M71 700 L252 700 Q312 700 363 689 Q414 678 451 654 Q488 630 509 591 Q530 552 530 495 Q530 421 492.5 376 Q455 331 397 309 L559 0 L427 0 L286 286 Q277 285 267.5 285 Q258 285 248 285 L192 285 L192 0 L71 0 L71 700 Z M248 358 Q328 358 364.5 390 Q401 422 401 494 Q401 566 365 597 Q329 628 247 628 L192 628 L192 358 L248 358 Z M137 873 L213 873 L284 801 L286 801 L358 873 L433 873 L355 750 L215 750 L137 873 Z " />
<glyph glyph-name="Rcommaaccent" unicode="&#x156;" horiz-adv-x="588" d="M71 700 L252 700 Q312 700 363 689 Q414 678 451 654 Q488 630 509 591 Q530 552 530 495 Q530 421 492.5 376 Q455 331 397 309 L559 0 L427 0 L286 286 Q277 285 267.5 285 Q258 285 248 285 L192 285 L192 0 L71 0 L71 700 Z M248 358 Q328 358 364.5 390 Q401 422 401 494 Q401 566 365 597 Q329 628 247 628 L192 628 L192 358 L248 358 Z M287 -157 L236 -157 L236 -54 L352 -54 L352 -152 L297 -249 L238 -249 L287 -157 Z " />
<glyph glyph-name="Sacute" unicode="&#x15a;" horiz-adv-x="515" d="M115 180 Q119 163 129.5 142.5 Q140 122 157 104 Q174 86 199 74 Q224 62 258 62 Q304 62 333 88 Q362 114 362 162 Q362 195 345.5 220 Q329 245 302.5 265.5 Q276 286 243 303.5 Q210 321 178 341 Q152 356 129 373.5 Q106 391 88 412.5 Q70 434 59.5 461 Q49 488 49 522 Q49 566 65 601 Q81 636 109.5 660.5 Q138 685 178 698 Q218 711 266 711 Q320 711 357.5 698 Q395 685 420 666.5 Q445 648 458.5 627 Q472 606 478 590 L375 551 Q371 563 362.5 578 Q354 593 340.5 607 Q327 621 307 630.5 Q287 640 259 640 Q210 640 187 613 Q164 586 164 549 Q164 518 181 494.5 Q198 471 225 451 Q252 431 285.5 413 Q319 395 352 375 Q377 359 400 341 Q423 323 440.5 301 Q458 279 468.5 251.5 Q479 224 479 190 Q479 96 419 42.5 Q359 -11 253 -11 Q193 -11 151 3.5 Q109 18 81 39.5 Q53 61 37.5 86.5 Q22 112 16 134 L115 180 Z M277 873 L413 873 L270 750 L183 750 L277 873 Z " />
<glyph glyph-name="Scircumflex" unicode="&#x15c;" horiz-adv-x="515" d="M115 180 Q119 163 129.5 142.5 Q140 122 157 104 Q174 86 199 74 Q224 62 258 62 Q304 62 333 88 Q362 114 362 162 Q362 195 345.5 220 Q329 245 302.5 265.5 Q276 286 243 303.5 Q210 321 178 341 Q152 356 129 373.5 Q106 391 88 412.5 Q70 434 59.5 461 Q49 488 49 522 Q49 566 65 601 Q81 636 109.5 660.5 Q138 685 178 698 Q218 711 266 711 Q320 711 357.5 698 Q395 685 420 666.5 Q445 648 458.5 627 Q472 606 478 590 L375 551 Q371 563 362.5 578 Q354 593 340.5 607 Q327 621 307 630.5 Q287 640 259 640 Q210 640 187 613 Q164 586 164 549 Q164 518 181 494.5 Q198 471 225 451 Q252 431 285.5 413 Q319 395 352 375 Q377 359 400 341 Q423 323 440.5 301 Q458 279 468.5 251.5 Q479 224 479 190 Q479 96 419 42.5 Q359 -11 253 -11 Q193 -11 151 3.5 Q109 18 81 39.5 Q53 61 37.5 86.5 Q22 112 16 134 L115 180 Z M195 873 L335 873 L413 750 L338 750 L266 821 L264 821 L193 750 L117 750 L195 873 Z " />
<glyph glyph-name="Scaron" unicode="&#x160;" horiz-adv-x="515" d="M115 180 Q119 163 129.5 142.5 Q140 122 157 104 Q174 86 199 74 Q224 62 258 62 Q304 62 333 88 Q362 114 362 162 Q362 195 345.5 220 Q329 245 302.5 265.5 Q276 286 243 303.5 Q210 321 178 341 Q152 356 129 373.5 Q106 391 88 412.5 Q70 434 59.5 461 Q49 488 49 522 Q49 566 65 601 Q81 636 109.5 660.5 Q138 685 178 698 Q218 711 266 711 Q320 711 357.5 698 Q395 685 420 666.5 Q445 648 458.5 627 Q472 606 478 590 L375 551 Q371 563 362.5 578 Q354 593 340.5 607 Q327 621 307 630.5 Q287 640 259 640 Q210 640 187 613 Q164 586 164 549 Q164 518 181 494.5 Q198 471 225 451 Q252 431 285.5 413 Q319 395 352 375 Q377 359 400 341 Q423 323 440.5 301 Q458 279 468.5 251.5 Q479 224 479 190 Q479 96 419 42.5 Q359 -11 253 -11 Q193 -11 151 3.5 Q109 18 81 39.5 Q53 61 37.5 86.5 Q22 112 16 134 L115 180 Z M113 873 L189 873 L260 801 L262 801 L334 873 L409 873 L331 750 L191 750 L113 873 Z " />
<glyph glyph-name="Scedilla" unicode="&#x15e;" horiz-adv-x="515" d="M172 -141 Q180 -148 195.5 -152.5 Q211 -157 228 -157 Q250 -157 258.5 -148 Q267 -139 267 -125 Q267 -112 258.5 -103.5 Q250 -95 238 -90.5 Q226 -86 213 -84 Q200 -82 190 -82 L214 -9 Q178 -6 151 3 Q109 18 81 39.5 Q53 61 37.5 86.5 Q22 112 16 134 L115 180 Q119 163 129.5 142.5 Q140 122 157 104 Q174 86 199 74 Q224 62 258 62 Q304 62 333 88 Q362 114 362 162 Q362 195 345.5 220 Q329 245 302.5 265.5 Q276 286 243 303.5 Q210 321 178 341 Q152 356 129 373.5 Q106 391 88 412.5 Q70 434 59.5 461 Q49 488 49 522 Q49 566 65 601 Q81 636 109.5 660.5 Q138 685 178 698 Q218 711 266 711 Q320 711 357.5 698 Q395 685 420 666.5 Q445 648 458.5 627 Q472 606 478 590 L375 551 Q371 563 362.5 578 Q354 593 340.5 607 Q327 621 307 630.5 Q287 640 259 640 Q210 640 187 613 Q164 586 164 549 Q164 518 181 494.5 Q198 471 225 451 Q252 431 285.5 413 Q319 395 352 375 Q377 359 400 341 Q423 323 440.5 301 Q458 279 468.5 251.5 Q479 224 479 190 Q479 96 419 42 Q363 -7 269 -10 L257 -43 Q305 -51 330.5 -72 Q356 -93 356 -127 Q356 -162 329.5 -184 Q303 -206 252 -206 Q219 -206 194 -198 Q169 -190 156 -179 L172 -141 Z " />
<glyph glyph-name="Scommaaccent" unicode="&#x218;" horiz-adv-x="515" d="M115 180 Q119 163 129.5 142.5 Q140 122 157 104 Q174 86 199 74 Q224 62 258 62 Q304 62 333 88 Q362 114 362 162 Q362 195 345.5 220 Q329 245 302.5 265.5 Q276 286 243 303.5 Q210 321 178 341 Q152 356 129 373.5 Q106 391 88 412.5 Q70 434 59.5 461 Q49 488 49 522 Q49 566 65 601 Q81 636 109.5 660.5 Q138 685 178 698 Q218 711 266 711 Q320 711 357.5 698 Q395 685 420 666.5 Q445 648 458.5 627 Q472 606 478 590 L375 551 Q371 563 362.5 578 Q354 593 340.5 607 Q327 621 307 630.5 Q287 640 259 640 Q210 640 187 613 Q164 586 164 549 Q164 518 181 494.5 Q198 471 225 451 Q252 431 285.5 413 Q319 395 352 375 Q377 359 400 341 Q423 323 440.5 301 Q458 279 468.5 251.5 Q479 224 479 190 Q479 96 419 42.5 Q359 -11 253 -11 Q193 -11 151 3.5 Q109 18 81 39.5 Q53 61 37.5 86.5 Q22 112 16 134 L115 180 Z M247 -157 L196 -157 L196 -54 L312 -54 L312 -152 L257 -249 L198 -249 L247 -157 Z " />
<glyph glyph-name="Tcaron" unicode="&#x164;" horiz-adv-x="541" d="M210 625 L22 625 L22 700 L519 700 L519 625 L331 625 L331 0 L210 0 L210 625 Z M122 873 L198 873 L269 801 L271 801 L343 873 L418 873 L340 750 L200 750 L122 873 Z " />
<glyph glyph-name="Tcommaaccent" unicode="&#x162;" horiz-adv-x="541" d="M197 -141 Q205 -148 220.5 -152.5 Q236 -157 253 -157 Q275 -157 283.5 -148 Q292 -139 292 -125 Q292 -112 283.5 -103.5 Q275 -95 263 -90.5 Q251 -86 238 -84 Q225 -82 215 -82 L242 0 L210 0 L210 625 L22 625 L22 700 L519 700 L519 625 L331 625 L331 0 L298 0 L282 -43 Q330 -51 355.5 -72 Q381 -93 381 -127 Q381 -162 354.5 -184 Q328 -206 277 -206 Q244 -206 219 -198 Q194 -190 181 -179 L197 -141 Z " />
<glyph glyph-name="uni021A" unicode="&#x21a;" horiz-adv-x="541" d="M210 625 L22 625 L22 700 L519 700 L519 625 L331 625 L331 0 L210 0 L210 625 Z M263 -157 L212 -157 L212 -54 L328 -54 L328 -152 L273 -249 L214 -249 L263 -157 Z " />
<glyph glyph-name="Tbar" unicode="&#x166;" horiz-adv-x="541" d="M94 430 L210 430 L210 625 L22 625 L22 700 L519 700 L519 625 L331 625 L331 430 L447 430 L447 367 L331 367 L331 0 L210 0 L210 367 L94 367 L94 430 Z " />
<glyph glyph-name="Ugrave" unicode="&#xd9;" horiz-adv-x="641" d="M71 700 L192 700 L192 275 Q192 216 203.5 179 Q215 142 235 120.5 Q255 99 282 91 Q309 83 339 83 Q369 83 394 91 Q419 99 437.5 119.5 Q456 140 466.5 175.5 Q477 211 477 266 L477 700 L570 700 L570 251 Q570 176 551.5 125.5 Q533 75 500.5 44.5 Q468 14 423 1.5 Q378 -11 325 -11 Q276 -11 230 1 Q184 13 149 43 Q114 73 92.5 124.5 Q71 176 71 255 L71 700 Z M310 873 L404 750 L317 750 L174 873 L310 873 Z " />
<glyph glyph-name="Uacute" unicode="&#xda;" horiz-adv-x="641" d="M71 700 L192 700 L192 275 Q192 216 203.5 179 Q215 142 235 120.5 Q255 99 282 91 Q309 83 339 83 Q369 83 394 91 Q419 99 437.5 119.5 Q456 140 466.5 175.5 Q477 211 477 266 L477 700 L570 700 L570 251 Q570 176 551.5 125.5 Q533 75 500.5 44.5 Q468 14 423 1.5 Q378 -11 325 -11 Q276 -11 230 1 Q184 13 149 43 Q114 73 92.5 124.5 Q71 176 71 255 L71 700 Z M379 873 L515 873 L372 750 L285 750 L379 873 Z " />
<glyph glyph-name="Ucircumflex" unicode="&#xdb;" horiz-adv-x="641" d="M71 700 L192 700 L192 275 Q192 216 203.5 179 Q215 142 235 120.5 Q255 99 282 91 Q309 83 339 83 Q369 83 394 91 Q419 99 437.5 119.5 Q456 140 466.5 175.5 Q477 211 477 266 L477 700 L570 700 L570 251 Q570 176 551.5 125.5 Q533 75 500.5 44.5 Q468 14 423 1.5 Q378 -11 325 -11 Q276 -11 230 1 Q184 13 149 43 Q114 73 92.5 124.5 Q71 176 71 255 L71 700 Z M263 873 L403 873 L481 750 L406 750 L334 821 L332 821 L261 750 L185 750 L263 873 Z " />
<glyph glyph-name="Utilde" unicode="&#x168;" horiz-adv-x="641" d="M71 700 L192 700 L192 275 Q192 216 203.5 179 Q215 142 235 120.5 Q255 99 282 91 Q309 83 339 83 Q369 83 394 91 Q419 99 437.5 119.5 Q456 140 466.5 175.5 Q477 211 477 266 L477 700 L570 700 L570 251 Q570 176 551.5 125.5 Q533 75 500.5 44.5 Q468 14 423 1.5 Q378 -11 325 -11 Q276 -11 230 1 Q184 13 149 43 Q114 73 92.5 124.5 Q71 176 71 255 L71 700 Z M173 756 Q174 774 179 793.5 Q184 813 194.5 829 Q205 845 221.5 855 Q238 865 262 865 Q281 865 299 859.5 Q317 854 334.5 848 Q352 842 367.5 836.5 Q383 831 398 831 Q421 831 427 862 L492 862 Q490 842 484.5 822 Q479 802 469.5 786.5 Q460 771 445.5 761.5 Q431 752 411 752 Q393 752 374 757.5 Q355 763 337 770 Q319 777 302 782.5 Q285 788 271 788 Q243 788 237 756 L173 756 Z " />
<glyph glyph-name="Udieresis" unicode="&#xdc;" horiz-adv-x="641" d="M71 700 L192 700 L192 275 Q192 216 203.5 179 Q215 142 235 120.5 Q255 99 282 91 Q309 83 339 83 Q369 83 394 91 Q419 99 437.5 119.5 Q456 140 466.5 175.5 Q477 211 477 266 L477 700 L570 700 L570 251 Q570 176 551.5 125.5 Q533 75 500.5 44.5 Q468 14 423 1.5 Q378 -11 325 -11 Q276 -11 230 1 Q184 13 149 43 Q114 73 92.5 124.5 Q71 176 71 255 L71 700 Z M180 860 L289 860 L289 756 L180 756 L180 860 Z M371 860 L480 860 L480 756 L371 756 L371 860 Z " />
<glyph glyph-name="Umacron" unicode="&#x16a;" horiz-adv-x="641" d="M71 700 L192 700 L192 275 Q192 216 203.5 179 Q215 142 235 120.5 Q255 99 282 91 Q309 83 339 83 Q369 83 394 91 Q419 99 437.5 119.5 Q456 140 466.5 175.5 Q477 211 477 266 L477 700 L570 700 L570 251 Q570 176 551.5 125.5 Q533 75 500.5 44.5 Q468 14 423 1.5 Q378 -11 325 -11 Q276 -11 230 1 Q184 13 149 43 Q114 73 92.5 124.5 Q71 176 71 255 L71 700 Z M185 841 L478 841 L478 765 L185 765 L185 841 Z " />
<glyph glyph-name="Ubreve" unicode="&#x16c;" horiz-adv-x="641" d="M71 700 L192 700 L192 275 Q192 216 203.5 179 Q215 142 235 120.5 Q255 99 282 91 Q309 83 339 83 Q369 83 394 91 Q419 99 437.5 119.5 Q456 140 466.5 175.5 Q477 211 477 266 L477 700 L570 700 L570 251 Q570 176 551.5 125.5 Q533 75 500.5 44.5 Q468 14 423 1.5 Q378 -11 325 -11 Q276 -11 230 1 Q184 13 149 43 Q114 73 92.5 124.5 Q71 176 71 255 L71 700 Z M265 869 Q270 846 288.5 829 Q307 812 341 812 Q376 812 394.5 829 Q413 846 419 869 L478 869 Q476 846 468 822.5 Q460 799 444 780 Q428 761 402.5 749.5 Q377 738 341 738 Q305 738 279.5 749.5 Q254 761 238 779.5 Q222 798 214 821.5 Q206 845 205 869 L265 869 Z " />
<glyph glyph-name="Uring" unicode="&#x16e;" horiz-adv-x="641" d="M71 700 L192 700 L192 275 Q192 216 203.5 179 Q215 142 235 120.5 Q255 99 282 91 Q309 83 339 83 Q369 83 394 91 Q419 99 437.5 119.5 Q456 140 466.5 175.5 Q477 211 477 266 L477 700 L570 700 L570 251 Q570 176 551.5 125.5 Q533 75 500.5 44.5 Q468 14 423 1.5 Q378 -11 325 -11 Q276 -11 230 1 Q184 13 149 43 Q114 73 92.5 124.5 Q71 176 71 255 L71 700 Z M230 826 Q230 874 260.5 901.5 Q291 929 339 929 Q387 929 417.5 901.5 Q448 874 448 826 Q448 780 417.5 752 Q387 724 339 724 Q291 724 260.5 752 Q230 780 230 826 Z M339 768 Q365 768 381.5 784 Q398 800 398 826 Q398 852 381.5 868.5 Q365 885 339 885 Q313 885 297 868.5 Q281 852 281 826 Q281 800 297 784 Q313 768 339 768 Z " />
<glyph glyph-name="Uhungarumlaut" unicode="&#x170;" horiz-adv-x="641" d="M71 700 L192 700 L192 275 Q192 216 203.5 179 Q215 142 235 120.5 Q255 99 282 91 Q309 83 339 83 Q369 83 394 91 Q419 99 437.5 119.5 Q456 140 466.5 175.5 Q477 211 477 266 L477 700 L570 700 L570 251 Q570 176 551.5 125.5 Q533 75 500.5 44.5 Q468 14 423 1.5 Q378 -11 325 -11 Q276 -11 230 1 Q184 13 149 43 Q114 73 92.5 124.5 Q71 176 71 255 L71 700 Z M260 873 L374 873 L282 747 L206 747 L260 873 Z M428 873 L542 873 L449 747 L374 747 L428 873 Z " />
<glyph glyph-name="Uogonek" unicode="&#x172;" horiz-adv-x="641" d="M71 700 L192 700 L192 274 Q192 216 203.5 179 Q215 142 235 120.5 Q255 99 282 91 Q309 83 339 83 Q370 83 395.5 91 Q421 99 439 120 Q457 141 467 177 Q477 213 477 268 L477 700 L570 700 L570 251 Q570 205 563.5 170 Q557 135 545.5 108.5 Q534 82 518.5 63.5 Q503 45 484 31 Q433 -7 409.5 -40 Q386 -73 386 -104 Q386 -140 424 -140 Q438 -140 452.5 -134 Q467 -128 478 -117 L504 -148 Q498 -157 488 -166.5 Q478 -176 463.5 -184 Q449 -192 430.5 -197.5 Q412 -203 389 -203 Q340 -203 317 -180.5 Q294 -158 294 -126 Q294 -97 312 -67 Q330 -37 368 -8 Q347 -11 325 -11 Q275 -11 229.5 0.5 Q184 12 148.5 42 Q113 72 92 123.5 Q71 175 71 255 L71 700 Z " />
<glyph glyph-name="Wgrave" unicode="&#x1e80;" horiz-adv-x="859" d="M26 700 L148 700 L227 322 Q238 268 247.5 217 Q257 166 263 122 L266 122 Q274 165 283.5 216.5 Q293 268 304 322 L386 700 L503 700 L581 324 Q591 273 601 218.5 Q611 164 617 123 L619 123 Q627 164 636.5 216 Q646 268 658 321 L740 700 L833 700 L670 0 L535 0 L467 322 Q461 350 455.5 379.5 Q450 409 445.5 436.5 Q441 464 437 488 Q433 512 431 530 L428 530 Q425 513 421 488.5 Q417 464 411.5 436 Q406 408 400 378.5 Q394 349 388 322 L317 0 L177 0 L26 700 Z M403 873 L497 750 L410 750 L267 873 L403 873 Z " />
<glyph glyph-name="Wacute" unicode="&#x1e82;" horiz-adv-x="859" d="M26 700 L148 700 L227 322 Q238 268 247.5 217 Q257 166 263 122 L266 122 Q274 165 283.5 216.5 Q293 268 304 322 L386 700 L503 700 L581 324 Q591 273 601 218.5 Q611 164 617 123 L619 123 Q627 164 636.5 216 Q646 268 658 321 L740 700 L833 700 L670 0 L535 0 L467 322 Q461 350 455.5 379.5 Q450 409 445.5 436.5 Q441 464 437 488 Q433 512 431 530 L428 530 Q425 513 421 488.5 Q417 464 411.5 436 Q406 408 400 378.5 Q394 349 388 322 L317 0 L177 0 L26 700 Z M483 873 L619 873 L476 750 L389 750 L483 873 Z " />
<glyph glyph-name="Wcircumflex" unicode="&#x174;" horiz-adv-x="859" d="M26 700 L148 700 L227 322 Q238 268 247.5 217 Q257 166 263 122 L266 122 Q274 165 283.5 216.5 Q293 268 304 322 L386 700 L503 700 L581 324 Q591 273 601 218.5 Q611 164 617 123 L619 123 Q627 164 636.5 216 Q646 268 658 321 L740 700 L833 700 L670 0 L535 0 L467 322 Q461 350 455.5 379.5 Q450 409 445.5 436.5 Q441 464 437 488 Q433 512 431 530 L428 530 Q425 513 421 488.5 Q417 464 411.5 436 Q406 408 400 378.5 Q394 349 388 322 L317 0 L177 0 L26 700 Z M371 873 L511 873 L589 750 L514 750 L442 821 L440 821 L369 750 L293 750 L371 873 Z " />
<glyph glyph-name="Wdieresis" unicode="&#x1e84;" horiz-adv-x="859" d="M26 700 L148 700 L227 322 Q238 268 247.5 217 Q257 166 263 122 L266 122 Q274 165 283.5 216.5 Q293 268 304 322 L386 700 L503 700 L581 324 Q591 273 601 218.5 Q611 164 617 123 L619 123 Q627 164 636.5 216 Q646 268 658 321 L740 700 L833 700 L670 0 L535 0 L467 322 Q461 350 455.5 379.5 Q450 409 445.5 436.5 Q441 464 437 488 Q433 512 431 530 L428 530 Q425 513 421 488.5 Q417 464 411.5 436 Q406 408 400 378.5 Q394 349 388 322 L317 0 L177 0 L26 700 Z M293 860 L402 860 L402 756 L293 756 L293 860 Z M484 860 L593 860 L593 756 L484 756 L484 860 Z " />
<glyph glyph-name="Ygrave" unicode="&#x1ef2;" horiz-adv-x="523" d="M198 322 L15 700 L144 700 L274 416 L277 416 L412 700 L508 700 L318 320 L318 0 L198 0 L198 322 Z M248 873 L342 750 L255 750 L112 873 L248 873 Z " />
<glyph glyph-name="Yacute" unicode="&#xdd;" horiz-adv-x="523" d="M198 322 L15 700 L144 700 L274 416 L277 416 L412 700 L508 700 L318 320 L318 0 L198 0 L198 322 Z M305 873 L441 873 L298 750 L211 750 L305 873 Z " />
<glyph glyph-name="Ycircumflex" unicode="&#x176;" horiz-adv-x="523" d="M198 322 L15 700 L144 700 L274 416 L277 416 L412 700 L508 700 L318 320 L318 0 L198 0 L198 322 Z M196 873 L336 873 L414 750 L339 750 L267 821 L265 821 L194 750 L118 750 L196 873 Z " />
<glyph glyph-name="Ydieresis" unicode="&#x178;" horiz-adv-x="523" d="M198 322 L15 700 L144 700 L274 416 L277 416 L412 700 L508 700 L318 320 L318 0 L198 0 L198 322 Z M113 860 L222 860 L222 756 L113 756 L113 860 Z M304 860 L413 860 L413 756 L304 756 L304 860 Z " />
<glyph glyph-name="Zacute" unicode="&#x179;" horiz-adv-x="548" d="M21 58 L384 625 L46 625 L46 700 L527 700 L527 643 L163 75 L515 75 L515 0 L21 0 L21 58 Z M320 873 L456 873 L313 750 L226 750 L320 873 Z " />
<glyph glyph-name="Zcaron" unicode="&#x17d;" horiz-adv-x="548" d="M21 58 L384 625 L46 625 L46 700 L527 700 L527 643 L163 75 L515 75 L515 0 L21 0 L21 58 Z M159 873 L235 873 L306 801 L308 801 L380 873 L455 873 L377 750 L237 750 L159 873 Z " />
<glyph glyph-name="Zdotaccent" unicode="&#x17b;" horiz-adv-x="548" d="M21 58 L384 625 L46 625 L46 700 L527 700 L527 643 L163 75 L515 75 L515 0 L21 0 L21 58 Z M236 858 L350 858 L350 755 L236 755 L236 858 Z " />
<glyph glyph-name="Eng" unicode="&#x14a;" horiz-adv-x="655" d="M71 700 L183 700 L381 386 Q395 363 411 338 Q427 313 442 288 Q457 263 470 240 Q483 217 492 199 L495 199 Q493 243 492.5 293 Q492 343 492 412 L492 700 L585 700 L585 24 Q585 -20 579 -52 Q573 -84 558 -104.5 Q543 -125 517 -134.5 Q491 -144 451 -144 Q431 -144 413.5 -142 Q396 -140 388 -137 L388 -67 Q396 -69 408.5 -70.5 Q421 -72 434 -72 Q446 -72 456.5 -70 Q467 -68 475 -62 Q483 -56 487.5 -44.5 Q492 -33 492 -13 L492 3 L276 335 Q262 357 245.5 382.5 Q229 408 213.5 433.5 Q198 459 184.5 482.5 Q171 506 164 523 L162 523 Q164 483 164 434 Q164 385 164 317 L164 0 L71 0 L71 700 Z " />
<glyph glyph-name="Eth" unicode="&#xd0;" horiz-adv-x="663" d="M82 329 L28 329 L28 405 L82 405 L82 700 L283 700 Q451 700 534 608.5 Q617 517 617 351 Q617 184 533.5 92 Q450 0 283 0 L82 0 L82 329 Z M283 71 Q339 71 377.5 90.5 Q416 110 440 146 Q464 182 474.5 234 Q485 286 485 351 Q485 416 474.5 467.5 Q464 519 440 555 Q416 591 377.5 610 Q339 629 283 629 L202 629 L202 405 L339 405 L339 329 L202 329 L202 71 L283 71 Z " />
<glyph glyph-name="Thorn" unicode="&#xde;" horiz-adv-x="562" d="M71 700 L192 700 L192 593 L254 593 Q313 593 364 582.5 Q415 572 453 548 Q491 524 512.5 483.5 Q534 443 534 383 Q534 323 512.5 282 Q491 241 453.5 216.5 Q416 192 365 181 Q314 170 255 170 L192 170 L192 0 L71 0 L71 700 Z M249 240 Q328 240 365 272 Q402 304 402 383 Q402 462 364.5 492 Q327 522 248 522 L192 522 L192 240 L249 240 Z " />
<glyph glyph-name="a" unicode="a" horiz-adv-x="494" d="M328 56 Q298 27 262.5 8 Q227 -11 179 -11 Q115 -11 75.5 25 Q36 61 36 125 Q36 167 55 197 Q74 227 110 249 Q146 271 199 286 Q252 301 320 312 L320 364 Q320 409 301 433 Q282 457 239 457 Q201 457 175 435 Q149 413 134 379 L42 414 Q49 431 64 449.5 Q79 468 103.5 483 Q128 498 162.5 508 Q197 518 242 518 Q296 518 333 505.5 Q370 493 392 470 Q414 447 423.5 415 Q433 383 433 343 L433 120 Q433 76 435 46.5 Q437 17 443 0 L340 0 L328 56 Z M320 258 Q284 252 253.5 243.5 Q223 235 200.5 221.5 Q178 208 165 188 Q152 168 152 140 Q152 102 172.5 83 Q193 64 223 64 Q255 64 279 78.5 Q303 93 320 111 L320 258 Z " />
<glyph glyph-name="b" unicode="b" horiz-adv-x="538" d="M61 750 L175 750 L175 452 Q185 463 197.5 475 Q210 487 226.5 496.5 Q243 506 263.5 512 Q284 518 310 518 Q355 518 390.5 498.5 Q426 479 451 444.5 Q476 410 489 362.5 Q502 315 502 258 Q502 201 488 151.5 Q474 102 448.5 66 Q423 30 386.5 9.5 Q350 -11 304 -11 Q258 -11 223.5 8 Q189 27 164 56 L162 56 L147 0 L61 0 L61 750 Z M175 120 Q190 97 216.5 77.5 Q243 58 278 58 Q329 58 353.5 108.5 Q378 159 378 252 Q378 347 353 396.5 Q328 446 277 446 Q244 446 217.5 426.5 Q191 407 175 383 L175 120 Z " />
<glyph glyph-name="c" unicode="c" horiz-adv-x="457" d="M440 97 Q433 80 420.5 61 Q408 42 386.5 26 Q365 10 334 -0.5 Q303 -11 260 -11 Q199 -11 156.5 11 Q114 33 87 70 Q60 107 48 155 Q36 203 36 255 Q36 308 48.5 355.5 Q61 403 88 439 Q115 475 157 496.5 Q199 518 258 518 Q333 518 376.5 487.5 Q420 457 440 409 L340 375 Q335 391 328 406 Q321 421 311 432 Q301 443 288 450 Q275 457 257 457 Q231 457 213 442.5 Q195 428 183 402 Q171 376 165.5 340 Q160 304 160 261 Q160 223 165 185.5 Q170 148 181.5 118.5 Q193 89 212.5 70.5 Q232 52 261 52 Q298 52 316 75.5 Q334 99 343 132 L440 97 Z " />
<glyph glyph-name="d" unicode="d" horiz-adv-x="538" d="M374 65 L372 65 Q362 53 348 40 Q334 27 316 15.5 Q298 4 275.5 -3.5 Q253 -11 225 -11 Q181 -11 146 8.5 Q111 28 86.5 63 Q62 98 49 145.5 Q36 193 36 249 Q36 306 50 355.5 Q64 405 90.5 441 Q117 477 154 497.5 Q191 518 237 518 Q279 518 309.5 503 Q340 488 363 465 L363 750 L477 750 L477 0 L387 0 L374 65 Z M363 397 Q348 418 322 434 Q296 450 264 450 Q210 450 185 399 Q160 348 160 254 Q160 161 185 111.5 Q210 62 261 62 Q293 62 319.5 81 Q346 100 363 126 L363 397 Z " />
<glyph glyph-name="e" unicode="e" horiz-adv-x="490" d="M455 101 Q446 79 430.5 59 Q415 39 392.5 23.5 Q370 8 339 -1.5 Q308 -11 267 -11 Q204 -11 160.5 10.5 Q117 32 89 69 Q61 106 48.5 154 Q36 202 36 255 Q36 311 49.5 359 Q63 407 90 442.5 Q117 478 157 498 Q197 518 251 518 Q303 518 342 499 Q381 480 406.5 447 Q432 414 444.5 369.5 Q457 325 457 273 L457 244 L158 244 Q159 209 164 174.5 Q169 140 181.5 113 Q194 86 215.5 69 Q237 52 270 52 Q307 52 327 74.5 Q347 97 359 132 L455 101 Z M342 303 Q342 330 337 357.5 Q332 385 321.5 407.5 Q311 430 293.5 444.5 Q276 459 249 459 Q201 459 180.5 415.5 Q160 372 158 303 L342 303 Z " />
<glyph glyph-name="f" unicode="f" horiz-adv-x="321" d="M89 443 L16 443 L16 508 L89 508 L89 587 Q89 682 132 721.5 Q175 761 253 761 Q276 761 292.5 758 Q309 755 315 753 L315 682 Q306 688 291.5 691 Q277 694 264 694 Q250 694 239 691 Q228 688 220 679.5 Q212 671 207.5 655 Q203 639 203 613 L203 508 L307 508 L307 443 L203 443 L203 0 L89 0 L89 443 Z " />
<glyph glyph-name="g" unicode="g" horiz-adv-x="514" d="M108 24 Q84 37 69 55 Q54 73 54 100 Q54 135 77.5 157.5 Q101 180 133 194 Q95 217 74 255 Q53 293 53 342 Q53 382 67 414.5 Q81 447 107.5 470 Q134 493 170.5 505.5 Q207 518 252 518 Q330 518 380 483 Q384 504 393 523 Q402 542 417 557 Q432 572 454 580.5 Q476 589 505 589 L505 487 Q497 489 482 489 Q453 489 437.5 477 Q422 465 416 448 Q452 404 452 341 Q452 301 438 268 Q424 235 398 212 Q372 189 335.5 176 Q299 163 254 163 Q212 163 181 173 Q164 165 152 154 Q140 143 140 129 Q140 118 149 111.5 Q158 105 177.5 100.5 Q197 96 228.5 92 Q260 88 306 82 Q343 77 378.5 70.5 Q414 64 442 50.5 Q470 37 486.5 13.5 Q503 -10 503 -48 Q503 -122 439.5 -160.5 Q376 -199 258 -199 Q140 -199 82.5 -164 Q25 -129 25 -73 Q25 -41 45.5 -16 Q66 9 108 23 L108 24 Z M252 220 Q296 220 318 254 Q340 288 340 342 Q340 395 318 429 Q296 463 252 463 Q209 463 187 429 Q165 395 165 341 Q165 288 187 254 Q209 220 252 220 Z M156 7 Q141 -3 132 -17.5 Q123 -32 123 -53 Q123 -95 161 -118.5 Q199 -142 268 -142 Q329 -142 365.5 -123.5 Q402 -105 402 -73 Q402 -55 390 -44 Q378 -33 357 -26.5 Q336 -20 308.5 -16.5 Q281 -13 250 -9 Q226 -6 202 -2 Q178 2 156 7 Z " />
<glyph glyph-name="h" unicode="h" horiz-adv-x="533" d="M61 750 L175 750 L175 440 Q185 452 199.5 465.5 Q214 479 233 490.5 Q252 502 276 510 Q300 518 329 518 Q394 518 433.5 473.5 Q473 429 473 341 L473 0 L359 0 L359 337 Q359 441 294 441 Q276 441 257.5 433.5 Q239 426 223.5 414.5 Q208 403 195 390 Q182 377 175 366 L175 0 L61 0 L61 750 Z " />
<glyph glyph-name="i" unicode="i" horiz-adv-x="235" d="M61 706 L175 706 L175 602 L61 602 L61 706 Z M61 508 L175 508 L175 0 L61 0 L61 508 Z " />
<glyph glyph-name="j" unicode="j" horiz-adv-x="241" d="M-24 -121 Q-16 -123 -6 -124 Q4 -125 12 -125 Q26 -125 36.5 -122.5 Q47 -120 53.5 -112 Q60 -104 63 -90 Q66 -76 66 -52 L66 508 L180 508 L180 -23 Q180 -65 173 -96 Q166 -127 149.5 -148 Q133 -169 105 -179 Q77 -189 35 -189 Q23 -189 4 -187.5 Q-15 -186 -24 -182 L-24 -121 Z M66 706 L180 706 L180 602 L66 602 L66 706 Z " />
<glyph glyph-name="k" unicode="k" horiz-adv-x="489" d="M61 750 L175 750 L175 286 L177 286 L367 508 L473 508 L308 321 L479 0 L357 0 L231 245 L175 181 L175 0 L61 0 L61 750 Z " />
<glyph glyph-name="l" unicode="l" horiz-adv-x="235" d="M61 750 L175 750 L175 0 L61 0 L61 750 Z " />
<glyph glyph-name="m" unicode="m" horiz-adv-x="792" d="M61 508 L157 508 L165 431 L167 431 Q176 443 189.5 458 Q203 473 221 486.5 Q239 500 263.5 509 Q288 518 320 518 Q365 518 396 497 Q427 476 441 431 L443 431 Q453 443 466.5 458 Q480 473 498.5 486.5 Q517 500 541.5 509 Q566 518 598 518 Q663 518 697.5 474 Q732 430 732 341 L732 0 L618 0 L618 336 Q618 390 605.5 415.5 Q593 441 562 441 Q545 441 528.5 434 Q512 427 498 416.5 Q484 406 472 393 Q460 380 452 368 Q453 362 453 355 Q453 348 453 338 L453 0 L339 0 L339 336 Q339 390 326.5 415.5 Q314 441 284 441 Q266 441 250 434 Q234 427 220 415.5 Q206 404 194.5 391 Q183 378 175 366 L175 0 L61 0 L61 508 Z " />
<glyph glyph-name="n" unicode="n" horiz-adv-x="533" d="M61 508 L157 508 L165 431 L167 431 Q176 442 190.5 457 Q205 472 225.5 485.5 Q246 499 271.5 508.5 Q297 518 329 518 Q394 518 433.5 473.5 Q473 429 473 341 L473 0 L359 0 L359 337 Q359 441 294 441 Q276 441 257.5 433.5 Q239 426 223.5 414.5 Q208 403 195 390 Q182 377 175 366 L175 0 L61 0 L61 508 Z " />
<glyph glyph-name="o" unicode="o" horiz-adv-x="532" d="M266 -11 Q212 -11 169.5 8 Q127 27 97 61.5 Q67 96 51.5 145 Q36 194 36 254 Q36 314 51.5 363 Q67 412 97 446.5 Q127 481 169.5 499.5 Q212 518 266 518 Q320 518 362.5 499.5 Q405 481 435 446.5 Q465 412 480.5 363 Q496 314 496 254 Q496 194 480.5 145 Q465 96 435 61.5 Q405 27 362.5 8 Q320 -11 266 -11 Z M266 50 Q296 50 316.5 66 Q337 82 349 110 Q361 138 366.5 175 Q372 212 372 254 Q372 296 366.5 333 Q361 370 349 397.5 Q337 425 316.5 441.5 Q296 458 266 458 Q236 458 215.5 441.5 Q195 425 183 397 Q171 369 165.5 332 Q160 295 160 254 Q160 212 165.5 175 Q171 138 183 110 Q195 82 215.5 66 Q236 50 266 50 Z " />
<glyph glyph-name="p" unicode="p" horiz-adv-x="538" d="M61 508 L157 508 L164 444 L166 444 Q176 456 189.5 469 Q203 482 221 493 Q239 504 261.5 511 Q284 518 311 518 Q356 518 391 498.5 Q426 479 451 444.5 Q476 410 489 362 Q502 314 502 257 Q502 200 488 151 Q474 102 448 66 Q422 30 385 9.5 Q348 -11 302 -11 Q263 -11 231 3 Q199 17 175 40 L175 -187 L61 -187 L61 508 Z M175 115 Q189 92 215.5 74.5 Q242 57 275 57 Q329 57 353.5 107 Q378 157 378 251 Q378 347 353 396.5 Q328 446 277 446 Q245 446 218.5 427.5 Q192 409 175 383 L175 115 Z " />
<glyph glyph-name="q" unicode="q" horiz-adv-x="538" d="M363 56 Q352 44 339 32.5 Q326 21 309 11 Q292 1 271 -5 Q250 -11 225 -11 Q181 -11 146 9 Q111 29 86.5 63.5 Q62 98 49 145.5 Q36 193 36 248 Q36 306 50 355.5 Q64 405 90.5 441 Q117 477 154 497.5 Q191 518 237 518 Q284 518 317.5 499 Q351 480 373 451 L375 451 L381 508 L477 508 L477 -187 L363 -187 L363 56 Z M363 394 Q347 416 322.5 433 Q298 450 266 450 Q211 450 185.5 398 Q160 346 160 255 Q160 160 185 111 Q210 62 261 62 Q294 62 320.5 81.5 Q347 101 363 126 L363 394 Z " />
<glyph glyph-name="r" unicode="r" horiz-adv-x="332" d="M61 508 L157 508 L165 413 L167 413 Q193 458 227 488 Q261 518 313 518 L313 400 Q305 402 288 402 Q220 402 175 350 L175 0 L61 0 L61 508 Z " />
<glyph glyph-name="s" unicode="s" horiz-adv-x="432" d="M109 141 Q113 127 121 111 Q129 95 141 81.5 Q153 68 170.5 59.5 Q188 51 212 51 Q244 51 265 66 Q286 81 286 115 Q286 140 271.5 158 Q257 176 234.5 190 Q212 204 184.5 216.5 Q157 229 131 243 Q113 253 96.5 265 Q80 277 67.5 292.5 Q55 308 47.5 327.5 Q40 347 40 372 Q40 437 87 477.5 Q134 518 219 518 Q261 518 292 508.5 Q323 499 344 484.5 Q365 470 378 452.5 Q391 435 397 420 L302 390 Q300 397 294 409 Q288 421 277.5 431.5 Q267 442 251.5 450 Q236 458 214 458 Q185 458 165 443 Q145 428 145 397 Q145 376 157.5 360.5 Q170 345 189.5 332.5 Q209 320 233.5 309 Q258 298 283 285 Q305 274 325 261 Q345 248 360.5 230.5 Q376 213 385.5 191 Q395 169 395 141 Q395 105 381.5 76.5 Q368 48 343.5 28.5 Q319 9 285 -1 Q251 -11 210 -11 Q166 -11 133 -1.5 Q100 8 76.5 24.5 Q53 41 39 62 Q25 83 18 106 L109 141 Z " />
<glyph glyph-name="t" unicode="t" horiz-adv-x="328" d="M87 443 L16 443 L16 508 L92 508 L92 634 L201 634 L201 508 L304 508 L304 443 L201 443 L201 134 Q201 92 212.5 75 Q224 58 257 58 Q273 58 286.5 61.5 Q300 65 307 69 L307 0 Q294 -5 275 -8 Q256 -11 225 -11 Q184 -11 157.5 -2 Q131 7 115 25 Q99 43 93 71 Q87 99 87 138 L87 443 Z " />
<glyph glyph-name="u" unicode="u" horiz-adv-x="525" d="M60 508 L174 508 L174 175 Q174 115 192 92.5 Q210 70 244 70 Q271 70 300 85 Q329 100 351 127 L351 508 L464 508 L464 0 L375 0 L361 65 L360 65 Q347 52 330.5 38.5 Q314 25 294 14 Q274 3 250.5 -4 Q227 -11 200 -11 Q132 -11 96 33.5 Q60 78 60 159 L60 508 Z " />
<glyph glyph-name="v" unicode="v" horiz-adv-x="484" d="M22 508 L145 508 L224 223 Q237 176 244.5 142.5 Q252 109 255 90 L258 90 Q262 109 269.5 141 Q277 173 290 221 L371 508 L461 508 L307 0 L171 0 L22 508 Z " />
<glyph glyph-name="w" unicode="w" horiz-adv-x="712" d="M25 508 L147 508 L205 249 Q215 204 221 170 Q227 136 231 110 L233 110 Q238 135 243 168.5 Q248 202 259 247 L317 508 L434 508 L488 247 Q498 201 503 169 Q508 137 512 111 L514 111 Q519 138 525 170 Q531 202 539 240 L596 508 L688 508 L561 0 L438 0 L391 219 Q378 283 372 319.5 Q366 356 363 377 L361 377 Q358 357 351 319.5 Q344 282 329 217 L279 0 L155 0 L25 508 Z " />
<glyph glyph-name="x" unicode="x" horiz-adv-x="461" d="M172 253 L27 508 L150 508 L242 338 L341 508 L433 508 L286 272 L445 0 L322 0 L219 186 L110 0 L18 0 L172 253 Z " />
<glyph glyph-name="y" unicode="y" horiz-adv-x="458" d="M40 -105 Q47 -107 62.5 -108 Q78 -109 90 -109 Q110 -109 125 -105 Q140 -101 152 -88 Q164 -75 175 -51.5 Q186 -28 198 10 L20 508 L142 508 L209 299 Q224 253 235 216.5 Q246 180 251 154 L254 154 Q260 184 268 217 Q276 250 290 297 L352 508 L441 508 L269 -25 Q254 -73 238.5 -104.5 Q223 -136 203.5 -154.5 Q184 -173 158.5 -181 Q133 -189 97 -189 Q77 -189 62.5 -188 Q48 -187 40 -185 L40 -105 Z " />
<glyph glyph-name="z" unicode="z" horiz-adv-x="439" d="M23 50 L277 443 L41 443 L41 508 L412 508 L412 457 L157 65 L416 65 L416 0 L23 0 L23 50 Z " />
<glyph glyph-name="agrave" unicode="&#xe0;" horiz-adv-x="494" d="M328 56 Q298 27 262.5 8 Q227 -11 179 -11 Q115 -11 75.5 25 Q36 61 36 125 Q36 167 55 197 Q74 227 110 249 Q146 271 199 286 Q252 301 320 312 L320 364 Q320 409 301 433 Q282 457 239 457 Q201 457 175 435 Q149 413 134 379 L42 414 Q49 431 64 449.5 Q79 468 103.5 483 Q128 498 162.5 508 Q197 518 242 518 Q296 518 333 505.5 Q370 493 392 470 Q414 447 423.5 415 Q433 383 433 343 L433 120 Q433 76 435 46.5 Q437 17 443 0 L340 0 L328 56 Z M320 258 Q284 252 253.5 243.5 Q223 235 200.5 221.5 Q178 208 165 188 Q152 168 152 140 Q152 102 172.5 83 Q193 64 223 64 Q255 64 279 78.5 Q303 93 320 111 L320 258 Z M99 728 L235 728 L329 582 L242 582 L99 728 Z " />
<glyph glyph-name="aacute" unicode="&#xe1;" horiz-adv-x="494" d="M328 56 Q298 27 262.5 8 Q227 -11 179 -11 Q115 -11 75.5 25 Q36 61 36 125 Q36 167 55 197 Q74 227 110 249 Q146 271 199 286 Q252 301 320 312 L320 364 Q320 409 301 433 Q282 457 239 457 Q201 457 175 435 Q149 413 134 379 L42 414 Q49 431 64 449.5 Q79 468 103.5 483 Q128 498 162.5 508 Q197 518 242 518 Q296 518 333 505.5 Q370 493 392 470 Q414 447 423.5 415 Q433 383 433 343 L433 120 Q433 76 435 46.5 Q437 17 443 0 L340 0 L328 56 Z M320 258 Q284 252 253.5 243.5 Q223 235 200.5 221.5 Q178 208 165 188 Q152 168 152 140 Q152 102 172.5 83 Q193 64 223 64 Q255 64 279 78.5 Q303 93 320 111 L320 258 Z M262 728 L398 728 L255 582 L168 582 L262 728 Z " />
<glyph glyph-name="acircumflex" unicode="&#xe2;" horiz-adv-x="494" d="M328 56 Q298 27 262.5 8 Q227 -11 179 -11 Q115 -11 75.5 25 Q36 61 36 125 Q36 167 55 197 Q74 227 110 249 Q146 271 199 286 Q252 301 320 312 L320 364 Q320 409 301 433 Q282 457 239 457 Q201 457 175 435 Q149 413 134 379 L42 414 Q49 431 64 449.5 Q79 468 103.5 483 Q128 498 162.5 508 Q197 518 242 518 Q296 518 333 505.5 Q370 493 392 470 Q414 447 423.5 415 Q433 383 433 343 L433 120 Q433 76 435 46.5 Q437 17 443 0 L340 0 L328 56 Z M320 258 Q284 252 253.5 243.5 Q223 235 200.5 221.5 Q178 208 165 188 Q152 168 152 140 Q152 102 172.5 83 Q193 64 223 64 Q255 64 279 78.5 Q303 93 320 111 L320 258 Z M180 728 L316 728 L396 582 L321 582 L249 670 L247 670 L176 582 L100 582 L180 728 Z " />
<glyph glyph-name="atilde" unicode="&#xe3;" horiz-adv-x="494" d="M328 56 Q298 27 262.5 8 Q227 -11 179 -11 Q115 -11 75.5 25 Q36 61 36 125 Q36 167 55 197 Q74 227 110 249 Q146 271 199 286 Q252 301 320 312 L320 364 Q320 409 301 433 Q282 457 239 457 Q201 457 175 435 Q149 413 134 379 L42 414 Q49 431 64 449.5 Q79 468 103.5 483 Q128 498 162.5 508 Q197 518 242 518 Q296 518 333 505.5 Q370 493 392 470 Q414 447 423.5 415 Q433 383 433 343 L433 120 Q433 76 435 46.5 Q437 17 443 0 L340 0 L328 56 Z M320 258 Q284 252 253.5 243.5 Q223 235 200.5 221.5 Q178 208 165 188 Q152 168 152 140 Q152 102 172.5 83 Q193 64 223 64 Q255 64 279 78.5 Q303 93 320 111 L320 258 Z M87 600 Q88 618 93 637.5 Q98 657 108.5 673 Q119 689 135.5 699 Q152 709 176 709 Q195 709 213 703.5 Q231 698 248.5 692 Q266 686 281.5 680.5 Q297 675 312 675 Q335 675 341 706 L406 706 Q404 686 398.5 666 Q393 646 383.5 630.5 Q374 615 359.5 605.5 Q345 596 325 596 Q307 596 288 601.5 Q269 607 251 614 Q233 621 216 626.5 Q199 632 185 632 Q157 632 151 600 L87 600 Z " />
<glyph glyph-name="adieresis" unicode="&#xe4;" horiz-adv-x="494" d="M328 56 Q298 27 262.5 8 Q227 -11 179 -11 Q115 -11 75.5 25 Q36 61 36 125 Q36 167 55 197 Q74 227 110 249 Q146 271 199 286 Q252 301 320 312 L320 364 Q320 409 301 433 Q282 457 239 457 Q201 457 175 435 Q149 413 134 379 L42 414 Q49 431 64 449.5 Q79 468 103.5 483 Q128 498 162.5 508 Q197 518 242 518 Q296 518 333 505.5 Q370 493 392 470 Q414 447 423.5 415 Q433 383 433 343 L433 120 Q433 76 435 46.5 Q437 17 443 0 L340 0 L328 56 Z M320 258 Q284 252 253.5 243.5 Q223 235 200.5 221.5 Q178 208 165 188 Q152 168 152 140 Q152 102 172.5 83 Q193 64 223 64 Q255 64 279 78.5 Q303 93 320 111 L320 258 Z M102 703 L211 703 L211 598 L102 598 L102 703 Z M288 703 L397 703 L397 598 L288 598 L288 703 Z " />
<glyph glyph-name="amacron" unicode="&#x101;" horiz-adv-x="494" d="M328 56 Q298 27 262.5 8 Q227 -11 179 -11 Q115 -11 75.5 25 Q36 61 36 125 Q36 167 55 197 Q74 227 110 249 Q146 271 199 286 Q252 301 320 312 L320 364 Q320 409 301 433 Q282 457 239 457 Q201 457 175 435 Q149 413 134 379 L42 414 Q49 431 64 449.5 Q79 468 103.5 483 Q128 498 162.5 508 Q197 518 242 518 Q296 518 333 505.5 Q370 493 392 470 Q414 447 423.5 415 Q433 383 433 343 L433 120 Q433 76 435 46.5 Q437 17 443 0 L340 0 L328 56 Z M320 258 Q284 252 253.5 243.5 Q223 235 200.5 221.5 Q178 208 165 188 Q152 168 152 140 Q152 102 172.5 83 Q193 64 223 64 Q255 64 279 78.5 Q303 93 320 111 L320 258 Z M102 687 L395 687 L395 611 L102 611 L102 687 Z " />
<glyph glyph-name="abreve" unicode="&#x103;" horiz-adv-x="494" d="M328 56 Q298 27 262.5 8 Q227 -11 179 -11 Q115 -11 75.5 25 Q36 61 36 125 Q36 167 55 197 Q74 227 110 249 Q146 271 199 286 Q252 301 320 312 L320 364 Q320 409 301 433 Q282 457 239 457 Q201 457 175 435 Q149 413 134 379 L42 414 Q49 431 64 449.5 Q79 468 103.5 483 Q128 498 162.5 508 Q197 518 242 518 Q296 518 333 505.5 Q370 493 392 470 Q414 447 423.5 415 Q433 383 433 343 L433 120 Q433 76 435 46.5 Q437 17 443 0 L340 0 L328 56 Z M320 258 Q284 252 253.5 243.5 Q223 235 200.5 221.5 Q178 208 165 188 Q152 168 152 140 Q152 102 172.5 83 Q193 64 223 64 Q255 64 279 78.5 Q303 93 320 111 L320 258 Z M173 715 Q178 692 196.5 674.5 Q215 657 249 657 Q284 657 302.5 674.5 Q321 692 327 715 L386 715 Q384 691 376 667.5 Q368 644 352 625.5 Q336 607 310.5 595 Q285 583 249 583 Q213 583 187.5 594.5 Q162 606 146 624.5 Q130 643 122 667 Q114 691 113 715 L173 715 Z " />
<glyph glyph-name="aring" unicode="&#xe5;" horiz-adv-x="494" d="M328 56 Q298 27 262.5 8 Q227 -11 179 -11 Q115 -11 75.5 25 Q36 61 36 125 Q36 167 55 197 Q74 227 110 249 Q146 271 199 286 Q252 301 320 312 L320 364 Q320 409 301 433 Q282 457 239 457 Q201 457 175 435 Q149 413 134 379 L42 414 Q49 431 64 449.5 Q79 468 103.5 483 Q128 498 162.5 508 Q197 518 242 518 Q296 518 333 505.5 Q370 493 392 470 Q414 447 423.5 415 Q433 383 433 343 L433 120 Q433 76 435 46.5 Q437 17 443 0 L340 0 L328 56 Z M320 258 Q284 252 253.5 243.5 Q223 235 200.5 221.5 Q178 208 165 188 Q152 168 152 140 Q152 102 172.5 83 Q193 64 223 64 Q255 64 279 78.5 Q303 93 320 111 L320 258 Z M138 672 Q138 719 169 747.5 Q200 776 247 776 Q295 776 325.5 747.5 Q356 719 356 672 Q356 626 325.5 597.5 Q295 569 247 569 Q199 569 168.5 597.5 Q138 626 138 672 Z M247 613 Q273 613 289.5 629.5 Q306 646 306 672 Q306 698 289.5 715 Q273 732 247 732 Q221 732 205 715 Q189 698 189 672 Q189 646 205 629.5 Q221 613 247 613 Z " />
<glyph glyph-name="aogonek" unicode="&#x105;" horiz-adv-x="494" d="M447 -148 Q441 -157 430.5 -166.5 Q420 -176 405.5 -184 Q391 -192 372.5 -197.5 Q354 -203 331 -203 Q282 -203 259.5 -180.5 Q237 -158 237 -126 Q237 -57 340 1 L328 56 Q298 27 262.5 8 Q227 -11 179 -11 Q115 -11 75.5 25 Q36 61 36 125 Q36 167 55 197 Q74 227 110 249 Q146 271 199 286 Q252 301 320 312 L320 364 Q320 409 301 433 Q282 457 239 457 Q201 457 175 435 Q149 413 134 379 L42 414 Q49 431 64 449.5 Q79 468 103.5 483 Q128 498 162.5 508 Q197 518 242 518 Q296 518 333 505.5 Q370 493 392 470 Q414 447 423.5 415 Q433 383 433 343 L433 120 Q433 76 435 46.5 Q437 17 443 0 Q388 -14 358 -43 Q328 -72 328 -103 Q328 -140 366 -140 Q381 -140 395.5 -134 Q410 -128 421 -117 L447 -148 Z M320 258 Q284 252 253.5 243.5 Q223 235 200.5 221.5 Q178 208 165 188 Q152 168 152 140 Q152 102 172.5 83 Q193 64 223 64 Q255 64 279 78.5 Q303 93 320 111 L320 258 Z " />
<glyph glyph-name="ae" unicode="&#xe6;" horiz-adv-x="764" d="M42 414 Q49 431 64.5 449.5 Q80 468 104 483 Q128 498 161.5 508 Q195 518 240 518 Q297 518 333.5 505 Q370 492 391 470 Q419 494 450.5 506 Q482 518 526 518 Q578 518 617 499 Q656 480 681.5 447 Q707 414 719.5 369.5 Q732 325 732 273 L732 244 L433 244 Q434 209 439.5 174.5 Q445 140 457.5 113 Q470 86 491 69 Q512 52 545 52 Q582 52 602 74.5 Q622 97 634 132 L730 101 Q720 79 705 59 Q690 39 667.5 23.5 Q645 8 614 -1.5 Q583 -11 542 -11 Q479 -11 436.5 10.5 Q394 32 368 69 Q354 55 336 41 Q318 27 294.5 15.5 Q271 4 242.5 -3.5 Q214 -11 181 -11 Q115 -11 75.5 25 Q36 61 36 125 Q36 167 55 197 Q74 227 110 249 Q146 271 199 286 Q252 301 320 312 L320 361 Q320 406 302 431.5 Q284 457 239 457 Q198 457 173 433.5 Q148 410 134 379 L42 414 Z M340 122 Q329 154 324.5 187.5 Q320 221 320 258 Q284 252 253.5 243.5 Q223 235 200.5 221.5 Q178 208 165 188 Q152 168 152 140 Q152 102 172.5 83 Q193 64 223 64 Q261 64 291 83 Q321 102 340 122 Z M618 303 Q618 330 613 357.5 Q608 385 597 407.5 Q586 430 568.5 444.5 Q551 459 524 459 Q477 459 456.5 415.5 Q436 372 433 303 L618 303 Z " />
<glyph glyph-name="aeacute" unicode="&#x1fd;" horiz-adv-x="764" d="M42 414 Q49 431 64.5 449.5 Q80 468 104 483 Q128 498 161.5 508 Q195 518 240 518 Q297 518 333.5 505 Q370 492 391 470 Q419 494 450.5 506 Q482 518 526 518 Q578 518 617 499 Q656 480 681.5 447 Q707 414 719.5 369.5 Q732 325 732 273 L732 244 L433 244 Q434 209 439.5 174.5 Q445 140 457.5 113 Q470 86 491 69 Q512 52 545 52 Q582 52 602 74.5 Q622 97 634 132 L730 101 Q720 79 705 59 Q690 39 667.5 23.5 Q645 8 614 -1.5 Q583 -11 542 -11 Q479 -11 436.5 10.5 Q394 32 368 69 Q354 55 336 41 Q318 27 294.5 15.5 Q271 4 242.5 -3.5 Q214 -11 181 -11 Q115 -11 75.5 25 Q36 61 36 125 Q36 167 55 197 Q74 227 110 249 Q146 271 199 286 Q252 301 320 312 L320 361 Q320 406 302 431.5 Q284 457 239 457 Q198 457 173 433.5 Q148 410 134 379 L42 414 Z M340 122 Q329 154 324.5 187.5 Q320 221 320 258 Q284 252 253.5 243.5 Q223 235 200.5 221.5 Q178 208 165 188 Q152 168 152 140 Q152 102 172.5 83 Q193 64 223 64 Q261 64 291 83 Q321 102 340 122 Z M618 303 Q618 330 613 357.5 Q608 385 597 407.5 Q586 430 568.5 444.5 Q551 459 524 459 Q477 459 456.5 415.5 Q436 372 433 303 L618 303 Z M445 728 L581 728 L438 582 L351 582 L445 728 Z " />
<glyph glyph-name="cacute" unicode="&#x107;" horiz-adv-x="457" d="M440 97 Q433 80 420.5 61 Q408 42 386.5 26 Q365 10 334 -0.5 Q303 -11 260 -11 Q199 -11 156.5 11 Q114 33 87 70 Q60 107 48 155 Q36 203 36 255 Q36 308 48.5 355.5 Q61 403 88 439 Q115 475 157 496.5 Q199 518 258 518 Q333 518 376.5 487.5 Q420 457 440 409 L340 375 Q335 391 328 406 Q321 421 311 432 Q301 443 288 450 Q275 457 257 457 Q231 457 213 442.5 Q195 428 183 402 Q171 376 165.5 340 Q160 304 160 261 Q160 223 165 185.5 Q170 148 181.5 118.5 Q193 89 212.5 70.5 Q232 52 261 52 Q298 52 316 75.5 Q334 99 343 132 L440 97 Z M278 728 L414 728 L271 582 L184 582 L278 728 Z " />
<glyph glyph-name="ccircumflex" unicode="&#x109;" horiz-adv-x="457" d="M440 97 Q433 80 420.5 61 Q408 42 386.5 26 Q365 10 334 -0.5 Q303 -11 260 -11 Q199 -11 156.5 11 Q114 33 87 70 Q60 107 48 155 Q36 203 36 255 Q36 308 48.5 355.5 Q61 403 88 439 Q115 475 157 496.5 Q199 518 258 518 Q333 518 376.5 487.5 Q420 457 440 409 L340 375 Q335 391 328 406 Q321 421 311 432 Q301 443 288 450 Q275 457 257 457 Q231 457 213 442.5 Q195 428 183 402 Q171 376 165.5 340 Q160 304 160 261 Q160 223 165 185.5 Q170 148 181.5 118.5 Q193 89 212.5 70.5 Q232 52 261 52 Q298 52 316 75.5 Q334 99 343 132 L440 97 Z M192 728 L328 728 L408 582 L333 582 L261 670 L259 670 L188 582 L112 582 L192 728 Z " />
<glyph glyph-name="ccaron" unicode="&#x10d;" horiz-adv-x="457" d="M440 97 Q433 80 420.5 61 Q408 42 386.5 26 Q365 10 334 -0.5 Q303 -11 260 -11 Q199 -11 156.5 11 Q114 33 87 70 Q60 107 48 155 Q36 203 36 255 Q36 308 48.5 355.5 Q61 403 88 439 Q115 475 157 496.5 Q199 518 258 518 Q333 518 376.5 487.5 Q420 457 440 409 L340 375 Q335 391 328 406 Q321 421 311 432 Q301 443 288 450 Q275 457 257 457 Q231 457 213 442.5 Q195 428 183 402 Q171 376 165.5 340 Q160 304 160 261 Q160 223 165 185.5 Q170 148 181.5 118.5 Q193 89 212.5 70.5 Q232 52 261 52 Q298 52 316 75.5 Q334 99 343 132 L440 97 Z M113 728 L189 728 L260 640 L262 640 L334 728 L409 728 L329 582 L193 582 L113 728 Z " />
<glyph glyph-name="cdotaccent" unicode="&#x10b;" horiz-adv-x="457" d="M440 97 Q433 80 420.5 61 Q408 42 386.5 26 Q365 10 334 -0.5 Q303 -11 260 -11 Q199 -11 156.5 11 Q114 33 87 70 Q60 107 48 155 Q36 203 36 255 Q36 308 48.5 355.5 Q61 403 88 439 Q115 475 157 496.5 Q199 518 258 518 Q333 518 376.5 487.5 Q420 457 440 409 L340 375 Q335 391 328 406 Q321 421 311 432 Q301 443 288 450 Q275 457 257 457 Q231 457 213 442.5 Q195 428 183 402 Q171 376 165.5 340 Q160 304 160 261 Q160 223 165 185.5 Q170 148 181.5 118.5 Q193 89 212.5 70.5 Q232 52 261 52 Q298 52 316 75.5 Q334 99 343 132 L440 97 Z M201 706 L315 706 L315 602 L201 602 L201 706 Z " />
<glyph glyph-name="ccedilla" unicode="&#xe7;" horiz-adv-x="457" d="M440 97 Q433 80 420.5 61 Q408 42 386.5 26 Q365 10 334 -0.5 Q303 -11 260 -11 Q199 -11 156.5 11 Q114 33 87 70 Q60 107 48 155 Q36 203 36 255 Q36 308 48.5 355.5 Q61 403 88 439 Q115 475 157 496.5 Q199 518 258 518 Q333 518 376.5 487.5 Q420 457 440 409 L340 375 Q335 391 328 406 Q321 421 311 432 Q301 443 288 450 Q275 457 257 457 Q231 457 213 442.5 Q195 428 183 402 Q171 376 165.5 340 Q160 304 160 261 Q160 223 165 185.5 Q170 148 181.5 118.5 Q193 89 212.5 70.5 Q232 52 261 52 Q298 52 316 75.5 Q334 99 343 132 L440 97 Z M174 -141 Q182 -148 197.5 -152.5 Q213 -157 230 -157 Q252 -157 260.5 -148 Q269 -139 269 -125 Q269 -112 260.5 -103.5 Q252 -95 240 -90.5 Q228 -86 215 -84 Q202 -82 192 -82 L223 11 L279 11 L259 -43 Q307 -51 332.5 -72 Q358 -93 358 -127 Q358 -162 331.5 -184 Q305 -206 254 -206 Q221 -206 196 -198 Q171 -190 158 -179 L174 -141 Z " />
<glyph glyph-name="dcaron" unicode="&#x10f;" horiz-adv-x="657" d="M374 65 L372 65 Q362 53 348 40 Q334 27 316 15.5 Q298 4 275.5 -3.5 Q253 -11 225 -11 Q181 -11 146 8.5 Q111 28 86.5 63 Q62 98 49 145.5 Q36 193 36 249 Q36 306 50 355.5 Q64 405 90.5 441 Q117 477 154 497.5 Q191 518 237 518 Q279 518 309.5 503 Q340 488 363 465 L363 750 L477 750 L477 0 L387 0 L374 65 Z M363 397 Q348 418 322 434 Q296 450 264 450 Q210 450 185 399 Q160 348 160 254 Q160 161 185 111.5 Q210 62 261 62 Q293 62 319.5 81 Q346 100 363 126 L363 397 Z M586 630 L540 630 L540 750 L647 750 L647 636 L591 510 L539 510 L586 630 Z " />
<glyph glyph-name="dcroat" unicode="&#x111;" horiz-adv-x="538" d="M234 655 L363 655 L363 750 L477 750 L477 655 L529 655 L529 593 L477 593 L477 0 L387 0 L374 65 L372 65 Q362 53 348 40 Q334 27 316 15.5 Q298 4 275.5 -3.5 Q253 -11 225 -11 Q181 -11 146 8.5 Q111 28 86.5 63 Q62 98 49 145.5 Q36 193 36 249 Q36 306 50 355.5 Q64 405 90.5 441 Q117 477 154 497.5 Q191 518 237 518 Q279 518 309.5 503 Q340 488 363 465 L363 593 L234 593 L234 655 Z M363 397 Q348 418 322 434 Q296 450 264 450 Q210 450 185 399 Q160 348 160 254 Q160 161 185 111.5 Q210 62 261 62 Q293 62 319.5 81 Q346 100 363 126 L363 397 Z " />
<glyph glyph-name="egrave" unicode="&#xe8;" horiz-adv-x="490" d="M455 101 Q446 79 430.5 59 Q415 39 392.5 23.5 Q370 8 339 -1.5 Q308 -11 267 -11 Q204 -11 160.5 10.5 Q117 32 89 69 Q61 106 48.5 154 Q36 202 36 255 Q36 311 49.5 359 Q63 407 90 442.5 Q117 478 157 498 Q197 518 251 518 Q303 518 342 499 Q381 480 406.5 447 Q432 414 444.5 369.5 Q457 325 457 273 L457 244 L158 244 Q159 209 164 174.5 Q169 140 181.5 113 Q194 86 215.5 69 Q237 52 270 52 Q307 52 327 74.5 Q347 97 359 132 L455 101 Z M342 303 Q342 330 337 357.5 Q332 385 321.5 407.5 Q311 430 293.5 444.5 Q276 459 249 459 Q201 459 180.5 415.5 Q160 372 158 303 L342 303 Z M107 728 L243 728 L337 582 L250 582 L107 728 Z " />
<glyph glyph-name="eacute" unicode="&#xe9;" horiz-adv-x="490" d="M455 101 Q446 79 430.5 59 Q415 39 392.5 23.5 Q370 8 339 -1.5 Q308 -11 267 -11 Q204 -11 160.5 10.5 Q117 32 89 69 Q61 106 48.5 154 Q36 202 36 255 Q36 311 49.5 359 Q63 407 90 442.5 Q117 478 157 498 Q197 518 251 518 Q303 518 342 499 Q381 480 406.5 447 Q432 414 444.5 369.5 Q457 325 457 273 L457 244 L158 244 Q159 209 164 174.5 Q169 140 181.5 113 Q194 86 215.5 69 Q237 52 270 52 Q307 52 327 74.5 Q347 97 359 132 L455 101 Z M342 303 Q342 330 337 357.5 Q332 385 321.5 407.5 Q311 430 293.5 444.5 Q276 459 249 459 Q201 459 180.5 415.5 Q160 372 158 303 L342 303 Z M269 728 L405 728 L262 582 L175 582 L269 728 Z " />
<glyph glyph-name="ecircumflex" unicode="&#xea;" horiz-adv-x="490" d="M455 101 Q446 79 430.5 59 Q415 39 392.5 23.5 Q370 8 339 -1.5 Q308 -11 267 -11 Q204 -11 160.5 10.5 Q117 32 89 69 Q61 106 48.5 154 Q36 202 36 255 Q36 311 49.5 359 Q63 407 90 442.5 Q117 478 157 498 Q197 518 251 518 Q303 518 342 499 Q381 480 406.5 447 Q432 414 444.5 369.5 Q457 325 457 273 L457 244 L158 244 Q159 209 164 174.5 Q169 140 181.5 113 Q194 86 215.5 69 Q237 52 270 52 Q307 52 327 74.5 Q347 97 359 132 L455 101 Z M342 303 Q342 330 337 357.5 Q332 385 321.5 407.5 Q311 430 293.5 444.5 Q276 459 249 459 Q201 459 180.5 415.5 Q160 372 158 303 L342 303 Z M185 728 L321 728 L401 582 L326 582 L254 670 L252 670 L181 582 L105 582 L185 728 Z " />
<glyph glyph-name="ecaron" unicode="&#x11b;" horiz-adv-x="490" d="M455 101 Q446 79 430.5 59 Q415 39 392.5 23.5 Q370 8 339 -1.5 Q308 -11 267 -11 Q204 -11 160.5 10.5 Q117 32 89 69 Q61 106 48.5 154 Q36 202 36 255 Q36 311 49.5 359 Q63 407 90 442.5 Q117 478 157 498 Q197 518 251 518 Q303 518 342 499 Q381 480 406.5 447 Q432 414 444.5 369.5 Q457 325 457 273 L457 244 L158 244 Q159 209 164 174.5 Q169 140 181.5 113 Q194 86 215.5 69 Q237 52 270 52 Q307 52 327 74.5 Q347 97 359 132 L455 101 Z M342 303 Q342 330 337 357.5 Q332 385 321.5 407.5 Q311 430 293.5 444.5 Q276 459 249 459 Q201 459 180.5 415.5 Q160 372 158 303 L342 303 Z M107 728 L183 728 L254 640 L256 640 L328 728 L403 728 L323 582 L187 582 L107 728 Z " />
<glyph glyph-name="edieresis" unicode="&#xeb;" horiz-adv-x="490" d="M455 101 Q446 79 430.5 59 Q415 39 392.5 23.5 Q370 8 339 -1.5 Q308 -11 267 -11 Q204 -11 160.5 10.5 Q117 32 89 69 Q61 106 48.5 154 Q36 202 36 255 Q36 311 49.5 359 Q63 407 90 442.5 Q117 478 157 498 Q197 518 251 518 Q303 518 342 499 Q381 480 406.5 447 Q432 414 444.5 369.5 Q457 325 457 273 L457 244 L158 244 Q159 209 164 174.5 Q169 140 181.5 113 Q194 86 215.5 69 Q237 52 270 52 Q307 52 327 74.5 Q347 97 359 132 L455 101 Z M342 303 Q342 330 337 357.5 Q332 385 321.5 407.5 Q311 430 293.5 444.5 Q276 459 249 459 Q201 459 180.5 415.5 Q160 372 158 303 L342 303 Z M107 703 L216 703 L216 598 L107 598 L107 703 Z M293 703 L402 703 L402 598 L293 598 L293 703 Z " />
<glyph glyph-name="emacron" unicode="&#x113;" horiz-adv-x="490" d="M455 101 Q446 79 430.5 59 Q415 39 392.5 23.5 Q370 8 339 -1.5 Q308 -11 267 -11 Q204 -11 160.5 10.5 Q117 32 89 69 Q61 106 48.5 154 Q36 202 36 255 Q36 311 49.5 359 Q63 407 90 442.5 Q117 478 157 498 Q197 518 251 518 Q303 518 342 499 Q381 480 406.5 447 Q432 414 444.5 369.5 Q457 325 457 273 L457 244 L158 244 Q159 209 164 174.5 Q169 140 181.5 113 Q194 86 215.5 69 Q237 52 270 52 Q307 52 327 74.5 Q347 97 359 132 L455 101 Z M342 303 Q342 330 337 357.5 Q332 385 321.5 407.5 Q311 430 293.5 444.5 Q276 459 249 459 Q201 459 180.5 415.5 Q160 372 158 303 L342 303 Z M107 687 L400 687 L400 611 L107 611 L107 687 Z " />
<glyph glyph-name="ebreve" unicode="&#x115;" horiz-adv-x="490" d="M455 101 Q446 79 430.5 59 Q415 39 392.5 23.5 Q370 8 339 -1.5 Q308 -11 267 -11 Q204 -11 160.5 10.5 Q117 32 89 69 Q61 106 48.5 154 Q36 202 36 255 Q36 311 49.5 359 Q63 407 90 442.5 Q117 478 157 498 Q197 518 251 518 Q303 518 342 499 Q381 480 406.5 447 Q432 414 444.5 369.5 Q457 325 457 273 L457 244 L158 244 Q159 209 164 174.5 Q169 140 181.5 113 Q194 86 215.5 69 Q237 52 270 52 Q307 52 327 74.5 Q347 97 359 132 L455 101 Z M342 303 Q342 330 337 357.5 Q332 385 321.5 407.5 Q311 430 293.5 444.5 Q276 459 249 459 Q201 459 180.5 415.5 Q160 372 158 303 L342 303 Z M173 715 Q178 692 196.5 674.5 Q215 657 249 657 Q284 657 302.5 674.5 Q321 692 327 715 L386 715 Q384 691 376 667.5 Q368 644 352 625.5 Q336 607 310.5 595 Q285 583 249 583 Q213 583 187.5 594.5 Q162 606 146 624.5 Q130 643 122 667 Q114 691 113 715 L173 715 Z " />
<glyph glyph-name="edotaccent" unicode="&#x117;" horiz-adv-x="490" d="M455 101 Q446 79 430.5 59 Q415 39 392.5 23.5 Q370 8 339 -1.5 Q308 -11 267 -11 Q204 -11 160.5 10.5 Q117 32 89 69 Q61 106 48.5 154 Q36 202 36 255 Q36 311 49.5 359 Q63 407 90 442.5 Q117 478 157 498 Q197 518 251 518 Q303 518 342 499 Q381 480 406.5 447 Q432 414 444.5 369.5 Q457 325 457 273 L457 244 L158 244 Q159 209 164 174.5 Q169 140 181.5 113 Q194 86 215.5 69 Q237 52 270 52 Q307 52 327 74.5 Q347 97 359 132 L455 101 Z M342 303 Q342 330 337 357.5 Q332 385 321.5 407.5 Q311 430 293.5 444.5 Q276 459 249 459 Q201 459 180.5 415.5 Q160 372 158 303 L342 303 Z M189 706 L303 706 L303 602 L189 602 L189 706 Z " />
<glyph glyph-name="eogonek" unicode="&#x119;" horiz-adv-x="490" d="M422 -148 Q416 -157 405.5 -166.5 Q395 -176 380.5 -184 Q366 -192 347.5 -197.5 Q329 -203 306 -203 Q257 -203 234.5 -180.5 Q212 -158 212 -126 Q212 -68 285 -10 Q281 -11 276 -11 Q271 -11 267 -11 Q204 -11 160.5 10.5 Q117 32 89 69 Q61 106 48.5 154 Q36 202 36 255 Q36 311 49.5 359 Q63 407 90 442.5 Q117 478 157 498 Q197 518 251 518 Q303 518 342 499 Q381 480 406.5 447 Q432 414 444.5 369.5 Q457 325 457 273 L457 244 L158 244 Q159 209 164 174.5 Q169 140 181.5 113 Q194 86 215.5 69 Q237 52 270 52 Q307 52 327 74.5 Q347 97 359 132 L455 101 Q444 76 427 57.5 Q410 39 384 16 Q347 -16 325 -45 Q303 -74 303 -103 Q303 -140 341 -140 Q356 -140 370.5 -134 Q385 -128 396 -117 L422 -148 Z M342 303 Q342 330 337 357.5 Q332 385 321.5 407.5 Q311 430 293.5 444.5 Q276 459 249 459 Q201 459 180.5 415.5 Q160 372 158 303 L342 303 Z " />
<glyph glyph-name="gcircumflex" unicode="&#x11d;" horiz-adv-x="514" d="M108 24 Q84 37 69 55 Q54 73 54 100 Q54 135 77.5 157.5 Q101 180 133 194 Q95 217 74 255 Q53 293 53 342 Q53 382 67 414.5 Q81 447 107.5 470 Q134 493 170.5 505.5 Q207 518 252 518 Q330 518 380 483 Q384 504 393 523 Q402 542 417 557 Q432 572 454 580.5 Q476 589 505 589 L505 487 Q497 489 482 489 Q453 489 437.5 477 Q422 465 416 448 Q452 404 452 341 Q452 301 438 268 Q424 235 398 212 Q372 189 335.5 176 Q299 163 254 163 Q212 163 181 173 Q164 165 152 154 Q140 143 140 129 Q140 118 149 111.5 Q158 105 177.5 100.5 Q197 96 228.5 92 Q260 88 306 82 Q343 77 378.5 70.5 Q414 64 442 50.5 Q470 37 486.5 13.5 Q503 -10 503 -48 Q503 -122 439.5 -160.5 Q376 -199 258 -199 Q140 -199 82.5 -164 Q25 -129 25 -73 Q25 -41 45.5 -16 Q66 9 108 23 L108 24 Z M252 220 Q296 220 318 254 Q340 288 340 342 Q340 395 318 429 Q296 463 252 463 Q209 463 187 429 Q165 395 165 341 Q165 288 187 254 Q209 220 252 220 Z M156 7 Q141 -3 132 -17.5 Q123 -32 123 -53 Q123 -95 161 -118.5 Q199 -142 268 -142 Q329 -142 365.5 -123.5 Q402 -105 402 -73 Q402 -55 390 -44 Q378 -33 357 -26.5 Q336 -20 308.5 -16.5 Q281 -13 250 -9 Q226 -6 202 -2 Q178 2 156 7 Z M189 728 L325 728 L405 582 L330 582 L258 670 L256 670 L185 582 L109 582 L189 728 Z " />
<glyph glyph-name="gbreve" unicode="&#x11f;" horiz-adv-x="514" d="M108 24 Q84 37 69 55 Q54 73 54 100 Q54 135 77.5 157.5 Q101 180 133 194 Q95 217 74 255 Q53 293 53 342 Q53 382 67 414.5 Q81 447 107.5 470 Q134 493 170.5 505.5 Q207 518 252 518 Q330 518 380 483 Q384 504 393 523 Q402 542 417 557 Q432 572 454 580.5 Q476 589 505 589 L505 487 Q497 489 482 489 Q453 489 437.5 477 Q422 465 416 448 Q452 404 452 341 Q452 301 438 268 Q424 235 398 212 Q372 189 335.5 176 Q299 163 254 163 Q212 163 181 173 Q164 165 152 154 Q140 143 140 129 Q140 118 149 111.5 Q158 105 177.5 100.5 Q197 96 228.5 92 Q260 88 306 82 Q343 77 378.5 70.5 Q414 64 442 50.5 Q470 37 486.5 13.5 Q503 -10 503 -48 Q503 -122 439.5 -160.5 Q376 -199 258 -199 Q140 -199 82.5 -164 Q25 -129 25 -73 Q25 -41 45.5 -16 Q66 9 108 23 L108 24 Z M252 220 Q296 220 318 254 Q340 288 340 342 Q340 395 318 429 Q296 463 252 463 Q209 463 187 429 Q165 395 165 341 Q165 288 187 254 Q209 220 252 220 Z M156 7 Q141 -3 132 -17.5 Q123 -32 123 -53 Q123 -95 161 -118.5 Q199 -142 268 -142 Q329 -142 365.5 -123.5 Q402 -105 402 -73 Q402 -55 390 -44 Q378 -33 357 -26.5 Q336 -20 308.5 -16.5 Q281 -13 250 -9 Q226 -6 202 -2 Q178 2 156 7 Z M179 715 Q184 692 202.5 674.5 Q221 657 255 657 Q290 657 308.5 674.5 Q327 692 333 715 L392 715 Q390 691 382 667.5 Q374 644 358 625.5 Q342 607 316.5 595 Q291 583 255 583 Q219 583 193.5 594.5 Q168 606 152 624.5 Q136 643 128 667 Q120 691 119 715 L179 715 Z " />
<glyph glyph-name="gdotaccent" unicode="&#x121;" horiz-adv-x="514" d="M108 24 Q84 37 69 55 Q54 73 54 100 Q54 135 77.5 157.5 Q101 180 133 194 Q95 217 74 255 Q53 293 53 342 Q53 382 67 414.5 Q81 447 107.5 470 Q134 493 170.5 505.5 Q207 518 252 518 Q330 518 380 483 Q384 504 393 523 Q402 542 417 557 Q432 572 454 580.5 Q476 589 505 589 L505 487 Q497 489 482 489 Q453 489 437.5 477 Q422 465 416 448 Q452 404 452 341 Q452 301 438 268 Q424 235 398 212 Q372 189 335.5 176 Q299 163 254 163 Q212 163 181 173 Q164 165 152 154 Q140 143 140 129 Q140 118 149 111.5 Q158 105 177.5 100.5 Q197 96 228.5 92 Q260 88 306 82 Q343 77 378.5 70.5 Q414 64 442 50.5 Q470 37 486.5 13.5 Q503 -10 503 -48 Q503 -122 439.5 -160.5 Q376 -199 258 -199 Q140 -199 82.5 -164 Q25 -129 25 -73 Q25 -41 45.5 -16 Q66 9 108 23 L108 24 Z M252 220 Q296 220 318 254 Q340 288 340 342 Q340 395 318 429 Q296 463 252 463 Q209 463 187 429 Q165 395 165 341 Q165 288 187 254 Q209 220 252 220 Z M156 7 Q141 -3 132 -17.5 Q123 -32 123 -53 Q123 -95 161 -118.5 Q199 -142 268 -142 Q329 -142 365.5 -123.5 Q402 -105 402 -73 Q402 -55 390 -44 Q378 -33 357 -26.5 Q336 -20 308.5 -16.5 Q281 -13 250 -9 Q226 -6 202 -2 Q178 2 156 7 Z M199 706 L313 706 L313 602 L199 602 L199 706 Z " />
<glyph glyph-name="gcommaaccent" unicode="&#x123;" horiz-adv-x="514" d="M108 24 Q84 37 69 55 Q54 73 54 100 Q54 135 77.5 157.5 Q101 180 133 194 Q95 217 74 255 Q53 293 53 342 Q53 382 67 414.5 Q81 447 107.5 470 Q134 493 170.5 505.5 Q207 518 252 518 Q330 518 380 483 Q384 504 393 523 Q402 542 417 557 Q432 572 454 580.5 Q476 589 505 589 L505 487 Q497 489 482 489 Q453 489 437.5 477 Q422 465 416 448 Q452 404 452 341 Q452 301 438 268 Q424 235 398 212 Q372 189 335.5 176 Q299 163 254 163 Q212 163 181 173 Q164 165 152 154 Q140 143 140 129 Q140 118 149 111.5 Q158 105 177.5 100.5 Q197 96 228.5 92 Q260 88 306 82 Q343 77 378.5 70.5 Q414 64 442 50.5 Q470 37 486.5 13.5 Q503 -10 503 -48 Q503 -122 439.5 -160.5 Q376 -199 258 -199 Q140 -199 82.5 -164 Q25 -129 25 -73 Q25 -41 45.5 -16 Q66 9 108 23 L108 24 Z M252 220 Q296 220 318 254 Q340 288 340 342 Q340 395 318 429 Q296 463 252 463 Q209 463 187 429 Q165 395 165 341 Q165 288 187 254 Q209 220 252 220 Z M156 7 Q141 -3 132 -17.5 Q123 -32 123 -53 Q123 -95 161 -118.5 Q199 -142 268 -142 Q329 -142 365.5 -123.5 Q402 -105 402 -73 Q402 -55 390 -44 Q378 -33 357 -26.5 Q336 -20 308.5 -16.5 Q281 -13 250 -9 Q226 -6 202 -2 Q178 2 156 7 Z M199 684 L253 780 L313 780 L266 690 L315 690 L315 587 L199 587 L199 684 Z " />
<glyph glyph-name="hcircumflex" unicode="&#x125;" horiz-adv-x="533" d="M61 750 L175 750 L175 440 Q185 452 199.5 465.5 Q214 479 233 490.5 Q252 502 276 510 Q300 518 329 518 Q394 518 433.5 473.5 Q473 429 473 341 L473 0 L359 0 L359 337 Q359 441 294 441 Q276 441 257.5 433.5 Q239 426 223.5 414.5 Q208 403 195 390 Q182 377 175 366 L175 0 L61 0 L61 750 Z M48 895 L188 895 L266 772 L191 772 L119 843 L117 843 L46 772 L-30 772 L48 895 Z " />
<glyph glyph-name="hbar" unicode="&#x127;" horiz-adv-x="533" d="M9 655 L61 655 L61 750 L175 750 L175 655 L304 655 L304 593 L175 593 L175 440 Q185 452 199.5 465.5 Q214 479 233 490.5 Q252 502 276 510 Q300 518 329 518 Q394 518 433.5 473.5 Q473 429 473 341 L473 0 L359 0 L359 337 Q359 441 294 441 Q276 441 257.5 433.5 Q239 426 223.5 414.5 Q208 403 195 390 Q182 377 175 366 L175 0 L61 0 L61 593 L9 593 L9 655 Z " />
<glyph glyph-name="igrave" unicode="&#xec;" horiz-adv-x="235" d="M61 508 L175 508 L175 0 L61 0 L61 508 Z M-46 728 L90 728 L184 582 L97 582 L-46 728 Z " />
<glyph glyph-name="iacute" unicode="&#xed;" horiz-adv-x="235" d="M61 508 L175 508 L175 0 L61 0 L61 508 Z M143 728 L279 728 L136 582 L49 582 L143 728 Z " />
<glyph glyph-name="icircumflex" unicode="&#xee;" horiz-adv-x="235" d="M61 508 L175 508 L175 0 L61 0 L61 508 Z M50 728 L186 728 L266 582 L191 582 L119 670 L117 670 L46 582 L-30 582 L50 728 Z " />
<glyph glyph-name="itilde" unicode="&#x129;" horiz-adv-x="235" d="M61 508 L175 508 L175 0 L61 0 L61 508 Z M-42 600 Q-41 618 -36 637.5 Q-31 657 -20.5 673 Q-10 689 6.5 699 Q23 709 47 709 Q66 709 84 703.5 Q102 698 119.5 692 Q137 686 152.5 680.5 Q168 675 183 675 Q206 675 212 706 L277 706 Q275 686 269.5 666 Q264 646 254.5 630.5 Q245 615 230.5 605.5 Q216 596 196 596 Q178 596 159 601.5 Q140 607 122 614 Q104 621 87 626.5 Q70 632 56 632 Q28 632 22 600 L-42 600 Z " />
<glyph glyph-name="idieresis" unicode="&#xef;" horiz-adv-x="235" d="M61 508 L175 508 L175 0 L61 0 L61 508 Z M-30 703 L79 703 L79 598 L-30 598 L-30 703 Z M156 703 L265 703 L265 598 L156 598 L156 703 Z " />
<glyph glyph-name="imacron" unicode="&#x12b;" horiz-adv-x="235" d="M61 508 L175 508 L175 0 L61 0 L61 508 Z M-29 687 L264 687 L264 611 L-29 611 L-29 687 Z " />
<glyph glyph-name="ibreve" unicode="&#x12d;" horiz-adv-x="235" d="M61 508 L175 508 L175 0 L61 0 L61 508 Z M41 715 Q46 692 64.5 674.5 Q83 657 117 657 Q152 657 170.5 674.5 Q189 692 195 715 L254 715 Q252 691 244 667.5 Q236 644 220 625.5 Q204 607 178.5 595 Q153 583 117 583 Q81 583 55.5 594.5 Q30 606 14 624.5 Q-2 643 -10 667 Q-18 691 -19 715 L41 715 Z " />
<glyph glyph-name="iogonek" unicode="&#x12f;" horiz-adv-x="235" d="M180 -148 Q174 -157 163.5 -166.5 Q153 -176 138.5 -184 Q124 -192 105.5 -197.5 Q87 -203 64 -203 Q15 -203 -7.5 -180.5 Q-30 -158 -30 -126 Q-30 -57 61 2 L61 508 L175 508 L175 0 Q115 -17 88 -45 Q61 -73 61 -105 Q61 -140 99 -140 Q131 -140 154 -117 L180 -148 Z M61 706 L175 706 L175 602 L61 602 L61 706 Z " />
<glyph glyph-name="dotlessi" unicode="&#x131;" horiz-adv-x="235" d="M61 508 L175 508 L175 0 L61 0 L61 508 Z " />
<glyph glyph-name="ij" unicode="&#x133;" horiz-adv-x="476" d="M61 706 L175 706 L175 602 L61 602 L61 706 Z M61 508 L175 508 L175 0 L61 0 L61 508 Z M211 -121 Q219 -123 229 -124 Q239 -125 247 -125 Q261 -125 271.5 -122.5 Q282 -120 288.5 -112 Q295 -104 298 -90 Q301 -76 301 -52 L301 508 L415 508 L415 -23 Q415 -65 408 -96 Q401 -127 384.5 -148 Q368 -169 340 -179 Q312 -189 270 -189 Q258 -189 239 -187.5 Q220 -186 211 -182 L211 -121 Z M301 706 L415 706 L415 602 L301 602 L301 706 Z " />
<glyph glyph-name="dotlessj" unicode="&#x237;" horiz-adv-x="241" d="M-24 -121 Q-16 -123 -6 -124 Q4 -125 12 -125 Q26 -125 36.5 -122.5 Q47 -120 53.5 -112 Q60 -104 63 -90 Q66 -76 66 -52 L66 508 L180 508 L180 -23 Q180 -65 173 -96 Q166 -127 149.5 -148 Q133 -169 105 -179 Q77 -189 35 -189 Q23 -189 4 -187.5 Q-15 -186 -24 -182 L-24 -121 Z " />
<glyph glyph-name="jcircumflex" unicode="&#x135;" horiz-adv-x="241" d="M-24 -121 Q-16 -123 -6 -124 Q4 -125 12 -125 Q26 -125 36.5 -122.5 Q47 -120 53.5 -112 Q60 -104 63 -90 Q66 -76 66 -52 L66 508 L180 508 L180 -23 Q180 -65 173 -96 Q166 -127 149.5 -148 Q133 -169 105 -179 Q77 -189 35 -189 Q23 -189 4 -187.5 Q-15 -186 -24 -182 L-24 -121 Z M52 728 L188 728 L268 582 L193 582 L121 670 L119 670 L48 582 L-28 582 L52 728 Z " />
<glyph glyph-name="kcommaaccent" unicode="&#x137;" horiz-adv-x="489" d="M61 750 L175 750 L175 286 L177 286 L367 508 L473 508 L308 321 L479 0 L357 0 L231 245 L175 181 L175 0 L61 0 L61 750 Z M237 -157 L186 -157 L186 -54 L302 -54 L302 -152 L247 -249 L188 -249 L237 -157 Z " />
<glyph glyph-name="kgreenlandic" unicode="&#x138;" horiz-adv-x="489" d="M61 508 L175 508 L175 286 L177 286 L367 508 L473 508 L308 321 L479 0 L357 0 L231 245 L175 181 L175 0 L61 0 L61 508 Z " />
<glyph glyph-name="lacute" unicode="&#x13a;" horiz-adv-x="235" d="M61 750 L175 750 L175 0 L61 0 L61 750 Z M97 873 L233 873 L90 750 L3 750 L97 873 Z " />
<glyph glyph-name="lcaron" unicode="&#x13e;" horiz-adv-x="357" d="M61 750 L175 750 L175 0 L61 0 L61 750 Z M286 630 L240 630 L240 750 L347 750 L347 636 L291 510 L239 510 L286 630 Z " />
<glyph glyph-name="lcommaaccent" unicode="&#x13c;" horiz-adv-x="235" d="M61 750 L175 750 L175 0 L61 0 L61 750 Z M110 -157 L59 -157 L59 -54 L175 -54 L175 -152 L120 -249 L61 -249 L110 -157 Z " />
<glyph glyph-name="lslash" unicode="&#x142;" horiz-adv-x="298" d="M92 246 L21 194 L21 271 L92 323 L92 750 L206 750 L206 398 L277 451 L277 373 L206 321 L206 0 L92 0 L92 246 Z " />
<glyph glyph-name="ldot" unicode="&#x140;" horiz-adv-x="374" d="M61 750 L175 750 L175 0 L61 0 L61 750 Z M244 430 L358 430 L358 326 L244 326 L244 430 Z " />
<glyph glyph-name="nacute" unicode="&#x144;" horiz-adv-x="533" d="M61 508 L157 508 L165 431 L167 431 Q176 442 190.5 457 Q205 472 225.5 485.5 Q246 499 271.5 508.5 Q297 518 329 518 Q394 518 433.5 473.5 Q473 429 473 341 L473 0 L359 0 L359 337 Q359 441 294 441 Q276 441 257.5 433.5 Q239 426 223.5 414.5 Q208 403 195 390 Q182 377 175 366 L175 0 L61 0 L61 508 Z M298 728 L434 728 L291 582 L204 582 L298 728 Z " />
<glyph glyph-name="ncaron" unicode="&#x148;" horiz-adv-x="533" d="M61 508 L157 508 L165 431 L167 431 Q176 442 190.5 457 Q205 472 225.5 485.5 Q246 499 271.5 508.5 Q297 518 329 518 Q394 518 433.5 473.5 Q473 429 473 341 L473 0 L359 0 L359 337 Q359 441 294 441 Q276 441 257.5 433.5 Q239 426 223.5 414.5 Q208 403 195 390 Q182 377 175 366 L175 0 L61 0 L61 508 Z M128 728 L204 728 L275 640 L277 640 L349 728 L424 728 L344 582 L208 582 L128 728 Z " />
<glyph glyph-name="ntilde" unicode="&#xf1;" horiz-adv-x="533" d="M61 508 L157 508 L165 431 L167 431 Q176 442 190.5 457 Q205 472 225.5 485.5 Q246 499 271.5 508.5 Q297 518 329 518 Q394 518 433.5 473.5 Q473 429 473 341 L473 0 L359 0 L359 337 Q359 441 294 441 Q276 441 257.5 433.5 Q239 426 223.5 414.5 Q208 403 195 390 Q182 377 175 366 L175 0 L61 0 L61 508 Z M117 600 Q118 618 123 637.5 Q128 657 138.5 673 Q149 689 165.5 699 Q182 709 206 709 Q225 709 243 703.5 Q261 698 278.5 692 Q296 686 311.5 680.5 Q327 675 342 675 Q365 675 371 706 L436 706 Q434 686 428.5 666 Q423 646 413.5 630.5 Q404 615 389.5 605.5 Q375 596 355 596 Q337 596 318 601.5 Q299 607 281 614 Q263 621 246 626.5 Q229 632 215 632 Q187 632 181 600 L117 600 Z " />
<glyph glyph-name="ncommaaccent" unicode="&#x146;" horiz-adv-x="533" d="M61 508 L157 508 L165 431 L167 431 Q176 442 190.5 457 Q205 472 225.5 485.5 Q246 499 271.5 508.5 Q297 518 329 518 Q394 518 433.5 473.5 Q473 429 473 341 L473 0 L359 0 L359 337 Q359 441 294 441 Q276 441 257.5 433.5 Q239 426 223.5 414.5 Q208 403 195 390 Q182 377 175 366 L175 0 L61 0 L61 508 Z M259 -157 L208 -157 L208 -54 L324 -54 L324 -152 L269 -249 L210 -249 L259 -157 Z " />
<glyph glyph-name="napostrophe" unicode="&#x149;" horiz-adv-x="533" d="M61 508 L157 508 L165 431 L167 431 Q176 442 190.5 457 Q205 472 225.5 485.5 Q246 499 271.5 508.5 Q297 518 329 518 Q394 518 433.5 473.5 Q473 429 473 341 L473 0 L359 0 L359 337 Q359 441 294 441 Q276 441 257.5 433.5 Q239 426 223.5 414.5 Q208 403 195 390 Q182 377 175 366 L175 0 L61 0 L61 508 Z M112 660 L61 660 L61 763 L177 763 L177 665 L122 568 L63 568 L112 660 Z " />
<glyph glyph-name="ograve" unicode="&#xf2;" horiz-adv-x="532" d="M266 -11 Q212 -11 169.5 8 Q127 27 97 61.5 Q67 96 51.5 145 Q36 194 36 254 Q36 314 51.5 363 Q67 412 97 446.5 Q127 481 169.5 499.5 Q212 518 266 518 Q320 518 362.5 499.5 Q405 481 435 446.5 Q465 412 480.5 363 Q496 314 496 254 Q496 194 480.5 145 Q465 96 435 61.5 Q405 27 362.5 8 Q320 -11 266 -11 Z M266 50 Q296 50 316.5 66 Q337 82 349 110 Q361 138 366.5 175 Q372 212 372 254 Q372 296 366.5 333 Q361 370 349 397.5 Q337 425 316.5 441.5 Q296 458 266 458 Q236 458 215.5 441.5 Q195 425 183 397 Q171 369 165.5 332 Q160 295 160 254 Q160 212 165.5 175 Q171 138 183 110 Q195 82 215.5 66 Q236 50 266 50 Z M111 728 L247 728 L341 582 L254 582 L111 728 Z " />
<glyph glyph-name="oacute" unicode="&#xf3;" horiz-adv-x="532" d="M266 -11 Q212 -11 169.5 8 Q127 27 97 61.5 Q67 96 51.5 145 Q36 194 36 254 Q36 314 51.5 363 Q67 412 97 446.5 Q127 481 169.5 499.5 Q212 518 266 518 Q320 518 362.5 499.5 Q405 481 435 446.5 Q465 412 480.5 363 Q496 314 496 254 Q496 194 480.5 145 Q465 96 435 61.5 Q405 27 362.5 8 Q320 -11 266 -11 Z M266 50 Q296 50 316.5 66 Q337 82 349 110 Q361 138 366.5 175 Q372 212 372 254 Q372 296 366.5 333 Q361 370 349 397.5 Q337 425 316.5 441.5 Q296 458 266 458 Q236 458 215.5 441.5 Q195 425 183 397 Q171 369 165.5 332 Q160 295 160 254 Q160 212 165.5 175 Q171 138 183 110 Q195 82 215.5 66 Q236 50 266 50 Z M305 728 L441 728 L298 582 L211 582 L305 728 Z " />
<glyph glyph-name="ocircumflex" unicode="&#xf4;" horiz-adv-x="532" d="M266 -11 Q212 -11 169.5 8 Q127 27 97 61.5 Q67 96 51.5 145 Q36 194 36 254 Q36 314 51.5 363 Q67 412 97 446.5 Q127 481 169.5 499.5 Q212 518 266 518 Q320 518 362.5 499.5 Q405 481 435 446.5 Q465 412 480.5 363 Q496 314 496 254 Q496 194 480.5 145 Q465 96 435 61.5 Q405 27 362.5 8 Q320 -11 266 -11 Z M266 50 Q296 50 316.5 66 Q337 82 349 110 Q361 138 366.5 175 Q372 212 372 254 Q372 296 366.5 333 Q361 370 349 397.5 Q337 425 316.5 441.5 Q296 458 266 458 Q236 458 215.5 441.5 Q195 425 183 397 Q171 369 165.5 332 Q160 295 160 254 Q160 212 165.5 175 Q171 138 183 110 Q195 82 215.5 66 Q236 50 266 50 Z M198 728 L334 728 L414 582 L339 582 L267 670 L265 670 L194 582 L118 582 L198 728 Z " />
<glyph glyph-name="otilde" unicode="&#xf5;" horiz-adv-x="532" d="M266 -11 Q212 -11 169.5 8 Q127 27 97 61.5 Q67 96 51.5 145 Q36 194 36 254 Q36 314 51.5 363 Q67 412 97 446.5 Q127 481 169.5 499.5 Q212 518 266 518 Q320 518 362.5 499.5 Q405 481 435 446.5 Q465 412 480.5 363 Q496 314 496 254 Q496 194 480.5 145 Q465 96 435 61.5 Q405 27 362.5 8 Q320 -11 266 -11 Z M266 50 Q296 50 316.5 66 Q337 82 349 110 Q361 138 366.5 175 Q372 212 372 254 Q372 296 366.5 333 Q361 370 349 397.5 Q337 425 316.5 441.5 Q296 458 266 458 Q236 458 215.5 441.5 Q195 425 183 397 Q171 369 165.5 332 Q160 295 160 254 Q160 212 165.5 175 Q171 138 183 110 Q195 82 215.5 66 Q236 50 266 50 Z M106 600 Q107 618 112 637.5 Q117 657 127.5 673 Q138 689 154.5 699 Q171 709 195 709 Q214 709 232 703.5 Q250 698 267.5 692 Q285 686 300.5 680.5 Q316 675 331 675 Q354 675 360 706 L425 706 Q423 686 417.5 666 Q412 646 402.5 630.5 Q393 615 378.5 605.5 Q364 596 344 596 Q326 596 307 601.5 Q288 607 270 614 Q252 621 235 626.5 Q218 632 204 632 Q176 632 170 600 L106 600 Z " />
<glyph glyph-name="odieresis" unicode="&#xf6;" horiz-adv-x="532" d="M266 -11 Q212 -11 169.5 8 Q127 27 97 61.5 Q67 96 51.5 145 Q36 194 36 254 Q36 314 51.5 363 Q67 412 97 446.5 Q127 481 169.5 499.5 Q212 518 266 518 Q320 518 362.5 499.5 Q405 481 435 446.5 Q465 412 480.5 363 Q496 314 496 254 Q496 194 480.5 145 Q465 96 435 61.5 Q405 27 362.5 8 Q320 -11 266 -11 Z M266 50 Q296 50 316.5 66 Q337 82 349 110 Q361 138 366.5 175 Q372 212 372 254 Q372 296 366.5 333 Q361 370 349 397.5 Q337 425 316.5 441.5 Q296 458 266 458 Q236 458 215.5 441.5 Q195 425 183 397 Q171 369 165.5 332 Q160 295 160 254 Q160 212 165.5 175 Q171 138 183 110 Q195 82 215.5 66 Q236 50 266 50 Z M118 703 L227 703 L227 598 L118 598 L118 703 Z M304 703 L413 703 L413 598 L304 598 L304 703 Z " />
<glyph glyph-name="omacron" unicode="&#x14d;" horiz-adv-x="532" d="M266 -11 Q212 -11 169.5 8 Q127 27 97 61.5 Q67 96 51.5 145 Q36 194 36 254 Q36 314 51.5 363 Q67 412 97 446.5 Q127 481 169.5 499.5 Q212 518 266 518 Q320 518 362.5 499.5 Q405 481 435 446.5 Q465 412 480.5 363 Q496 314 496 254 Q496 194 480.5 145 Q465 96 435 61.5 Q405 27 362.5 8 Q320 -11 266 -11 Z M266 50 Q296 50 316.5 66 Q337 82 349 110 Q361 138 366.5 175 Q372 212 372 254 Q372 296 366.5 333 Q361 370 349 397.5 Q337 425 316.5 441.5 Q296 458 266 458 Q236 458 215.5 441.5 Q195 425 183 397 Q171 369 165.5 332 Q160 295 160 254 Q160 212 165.5 175 Q171 138 183 110 Q195 82 215.5 66 Q236 50 266 50 Z M119 687 L412 687 L412 611 L119 611 L119 687 Z " />
<glyph glyph-name="obreve" unicode="&#x14f;" horiz-adv-x="532" d="M266 -11 Q212 -11 169.5 8 Q127 27 97 61.5 Q67 96 51.5 145 Q36 194 36 254 Q36 314 51.5 363 Q67 412 97 446.5 Q127 481 169.5 499.5 Q212 518 266 518 Q320 518 362.5 499.5 Q405 481 435 446.5 Q465 412 480.5 363 Q496 314 496 254 Q496 194 480.5 145 Q465 96 435 61.5 Q405 27 362.5 8 Q320 -11 266 -11 Z M266 50 Q296 50 316.5 66 Q337 82 349 110 Q361 138 366.5 175 Q372 212 372 254 Q372 296 366.5 333 Q361 370 349 397.5 Q337 425 316.5 441.5 Q296 458 266 458 Q236 458 215.5 441.5 Q195 425 183 397 Q171 369 165.5 332 Q160 295 160 254 Q160 212 165.5 175 Q171 138 183 110 Q195 82 215.5 66 Q236 50 266 50 Z M189 715 Q194 692 212.5 674.5 Q231 657 265 657 Q300 657 318.5 674.5 Q337 692 343 715 L402 715 Q400 691 392 667.5 Q384 644 368 625.5 Q352 607 326.5 595 Q301 583 265 583 Q229 583 203.5 594.5 Q178 606 162 624.5 Q146 643 138 667 Q130 691 129 715 L189 715 Z " />
<glyph glyph-name="ohungarumlaut" unicode="&#x151;" horiz-adv-x="532" d="M266 -11 Q212 -11 169.5 8 Q127 27 97 61.5 Q67 96 51.5 145 Q36 194 36 254 Q36 314 51.5 363 Q67 412 97 446.5 Q127 481 169.5 499.5 Q212 518 266 518 Q320 518 362.5 499.5 Q405 481 435 446.5 Q465 412 480.5 363 Q496 314 496 254 Q496 194 480.5 145 Q465 96 435 61.5 Q405 27 362.5 8 Q320 -11 266 -11 Z M266 50 Q296 50 316.5 66 Q337 82 349 110 Q361 138 366.5 175 Q372 212 372 254 Q372 296 366.5 333 Q361 370 349 397.5 Q337 425 316.5 441.5 Q296 458 266 458 Q236 458 215.5 441.5 Q195 425 183 397 Q171 369 165.5 332 Q160 295 160 254 Q160 212 165.5 175 Q171 138 183 110 Q195 82 215.5 66 Q236 50 266 50 Z M193 728 L307 728 L215 582 L139 582 L193 728 Z M361 728 L475 728 L382 582 L307 582 L361 728 Z " />
<glyph glyph-name="oslash" unicode="&#xf8;" horiz-adv-x="532" d="M266 -11 Q209 -11 162 11 L132 -43 L84 -23 L119 39 Q78 73 57 127.5 Q36 182 36 254 Q36 314 51.5 363 Q67 412 97 446.5 Q127 481 169.5 499.5 Q212 518 266 518 Q326 518 372 495 L405 553 L452 532 L415 466 Q496 396 496 254 Q496 194 480.5 145 Q465 96 435 61.5 Q405 27 362.5 8 Q320 -11 266 -11 Z M160 254 Q160 192 174 142 L333 423 Q308 458 266 458 Q236 458 215.5 441.5 Q195 425 183 397 Q171 369 165.5 332 Q160 295 160 254 Z M266 50 Q296 50 316.5 66 Q337 82 349 110 Q361 138 366.5 175 Q372 212 372 254 Q372 283 369 310.5 Q366 338 359 361 L200 81 Q212 67 228 58.5 Q244 50 266 50 Z " />
<glyph glyph-name="oslashacute" unicode="&#x1ff;" horiz-adv-x="532" d="M266 -11 Q209 -11 162 11 L132 -43 L84 -23 L119 39 Q78 73 57 127.5 Q36 182 36 254 Q36 314 51.5 363 Q67 412 97 446.5 Q127 481 169.5 499.5 Q212 518 266 518 Q326 518 372 495 L405 553 L452 532 L415 466 Q496 396 496 254 Q496 194 480.5 145 Q465 96 435 61.5 Q405 27 362.5 8 Q320 -11 266 -11 Z M160 254 Q160 192 174 142 L333 423 Q308 458 266 458 Q236 458 215.5 441.5 Q195 425 183 397 Q171 369 165.5 332 Q160 295 160 254 Z M266 50 Q296 50 316.5 66 Q337 82 349 110 Q361 138 366.5 175 Q372 212 372 254 Q372 283 369 310.5 Q366 338 359 361 L200 81 Q212 67 228 58.5 Q244 50 266 50 Z M289 728 L425 728 L282 582 L195 582 L289 728 Z " />
<glyph glyph-name="oe" unicode="&#x153;" horiz-adv-x="829" d="M792 94 Q783 76 768.5 57 Q754 38 731.5 23 Q709 8 678.5 -1.5 Q648 -11 607 -11 Q547 -11 504.5 9 Q462 29 434 62 Q405 27 362.5 8 Q320 -11 266 -11 Q213 -11 170.5 8 Q128 27 98 61.5 Q68 96 52 145 Q36 194 36 254 Q36 314 52 363 Q68 412 98 446.5 Q128 481 170.5 499.5 Q213 518 266 518 Q320 518 362 499.5 Q404 481 433 446 Q460 480 499 499 Q538 518 591 518 Q643 518 681.5 499 Q720 480 745.5 447 Q771 414 784 369.5 Q797 325 797 273 L797 245 L498 245 Q499 210 504 175.5 Q509 141 521.5 113.5 Q534 86 555.5 69 Q577 52 610 52 Q646 52 666.5 74.5 Q687 97 698 132 L792 94 Z M266 50 Q296 50 316.5 66 Q337 82 349 110 Q361 138 366.5 175 Q372 212 372 254 Q372 296 366.5 333 Q361 370 349 397.5 Q337 425 316.5 441.5 Q296 458 266 458 Q236 458 215.5 441.5 Q195 425 183 397 Q171 369 165.5 332 Q160 295 160 254 Q160 212 165.5 175 Q171 138 183 110 Q195 82 215.5 66 Q236 50 266 50 Z M682 303 Q682 330 677 357.5 Q672 385 661.5 407.5 Q651 430 633 444.5 Q615 459 588 459 Q541 459 520.5 415.5 Q500 372 498 303 L682 303 Z " />
<glyph glyph-name="racute" unicode="&#x155;" horiz-adv-x="332" d="M61 508 L157 508 L165 413 L167 413 Q193 458 227 488 Q261 518 313 518 L313 400 Q305 402 288 402 Q220 402 175 350 L175 0 L61 0 L61 508 Z M191 728 L327 728 L184 582 L97 582 L191 728 Z " />
<glyph glyph-name="rcaron" unicode="&#x159;" horiz-adv-x="332" d="M61 508 L157 508 L165 413 L167 413 Q193 458 227 488 Q261 518 313 518 L313 400 Q305 402 288 402 Q220 402 175 350 L175 0 L61 0 L61 508 Z M39 728 L115 728 L186 640 L188 640 L260 728 L335 728 L255 582 L119 582 L39 728 Z " />
<glyph glyph-name="rcommaaccent" unicode="&#x157;" horiz-adv-x="332" d="M61 508 L157 508 L165 413 L167 413 Q193 458 227 488 Q261 518 313 518 L313 400 Q305 402 288 402 Q220 402 175 350 L175 0 L61 0 L61 508 Z M111 -157 L60 -157 L60 -54 L176 -54 L176 -152 L121 -249 L62 -249 L111 -157 Z " />
<glyph glyph-name="sacute" unicode="&#x15b;" horiz-adv-x="432" d="M109 141 Q113 127 121 111 Q129 95 141 81.5 Q153 68 170.5 59.5 Q188 51 212 51 Q244 51 265 66 Q286 81 286 115 Q286 140 271.5 158 Q257 176 234.5 190 Q212 204 184.5 216.5 Q157 229 131 243 Q113 253 96.5 265 Q80 277 67.5 292.5 Q55 308 47.5 327.5 Q40 347 40 372 Q40 437 87 477.5 Q134 518 219 518 Q261 518 292 508.5 Q323 499 344 484.5 Q365 470 378 452.5 Q391 435 397 420 L302 390 Q300 397 294 409 Q288 421 277.5 431.5 Q267 442 251.5 450 Q236 458 214 458 Q185 458 165 443 Q145 428 145 397 Q145 376 157.5 360.5 Q170 345 189.5 332.5 Q209 320 233.5 309 Q258 298 283 285 Q305 274 325 261 Q345 248 360.5 230.5 Q376 213 385.5 191 Q395 169 395 141 Q395 105 381.5 76.5 Q368 48 343.5 28.5 Q319 9 285 -1 Q251 -11 210 -11 Q166 -11 133 -1.5 Q100 8 76.5 24.5 Q53 41 39 62 Q25 83 18 106 L109 141 Z M238 728 L374 728 L231 582 L144 582 L238 728 Z " />
<glyph glyph-name="scircumflex" unicode="&#x15d;" horiz-adv-x="432" d="M109 141 Q113 127 121 111 Q129 95 141 81.5 Q153 68 170.5 59.5 Q188 51 212 51 Q244 51 265 66 Q286 81 286 115 Q286 140 271.5 158 Q257 176 234.5 190 Q212 204 184.5 216.5 Q157 229 131 243 Q113 253 96.5 265 Q80 277 67.5 292.5 Q55 308 47.5 327.5 Q40 347 40 372 Q40 437 87 477.5 Q134 518 219 518 Q261 518 292 508.5 Q323 499 344 484.5 Q365 470 378 452.5 Q391 435 397 420 L302 390 Q300 397 294 409 Q288 421 277.5 431.5 Q267 442 251.5 450 Q236 458 214 458 Q185 458 165 443 Q145 428 145 397 Q145 376 157.5 360.5 Q170 345 189.5 332.5 Q209 320 233.5 309 Q258 298 283 285 Q305 274 325 261 Q345 248 360.5 230.5 Q376 213 385.5 191 Q395 169 395 141 Q395 105 381.5 76.5 Q368 48 343.5 28.5 Q319 9 285 -1 Q251 -11 210 -11 Q166 -11 133 -1.5 Q100 8 76.5 24.5 Q53 41 39 62 Q25 83 18 106 L109 141 Z M150 728 L286 728 L366 582 L291 582 L219 670 L217 670 L146 582 L70 582 L150 728 Z " />
<glyph glyph-name="scaron" unicode="&#x161;" horiz-adv-x="432" d="M109 141 Q113 127 121 111 Q129 95 141 81.5 Q153 68 170.5 59.5 Q188 51 212 51 Q244 51 265 66 Q286 81 286 115 Q286 140 271.5 158 Q257 176 234.5 190 Q212 204 184.5 216.5 Q157 229 131 243 Q113 253 96.5 265 Q80 277 67.5 292.5 Q55 308 47.5 327.5 Q40 347 40 372 Q40 437 87 477.5 Q134 518 219 518 Q261 518 292 508.5 Q323 499 344 484.5 Q365 470 378 452.5 Q391 435 397 420 L302 390 Q300 397 294 409 Q288 421 277.5 431.5 Q267 442 251.5 450 Q236 458 214 458 Q185 458 165 443 Q145 428 145 397 Q145 376 157.5 360.5 Q170 345 189.5 332.5 Q209 320 233.5 309 Q258 298 283 285 Q305 274 325 261 Q345 248 360.5 230.5 Q376 213 385.5 191 Q395 169 395 141 Q395 105 381.5 76.5 Q368 48 343.5 28.5 Q319 9 285 -1 Q251 -11 210 -11 Q166 -11 133 -1.5 Q100 8 76.5 24.5 Q53 41 39 62 Q25 83 18 106 L109 141 Z M68 728 L144 728 L215 640 L217 640 L289 728 L364 728 L284 582 L148 582 L68 728 Z " />
<glyph glyph-name="scedilla" unicode="&#x15f;" horiz-adv-x="432" d="M132 -141 Q140 -148 155.5 -152.5 Q171 -157 188 -157 Q210 -157 218.5 -148 Q227 -139 227 -125 Q227 -112 218.5 -103.5 Q210 -95 198 -90.5 Q186 -86 173 -84 Q160 -82 150 -82 L174 -9 Q152 -7 133 -1 Q100 8 76.5 24.5 Q53 41 39 62 Q25 83 18 106 L109 141 Q113 127 121 111 Q129 95 141 81.5 Q153 68 170.5 59.5 Q188 51 212 51 Q244 51 265 66 Q286 81 286 115 Q286 140 271.5 158 Q257 176 234.5 190 Q212 204 184.5 216.5 Q157 229 131 243 Q113 253 96.5 265 Q80 277 67.5 292.5 Q55 308 47.5 327.5 Q40 347 40 372 Q40 437 87 477.5 Q134 518 219 518 Q261 518 292 508.5 Q323 499 344 484.5 Q365 470 378 452.5 Q391 435 397 420 L302 390 Q300 397 294 409 Q288 421 277.5 431.5 Q267 442 251.5 450 Q236 458 214 458 Q185 458 165 443 Q145 428 145 397 Q145 376 157.5 360.5 Q170 345 189.5 332.5 Q209 320 233.5 309 Q258 298 283 285 Q305 274 325 261 Q345 248 360.5 230.5 Q376 213 385.5 191 Q395 169 395 141 Q395 105 381.5 76.5 Q368 48 343.5 28.5 Q319 9 285 -1 Q259 -8 229 -10 L217 -43 Q265 -51 290.5 -72 Q316 -93 316 -127 Q316 -162 289.5 -184 Q263 -206 212 -206 Q179 -206 154 -198 Q129 -190 116 -179 L132 -141 Z " />
<glyph glyph-name="scommaaccent" unicode="&#x219;" horiz-adv-x="432" d="M109 141 Q113 127 121 111 Q129 95 141 81.5 Q153 68 170.5 59.5 Q188 51 212 51 Q244 51 265 66 Q286 81 286 115 Q286 140 271.5 158 Q257 176 234.5 190 Q212 204 184.5 216.5 Q157 229 131 243 Q113 253 96.5 265 Q80 277 67.5 292.5 Q55 308 47.5 327.5 Q40 347 40 372 Q40 437 87 477.5 Q134 518 219 518 Q261 518 292 508.5 Q323 499 344 484.5 Q365 470 378 452.5 Q391 435 397 420 L302 390 Q300 397 294 409 Q288 421 277.5 431.5 Q267 442 251.5 450 Q236 458 214 458 Q185 458 165 443 Q145 428 145 397 Q145 376 157.5 360.5 Q170 345 189.5 332.5 Q209 320 233.5 309 Q258 298 283 285 Q305 274 325 261 Q345 248 360.5 230.5 Q376 213 385.5 191 Q395 169 395 141 Q395 105 381.5 76.5 Q368 48 343.5 28.5 Q319 9 285 -1 Q251 -11 210 -11 Q166 -11 133 -1.5 Q100 8 76.5 24.5 Q53 41 39 62 Q25 83 18 106 L109 141 Z M212 -157 L161 -157 L161 -54 L277 -54 L277 -152 L222 -249 L163 -249 L212 -157 Z " />
<glyph glyph-name="germandbls" unicode="&#xdf;" horiz-adv-x="601" d="M89 444 L16 444 L16 507 L89 507 L89 561 Q89 615 103.5 653 Q118 691 145 715 Q172 739 210 750 Q248 761 295 761 Q345 761 384.5 749 Q424 737 451 716.5 Q478 696 492 667.5 Q506 639 506 606 Q506 564 489 535.5 Q472 507 451 485 Q430 463 413 443 Q396 423 396 399 Q396 381 409.5 365.5 Q423 350 443.5 333.5 Q464 317 487.5 298 Q511 279 531.5 256.5 Q552 234 565.5 205 Q579 176 579 140 Q579 70 527.5 29.5 Q476 -11 390 -11 Q370 -11 351 -9 Q332 -7 315.5 -4 Q299 -1 287.5 2.5 Q276 6 272 9 L272 89 Q278 81 290.5 73.5 Q303 66 319 60.5 Q335 55 352.5 51.5 Q370 48 387 48 Q427 48 447 67 Q467 86 467 118 Q467 145 453.5 166.5 Q440 188 420 207 Q400 226 376 244 Q352 262 332 282 Q312 302 298.5 325 Q285 348 285 377 Q285 410 302 433.5 Q319 457 339.5 480.5 Q360 504 377 531.5 Q394 559 394 600 Q394 646 367.5 672 Q341 698 299 698 Q276 698 258.5 691.5 Q241 685 228.5 668.5 Q216 652 209.5 623 Q203 594 203 550 L203 0 L89 0 L89 444 Z " />
<glyph glyph-name="tcaron" unicode="&#x165;" horiz-adv-x="369" d="M87 443 L16 443 L16 508 L92 508 L92 634 L201 634 L201 508 L304 508 L304 443 L201 443 L201 134 Q201 92 212.5 75 Q224 58 257 58 Q273 58 286.5 61.5 Q300 65 307 69 L307 0 Q294 -5 275 -8 Q256 -11 225 -11 Q184 -11 157.5 -2 Q131 7 115 25 Q99 43 93 71 Q87 99 87 138 L87 443 Z M308 679 L262 679 L262 799 L369 799 L369 685 L313 559 L261 559 L308 679 Z " />
<glyph glyph-name="tcommaaccent" unicode="&#x163;" horiz-adv-x="328" d="M87 443 L16 443 L16 508 L92 508 L92 634 L201 634 L201 508 L304 508 L304 443 L201 443 L201 134 Q201 92 212.5 75 Q224 58 257 58 Q273 58 286.5 61.5 Q300 65 307 69 L307 0 Q294 -5 275 -8 Q256 -11 225 -11 Q184 -11 157.5 -2 Q131 7 115 25 Q99 43 93 71 Q87 99 87 138 L87 443 Z M120 -141 Q128 -148 143.5 -152.5 Q159 -157 176 -157 Q198 -157 206.5 -148 Q215 -139 215 -125 Q215 -112 206.5 -103.5 Q198 -95 186 -90.5 Q174 -86 161 -84 Q148 -82 138 -82 L169 11 L225 11 L205 -43 Q253 -51 278.5 -72 Q304 -93 304 -127 Q304 -162 277.5 -184 Q251 -206 200 -206 Q167 -206 142 -198 Q117 -190 104 -179 L120 -141 Z " />
<glyph glyph-name="uni021B" unicode="&#x21b;" horiz-adv-x="328" d="M87 443 L16 443 L16 508 L92 508 L92 634 L201 634 L201 508 L304 508 L304 443 L201 443 L201 134 Q201 92 212.5 75 Q224 58 257 58 Q273 58 286.5 61.5 Q300 65 307 69 L307 0 Q294 -5 275 -8 Q256 -11 225 -11 Q184 -11 157.5 -2 Q131 7 115 25 Q99 43 93 71 Q87 99 87 138 L87 443 Z M195 -157 L144 -157 L144 -54 L260 -54 L260 -152 L205 -249 L146 -249 L195 -157 Z " />
<glyph glyph-name="tbar" unicode="&#x167;" horiz-adv-x="328" d="M16 324 L87 324 L87 443 L16 443 L16 508 L92 508 L92 634 L201 634 L201 508 L304 508 L304 443 L201 443 L201 324 L304 324 L304 259 L201 259 L201 134 Q201 92 212.5 75 Q224 58 257 58 Q273 58 286.5 61.5 Q300 65 307 69 L307 0 Q297 -3 276.5 -7 Q256 -11 225 -11 Q184 -11 157.5 -2 Q131 7 115 25 Q99 43 93 71 Q87 99 87 138 L87 259 L16 259 L16 324 Z " />
<glyph glyph-name="ugrave" unicode="&#xf9;" horiz-adv-x="525" d="M60 508 L174 508 L174 175 Q174 115 192 92.5 Q210 70 244 70 Q271 70 300 85 Q329 100 351 127 L351 508 L464 508 L464 0 L375 0 L361 65 L360 65 Q347 52 330.5 38.5 Q314 25 294 14 Q274 3 250.5 -4 Q227 -11 200 -11 Q132 -11 96 33.5 Q60 78 60 159 L60 508 Z M102 728 L238 728 L332 582 L245 582 L102 728 Z " />
<glyph glyph-name="uacute" unicode="&#xfa;" horiz-adv-x="525" d="M60 508 L174 508 L174 175 Q174 115 192 92.5 Q210 70 244 70 Q271 70 300 85 Q329 100 351 127 L351 508 L464 508 L464 0 L375 0 L361 65 L360 65 Q347 52 330.5 38.5 Q314 25 294 14 Q274 3 250.5 -4 Q227 -11 200 -11 Q132 -11 96 33.5 Q60 78 60 159 L60 508 Z M295 728 L431 728 L288 582 L201 582 L295 728 Z " />
<glyph glyph-name="ucircumflex" unicode="&#xfb;" horiz-adv-x="525" d="M60 508 L174 508 L174 175 Q174 115 192 92.5 Q210 70 244 70 Q271 70 300 85 Q329 100 351 127 L351 508 L464 508 L464 0 L375 0 L361 65 L360 65 Q347 52 330.5 38.5 Q314 25 294 14 Q274 3 250.5 -4 Q227 -11 200 -11 Q132 -11 96 33.5 Q60 78 60 159 L60 508 Z M196 728 L332 728 L412 582 L337 582 L265 670 L263 670 L192 582 L116 582 L196 728 Z " />
<glyph glyph-name="utilde" unicode="&#x169;" horiz-adv-x="525" d="M60 508 L174 508 L174 175 Q174 115 192 92.5 Q210 70 244 70 Q271 70 300 85 Q329 100 351 127 L351 508 L464 508 L464 0 L375 0 L361 65 L360 65 Q347 52 330.5 38.5 Q314 25 294 14 Q274 3 250.5 -4 Q227 -11 200 -11 Q132 -11 96 33.5 Q60 78 60 159 L60 508 Z M106 600 Q107 618 112 637.5 Q117 657 127.5 673 Q138 689 154.5 699 Q171 709 195 709 Q214 709 232 703.5 Q250 698 267.5 692 Q285 686 300.5 680.5 Q316 675 331 675 Q354 675 360 706 L425 706 Q423 686 417.5 666 Q412 646 402.5 630.5 Q393 615 378.5 605.5 Q364 596 344 596 Q326 596 307 601.5 Q288 607 270 614 Q252 621 235 626.5 Q218 632 204 632 Q176 632 170 600 L106 600 Z " />
<glyph glyph-name="udieresis" unicode="&#xfc;" horiz-adv-x="525" d="M60 508 L174 508 L174 175 Q174 115 192 92.5 Q210 70 244 70 Q271 70 300 85 Q329 100 351 127 L351 508 L464 508 L464 0 L375 0 L361 65 L360 65 Q347 52 330.5 38.5 Q314 25 294 14 Q274 3 250.5 -4 Q227 -11 200 -11 Q132 -11 96 33.5 Q60 78 60 159 L60 508 Z M117 703 L226 703 L226 598 L117 598 L117 703 Z M303 703 L412 703 L412 598 L303 598 L303 703 Z " />
<glyph glyph-name="umacron" unicode="&#x16b;" horiz-adv-x="525" d="M60 508 L174 508 L174 175 Q174 115 192 92.5 Q210 70 244 70 Q271 70 300 85 Q329 100 351 127 L351 508 L464 508 L464 0 L375 0 L361 65 L360 65 Q347 52 330.5 38.5 Q314 25 294 14 Q274 3 250.5 -4 Q227 -11 200 -11 Q132 -11 96 33.5 Q60 78 60 159 L60 508 Z M118 687 L411 687 L411 611 L118 611 L118 687 Z " />
<glyph glyph-name="ubreve" unicode="&#x16d;" horiz-adv-x="525" d="M60 508 L174 508 L174 175 Q174 115 192 92.5 Q210 70 244 70 Q271 70 300 85 Q329 100 351 127 L351 508 L464 508 L464 0 L375 0 L361 65 L360 65 Q347 52 330.5 38.5 Q314 25 294 14 Q274 3 250.5 -4 Q227 -11 200 -11 Q132 -11 96 33.5 Q60 78 60 159 L60 508 Z M189 715 Q194 692 212.5 674.5 Q231 657 265 657 Q300 657 318.5 674.5 Q337 692 343 715 L402 715 Q400 691 392 667.5 Q384 644 368 625.5 Q352 607 326.5 595 Q301 583 265 583 Q229 583 203.5 594.5 Q178 606 162 624.5 Q146 643 138 667 Q130 691 129 715 L189 715 Z " />
<glyph glyph-name="uring" unicode="&#x16f;" horiz-adv-x="525" d="M60 508 L174 508 L174 175 Q174 115 192 92.5 Q210 70 244 70 Q271 70 300 85 Q329 100 351 127 L351 508 L464 508 L464 0 L375 0 L361 65 L360 65 Q347 52 330.5 38.5 Q314 25 294 14 Q274 3 250.5 -4 Q227 -11 200 -11 Q132 -11 96 33.5 Q60 78 60 159 L60 508 Z M155 672 Q155 719 186 747.5 Q217 776 264 776 Q312 776 342.5 747.5 Q373 719 373 672 Q373 626 342.5 597.5 Q312 569 264 569 Q216 569 185.5 597.5 Q155 626 155 672 Z M264 613 Q290 613 306.5 629.5 Q323 646 323 672 Q323 698 306.5 715 Q290 732 264 732 Q238 732 222 715 Q206 698 206 672 Q206 646 222 629.5 Q238 613 264 613 Z " />
<glyph glyph-name="uhungarumlaut" unicode="&#x171;" horiz-adv-x="525" d="M60 508 L174 508 L174 175 Q174 115 192 92.5 Q210 70 244 70 Q271 70 300 85 Q329 100 351 127 L351 508 L464 508 L464 0 L375 0 L361 65 L360 65 Q347 52 330.5 38.5 Q314 25 294 14 Q274 3 250.5 -4 Q227 -11 200 -11 Q132 -11 96 33.5 Q60 78 60 159 L60 508 Z M186 728 L300 728 L208 582 L132 582 L186 728 Z M354 728 L468 728 L375 582 L300 582 L354 728 Z " />
<glyph glyph-name="uogonek" unicode="&#x173;" horiz-adv-x="525" d="M474 -148 Q468 -157 457.5 -166.5 Q447 -176 432.5 -184 Q418 -192 399.5 -197.5 Q381 -203 358 -203 Q309 -203 286.5 -180.5 Q264 -158 264 -126 Q264 -91 290 -56.5 Q316 -22 373 9 L361 65 L360 65 Q347 52 330.5 38.5 Q314 25 294 14 Q274 3 250.5 -4 Q227 -11 200 -11 Q132 -11 96 33.5 Q60 78 60 159 L60 508 L174 508 L174 175 Q174 115 192 92.5 Q210 70 244 70 Q271 70 300 85 Q329 100 351 127 L351 508 L464 508 L464 0 Q412 -19 383.5 -45.5 Q355 -72 355 -103 Q355 -140 393 -140 Q408 -140 422.5 -134 Q437 -128 448 -117 L474 -148 Z " />
<glyph glyph-name="wgrave" unicode="&#x1e81;" horiz-adv-x="712" d="M25 508 L147 508 L205 249 Q215 204 221 170 Q227 136 231 110 L233 110 Q238 135 243 168.5 Q248 202 259 247 L317 508 L434 508 L488 247 Q498 201 503 169 Q508 137 512 111 L514 111 Q519 138 525 170 Q531 202 539 240 L596 508 L688 508 L561 0 L438 0 L391 219 Q378 283 372 319.5 Q366 356 363 377 L361 377 Q358 357 351 319.5 Q344 282 329 217 L279 0 L155 0 L25 508 Z M201 728 L337 728 L431 582 L344 582 L201 728 Z " />
<glyph glyph-name="wacute" unicode="&#x1e83;" horiz-adv-x="712" d="M25 508 L147 508 L205 249 Q215 204 221 170 Q227 136 231 110 L233 110 Q238 135 243 168.5 Q248 202 259 247 L317 508 L434 508 L488 247 Q498 201 503 169 Q508 137 512 111 L514 111 Q519 138 525 170 Q531 202 539 240 L596 508 L688 508 L561 0 L438 0 L391 219 Q378 283 372 319.5 Q366 356 363 377 L361 377 Q358 357 351 319.5 Q344 282 329 217 L279 0 L155 0 L25 508 Z M410 728 L546 728 L403 582 L316 582 L410 728 Z " />
<glyph glyph-name="wcircumflex" unicode="&#x175;" horiz-adv-x="712" d="M25 508 L147 508 L205 249 Q215 204 221 170 Q227 136 231 110 L233 110 Q238 135 243 168.5 Q248 202 259 247 L317 508 L434 508 L488 247 Q498 201 503 169 Q508 137 512 111 L514 111 Q519 138 525 170 Q531 202 539 240 L596 508 L688 508 L561 0 L438 0 L391 219 Q378 283 372 319.5 Q366 356 363 377 L361 377 Q358 357 351 319.5 Q344 282 329 217 L279 0 L155 0 L25 508 Z M307 728 L443 728 L523 582 L448 582 L376 670 L374 670 L303 582 L227 582 L307 728 Z " />
<glyph glyph-name="wdieresis" unicode="&#x1e85;" horiz-adv-x="712" d="M25 508 L147 508 L205 249 Q215 204 221 170 Q227 136 231 110 L233 110 Q238 135 243 168.5 Q248 202 259 247 L317 508 L434 508 L488 247 Q498 201 503 169 Q508 137 512 111 L514 111 Q519 138 525 170 Q531 202 539 240 L596 508 L688 508 L561 0 L438 0 L391 219 Q378 283 372 319.5 Q366 356 363 377 L361 377 Q358 357 351 319.5 Q344 282 329 217 L279 0 L155 0 L25 508 Z M228 703 L337 703 L337 598 L228 598 L228 703 Z M414 703 L523 703 L523 598 L414 598 L414 703 Z " />
<glyph glyph-name="ygrave" unicode="&#x1ef3;" horiz-adv-x="458" d="M40 -105 Q47 -107 62.5 -108 Q78 -109 90 -109 Q110 -109 125 -105 Q140 -101 152 -88 Q164 -75 175 -51.5 Q186 -28 198 10 L20 508 L142 508 L209 299 Q224 253 235 216.5 Q246 180 251 154 L254 154 Q260 184 268 217 Q276 250 290 297 L352 508 L441 508 L269 -25 Q254 -73 238.5 -104.5 Q223 -136 203.5 -154.5 Q184 -173 158.5 -181 Q133 -189 97 -189 Q77 -189 62.5 -188 Q48 -187 40 -185 L40 -105 Z M80 728 L216 728 L310 582 L223 582 L80 728 Z " />
<glyph glyph-name="yacute" unicode="&#xfd;" horiz-adv-x="458" d="M40 -105 Q47 -107 62.5 -108 Q78 -109 90 -109 Q110 -109 125 -105 Q140 -101 152 -88 Q164 -75 175 -51.5 Q186 -28 198 10 L20 508 L142 508 L209 299 Q224 253 235 216.5 Q246 180 251 154 L254 154 Q260 184 268 217 Q276 250 290 297 L352 508 L441 508 L269 -25 Q254 -73 238.5 -104.5 Q223 -136 203.5 -154.5 Q184 -173 158.5 -181 Q133 -189 97 -189 Q77 -189 62.5 -188 Q48 -187 40 -185 L40 -105 Z M277 728 L413 728 L270 582 L183 582 L277 728 Z " />
<glyph glyph-name="ycircumflex" unicode="&#x177;" horiz-adv-x="458" d="M40 -105 Q47 -107 62.5 -108 Q78 -109 90 -109 Q110 -109 125 -105 Q140 -101 152 -88 Q164 -75 175 -51.5 Q186 -28 198 10 L20 508 L142 508 L209 299 Q224 253 235 216.5 Q246 180 251 154 L254 154 Q260 184 268 217 Q276 250 290 297 L352 508 L441 508 L269 -25 Q254 -73 238.5 -104.5 Q223 -136 203.5 -154.5 Q184 -173 158.5 -181 Q133 -189 97 -189 Q77 -189 62.5 -188 Q48 -187 40 -185 L40 -105 Z M175 728 L311 728 L391 582 L316 582 L244 670 L242 670 L171 582 L95 582 L175 728 Z " />
<glyph glyph-name="ydieresis" unicode="&#xff;" horiz-adv-x="458" d="M40 -105 Q47 -107 62.5 -108 Q78 -109 90 -109 Q110 -109 125 -105 Q140 -101 152 -88 Q164 -75 175 -51.5 Q186 -28 198 10 L20 508 L142 508 L209 299 Q224 253 235 216.5 Q246 180 251 154 L254 154 Q260 184 268 217 Q276 250 290 297 L352 508 L441 508 L269 -25 Q254 -73 238.5 -104.5 Q223 -136 203.5 -154.5 Q184 -173 158.5 -181 Q133 -189 97 -189 Q77 -189 62.5 -188 Q48 -187 40 -185 L40 -105 Z M92 703 L201 703 L201 598 L92 598 L92 703 Z M278 703 L387 703 L387 598 L278 598 L278 703 Z " />
<glyph glyph-name="zacute" unicode="&#x17a;" horiz-adv-x="439" d="M23 50 L277 443 L41 443 L41 508 L412 508 L412 457 L157 65 L416 65 L416 0 L23 0 L23 50 Z M253 728 L389 728 L246 582 L159 582 L253 728 Z " />
<glyph glyph-name="zcaron" unicode="&#x17e;" horiz-adv-x="439" d="M23 50 L277 443 L41 443 L41 508 L412 508 L412 457 L157 65 L416 65 L416 0 L23 0 L23 50 Z M92 728 L168 728 L239 640 L241 640 L313 728 L388 728 L308 582 L172 582 L92 728 Z " />
<glyph glyph-name="zdotaccent" unicode="&#x17c;" horiz-adv-x="439" d="M23 50 L277 443 L41 443 L41 508 L412 508 L412 457 L157 65 L416 65 L416 0 L23 0 L23 50 Z M182 706 L296 706 L296 602 L182 602 L182 706 Z " />
<glyph glyph-name="eng" unicode="&#x14b;" horiz-adv-x="533" d="M61 508 L157 508 L165 431 L167 431 Q176 442 190.5 457 Q205 472 225.5 485.5 Q246 499 271.5 508.5 Q297 518 329 518 Q394 518 433.5 473.5 Q473 429 473 341 L473 -19 Q473 -63 466 -95 Q459 -127 442 -148 Q425 -169 396 -179 Q367 -189 324 -189 Q319 -189 311.5 -188.5 Q304 -188 296 -187.5 Q288 -187 280.5 -185.5 Q273 -184 269 -182 L269 -124 Q277 -126 287 -127 Q297 -128 305 -128 Q334 -128 346.5 -115.5 Q359 -103 359 -58 L359 337 Q359 441 294 441 Q276 441 257.5 433.5 Q239 426 223.5 414.5 Q208 403 195 390 Q182 377 175 366 L175 0 L61 0 L61 508 Z " />
<glyph glyph-name="eth" unicode="&#xf0;" horiz-adv-x="527" d="M186 616 L284 637 Q260 677 239 699.5 Q218 722 209 730 L321 759 Q336 746 355.5 722 Q375 698 395 663 L486 684 L498 631 L420 614 Q448 554 467 475.5 Q486 397 486 300 Q486 144 429.5 66.5 Q373 -11 266 -11 Q213 -11 170.5 7.5 Q128 26 98 60.5 Q68 95 52 144 Q36 193 36 253 Q36 313 51.5 360.5 Q67 408 93.5 440.5 Q120 473 156.5 490 Q193 507 235 507 Q275 507 303 493 Q331 479 352 462 Q343 499 332 530.5 Q321 562 310 588 L198 563 L186 616 Z M365 386 Q360 393 350.5 402.5 Q341 412 328.5 420 Q316 428 299.5 433.5 Q283 439 263 439 Q234 439 214 425.5 Q194 412 182 387.5 Q170 363 165 329 Q160 295 160 253 Q160 211 165.5 174 Q171 137 183 109 Q195 81 215.5 64.5 Q236 48 266 48 Q296 48 316.5 64.5 Q337 81 349 111 Q361 141 366.5 182 Q372 223 372 273 Q372 303 370.5 331.5 Q369 360 365 386 Z " />
<glyph glyph-name="thorn" unicode="&#xfe;" horiz-adv-x="538" d="M61 750 L175 750 L175 454 Q195 477 228.5 497.5 Q262 518 311 518 Q356 518 391 498.5 Q426 479 451 444.5 Q476 410 489 362 Q502 314 502 257 Q502 200 488 151 Q474 102 448 66 Q422 30 385 9.5 Q348 -11 302 -11 Q263 -11 231 3 Q199 17 175 40 L175 -187 L61 -187 L61 750 Z M175 115 Q189 92 215.5 74.5 Q242 57 275 57 Q329 57 353.5 107 Q378 157 378 251 Q378 347 353 396.5 Q328 446 277 446 Q245 446 218.5 427.5 Q192 409 175 383 L175 115 Z " />
<glyph glyph-name="longs" unicode="&#x17f;" horiz-adv-x="321" d="M89 443 L16 443 L16 508 L89 508 L89 587 Q89 682 132 721.5 Q175 761 253 761 Q276 761 292.5 758 Q309 755 315 753 L315 683 Q306 689 291 692 Q276 695 262 695 Q249 695 238.5 692 Q228 689 220 680.5 Q212 672 207.5 656 Q203 640 203 614 L203 0 L89 0 L89 443 Z " />
<glyph glyph-name="ff" unicode="&#xfb00;" horiz-adv-x="603" d="M89 444 L16 444 L16 508 L89 508 L89 576 Q89 670 130.5 710 Q172 750 249 750 Q273 750 289.5 747.5 Q306 745 312 743 L312 673 Q302 678 287.5 681 Q273 684 261 684 Q235 684 219 668.5 Q203 653 203 604 L203 508 L371 508 L371 587 Q371 682 414 721.5 Q457 761 535 761 Q558 761 574.5 758 Q591 755 597 753 L597 683 Q588 689 572.5 692 Q557 695 543 695 Q531 695 520 692 Q509 689 501.5 680.5 Q494 672 489.5 656 Q485 640 485 614 L485 508 L588 508 L588 444 L485 444 L485 0 L371 0 L371 444 L203 444 L203 0 L89 0 L89 444 Z " />
<glyph glyph-name="fi" unicode="&#xfb01;" horiz-adv-x="546" d="M89 444 L16 444 L16 508 L89 508 L89 587 Q89 681 130.5 721 Q172 761 249 761 Q273 761 289.5 758 Q306 755 312 753 L312 683 Q303 688 288 691 Q273 694 261 694 Q235 694 219 678.5 Q203 663 203 614 L203 508 L485 508 L485 0 L371 0 L371 444 L203 444 L203 0 L89 0 L89 444 Z M371 706 L485 706 L485 602 L371 602 L371 706 Z " />
<glyph glyph-name="ffi" unicode="&#xfb03;" horiz-adv-x="827" d="M89 444 L16 444 L16 508 L89 508 L89 576 Q89 670 130.5 710 Q172 750 249 750 Q273 750 289.5 747.5 Q306 745 312 743 L312 673 Q302 678 287.5 681 Q273 684 261 684 Q235 684 219 668.5 Q203 653 203 604 L203 508 L371 508 L371 587 Q371 681 412.5 721 Q454 761 530 761 Q554 761 571 758 Q588 755 593 753 L593 683 Q584 688 569.5 691 Q555 694 543 694 Q517 694 501 678.5 Q485 663 485 614 L485 508 L766 508 L766 0 L652 0 L652 444 L485 444 L485 0 L371 0 L371 444 L203 444 L203 0 L89 0 L89 444 Z M652 706 L766 706 L766 602 L652 602 L652 706 Z " />
<glyph glyph-name="fl" unicode="&#xfb02;" horiz-adv-x="556" d="M89 443 L16 443 L16 508 L89 508 L89 587 Q89 682 132 721.5 Q175 761 253 761 Q276 761 292.5 758 Q309 755 315 753 L315 682 Q306 688 291.5 691 Q277 694 264 694 Q250 694 239 691 Q228 688 220 679.5 Q212 671 207.5 655 Q203 639 203 613 L203 508 L307 508 L307 443 L203 443 L203 0 L89 0 L89 443 Z M382 750 L496 750 L496 0 L382 0 L382 750 Z " />
<glyph glyph-name="ffl" unicode="&#xfb04;" horiz-adv-x="827" d="M89 444 L16 444 L16 508 L89 508 L89 576 Q89 670 130.5 710 Q172 750 249 750 Q273 750 289.5 747.5 Q306 745 312 743 L312 673 Q302 678 287.5 681 Q273 684 261 684 Q235 684 219 668.5 Q203 653 203 604 L203 508 L371 508 L371 587 Q371 681 412.5 721 Q454 761 530 761 Q554 761 571 758 Q588 755 593 753 L593 683 Q584 688 569.5 691 Q555 694 543 694 Q517 694 501 678.5 Q485 663 485 614 L485 508 L587 508 L587 444 L485 444 L485 0 L371 0 L371 444 L203 444 L203 0 L89 0 L89 444 Z M652 750 L766 750 L766 0 L652 0 L652 750 Z " />
<glyph glyph-name="ampersand" unicode="&#x26;" horiz-adv-x="680" d="M546 0 L490 63 Q450 30 397.5 10 Q345 -10 276 -10 Q221 -10 177.5 4 Q134 18 103.5 43 Q73 68 57 103 Q41 138 41 179 Q41 219 56 250 Q71 281 95.5 304.5 Q120 328 151.5 346 Q183 364 217 379 L189 411 Q158 448 141.5 484.5 Q125 521 125 558 Q125 591 138.5 619.5 Q152 648 176.5 668 Q201 688 236.5 699.5 Q272 711 317 711 Q362 711 398.5 699.5 Q435 688 461 667 Q487 646 501 618 Q515 590 515 557 Q515 518 498 489.5 Q481 461 456.5 439.5 Q432 418 404.5 403.5 Q377 389 355 379 L493 220 Q501 246 506 273 Q511 300 513 328 L619 294 Q612 256 597.5 217 Q583 178 559 141 L680 0 L546 0 Z M256 331 Q241 322 225 309.5 Q209 297 196 279.5 Q183 262 174.5 239.5 Q166 217 166 188 Q166 127 203.5 93 Q241 59 304 59 Q349 59 383 75.5 Q417 92 441 121 L256 331 Z M316 427 Q370 456 388.5 486.5 Q407 517 407 552 Q407 570 402 587.5 Q397 605 386.5 618.5 Q376 632 359 640 Q342 648 318 648 Q276 648 256.5 626.5 Q237 605 237 574 Q237 545 251.5 517 Q266 489 292 457 L316 427 Z " />
<glyph glyph-name="grave" unicode="&#x60;" horiz-adv-x="340" d="M55 728 L191 728 L285 582 L198 582 L55 728 Z " />
<glyph glyph-name="acute" unicode="&#xb4;" horiz-adv-x="340" d="M149 728 L285 728 L142 582 L55 582 L149 728 Z " />
<glyph glyph-name="circumflex" unicode="&#x2c6;" horiz-adv-x="406" d="M135 728 L271 728 L351 582 L276 582 L204 670 L202 670 L131 582 L55 582 L135 728 Z " />
<glyph glyph-name="caron" unicode="&#x2c7;" horiz-adv-x="406" d="M55 728 L131 728 L202 640 L204 640 L276 728 L351 728 L271 582 L135 582 L55 728 Z " />
<glyph glyph-name="commaaccent" unicode="&#xf6c3;" horiz-adv-x="226" d="M106 -157 L55 -157 L55 -54 L171 -54 L171 -152 L116 -249 L57 -249 L106 -157 Z " />
<glyph glyph-name="tilde" unicode="&#x2dc;" horiz-adv-x="429" d="M55 600 Q56 618 61 637.5 Q66 657 76.5 673 Q87 689 103.5 699 Q120 709 144 709 Q163 709 181 703.5 Q199 698 216.5 692 Q234 686 249.5 680.5 Q265 675 280 675 Q303 675 309 706 L374 706 Q372 686 366.5 666 Q361 646 351.5 630.5 Q342 615 327.5 605.5 Q313 596 293 596 Q275 596 256 601.5 Q237 607 219 614 Q201 621 184 626.5 Q167 632 153 632 Q125 632 119 600 L55 600 Z " />
<glyph glyph-name="dieresis" unicode="&#xa8;" horiz-adv-x="405" d="M55 703 L164 703 L164 598 L55 598 L55 703 Z M241 703 L350 703 L350 598 L241 598 L241 703 Z " />
<glyph glyph-name="macron" unicode="&#xaf;" horiz-adv-x="403" d="M55 687 L348 687 L348 611 L55 611 L55 687 Z " />
<glyph glyph-name="breve" unicode="&#x2d8;" horiz-adv-x="383" d="M115 715 Q120 692 138.5 674.5 Q157 657 191 657 Q226 657 244.5 674.5 Q263 692 269 715 L328 715 Q326 691 318 667.5 Q310 644 294 625.5 Q278 607 252.5 595 Q227 583 191 583 Q155 583 129.5 594.5 Q104 606 88 624.5 Q72 643 64 667 Q56 691 55 715 L115 715 Z " />
<glyph glyph-name="ring" unicode="&#x2da;" horiz-adv-x="324" d="M42 672 Q42 719 73 747.5 Q104 776 151 776 Q199 776 229.5 747.5 Q260 719 260 672 Q260 626 229.5 597.5 Q199 569 151 569 Q103 569 72.5 597.5 Q42 626 42 672 Z M151 613 Q177 613 193.5 629.5 Q210 646 210 672 Q210 698 193.5 715 Q177 732 151 732 Q125 732 109 715 Q93 698 93 672 Q93 646 109 629.5 Q125 613 151 613 Z " />
<glyph glyph-name="hungarumlaut" unicode="&#x2dd;" horiz-adv-x="445" d="M109 728 L223 728 L131 582 L55 582 L109 728 Z M277 728 L391 728 L298 582 L223 582 L277 728 Z " />
<glyph glyph-name="dotaccent" unicode="&#x2d9;" horiz-adv-x="224" d="M55 706 L169 706 L169 602 L55 602 L55 706 Z " />
<glyph glyph-name="cedilla" unicode="&#xb8;" horiz-adv-x="293" d="M69 -141 Q77 -148 92.5 -152.5 Q108 -157 125 -157 Q147 -157 155.5 -148 Q164 -139 164 -125 Q164 -112 155.5 -103.5 Q147 -95 135 -90.5 Q123 -86 110 -84 Q97 -82 87 -82 L118 11 L174 11 L154 -43 Q202 -51 227.5 -72 Q253 -93 253 -127 Q253 -162 226.5 -184 Q200 -206 149 -206 Q116 -206 91 -198 Q66 -190 53 -179 L69 -141 Z " />
<glyph glyph-name="ogonek" unicode="&#x2db;" horiz-adv-x="316" d="M262 -148 Q256 -157 245.5 -166.5 Q235 -176 220.5 -184 Q206 -192 187.5 -197.5 Q169 -203 146 -203 Q97 -203 74.5 -180.5 Q52 -158 52 -126 Q52 -83 92 -39.5 Q132 4 214 45 L233 25 Q190 -9 166.5 -40.5 Q143 -72 143 -103 Q143 -140 181 -140 Q213 -140 236 -117 L262 -148 Z " />
<glyph glyph-name="comma" unicode="&#x2c;" horiz-adv-x="249" d="M117 0 L60 0 L60 123 L189 123 L189 7 L129 -120 L68 -120 L117 0 Z " />
<glyph glyph-name="semicolon" unicode="&#x3b;" horiz-adv-x="249" d="M117 0 L60 0 L60 123 L189 123 L189 7 L129 -120 L68 -120 L117 0 Z M65 463 L185 463 L185 340 L65 340 L65 463 Z " />
<glyph glyph-name="colon" unicode="&#x3a;" horiz-adv-x="241" d="M61 123 L181 123 L181 0 L61 0 L61 123 Z M61 463 L181 463 L181 340 L61 340 L61 463 Z " />
<glyph glyph-name="period" unicode="&#x2e;" horiz-adv-x="241" d="M61 123 L181 123 L181 0 L61 0 L61 123 Z " />
<glyph glyph-name="ellipsis" unicode="&#x2026;" horiz-adv-x="712" d="M61 123 L181 123 L181 0 L61 0 L61 123 Z M296 123 L416 123 L416 0 L296 0 L296 123 Z M532 123 L651 123 L651 0 L532 0 L532 123 Z " />
<glyph glyph-name="hyphen" unicode="&#x2d;" horiz-adv-x="341" d="M47 322 L293 322 L293 230 L47 230 L47 322 Z " />
<glyph glyph-name="exclam" unicode="&#x21;" horiz-adv-x="269" d="M69 700 L200 700 L174 199 L95 199 L69 700 Z M75 123 L194 123 L194 0 L75 0 L75 123 Z " />
<glyph glyph-name="exclamdown" unicode="&#xa1;" horiz-adv-x="259" d="M200 -192 L69 -192 L95 309 L174 309 L200 -192 Z M194 385 L75 385 L75 508 L194 508 L194 385 Z " />
<glyph glyph-name="question" unicode="&#x3f;" horiz-adv-x="425" d="M167 236 Q166 250 165.5 259 Q165 268 165 274 Q165 302 170 322.5 Q175 343 183.5 361 Q192 379 203 395.5 Q214 412 227 432 Q240 451 252 468 Q264 485 273 501 Q282 517 287.5 533 Q293 549 293 566 Q293 598 274.5 618 Q256 638 215 638 Q188 638 169.5 628.5 Q151 619 139 604 Q127 589 120 572 Q113 555 110 540 L10 575 Q30 638 83.5 674.5 Q137 711 219 711 Q264 711 300.5 700 Q337 689 362.5 669.5 Q388 650 401.5 623 Q415 596 415 564 Q415 537 406 513.5 Q397 490 383 469 Q369 448 352 428.5 Q335 409 319 390 Q304 373 292 358 Q280 343 271 326.5 Q262 310 256.5 290.5 Q251 271 249 244 L245 197 L169 197 L167 236 Z M148 123 L268 123 L268 0 L148 0 L148 123 Z " />
<glyph glyph-name="questiondown" unicode="&#xbf;" horiz-adv-x="418" d="M258 272 Q259 257 259.5 248.5 Q260 240 260 234 Q260 206 255 185 Q250 164 241.5 146 Q233 128 222 111.5 Q211 95 198 76 Q172 37 152 6.5 Q132 -24 132 -59 Q132 -90 150.5 -110.5 Q169 -131 210 -131 Q237 -131 255.5 -121.5 Q274 -112 286 -97 Q298 -82 304.5 -64.5 Q311 -47 314 -32 L415 -67 Q395 -130 341.5 -166.5 Q288 -203 206 -203 Q161 -203 124.5 -192.5 Q88 -182 62.5 -162.5 Q37 -143 23.5 -116 Q10 -89 10 -56 Q10 -29 19 -5.5 Q28 18 42 39 Q56 60 73 79 Q90 98 106 117 Q121 135 133 150 Q145 165 154 181.5 Q163 198 168.5 217.5 Q174 237 176 263 L180 310 L256 310 L258 272 Z M277 385 L157 385 L157 508 L277 508 L277 385 Z " />
<glyph glyph-name="quoteleft" unicode="&#x2018;" horiz-adv-x="221" d="M51 623 L106 750 L167 750 L123 630 L170 630 L170 507 L51 507 L51 623 Z " />
<glyph glyph-name="quoteright" unicode="&#x2019;" horiz-adv-x="221" d="M98 627 L51 627 L51 750 L170 750 L170 634 L115 507 L53 507 L98 627 Z " />
<glyph glyph-name="quotedblleft" unicode="&#x201c;" horiz-adv-x="401" d="M231 623 L286 750 L348 750 L303 630 L350 630 L350 507 L231 507 L231 623 Z M51 623 L106 750 L167 750 L123 630 L170 630 L170 507 L51 507 L51 623 Z " />
<glyph glyph-name="quotedblright" unicode="&#x201d;" horiz-adv-x="401" d="M98 627 L51 627 L51 750 L170 750 L170 634 L115 507 L53 507 L98 627 Z M278 627 L231 627 L231 750 L351 750 L351 634 L295 507 L233 507 L278 627 Z " />
<glyph glyph-name="quotesinglbase" unicode="&#x201a;" horiz-adv-x="221" d="M98 0 L51 0 L51 123 L170 123 L170 7 L115 -120 L53 -120 L98 0 Z " />
<glyph glyph-name="quotedblbase" unicode="&#x201e;" horiz-adv-x="401" d="M98 0 L51 0 L51 123 L170 123 L170 7 L115 -120 L53 -120 L98 0 Z M278 0 L231 0 L231 123 L351 123 L351 7 L295 -120 L233 -120 L278 0 Z " />
<glyph glyph-name="guilsinglleft" unicode="&#x2039;" horiz-adv-x="349" d="M48 264 L200 464 L301 464 L147 264 L301 70 L200 70 L48 264 Z " />
<glyph glyph-name="guilsinglright" unicode="&#x203a;" horiz-adv-x="349" d="M202 264 L48 464 L149 464 L301 264 L149 70 L48 70 L202 264 Z " />
<glyph glyph-name="guillemotleft" unicode="&#xab;" horiz-adv-x="543" d="M48 264 L200 464 L301 464 L147 264 L301 70 L200 70 L48 264 Z M242 264 L394 464 L495 464 L341 264 L495 70 L394 70 L242 264 Z " />
<glyph glyph-name="guillemotright" unicode="&#xbb;" horiz-adv-x="543" d="M242 70 L396 264 L242 464 L343 464 L495 264 L343 70 L242 70 Z M48 70 L202 264 L48 464 L149 464 L301 264 L149 70 L48 70 Z " />
<glyph glyph-name="slash" unicode="&#x2f;" horiz-adv-x="371" d="M250 750 L332 750 L121 -97 L39 -97 L250 750 Z " />
<glyph glyph-name="bar" unicode="&#x7c;" horiz-adv-x="243" d="M82 750 L162 750 L162 -184 L82 -184 L82 750 Z " />
<glyph glyph-name="endash" unicode="&#x2013;" horiz-adv-x="557" d="M37 322 L520 322 L520 242 L37 242 L37 322 Z " />
<glyph glyph-name="emdash" unicode="&#x2014;" horiz-adv-x="765" d="M37 322 L728 322 L728 242 L37 242 L37 322 Z " />
<glyph glyph-name="bullet" unicode="&#x2022;" horiz-adv-x="405" d="M65 314 Q65 341 76 365 Q87 389 105.5 407 Q124 425 149 435.5 Q174 446 203 446 Q231 446 256 435.5 Q281 425 300 407 Q319 389 329.5 365 Q340 341 340 314 Q340 287 329.5 263 Q319 239 300 221 Q281 203 256 192.5 Q231 182 203 182 Q174 182 149 192.5 Q124 203 105.5 221 Q87 239 76 263 Q65 287 65 314 Z " />
<glyph glyph-name="periodcentered" unicode="&#xb7;" horiz-adv-x="241" d="M61 365 L181 365 L181 242 L61 242 L61 365 Z " />
<glyph glyph-name="parenleft" unicode="&#x28;" horiz-adv-x="306" d="M204 -164 Q171 -133 141 -89.5 Q111 -46 87.5 9 Q64 64 50 131 Q36 198 36 275 Q36 352 49.5 418 Q63 484 86 539 Q109 594 139.5 636.5 Q170 679 204 710 L282 710 Q244 664 218.5 611 Q193 558 178 502.5 Q163 447 157 390 Q151 333 151 279 Q151 225 157.5 167 Q164 109 179.5 51.5 Q195 -6 220 -61 Q245 -116 282 -164 L204 -164 Z " />
<glyph glyph-name="parenright" unicode="&#x29;" horiz-adv-x="306" d="M24 -164 Q61 -116 86.5 -61 Q112 -6 127 51.5 Q142 109 148.5 167 Q155 225 155 279 Q155 333 149 390 Q143 447 128 502.5 Q113 558 87.5 611 Q62 664 24 710 L103 710 Q136 679 166.5 636.5 Q197 594 220 539 Q243 484 256.5 418 Q270 352 270 275 Q270 198 256 131 Q242 64 218.5 9 Q195 -46 165 -89.5 Q135 -133 103 -164 L24 -164 Z " />
<glyph glyph-name="bracketleft" unicode="&#x5b;" horiz-adv-x="299" d="M59 710 L268 710 L268 654 L163 654 L163 -108 L270 -108 L270 -164 L59 -164 L59 710 Z " />
<glyph glyph-name="bracketright" unicode="&#x5d;" horiz-adv-x="299" d="M29 -108 L137 -108 L137 654 L31 654 L31 710 L241 710 L241 -164 L29 -164 L29 -108 Z " />
<glyph glyph-name="braceleft" unicode="&#x7b;" horiz-adv-x="295" d="M81 159 Q81 207 60.5 227.5 Q40 248 10 250 L10 296 Q40 298 60.5 318.5 Q81 339 81 387 L81 592 Q81 653 107 681.5 Q133 710 195 710 L266 710 L266 654 L230 654 Q201 654 193 637.5 Q185 621 185 587 L185 401 Q185 295 102 276 L102 270 Q185 251 185 145 L185 -41 Q185 -75 193 -91.5 Q201 -108 230 -108 L266 -108 L266 -164 L195 -164 Q133 -164 107 -135.5 Q81 -107 81 -46 L81 159 Z " />
<glyph glyph-name="braceright" unicode="&#x7d;" horiz-adv-x="295" d="M29 -164 L29 -108 L66 -108 Q95 -108 103 -91.5 Q111 -75 111 -41 L111 145 Q111 251 194 270 L194 276 Q111 295 111 401 L111 587 Q111 621 103 637.5 Q95 654 66 654 L29 654 L29 710 L100 710 Q163 710 189 681.5 Q215 653 215 592 L215 387 Q215 339 235.5 318.5 Q256 298 286 296 L286 250 Q256 248 235.5 227.5 Q215 207 215 159 L215 -46 Q215 -107 189 -135.5 Q163 -164 100 -164 L29 -164 Z " />
<glyph glyph-name="asterisk" unicode="&#x2a;" horiz-adv-x="422" d="M177 524 L34 539 L67 635 L189 568 L159 700 L262 700 L233 568 L356 635 L388 539 L246 525 L353 433 L270 375 L211 500 L153 375 L70 433 L177 524 Z " />
<glyph glyph-name="dagger" unicode="&#x2020;" horiz-adv-x="532" d="M218 0 L228 436 L34 427 L34 513 L228 504 L217 700 L316 700 L304 504 L498 513 L498 427 L304 436 L315 0 L266 -121 L218 0 Z " />
<glyph glyph-name="daggerdbl" unicode="&#x2021;" horiz-adv-x="532" d="M218 0 L223 224 L34 218 L34 304 L225 296 L228 436 L34 427 L34 513 L228 504 L217 700 L316 700 L304 504 L498 513 L498 427 L304 436 L307 296 L498 304 L498 218 L309 225 L315 0 L266 -121 L218 0 Z " />
<glyph glyph-name="section" unicode="&#xa7;" horiz-adv-x="512" d="M130 -16 Q134 -25 143.5 -38 Q153 -51 168.5 -62.5 Q184 -74 205.5 -82.5 Q227 -91 256 -91 Q295 -91 319 -73.5 Q343 -56 343 -23 Q343 10 320 32 Q297 54 262.5 72 Q228 90 188 107 Q148 124 113.5 147 Q79 170 56 201.5 Q33 233 33 281 Q33 332 63 370 Q93 408 141 429 Q110 451 90.5 480.5 Q71 510 71 554 Q71 625 124.5 668 Q178 711 269 711 Q314 711 348 701 Q382 691 405.5 677 Q429 663 443.5 648 Q458 633 465 622 L386 572 Q382 580 373.5 592.5 Q365 605 350.5 617 Q336 629 314.5 637.5 Q293 646 265 646 Q225 646 201 628.5 Q177 611 177 577 Q177 543 200 521.5 Q223 500 257.5 483 Q292 466 332 450 Q372 434 406.5 411.5 Q441 389 464 356.5 Q487 324 487 274 Q487 220 458 182 Q429 144 380 123 Q410 102 429.5 73 Q449 44 449 1 Q449 -70 396 -113 Q343 -156 251 -156 Q206 -156 172.5 -146 Q139 -136 115.5 -122 Q92 -108 77 -93 Q62 -78 55 -67 L130 -16 Z M335 151 Q355 165 368.5 187 Q382 209 382 238 Q382 273 363.5 297 Q345 321 316.5 339 Q288 357 253 371.5 Q218 386 185 403 Q164 389 150 367.5 Q136 346 136 317 Q136 282 154.5 258 Q173 234 202 216 Q231 198 266.5 183 Q302 168 335 151 Z " />
<glyph glyph-name="paragraph" unicode="&#xb6;" horiz-adv-x="560" d="M223 308 Q182 308 145.5 322 Q109 336 82 361.5 Q55 387 39.5 423.5 Q24 460 24 504 Q24 564 51 608.5 Q78 653 124 676 Q148 688 183.5 694 Q219 700 273 700 L550 700 L550 633 L486 633 L486 -184 L408 -184 L408 633 L302 633 L302 -184 L223 -184 L223 308 Z " />
<glyph glyph-name="asciicircum" unicode="&#x5e;" horiz-adv-x="536" d="M242 700 L298 700 L499 270 L413 270 L268 575 L123 270 L37 270 L242 700 Z " />
<glyph glyph-name="asciitilde" unicode="&#x7e;" horiz-adv-x="536" d="M31 342 Q51 368 82 386.5 Q113 405 161 405 Q189 405 216.5 395.5 Q244 386 272 374.5 Q300 363 328 353.5 Q356 344 386 344 Q413 344 432 355 Q451 366 468 389 L506 324 Q483 292 453.5 277 Q424 262 386 262 Q351 262 321 271.5 Q291 281 263.5 292.5 Q236 304 209 313.5 Q182 323 154 323 Q120 323 101 309 Q82 295 68 278 L31 342 Z " />
<glyph glyph-name="brokenbar" unicode="&#xa6;" horiz-adv-x="243" d="M82 750 L162 750 L162 355 L82 355 L82 750 Z M82 208 L162 208 L162 -187 L82 -187 L82 208 Z " />
<glyph glyph-name="backslash" unicode="&#x5c;" horiz-adv-x="410" d="M59 750 L141 750 L352 -97 L270 -97 L59 750 Z " />
<glyph glyph-name="underscore" unicode="&#x5f;" horiz-adv-x="468" d="M3 -81 L465 -81 L465 -161 L3 -161 L3 -81 Z " />
<glyph glyph-name="quotesingle" unicode="&#x27;" horiz-adv-x="217" d="M51 750 L167 750 L137 507 L80 507 L51 750 Z " />
<glyph glyph-name="quotedbl" unicode="&#x22;" horiz-adv-x="372" d="M51 750 L156 750 L132 507 L75 507 L51 750 Z M216 750 L322 750 L297 507 L240 507 L216 750 Z " />
<glyph glyph-name="at" unicode="&#x40;" horiz-adv-x="882" d="M537 355 Q532 373 517 389 Q502 405 473 405 Q444 405 420 387.5 Q396 370 378.5 340 Q361 310 351.5 270.5 Q342 231 342 188 Q342 131 357.5 106.5 Q373 82 399 82 Q441 82 476 139 Q511 196 527 296 L537 355 Z M610 -101 Q580 -121 532.5 -130.5 Q485 -140 430 -140 Q350 -140 280 -118 Q210 -96 158 -51 Q106 -6 75.5 61.5 Q45 129 45 219 Q45 309 76 383.5 Q107 458 162.5 511 Q218 564 294.5 593 Q371 622 463 622 Q544 622 613.5 599 Q683 576 734 533.5 Q785 491 813.5 430 Q842 369 842 294 Q842 239 826.5 189.5 Q811 140 782.5 102.5 Q754 65 712.5 42.5 Q671 20 620 20 Q570 20 545.5 43 Q521 66 521 116 L519 116 Q494 75 459 48.5 Q424 22 373 22 Q310 22 277 64 Q244 106 244 186 Q244 241 259.5 290.5 Q275 340 303 377.5 Q331 415 370 437 Q409 459 457 459 Q496 459 519.5 444.5 Q543 430 555 408 L557 408 L570 451 L641 451 L606 219 Q601 188 598 156.5 Q595 125 595 111 Q595 70 633 70 Q658 70 680 86.5 Q702 103 718 131 Q734 159 743 197 Q752 235 752 279 Q752 340 733.5 392 Q715 444 679 481.5 Q643 519 590 540.5 Q537 562 467 562 Q389 562 329.5 535.5 Q270 509 229 463 Q188 417 167 354 Q146 291 146 219 Q146 152 164.5 96.5 Q183 41 220.5 1.5 Q258 -38 315 -59.5 Q372 -81 448 -81 Q486 -81 522 -75 Q558 -69 587 -55 L610 -101 Z " />
<glyph glyph-name="copyright" unicode="&#xa9;" horiz-adv-x="814" d="M580 237 Q569 212 551.5 194 Q534 176 512 164.5 Q490 153 465.5 147.5 Q441 142 416 142 Q370 142 334 157.5 Q298 173 273.5 201 Q249 229 236 268.5 Q223 308 223 355 Q223 400 235.5 437.5 Q248 475 272.5 502 Q297 529 332.5 544 Q368 559 414 559 Q468 559 509 537 Q550 515 570 473 L496 446 Q484 469 464.5 489 Q445 509 413 509 Q368 509 339.5 471 Q311 433 311 355 Q311 313 320 283 Q329 253 344 233 Q359 213 378.5 203.5 Q398 194 420 194 Q440 194 454.5 200 Q469 206 479.5 216 Q490 226 496.5 238 Q503 250 508 261 L580 237 Z M407 -11 Q327 -11 258.5 15.5 Q190 42 140 89.5 Q90 137 62 203.5 Q34 270 34 350 Q34 430 62 496.5 Q90 563 140 610.5 Q190 658 258.5 684.5 Q327 711 407 711 Q487 711 555.5 684.5 Q624 658 674 610.5 Q724 563 752 496.5 Q780 430 780 350 Q780 270 752 203.5 Q724 137 674 89.5 Q624 42 555.5 15.5 Q487 -11 407 -11 Z M407 47 Q477 47 533.5 70.5 Q590 94 629.5 135.5 Q669 177 690 232 Q711 287 711 350 Q711 413 690 468.5 Q669 524 629.5 565 Q590 606 533.5 630 Q477 654 407 654 Q337 654 280.5 630.5 Q224 607 184.5 566 Q145 525 124 469.5 Q103 414 103 350 Q103 286 124 231 Q145 176 184.5 135 Q224 94 280 70.5 Q336 47 407 47 Z " />
<glyph glyph-name="registered" unicode="&#xae;" horiz-adv-x="607" d="M200 647 L296 647 Q331 647 354 640.5 Q377 634 391 623 Q405 612 410.5 597.5 Q416 583 416 568 Q416 536 400.5 518 Q385 500 360 493 L424 372 L351 372 L297 485 L268 485 L268 372 L200 372 L200 647 Z M291 520 Q322 520 334.5 531.5 Q347 543 347 565 Q347 585 335 597.5 Q323 610 293 610 L268 610 L268 520 L291 520 Z M304 253 Q248 253 200 271.5 Q152 290 116.5 323.5 Q81 357 61 403.5 Q41 450 41 507 Q41 563 61 610 Q81 657 116.5 690.5 Q152 724 200 742.5 Q248 761 304 761 Q360 761 408 742.5 Q456 724 491 690.5 Q526 657 546 610 Q566 563 566 507 Q566 450 546 403.5 Q526 357 491 323.5 Q456 290 408 271.5 Q360 253 304 253 Z M304 299 Q352 299 390.5 315.5 Q429 332 456 360 Q483 388 497 426 Q511 464 511 507 Q511 550 497 588 Q483 626 456 654 Q429 682 390.5 698.5 Q352 715 304 715 Q256 715 217.5 699 Q179 683 152 654.5 Q125 626 111 588 Q97 550 97 507 Q97 463 111 425.5 Q125 388 152 359.5 Q179 331 217.5 315 Q256 299 304 299 Z " />
<glyph glyph-name="trademark" unicode="&#x2122;" horiz-adv-x="790" d="M361 700 L471 700 L516 557 Q527 522 533.5 495 Q540 468 548 437 L551 437 Q559 468 566 495.5 Q573 523 584 559 L626 700 L739 700 L739 328 L658 328 L658 509 Q658 539 658 567 Q658 595 659 621 L656 621 Q650 596 642 567.5 Q634 539 625 510 L569 328 L510 328 L452 513 Q444 539 436.5 566 Q429 593 421 621 L418 621 Q419 593 419 565.5 Q419 538 419 512 L419 328 L361 328 L361 700 Z M130 653 L26 653 L26 700 L316 700 L316 653 L211 653 L211 328 L130 328 L130 653 Z " />
<glyph glyph-name="uni2117" unicode="&#x2117;" horiz-adv-x="814" d="M287 541 L417 541 Q462 541 492 531.5 Q522 522 541 505.5 Q560 489 568 467 Q576 445 576 420 Q576 397 568.5 375 Q561 353 543 336 Q525 319 494 308 Q463 297 417 297 L368 297 L368 147 L287 147 L287 541 Z M413 345 Q460 345 476.5 365.5 Q493 386 493 418 Q493 434 489.5 447.5 Q486 461 476.5 471.5 Q467 482 451 488 Q435 494 410 494 L368 494 L368 345 L413 345 Z M407 -11 Q327 -11 258.5 15.5 Q190 42 140 89.5 Q90 137 62 203.5 Q34 270 34 350 Q34 430 62 496.5 Q90 563 140 610.5 Q190 658 258.5 684.5 Q327 711 407 711 Q487 711 555.5 684.5 Q624 658 674 610.5 Q724 563 752 496.5 Q780 430 780 350 Q780 270 752 203.5 Q724 137 674 89.5 Q624 42 555.5 15.5 Q487 -11 407 -11 Z M407 47 Q477 47 533.5 70.5 Q590 94 629.5 135.5 Q669 177 690 232 Q711 287 711 350 Q711 413 690 468.5 Q669 524 629.5 565 Q590 606 533.5 630 Q477 654 407 654 Q337 654 280.5 630.5 Q224 607 184.5 566 Q145 525 124 469.5 Q103 414 103 350 Q103 286 124 231 Q145 176 184.5 135 Q224 94 280 70.5 Q336 47 407 47 Z " />
<glyph glyph-name="currency" unicode="&#xa4;" horiz-adv-x="716" d="M53 103 L156 202 Q139 230 129.5 266.5 Q120 303 120 348 Q120 439 159 498 L53 599 L99 645 L203 546 Q233 571 272.5 583.5 Q312 596 357 596 Q449 596 511 546 L616 645 L663 599 L556 497 Q575 468 585.5 430 Q596 392 596 347 Q596 259 559 200 L663 103 L616 56 L516 150 Q484 121 444.5 108.5 Q405 96 359 96 Q311 96 272 109.5 Q233 123 201 153 L99 56 L53 103 Z M360 158 Q427 158 469 206 Q511 254 511 345 Q511 433 470.5 483 Q430 533 359 533 Q287 533 245 483.5 Q203 434 203 347 Q203 301 215 265.5 Q227 230 248.5 206 Q270 182 298.5 170 Q327 158 360 158 Z " />
<glyph glyph-name="Euro" unicode="&#x20ac;" horiz-adv-x="554" d="M22 315 L86 315 L86 336 Q86 347 86 357 Q86 367 87 378 L22 378 L22 435 L93 435 Q112 550 173 614.5 Q234 679 337 679 Q410 679 461.5 646 Q513 613 536 553 L431 514 Q419 558 394.5 584 Q370 610 335 610 Q286 610 257.5 563.5 Q229 517 218 435 L449 435 L449 378 L214 378 L214 342 L214 315 L449 315 L449 257 L217 257 Q225 167 255.5 112.5 Q286 58 339 58 Q409 58 435 162 L540 122 Q514 58 463 23.5 Q412 -11 337 -11 Q283 -11 240.5 8 Q198 27 167 62 Q136 97 117 146.5 Q98 196 91 257 L22 257 L22 315 Z " />
<glyph glyph-name="dollar" unicode="&#x24;" horiz-adv-x="497" d="M226 -10 Q175 -8 139 6 Q103 20 79.5 39.5 Q56 59 43 81.5 Q30 104 24 123 L116 169 Q120 154 128.5 136.5 Q137 119 150 103 Q163 87 181.5 75.5 Q200 64 226 60 L226 290 Q196 308 164.5 327 Q133 346 107.5 370 Q82 394 66 425.5 Q50 457 50 499 Q50 577 98 623.5 Q146 670 226 678 L226 761 L280 761 L280 679 Q324 676 355 663 Q386 650 407 633 Q428 616 440 597.5 Q452 579 457 566 L358 527 Q355 536 349.5 548.5 Q344 561 335 572.5 Q326 584 312.5 593.5 Q299 603 280 608 L280 396 Q310 378 342 358 Q374 338 399.5 313 Q425 288 441.5 256 Q458 224 458 181 Q458 100 411 50 Q364 0 280 -8 L280 -93 L226 -93 L226 -10 Z M280 62 Q310 70 327.5 92.5 Q345 115 345 152 Q345 186 326.5 210.5 Q308 235 280 256 L280 62 Z M226 611 Q191 604 176.5 581 Q162 558 162 527 Q162 496 179.5 473 Q197 450 226 430 L226 611 Z " />
<glyph glyph-name="cent" unicode="&#xa2;" horiz-adv-x="470" d="M230 -9 Q177 -3 140 20.5 Q103 44 80 80 Q57 116 46.5 161 Q36 206 36 255 Q36 304 47 349 Q58 394 81.5 429.5 Q105 465 141.5 488 Q178 511 230 516 L230 593 L284 593 L284 517 Q348 512 386 483 Q424 454 441 411 L343 377 Q335 402 321 423 Q307 444 284 452 L284 54 Q310 62 324 83 Q338 104 346 132 L442 97 Q436 81 424 63.5 Q412 46 393.5 30.5 Q375 15 348 4 Q321 -7 284 -10 L284 -93 L230 -93 L230 -9 Z M230 451 Q193 436 176.5 385 Q160 334 160 261 Q160 229 163.5 197 Q167 165 175 138 Q183 111 196.5 90.5 Q210 70 230 60 L230 451 Z " />
<glyph glyph-name="sterling" unicode="&#xa3;" horiz-adv-x="501" d="M53 88 Q102 116 129 150 Q156 184 156 234 Q156 255 151 274.5 Q146 294 138 313 L48 313 L48 371 L107 371 Q92 400 79.5 433 Q67 466 67 508 Q67 585 119.5 632.5 Q172 680 272 680 Q318 680 352.5 670 Q387 660 411.5 646 Q436 632 450.5 616.5 Q465 601 472 591 L390 532 Q385 541 376 555 Q367 569 352.5 581.5 Q338 594 317 603.5 Q296 613 268 613 Q224 613 202 588 Q180 563 180 517 Q180 476 192.5 440.5 Q205 405 219 371 L392 371 L392 313 L239 313 Q244 298 247.5 282.5 Q251 267 251 250 Q251 198 223 160 Q195 122 147 96 L147 94 L478 94 L478 0 L53 0 L53 88 Z " />
<glyph glyph-name="florin" unicode="&#x192;" horiz-adv-x="439" d="M-4 -110 Q5 -117 21 -120 Q37 -123 47 -123 Q60 -123 71.5 -120 Q83 -117 92 -107 Q101 -97 107.5 -80 Q114 -63 117 -34 L170 448 L81 448 L88 508 L176 508 L185 587 Q196 682 243 721.5 Q290 761 366 761 Q391 761 407.5 758 Q424 755 429 753 L423 684 Q413 691 397 694 Q381 697 371 697 Q358 697 346.5 693.5 Q335 690 326 680.5 Q317 671 311 653 Q305 635 302 607 L290 508 L396 508 L389 448 L284 448 L233 -13 Q222 -108 175 -147.5 Q128 -187 52 -187 Q27 -187 10.5 -184.5 Q-6 -182 -11 -180 L-4 -110 Z " />
<glyph glyph-name="yen" unicode="&#xa5;" horiz-adv-x="548" d="M211 172 L41 172 L41 230 L211 230 L211 299 L41 299 L41 357 L184 357 L31 668 L161 668 L288 390 L422 668 L517 668 L358 357 L505 357 L505 299 L331 299 L331 230 L505 230 L505 172 L331 172 L331 0 L211 0 L211 172 Z " />
<glyph glyph-name="ordfeminine" unicode="&#xaa;" horiz-adv-x="404" d="M264 416 Q242 393 215.5 379 Q189 365 153 365 Q105 365 75 392.5 Q45 420 45 468 Q45 499 59 521.5 Q73 544 100 560.5 Q127 577 166.5 588 Q206 599 257 607 L257 640 Q257 677 244.5 695 Q232 713 203 713 Q173 713 153.5 695.5 Q134 678 123 653 L56 691 Q61 700 72.5 712.5 Q84 725 102 735.5 Q120 746 146 753.5 Q172 761 207 761 Q286 761 318 723 Q350 685 350 621 L350 468 Q350 433 351.5 409.5 Q353 386 358 374 L273 374 L264 416 Z M257 565 Q232 561 210.5 555 Q189 549 173.5 539 Q158 529 149 515 Q140 501 140 480 Q140 453 154.5 438 Q169 423 191 423 Q212 423 229 433 Q246 443 257 456 L257 565 Z " />
<glyph glyph-name="ordmasculine" unicode="&#xba;" horiz-adv-x="444" d="M221 365 Q181 365 148.5 379 Q116 393 93.5 419 Q71 445 58.5 481.5 Q46 518 46 563 Q46 654 93 707.5 Q140 761 221 761 Q303 761 350 707.5 Q397 654 397 563 Q397 473 350 419 Q303 365 221 365 Z M221 412 Q242 412 256.5 424 Q271 436 280 456.5 Q289 477 292.5 504.5 Q296 532 296 563 Q296 594 292.5 621 Q289 648 280.5 668.5 Q272 689 257.5 701 Q243 713 221 713 Q200 713 186 701 Q172 689 163 668.5 Q154 648 150.5 620.5 Q147 593 147 563 Q147 533 150.5 505.5 Q154 478 163 457 Q172 436 186 424 Q200 412 221 412 Z " />
<glyph glyph-name="numbersign" unicode="&#x23;" horiz-adv-x="573" d="M131 219 L19 219 L26 280 L139 280 L157 420 L44 420 L52 481 L165 481 L192 700 L261 700 L234 481 L373 481 L401 700 L470 700 L442 481 L555 481 L547 420 L435 420 L417 280 L529 280 L521 219 L409 219 L382 0 L313 0 L340 219 L200 219 L173 0 L104 0 L131 219 Z M348 280 L366 420 L226 420 L208 280 L348 280 Z " />
<glyph glyph-name="zero" unicode="0" horiz-adv-x="520" d="M261 -11 Q202 -11 157.5 14.5 Q113 40 84 86.5 Q55 133 40.5 196.5 Q26 260 26 337 Q26 413 40.5 476 Q55 539 84 584.5 Q113 630 157 655 Q201 680 260 680 Q319 680 363 655 Q407 630 436 584.5 Q465 539 479.5 475.5 Q494 412 494 336 Q494 259 479.5 195 Q465 131 436 85.5 Q407 40 363 14.5 Q319 -11 261 -11 Z M260 55 Q292 55 313 78.5 Q334 102 346 141 Q358 180 362.5 231 Q367 282 367 337 Q367 390 362.5 440 Q358 490 346.5 529 Q335 568 314 591.5 Q293 615 260 615 Q228 615 207.5 591.5 Q187 568 175.5 529 Q164 490 159.5 440 Q155 390 155 336 Q155 282 159 231.5 Q163 181 174.5 142 Q186 103 206.5 79 Q227 55 260 55 Z " />
<glyph glyph-name="one" unicode="1" horiz-adv-x="520" d="M105 65 L213 65 L213 573 L90 573 L90 620 L274 668 L327 668 L327 65 L430 65 L430 0 L105 0 L105 65 Z " />
<glyph glyph-name="two" unicode="2" horiz-adv-x="520" d="M36 83 Q84 122 138.5 168.5 Q193 215 238.5 267.5 Q284 320 314.5 378.5 Q345 437 345 500 Q345 554 320 584 Q295 614 247 614 Q223 614 203.5 605.5 Q184 597 169.5 582 Q155 567 145 547 Q135 527 129 505 L33 545 Q54 607 109.5 643.5 Q165 680 253 680 Q356 680 412 630.5 Q468 581 468 496 Q468 431 437.5 373.5 Q407 316 359.5 266 Q312 216 255 174 Q198 132 144 98 L144 94 L473 94 L473 0 L36 0 L36 83 Z " />
<glyph glyph-name="three" unicode="3" horiz-adv-x="520" d="M125 149 Q131 132 140.5 115.5 Q150 99 165 85.5 Q180 72 200 63.5 Q220 55 246 55 Q291 55 322.5 83.5 Q354 112 354 175 Q354 218 337.5 246 Q321 274 294.5 289.5 Q268 305 234.5 311 Q201 317 166 317 L166 389 Q196 390 226.5 396 Q257 402 282 416.5 Q307 431 323 456.5 Q339 482 339 522 Q339 568 314 591.5 Q289 615 246 615 Q222 615 204 607 Q186 599 173 587 Q160 575 151 560 Q142 545 136 531 L47 577 Q69 619 118 649.5 Q167 680 249 680 Q345 680 400 638.5 Q455 597 455 522 Q455 456 413.5 416 Q372 376 303 359 L303 357 Q335 352 366 339.5 Q397 327 421 306 Q445 285 460 255 Q475 225 475 185 Q475 138 458.5 101.5 Q442 65 412 40 Q382 15 340 2 Q298 -11 248 -11 Q163 -11 111.5 21 Q60 53 36 102 L125 149 Z " />
<glyph glyph-name="four" unicode="4" horiz-adv-x="520" d="M15 232 L303 668 L420 668 L420 232 L505 232 L505 165 L420 165 L420 0 L306 0 L306 165 L15 165 L15 232 Z M306 232 L306 329 Q306 357 306.5 394 Q307 431 307.5 465.5 Q308 500 309 528.5 Q310 557 311 569 L308 569 Q304 560 295.5 544.5 Q287 529 275 509.5 Q263 490 249 468.5 Q235 447 222 427 L93 232 L306 232 Z " />
<glyph glyph-name="five" unicode="5" horiz-adv-x="520" d="M122 150 Q128 132 139 115 Q150 98 165 84.5 Q180 71 200.5 63 Q221 55 247 55 Q305 55 334 96 Q363 137 363 205 Q363 276 333.5 315.5 Q304 355 244 355 Q203 355 175.5 338 Q148 321 134 299 L64 299 L93 668 L448 668 L448 574 L154 574 L138 378 Q145 385 156.5 394 Q168 403 184.5 410.5 Q201 418 223 423 Q245 428 273 428 Q318 428 357 413.5 Q396 399 424 372 Q452 345 468 305.5 Q484 266 484 216 Q484 165 468.5 123.5 Q453 82 423 52 Q393 22 348.5 5.5 Q304 -11 247 -11 Q201 -11 166 -1.5 Q131 8 105 23.5 Q79 39 61 59.5 Q43 80 33 103 L122 150 Z " />
<glyph glyph-name="six" unicode="6" horiz-adv-x="520" d="M380 541 Q377 549 370.5 561.5 Q364 574 353 586 Q342 598 325.5 606.5 Q309 615 287 615 Q253 615 229.5 595 Q206 575 191.5 540 Q177 505 169.5 458 Q162 411 161 357 Q181 380 213.5 397 Q246 414 296 414 Q337 414 373 400.5 Q409 387 436 361 Q463 335 479 296.5 Q495 258 495 209 Q495 161 480 121 Q465 81 437 51.5 Q409 22 369 5.5 Q329 -11 280 -11 Q230 -11 186 8 Q142 27 109.5 68 Q77 109 58 173.5 Q39 238 39 329 Q39 419 58 485.5 Q77 552 111 595 Q145 638 192.5 659 Q240 680 296 680 Q335 680 365 671 Q395 662 417.5 647.5 Q440 633 454.5 615.5 Q469 598 477 581 L380 541 Z M162 290 Q164 237 171.5 193.5 Q179 150 193.5 119 Q208 88 229.5 71.5 Q251 55 281 55 Q306 55 323.5 66.5 Q341 78 352 97.5 Q363 117 368.5 142.5 Q374 168 374 197 Q374 227 368.5 254 Q363 281 350 301.5 Q337 322 316 334 Q295 346 264 346 Q227 346 201.5 329.5 Q176 313 162 290 Z " />
<glyph glyph-name="seven" unicode="7" horiz-adv-x="520" d="M389 574 L48 574 L48 668 L471 668 L471 588 L245 0 L122 0 L389 574 Z " />
<glyph glyph-name="eight" unicode="8" horiz-adv-x="520" d="M172 354 Q121 379 89 418.5 Q57 458 57 514 Q57 551 72 582 Q87 613 114 634.5 Q141 656 178.5 668 Q216 680 261 680 Q306 680 343.5 668.5 Q381 657 408 636 Q435 615 450 584.5 Q465 554 465 515 Q465 456 430 415.5 Q395 375 347 355 Q374 344 400 328.5 Q426 313 445.5 292 Q465 271 477 243 Q489 215 489 179 Q489 136 473 101 Q457 66 427.5 41 Q398 16 355.5 2.5 Q313 -11 261 -11 Q207 -11 164 3 Q121 17 91.5 42 Q62 67 46 102 Q30 137 30 179 Q30 214 41 241.5 Q52 269 71.5 290.5 Q91 312 117 327.5 Q143 343 172 354 Z M247 325 Q194 305 172.5 268.5 Q151 232 151 184 Q151 157 158 133.5 Q165 110 179 92 Q193 74 214 64 Q235 54 264 54 Q313 54 340.5 88 Q368 122 368 176 Q368 231 339 266.5 Q310 302 247 325 Z M269 385 Q314 403 333.5 436.5 Q353 470 353 512 Q353 557 330 586.5 Q307 616 260 616 Q214 616 191 587.5 Q168 559 168 517 Q168 477 191.5 442.5 Q215 408 269 385 Z " />
<glyph glyph-name="nine" unicode="9" horiz-adv-x="520" d="M129 134 Q132 124 139 110.5 Q146 97 158 85 Q170 73 188 64.5 Q206 56 231 56 Q266 56 290 73.5 Q314 91 328.5 123 Q343 155 349.5 199 Q356 243 358 296 Q339 277 306 263 Q273 249 228 249 Q185 249 148 263 Q111 277 83.5 304 Q56 331 40.5 370 Q25 409 25 459 Q25 507 40 547.5 Q55 588 83 617.5 Q111 647 151 663.5 Q191 680 241 680 Q292 680 336 661 Q380 642 412.5 601 Q445 560 463.5 495 Q482 430 482 339 Q482 248 463 182 Q444 116 410 73 Q376 30 328 9.5 Q280 -11 223 -11 Q181 -11 150 -1.5 Q119 8 96.5 22.5 Q74 37 59.5 54.5 Q45 72 36 88 L129 134 Z M358 363 Q356 419 349 465.5 Q342 512 327.5 545 Q313 578 291.5 596.5 Q270 615 239 615 Q214 615 196.5 603 Q179 591 168 571 Q157 551 152 525 Q147 499 147 470 Q147 440 152.5 412.5 Q158 385 171.5 364 Q185 343 206 330 Q227 317 259 317 Q293 317 318.5 330 Q344 343 358 363 Z " />
<glyph glyph-name="zero.superior" unicode="&#x2070;" horiz-adv-x="414" d="M208 291 Q118 291 75 345 Q32 399 32 486 Q32 529 42.5 565 Q53 601 75 626.5 Q97 652 129.5 666 Q162 680 207 680 Q296 680 339 626 Q382 572 382 485 Q382 442 371.5 406 Q361 370 339 344.5 Q317 319 284.5 305 Q252 291 208 291 Z M208 338 Q227 338 239.5 350 Q252 362 259.5 382.5 Q267 403 270 429.5 Q273 456 273 486 Q273 515 270 541.5 Q267 568 260 588.5 Q253 609 240 621 Q227 633 208 633 Q188 633 175.5 621 Q163 609 155 589 Q147 569 144 542.5 Q141 516 141 487 Q141 458 144 431 Q147 404 154.5 383.5 Q162 363 175 350.5 Q188 338 208 338 Z " />
<glyph glyph-name="one.superior" unicode="&#xb9;" horiz-adv-x="323" d="M53 345 L119 345 L119 608 L44 608 L44 647 L159 673 L219 673 L219 345 L281 345 L281 297 L53 297 L53 345 Z " />
<glyph glyph-name="two.superior" unicode="&#xb2;" horiz-adv-x="385" d="M38 359 Q69 379 105 401.5 Q141 424 172 450 Q203 476 224 506.5 Q245 537 245 573 Q245 600 228.5 614.5 Q212 629 186 629 Q155 629 140.5 612 Q126 595 118 568 L32 594 Q49 634 87.5 657 Q126 680 189 680 Q267 680 309 649 Q351 618 351 567 Q351 531 331 502 Q311 473 279.5 449.5 Q248 426 209.5 407 Q171 388 134 372 L134 370 L351 370 L351 297 L38 297 L38 359 Z " />
<glyph glyph-name="three.superior" unicode="&#xb3;" horiz-adv-x="382" d="M108 388 Q115 368 132.5 353.5 Q150 339 182 339 Q209 339 228 352 Q247 365 247 395 Q247 417 236.5 431 Q226 445 209.5 452.5 Q193 460 171.5 463 Q150 466 128 466 L128 518 Q147 519 167 522 Q187 525 203 532 Q219 539 229 551.5 Q239 564 239 584 Q239 608 223 619.5 Q207 631 180 631 Q149 631 136 616.5 Q123 602 116 586 L34 610 Q49 639 85 659.5 Q121 680 182 680 Q253 680 295.5 655.5 Q338 631 338 587 Q338 550 309 527.5 Q280 505 228 497 L228 495 Q254 492 276.5 485 Q299 478 315.5 466.5 Q332 455 341.5 438.5 Q351 422 351 398 Q351 345 304.5 318 Q258 291 184 291 Q123 291 84.5 309.5 Q46 328 26 360 L108 388 Z " />
<glyph glyph-name="four.superior" unicode="&#x2074;" horiz-adv-x="408" d="M24 428 L226 673 L322 673 L322 430 L376 430 L376 378 L322 378 L322 297 L222 297 L222 378 L24 378 L24 428 Z M222 430 L222 458 Q222 500 222.5 538.5 Q223 577 225 596 L222 596 Q211 579 195 558.5 Q179 538 154 508 L91 430 L222 430 Z " />
<glyph glyph-name="five.superior" unicode="&#x2075;" horiz-adv-x="388" d="M105 394 Q113 372 131 356 Q149 340 183 340 Q217 340 234.5 359 Q252 378 252 413 Q252 449 234 470.5 Q216 492 178 492 Q152 492 133.5 483 Q115 474 105 463 L52 463 L72 673 L331 673 L331 600 L117 600 L108 513 Q117 520 140.5 530 Q164 540 208 540 Q274 540 315 509.5 Q356 479 356 420 Q356 361 311.5 326 Q267 291 189 291 Q154 291 127.5 298 Q101 305 82.5 316.5 Q64 328 51.5 341.5 Q39 355 32 369 L105 394 Z " />
<glyph glyph-name="six.superior" unicode="&#x2076;" horiz-adv-x="401" d="M273 587 Q271 591 267 598.5 Q263 606 255.5 613.5 Q248 621 237.5 626 Q227 631 212 631 Q173 631 157 597.5 Q141 564 139 508 Q153 518 174.5 525.5 Q196 533 228 533 Q257 533 283 525.5 Q309 518 328 503.5 Q347 489 358 468 Q369 447 369 419 Q369 362 325 326.5 Q281 291 209 291 Q173 291 140.5 301.5 Q108 312 84 335 Q60 358 46 394.5 Q32 431 32 483 Q32 534 46 571 Q60 608 84.5 632.5 Q109 657 142.5 668.5 Q176 680 215 680 Q246 680 271 673.5 Q296 667 313.5 656.5 Q331 646 342 633 Q353 620 358 608 L273 587 Z M139 468 Q141 408 158 373 Q175 338 210 338 Q240 338 252.5 358.5 Q265 379 265 408 Q265 424 261.5 438 Q258 452 249.5 462.5 Q241 473 227.5 479.5 Q214 486 194 486 Q159 486 139 468 Z " />
<glyph glyph-name="seven.superior" unicode="&#x2077;" horiz-adv-x="360" d="M270 600 L28 600 L28 673 L339 673 L339 613 L187 297 L86 297 L270 600 Z " />
<glyph glyph-name="eight.superior" unicode="&#x2078;" horiz-adv-x="405" d="M130 497 Q92 511 71 530.5 Q50 550 50 582 Q50 627 92 653.5 Q134 680 202 680 Q269 680 311.5 654 Q354 628 354 583 Q354 550 332 530 Q310 510 273 499 Q292 492 310.5 483 Q329 474 342.5 462 Q356 450 364.5 434.5 Q373 419 373 399 Q373 350 326.5 320.5 Q280 291 202 291 Q124 291 78 320.5 Q32 350 32 399 Q32 438 60 460.5 Q88 483 130 497 Z M196 477 Q162 466 147.5 447 Q133 428 133 402 Q133 375 150.5 356.5 Q168 338 203 338 Q233 338 251.5 354 Q270 370 270 399 Q270 427 252.5 445.5 Q235 464 196 477 Z M206 518 Q234 528 247 545 Q260 562 260 582 Q260 605 245 619 Q230 633 202 633 Q174 633 160 619.5 Q146 606 146 586 Q146 565 159.5 547.5 Q173 530 206 518 Z " />
<glyph glyph-name="nine.superior" unicode="&#x2079;" horiz-adv-x="401" d="M129 383 Q130 378 134 371 Q138 364 145.5 356.5 Q153 349 164 344 Q175 339 190 339 Q228 339 244.5 372 Q261 405 262 461 Q248 450 226.5 443.5 Q205 437 173 437 Q144 437 118 444.5 Q92 452 73 466.5 Q54 481 43 502.5 Q32 524 32 552 Q32 580 43.5 604 Q55 628 76 644.5 Q97 661 126.5 670.5 Q156 680 191 680 Q228 680 260.5 669.5 Q293 659 317 635.5 Q341 612 355 575.5 Q369 539 369 487 Q369 436 355 399 Q341 362 317 338 Q293 314 260 302.5 Q227 291 188 291 Q156 291 131 297.5 Q106 304 88 314.5 Q70 325 58.5 337.5 Q47 350 43 363 L129 383 Z M261 503 Q259 564 242.5 598.5 Q226 633 191 633 Q162 633 149.5 612.5 Q137 592 137 563 Q137 531 152 508 Q167 485 207 485 Q225 485 239 490 Q253 495 261 503 Z " />
<glyph glyph-name="uni00A0" unicode="&#xa0;" horiz-adv-x="208" d="" />
<glyph glyph-name="fraction" unicode="&#x2044;" horiz-adv-x="182" d="M266 700 L351 700 L-84 0 L-168 0 L266 700 Z " />
<glyph glyph-name="onequarter" unicode="&#xbc;" horiz-adv-x="812" d="M55 345 L120 345 L120 608 L45 608 L45 647 L161 673 L220 673 L220 345 L282 345 L282 297 L55 297 L55 345 Z M432 131 L633 376 L729 376 L729 133 L784 133 L784 86 L729 86 L729 0 L630 0 L630 86 L432 86 L432 131 Z M630 133 L630 170 Q630 213 631 247.5 Q632 282 634 301 L631 301 Q620 284 602.5 262.5 Q585 241 560 211 L495 133 L630 133 Z M598 700 L682 700 L248 0 L163 0 L598 700 Z " />
<glyph glyph-name="onehalf" unicode="&#xbd;" horiz-adv-x="862" d="M55 345 L120 345 L120 608 L45 608 L45 647 L161 673 L220 673 L220 345 L282 345 L282 297 L55 297 L55 345 Z M598 700 L682 700 L248 0 L163 0 L598 700 Z M511 62 Q542 81 578 103.5 Q614 126 645 152.5 Q676 179 697 209 Q718 239 718 275 Q718 303 701.5 317.5 Q685 332 659 332 Q628 332 613.5 315 Q599 298 591 271 L505 296 Q522 336 560.5 359 Q599 382 662 382 Q740 382 782 351.5 Q824 321 824 270 Q824 234 804 205 Q784 176 752.5 152.5 Q721 129 682.5 109.5 Q644 90 607 74 L607 73 L824 73 L824 0 L511 0 L511 62 Z " />
<glyph glyph-name="threequarters" unicode="&#xbe;" horiz-adv-x="856" d="M108 388 Q115 368 132 353.5 Q149 339 181 339 Q209 339 228 352 Q247 365 247 395 Q247 417 236.5 431 Q226 445 209 452.5 Q192 460 171 463 Q150 466 128 466 L128 518 Q147 519 166.5 522 Q186 525 202 532 Q218 539 228 551.5 Q238 564 238 584 Q238 608 222.5 619.5 Q207 631 180 631 Q149 631 136 616.5 Q123 602 116 586 L34 610 Q48 639 84.5 659.5 Q121 680 182 680 Q253 680 295.5 655.5 Q338 631 338 587 Q338 550 308.5 527.5 Q279 505 228 497 L228 495 Q280 488 315 466.5 Q350 445 350 398 Q350 344 304.5 317.5 Q259 291 184 291 Q123 291 84.5 309.5 Q46 328 26 360 L108 388 Z M638 700 L723 700 L288 0 L204 0 L638 700 Z M477 131 L678 376 L774 376 L774 133 L829 133 L829 86 L774 86 L774 0 L674 0 L674 86 L477 86 L477 131 Z M674 133 L674 170 Q674 213 675 247.5 Q676 282 678 301 L676 301 Q665 284 647.5 262.5 Q630 241 604 211 L540 133 L674 133 Z " />
<glyph glyph-name="percent" unicode="&#x25;" horiz-adv-x="910" d="M215 337 Q172 337 138.5 351.5 Q105 366 81.5 391 Q58 416 46 450.5 Q34 485 34 526 Q34 566 46.5 600 Q59 634 82.5 659 Q106 684 139.5 697.5 Q173 711 215 711 Q257 711 290.5 697.5 Q324 684 348 659 Q372 634 384.5 600 Q397 566 397 525 Q397 484 384.5 449.5 Q372 415 348 390 Q324 365 290.5 351 Q257 337 215 337 Z M215 384 Q255 384 273 423.5 Q291 463 291 525 Q291 555 286.5 580 Q282 605 273 624 Q264 643 249.5 653.5 Q235 664 215 664 Q175 664 157.5 625 Q140 586 140 525 Q140 465 157.5 424.5 Q175 384 215 384 Z M694 -11 Q651 -11 617.5 3.5 Q584 18 560.5 43 Q537 68 525 102.5 Q513 137 513 178 Q513 218 525.5 252 Q538 286 561.5 311 Q585 336 618.5 349.5 Q652 363 694 363 Q736 363 769.5 349.5 Q803 336 826.5 311 Q850 286 863 252 Q876 218 876 177 Q876 136 863 101.5 Q850 67 826.5 42 Q803 17 769.5 3 Q736 -11 694 -11 Z M694 37 Q735 37 752.5 76 Q770 115 770 177 Q770 237 752.5 276.5 Q735 316 694 316 Q653 316 636 277 Q619 238 619 177 Q619 147 623 121.5 Q627 96 636 77 Q645 58 659.5 47.5 Q674 37 694 37 Z M628 700 L714 700 L282 0 L195 0 L628 700 Z " />
<glyph glyph-name="perthousand" unicode="&#x2030;" horiz-adv-x="1318" d="M215 337 Q172 337 138.5 351.5 Q105 366 81.5 391 Q58 416 46 450.5 Q34 485 34 526 Q34 566 46.5 600 Q59 634 82.5 659 Q106 684 139.5 697.5 Q173 711 215 711 Q257 711 290.5 697.5 Q324 684 348 659 Q372 634 384.5 600 Q397 566 397 525 Q397 484 384.5 449.5 Q372 415 348 390 Q324 365 290.5 351 Q257 337 215 337 Z M215 384 Q255 384 273 423.5 Q291 463 291 525 Q291 555 286.5 580 Q282 605 273 624 Q264 643 249.5 653.5 Q235 664 215 664 Q175 664 157.5 625 Q140 586 140 525 Q140 465 157.5 424.5 Q175 384 215 384 Z M694 -11 Q651 -11 617.5 3.5 Q584 18 560.5 43 Q537 68 525 102.5 Q513 137 513 178 Q513 218 525.5 252 Q538 286 561.5 311 Q585 336 618.5 349.5 Q652 363 694 363 Q736 363 769.5 349.5 Q803 336 826.5 311 Q850 286 863 252 Q876 218 876 177 Q876 136 863 101.5 Q850 67 826.5 42 Q803 17 769.5 3 Q736 -11 694 -11 Z M694 37 Q735 37 752.5 76 Q770 115 770 177 Q770 237 752.5 276.5 Q735 316 694 316 Q653 316 636 277 Q619 238 619 177 Q619 147 623 121.5 Q627 96 636 77 Q645 58 659.5 47.5 Q674 37 694 37 Z M628 700 L714 700 L282 0 L195 0 L628 700 Z M1101 -11 Q1058 -11 1024.5 3.5 Q991 18 968 43 Q945 68 933 102.5 Q921 137 921 178 Q921 218 933.5 252 Q946 286 969.5 311 Q993 336 1026 349.5 Q1059 363 1101 363 Q1143 363 1176.5 349.5 Q1210 336 1234 311 Q1258 286 1270.5 252 Q1283 218 1283 177 Q1283 136 1270.5 101.5 Q1258 67 1234 42 Q1210 17 1176.5 3 Q1143 -11 1101 -11 Z M1101 37 Q1142 37 1159.5 76 Q1177 115 1177 177 Q1177 237 1159.5 276.5 Q1142 316 1101 316 Q1061 316 1043.5 277 Q1026 238 1026 177 Q1026 117 1043.5 77 Q1061 37 1101 37 Z " />
<glyph glyph-name="plus" unicode="&#x2b;" horiz-adv-x="536" d="M225 244 L36 244 L36 324 L225 324 L225 508 L311 508 L311 324 L500 324 L500 244 L311 244 L311 60 L225 60 L225 244 Z " />
<glyph glyph-name="minus" unicode="&#x2212;" horiz-adv-x="536" d="M39 314 L497 314 L497 234 L39 234 L39 314 Z " />
<glyph glyph-name="plusminus" unicode="&#xb1;" horiz-adv-x="536" d="M50 369 L225 369 L225 520 L311 520 L311 369 L487 369 L487 289 L311 289 L311 138 L225 138 L225 289 L50 289 L50 369 Z M50 90 L487 90 L487 10 L50 10 L50 90 Z " />
<glyph glyph-name="multiply" unicode="&#xd7;" horiz-adv-x="536" d="M65 133 L210 272 L63 413 L124 472 L269 331 L416 472 L471 415 L326 275 L473 133 L413 75 L266 215 L122 75 L65 133 Z " />
<glyph glyph-name="divide" unicode="&#xf7;" horiz-adv-x="536" d="M36 314 L500 314 L500 234 L36 234 L36 314 Z M205 443 Q205 469 223 487 Q241 505 267 505 Q293 505 311.5 487 Q330 469 330 443 Q330 417 311.5 399.5 Q293 382 267 382 Q241 382 223 399.5 Q205 417 205 443 Z M205 104 Q205 130 223 148 Q241 166 267 166 Q293 166 311.5 148 Q330 130 330 104 Q330 78 311.5 60.5 Q293 43 267 43 Q241 43 223 60.5 Q205 78 205 104 Z " />
<glyph glyph-name="equal" unicode="&#x3d;" horiz-adv-x="536" d="M39 396 L497 396 L497 316 L39 316 L39 396 Z M39 232 L497 232 L497 152 L39 152 L39 232 Z " />
<glyph glyph-name="notequal" unicode="&#x2260;" horiz-adv-x="536" d="M160 152 L39 152 L39 232 L207 232 L258 316 L39 316 L39 396 L304 396 L373 509 L426 479 L376 396 L497 396 L497 316 L329 316 L278 232 L497 232 L497 152 L232 152 L164 40 L110 70 L160 152 Z " />
<glyph glyph-name="approxequal" unicode="&#x2248;" horiz-adv-x="536" d="M31 384 Q51 410 82 428.5 Q113 447 161 447 Q189 447 216.5 437.5 Q244 428 272 416.5 Q300 405 328 395.5 Q356 386 386 386 Q413 386 432 397 Q451 408 468 431 L506 366 Q483 334 453.5 319 Q424 304 386 304 Q351 304 321 313.5 Q291 323 263.5 334.5 Q236 346 209 355.5 Q182 365 154 365 Q120 365 101 351 Q82 337 68 320 L31 384 Z M31 215 Q51 241 82 259.5 Q113 278 161 278 Q189 278 216.5 268.5 Q244 259 272 247.5 Q300 236 328 226.5 Q356 217 386 217 Q413 217 432 228 Q451 239 468 262 L506 197 Q483 165 453.5 150 Q424 135 386 135 Q351 135 321 144.5 Q291 154 263.5 165.5 Q236 177 209 186.5 Q182 196 154 196 Q120 196 101 182 Q82 168 68 151 L31 215 Z " />
<glyph glyph-name="less" unicode="&#x3c;" horiz-adv-x="536" d="M45 303 L492 504 L492 418 L156 274 L492 130 L492 44 L45 245 L45 303 Z " />
<glyph glyph-name="greater" unicode="&#x3e;" horiz-adv-x="536" d="M45 44 L45 130 L380 274 L45 418 L45 504 L492 303 L492 245 L45 44 Z " />
<glyph glyph-name="lessequal" unicode="&#x2264;" horiz-adv-x="536" d="M49 353 L478 534 L478 448 L174 328 L478 208 L478 122 L49 303 L49 353 Z M48 90 L489 90 L489 10 L48 10 L48 90 Z " />
<glyph glyph-name="greaterequal" unicode="&#x2265;" horiz-adv-x="536" d="M48 90 L489 90 L489 10 L48 10 L48 90 Z M49 122 L49 208 L353 328 L49 448 L49 534 L478 353 L478 303 L49 122 Z " />
<glyph glyph-name="logicalnot" unicode="&#xac;" horiz-adv-x="536" d="M36 314 L500 314 L500 80 L410 80 L410 234 L36 234 L36 314 Z " />
<glyph glyph-name="uni00AD" unicode="&#xad;" horiz-adv-x="341" d="M47 322 L293 322 L293 230 L47 230 L47 322 Z " />
<glyph glyph-name="Delta" unicode="&#x2206;" horiz-adv-x="607" d="M236 700 L384 700 L578 0 L30 0 L236 700 Z M438 71 L330 461 Q313 521 305 554.5 Q297 588 293 607 L291 607 Q287 588 278.5 555 Q270 522 253 462 L140 71 L438 71 Z " />
<glyph glyph-name="Omega" unicode="&#x2126;" horiz-adv-x="706" d="M45 71 L207 71 Q168 92 140 124.5 Q112 157 94 196.5 Q76 236 67 279.5 Q58 323 58 365 Q58 446 79 510 Q100 574 138.5 619 Q177 664 231.5 687.5 Q286 711 353 711 Q420 711 474.5 687.5 Q529 664 567.5 619.5 Q606 575 627 510.5 Q648 446 648 365 Q648 321 639.5 277.5 Q631 234 613 195 Q595 156 567.5 123.5 Q540 91 501 71 L661 71 L661 0 L415 0 L415 71 Q439 87 458 115 Q477 143 490 180 Q503 217 509.5 260.5 Q516 304 516 351 Q516 416 506 469.5 Q496 523 475.5 561.5 Q455 600 424.5 621 Q394 642 353 642 Q312 642 281 621 Q250 600 230 561.5 Q210 523 200 469.5 Q190 416 190 351 Q190 304 198 261 Q206 218 219.5 181 Q233 144 251.5 116 Q270 88 291 71 L291 0 L45 0 L45 71 Z " />
<glyph glyph-name="mu" unicode="&#xb5;" horiz-adv-x="525" d="M60 507 L174 507 L174 174 Q174 115 193.5 92.5 Q213 70 245 70 Q277 70 303.5 84 Q330 98 351 124 L351 507 L464 507 L464 0 L375 0 L361 67 L360 67 Q350 55 338 41.5 Q326 28 311 16.5 Q296 5 278 -3 Q260 -11 238 -11 Q221 -11 204 -5 Q187 1 174 12 L172 11 Q173 5 173.5 -8.5 Q174 -22 174 -38 Q174 -54 174 -70.5 Q174 -87 174 -99 L174 -187 L60 -187 L60 507 Z " />
<glyph glyph-name="pi" unicode="&#x3c0;" horiz-adv-x="609" d="M119 446 L42 446 L42 507 L567 507 L567 446 L486 446 L486 131 Q486 90 497.5 72.5 Q509 55 544 55 Q556 55 567 58 L567 -6 Q542 -11 511 -11 Q470 -11 443 -2 Q416 7 400.5 25 Q385 43 378.5 71 Q372 99 372 138 L372 446 L233 446 L233 0 L119 0 L119 446 Z " />
<glyph glyph-name="degree" unicode="&#xb0;" horiz-adv-x="392" d="M52 571 Q52 600 62 625.5 Q72 651 90.5 670 Q109 689 136 700 Q163 711 196 711 Q229 711 256 700 Q283 689 301.5 670 Q320 651 330.5 625.5 Q341 600 341 571 Q341 542 330.5 517 Q320 492 301.5 473.5 Q283 455 256 444 Q229 433 196 433 Q163 433 136 444 Q109 455 90.5 473.5 Q72 492 62 517 Q52 542 52 571 Z M196 485 Q217 485 232.5 492.5 Q248 500 258 512 Q268 524 273 539.5 Q278 555 278 571 Q278 587 273 602.5 Q268 618 258 630.5 Q248 643 232.5 650.5 Q217 658 196 658 Q175 658 159.5 650.5 Q144 643 134 630.5 Q124 618 119 602.5 Q114 587 114 571 Q114 555 119 539.5 Q124 524 134 512 Q144 500 159.5 492.5 Q175 485 196 485 Z " />
<glyph glyph-name="infinity" unicode="&#x221e;" horiz-adv-x="930" d="M468 323 Q490 343 514 363.5 Q538 384 565.5 400.5 Q593 417 624 427.5 Q655 438 692 438 Q728 438 760 427.5 Q792 417 816 396 Q840 375 853.5 343.5 Q867 312 867 270 Q867 228 853 195.5 Q839 163 815 141.5 Q791 120 759.5 108.5 Q728 97 692 97 Q657 97 625 108 Q593 119 564.5 136.5 Q536 154 511 175.5 Q486 197 465 217 Q442 195 417.5 173.5 Q393 152 365 135 Q337 118 305.5 107.5 Q274 97 238 97 Q208 97 177 107 Q146 117 120.5 138 Q95 159 79 191.5 Q63 224 63 270 Q63 316 78.5 348 Q94 380 119 400 Q144 420 175.5 429 Q207 438 238 438 Q276 438 307.5 428 Q339 418 367 401.5 Q395 385 419.5 364.5 Q444 344 468 323 Z M416 268 Q401 284 382.5 301.5 Q364 319 342 333.5 Q320 348 295 357.5 Q270 367 244 367 Q192 367 166.5 339.5 Q141 312 141 272 Q141 252 147 233.5 Q153 215 166 201 Q179 187 199 178 Q219 169 247 169 Q270 169 293 178.5 Q316 188 338 202 Q360 216 379.5 233.5 Q399 251 416 268 Z M518 270 Q565 224 603.5 196.5 Q642 169 688 169 Q736 169 762 197.5 Q788 226 788 270 Q788 314 761.5 340.5 Q735 367 686 367 Q661 367 639 358.5 Q617 350 596.5 336.5 Q576 323 556.5 305.5 Q537 288 518 270 Z " />
<glyph glyph-name="partialdiff" unicode="&#x2202;" horiz-adv-x="527" d="M321 759 Q343 741 371.5 701.5 Q400 662 425.5 603.5 Q451 545 468.5 468.5 Q486 392 486 300 Q486 144 429.5 66.5 Q373 -11 266 -11 Q213 -11 170.5 7.5 Q128 26 98 60.5 Q68 95 52 144 Q36 193 36 253 Q36 313 51.5 360.5 Q67 408 93.5 440.5 Q120 473 156.5 490 Q193 507 235 507 Q276 507 304 494 Q332 481 352 462 Q338 526 317 573 Q296 620 274.5 652.5 Q253 685 235 704 Q217 723 209 730 L321 759 Z M365 386 Q360 394 350.5 403.5 Q341 413 328 421 Q315 429 298.5 434.5 Q282 440 263 440 Q234 440 214 426.5 Q194 413 182 388 Q170 363 165 329 Q160 295 160 253 Q160 211 165.5 174 Q171 137 183 109 Q195 81 215.5 64.5 Q236 48 266 48 Q296 48 316.5 64.5 Q337 81 349 111 Q361 141 366.5 182 Q372 223 372 273 Q372 300 370.5 330 Q369 360 365 386 Z " />
<glyph glyph-name="integral" unicode="&#x222b;" horiz-adv-x="446" d="M10 -110 Q19 -117 35 -120 Q51 -123 61 -123 Q74 -123 85.5 -120 Q97 -117 106 -107 Q115 -97 121.5 -80 Q128 -63 131 -34 L199 587 Q209 682 256.5 721.5 Q304 761 380 761 Q405 761 421.5 758 Q438 755 443 753 L436 684 Q427 691 411 694 Q395 697 385 697 Q372 697 360.5 693.5 Q349 690 340 680.5 Q331 671 324.5 653 Q318 635 315 607 L247 -13 Q236 -108 189 -147.5 Q142 -187 66 -187 Q41 -187 24.5 -184.5 Q8 -182 3 -180 L10 -110 Z " />
<glyph glyph-name="radical" unicode="&#x221a;" horiz-adv-x="584" d="M88 447 L13 447 L13 507 L194 507 L275 212 Q286 170 293 139.5 Q300 109 304 90 L306 90 Q310 109 317.5 140 Q325 171 336 211 L479 700 L571 700 L355 0 L219 0 L88 447 Z " />
<glyph glyph-name="summation" unicode="&#x2211;" horiz-adv-x="524" d="M32 58 L235 360 L40 643 L40 700 L492 700 L492 629 L180 629 L366 360 L171 71 L492 71 L492 0 L32 0 L32 58 Z " />
<glyph glyph-name="product" unicode="&#x220f;" horiz-adv-x="653" d="M72 700 L581 700 L581 0 L460 0 L460 629 L193 629 L193 0 L72 0 L72 700 Z " />
<glyph glyph-name="lozenge" unicode="&#x25ca;" horiz-adv-x="562" d="M41 350 L242 700 L323 700 L521 350 L320 0 L239 0 L41 350 Z M424 350 L281 604 L139 350 L281 96 L424 350 Z " />
<glyph glyph-name="afii10017" unicode="&#x410;" horiz-adv-x="590" d="M225 700 L377 700 L570 0 L448 0 L394 194 L169 194 L113 0 L20 0 L225 700 Z M375 270 L322 459 Q291 572 285 609 L283 609 Q278 592 269.5 556 Q261 520 244 461 L189 270 L375 270 Z " />
<glyph glyph-name="afii10018" unicode="&#x411;" horiz-adv-x="548" d="M247 72 Q284 72 311 83.5 Q338 95 354.5 114.5 Q371 134 379 161 Q387 188 387 219 Q387 285 351 323.5 Q315 362 229 362 Q221 362 207.5 361.5 Q194 361 192 361 L192 72 L247 72 Z M192 433 Q194 433 208.5 433.5 Q223 434 236 434 Q296 434 347.5 420.5 Q399 407 436.5 380.5 Q474 354 495.5 313.5 Q517 273 517 219 Q517 171 500.5 131 Q484 91 451 61.5 Q418 32 367 16 Q316 0 247 0 L71 0 L71 700 L473 700 L473 625 L192 625 L192 433 Z " />
<glyph glyph-name="afii10019" unicode="&#x412;" horiz-adv-x="561" d="M71 700 L252 700 Q380 700 440 655.5 Q500 611 500 536 Q500 474 463.5 435.5 Q427 397 361 380 L361 378 Q442 364 485.5 319 Q529 274 529 201 Q529 106 463.5 53 Q398 0 260 0 L71 0 L71 700 Z M249 70 Q330 70 363.5 104 Q397 138 397 202 Q397 267 359.5 301.5 Q322 336 233 336 L192 336 L192 70 L249 70 Z M242 408 Q315 408 346 437 Q377 466 377 523 Q377 576 347.5 602.5 Q318 629 247 629 L192 629 L192 408 L242 408 Z " />
<glyph glyph-name="afii10020" unicode="&#x413;" horiz-adv-x="462" d="M71 700 L447 700 L447 625 L192 625 L192 0 L71 0 L71 700 Z " />
<glyph glyph-name="afii10021" unicode="&#x414;" horiz-adv-x="651" d="M15 75 L77 75 Q111 131 134 198 Q157 265 170 342.5 Q183 420 188.5 509.5 Q194 599 194 700 L554 700 L554 75 L629 75 L629 -154 L517 -154 L517 0 L127 0 L127 -154 L15 -154 L15 75 Z M287 625 Q287 546 280.5 470 Q274 394 260.5 323.5 Q247 253 227 190 Q207 127 180 75 L434 75 L434 625 L287 625 Z " />
<glyph glyph-name="afii10022" unicode="&#x415;" horiz-adv-x="506" d="M71 700 L457 700 L457 625 L192 625 L192 405 L416 405 L416 329 L192 329 L192 75 L469 75 L469 0 L71 0 L71 700 Z " />
<glyph glyph-name="afii10023" unicode="&#x401;" horiz-adv-x="506" d="M71 700 L457 700 L457 625 L192 625 L192 405 L416 405 L416 329 L192 329 L192 75 L469 75 L469 0 L71 0 L71 700 Z M103 860 L212 860 L212 756 L103 756 L103 860 Z M294 860 L403 860 L403 756 L294 756 L294 860 Z " />
<glyph glyph-name="afii10024" unicode="&#x416;" horiz-adv-x="859" d="M489 0 L370 0 L370 326 L343 326 Q305 326 285 311.5 Q265 297 257 268 L212 98 Q198 43 156.5 17 Q115 -9 30 -10 L17 69 Q50 72 68.5 84 Q87 96 95 120 L142 282 Q150 310 174 332.5 Q198 355 238 365 L238 367 Q212 374 187 396 Q162 418 152 452 L117 570 Q107 604 85.5 616.5 Q64 629 37 633 L53 710 Q93 710 122 702.5 Q151 695 171 681 Q191 667 203.5 646.5 Q216 626 223 600 L258 470 Q276 402 350 402 L370 402 L370 700 L489 700 L489 402 L509 402 Q583 402 601 470 L636 600 Q643 626 655.5 646.5 Q668 667 688 681 Q708 695 736.5 702.5 Q765 710 806 710 L822 633 Q795 629 773.5 616.5 Q752 604 742 570 L707 452 Q697 418 672 396 Q647 374 621 367 L621 365 Q663 355 686 332.5 Q709 310 717 282 L764 120 Q772 96 790.5 84 Q809 72 842 69 L829 -10 Q744 -9 702.5 17 Q661 43 647 98 L602 268 Q594 298 574 312 Q554 326 515 326 L489 326 L489 0 Z " />
<glyph glyph-name="afii10025" unicode="&#x417;" horiz-adv-x="525" d="M135 181 Q146 124 178 94 Q210 64 255 64 Q303 64 331.5 96.5 Q360 129 360 198 Q360 269 321 299.5 Q282 330 213 330 L177 330 L177 406 L213 406 Q338 406 338 529 Q338 587 314.5 611.5 Q291 636 251 636 Q218 636 190.5 612.5 Q163 589 152 534 L46 563 Q57 605 80 633 Q103 661 131.5 678 Q160 695 191.5 702.5 Q223 710 252 710 Q304 710 343 696 Q382 682 408 658 Q434 634 447.5 600.5 Q461 567 461 528 Q461 502 453 477 Q445 452 429.5 431.5 Q414 411 390.5 396.5 Q367 382 336 376 L336 374 Q367 371 394 357 Q421 343 441.5 320.5 Q462 298 473.5 267.5 Q485 237 485 201 Q485 152 468 113 Q451 74 420 46.5 Q389 19 346 4.5 Q303 -10 252 -10 Q158 -10 102 33 Q46 76 26 152 L135 181 Z " />
<glyph glyph-name="afii10026" unicode="&#x418;" horiz-adv-x="635" d="M443 295 Q443 321 443.5 354.5 Q444 388 445 421.5 Q446 455 448 485 Q450 515 452 533 Q443 513 425 475 Q407 437 381 387 L184 0 L71 0 L71 700 L191 700 L191 430 Q191 399 190.5 362 Q190 325 189.5 288.5 Q189 252 187.5 221 Q186 190 184 171 Q188 181 196 197.5 Q204 214 214 234.5 Q224 255 235.5 277.5 Q247 300 258 323 L450 700 L563 700 L563 0 L443 0 L443 295 Z " />
<glyph glyph-name="afii10027" unicode="&#x419;" horiz-adv-x="635" d="M486 861 Q470 802 427 770 Q384 738 314 738 Q244 738 201 770 Q158 802 142 861 L217 888 Q229 850 253 826.5 Q277 803 314 803 Q352 803 375.5 826.5 Q399 850 410 888 L486 861 Z M443 295 Q443 321 443.5 354.5 Q444 388 445 421.5 Q446 455 448 485 Q450 515 452 533 Q443 513 425 475 Q407 437 381 387 L184 0 L71 0 L71 700 L191 700 L191 430 Q191 399 190.5 362 Q190 325 189.5 288.5 Q189 252 187.5 221 Q186 190 184 171 Q188 181 196 197.5 Q204 214 214 234.5 Q224 255 235.5 277.5 Q247 300 258 323 L450 700 L563 700 L563 0 L443 0 L443 295 Z " />
<glyph glyph-name="afii10028" unicode="&#x41a;" horiz-adv-x="589" d="M192 0 L71 0 L71 700 L192 700 L192 402 L231 402 Q270 402 293.5 422.5 Q317 443 332 481 L371 583 Q383 614 396.5 638 Q410 662 429.5 678 Q449 694 477.5 702 Q506 710 547 710 L560 632 Q533 628 513.5 613.5 Q494 599 477 557 L436 457 Q422 423 393.5 399 Q365 375 333 368 L333 366 Q374 358 400.5 336 Q427 314 443 270 L492 136 Q505 101 522 87.5 Q539 74 571 71 L559 -10 Q518 -10 488.5 -3 Q459 4 438 17.5 Q417 31 403 52.5 Q389 74 379 103 L328 254 Q314 293 293.5 310.5 Q273 328 231 328 L192 328 L192 0 Z " />
<glyph glyph-name="afii10029" unicode="&#x41b;" horiz-adv-x="608" d="M536 700 L536 0 L416 0 L416 624 L280 624 Q274 460 261 347.5 Q248 235 221.5 161.5 Q195 88 151 48 Q107 8 38 -10 L9 71 Q56 88 85.5 126 Q115 164 133 236 Q151 308 160.5 420.5 Q170 533 177 700 L536 700 Z " />
<glyph glyph-name="afii10030" unicode="&#x41c;" horiz-adv-x="757" d="M100 700 L248 700 L336 370 Q352 311 364.5 256 Q377 201 385 152 L387 152 Q395 200 408.5 258 Q422 316 436 370 L523 700 L666 700 L724 0 L611 0 L582 350 Q577 413 573.5 469 Q570 525 569 564 L567 564 Q559 525 544.5 468 Q530 411 514 351 L422 0 L321 0 L225 351 Q206 418 193.5 471 Q181 524 174 560 L172 560 Q172 544 170.5 518.5 Q169 493 167.5 464 Q166 435 164 405 Q162 375 160 350 L132 0 L40 0 L100 700 Z " />
<glyph glyph-name="afii10031" unicode="&#x41d;" horiz-adv-x="610" d="M71 700 L192 700 L192 406 L419 406 L419 700 L539 700 L539 0 L419 0 L419 328 L192 328 L192 0 L71 0 L71 700 Z " />
<glyph glyph-name="afii10032" unicode="&#x41e;" horiz-adv-x="683" d="M342 -11 Q271 -11 216 15 Q161 41 123.5 88.5 Q86 136 66 203 Q46 270 46 352 Q46 434 66 500.5 Q86 567 123.5 613.5 Q161 660 216 685.5 Q271 711 342 711 Q412 711 467 686 Q522 661 559.5 614 Q597 567 616.5 500.5 Q636 434 636 351 Q636 268 616.5 201.5 Q597 135 559.5 87.5 Q522 40 467 14.5 Q412 -11 342 -11 Z M342 60 Q383 60 413.5 81 Q444 102 464.5 140 Q485 178 495 231.5 Q505 285 505 351 Q505 416 495 469.5 Q485 523 464.5 561 Q444 599 413.5 619.5 Q383 640 342 640 Q301 640 270 619.5 Q239 599 218.5 561 Q198 523 188 469.5 Q178 416 178 351 Q178 286 188 232 Q198 178 218.5 140 Q239 102 270 81 Q301 60 342 60 Z " />
<glyph glyph-name="afii10033" unicode="&#x41f;" horiz-adv-x="603" d="M71 700 L532 700 L532 0 L412 0 L412 625 L192 625 L192 0 L71 0 L71 700 Z " />
<glyph glyph-name="afii10034" unicode="&#x420;" horiz-adv-x="565" d="M71 700 L255 700 Q314 700 365 689.5 Q416 679 453.5 654.5 Q491 630 512.5 590 Q534 550 534 490 Q534 431 513 390 Q492 349 454.5 324 Q417 299 366 288 Q315 277 256 277 L192 277 L192 0 L71 0 L71 700 Z M249 349 Q328 349 365 381 Q402 413 402 490 Q402 567 365 597.5 Q328 628 248 628 L192 628 L192 349 L249 349 Z " />
<glyph glyph-name="afii10035" unicode="&#x421;" horiz-adv-x="595" d="M574 139 Q547 67 488 28 Q429 -11 336 -11 Q264 -11 209.5 15.5 Q155 42 118.5 90 Q82 138 64 205 Q46 272 46 352 Q46 434 65 500.5 Q84 567 120.5 614 Q157 661 211.5 686 Q266 711 337 711 Q426 711 485 673.5 Q544 636 570 568 L459 528 Q445 578 414 609 Q383 640 335 640 Q295 640 265.5 620 Q236 600 216.5 563 Q197 526 187.5 473 Q178 420 178 355 Q178 290 187.5 236 Q197 182 217 143 Q237 104 267.5 82.5 Q298 61 339 61 Q428 61 463 177 L574 139 Z " />
<glyph glyph-name="afii10036" unicode="&#x422;" horiz-adv-x="520" d="M200 625 L20 625 L20 700 L500 700 L500 625 L320 625 L320 0 L200 0 L200 625 Z " />
<glyph glyph-name="afii10037" unicode="&#x423;" horiz-adv-x="525" d="M53 91 Q70 83 89.5 78 Q109 73 135 73 Q171 73 193 99 Q215 125 232 163 L16 700 L141 700 L230 464 Q248 418 264.5 372 Q281 326 287 300 L289 300 Q292 313 297 331.5 Q302 350 309 371.5 Q316 393 323 416 Q330 439 338 462 L416 700 L515 700 L340 186 Q323 138 304.5 101.5 Q286 65 261 40.5 Q236 16 203.5 3 Q171 -10 127 -10 Q107 -10 81.5 -6 Q56 -2 36 6 L53 91 Z " />
<glyph glyph-name="afii10038" unicode="&#x424;" horiz-adv-x="780" d="M450 643 L471 643 Q515 643 563 627.5 Q611 612 651.5 577.5 Q692 543 718 487 Q744 431 744 351 Q744 271 718.5 216 Q693 161 652.5 127 Q612 93 563 78 Q514 63 466 63 L450 63 L450 -10 L330 -10 L330 63 L314 63 Q266 63 217 78 Q168 93 127.5 127 Q87 161 61.5 216 Q36 271 36 351 Q36 431 62 487 Q88 543 128.5 577.5 Q169 612 217 627.5 Q265 643 309 643 L330 643 L330 710 L450 710 L450 643 Z M163 351 Q163 241 206.5 189 Q250 137 320 137 L330 137 L330 570 L320 570 Q250 570 206.5 516 Q163 462 163 351 Z M617 351 Q617 462 573.5 516 Q530 570 460 570 L450 570 L450 137 L460 137 Q530 137 573.5 189 Q617 241 617 351 Z " />
<glyph glyph-name="afii10039" unicode="&#x425;" horiz-adv-x="538" d="M202 363 L22 700 L150 700 L275 460 L403 700 L500 700 L323 381 L526 0 L398 0 L251 280 L108 0 L11 0 L202 363 Z " />
<glyph glyph-name="afii10040" unicode="&#x426;" horiz-adv-x="650" d="M534 75 L612 75 L612 -154 L501 -154 L501 0 L71 0 L71 700 L192 700 L192 75 L415 75 L415 700 L534 700 L534 75 Z " />
<glyph glyph-name="afii10041" unicode="&#x427;" horiz-adv-x="576" d="M505 700 L505 0 L385 0 L385 276 Q356 266 323 260 Q290 254 251 254 Q193 254 154.5 267 Q116 280 93.5 304 Q71 328 61.5 362.5 Q52 397 52 440 L52 700 L171 700 L171 444 Q171 389 194.5 358.5 Q218 328 277 328 Q309 328 335 333 Q361 338 385 349 L385 700 L505 700 Z " />
<glyph glyph-name="afii10042" unicode="&#x428;" horiz-adv-x="906" d="M71 700 L192 700 L192 75 L393 75 L393 700 L513 700 L513 75 L714 75 L714 700 L834 700 L834 0 L71 0 L71 700 Z " />
<glyph glyph-name="afii10043" unicode="&#x429;" horiz-adv-x="954" d="M71 700 L192 700 L192 75 L393 75 L393 700 L513 700 L513 75 L714 75 L714 700 L834 700 L834 75 L917 75 L917 -154 L805 -154 L805 0 L71 0 L71 700 Z " />
<glyph glyph-name="afii10044" unicode="&#x42a;" horiz-adv-x="653" d="M289 432 Q291 432 308.5 433.5 Q326 435 340 435 Q404 435 455.5 421 Q507 407 543.5 379.5 Q580 352 600 312 Q620 272 620 220 Q620 171 603.5 130.5 Q587 90 554 61 Q521 32 470 16 Q419 0 350 0 L169 0 L169 625 L17 625 L17 700 L289 700 L289 432 Z M346 72 Q385 72 412.5 82.5 Q440 93 457.5 112.5 Q475 132 482.5 159 Q490 186 490 218 Q490 288 454 325.5 Q418 363 329 363 Q317 363 304 362.5 Q291 362 289 362 L289 72 L346 72 Z " />
<glyph glyph-name="afii10045" unicode="&#x42b;" horiz-adv-x="798" d="M607 700 L726 700 L726 0 L607 0 L607 700 Z M242 72 Q281 72 309 82.5 Q337 93 354 112.5 Q371 132 379 158.5 Q387 185 387 217 Q387 287 351 324 Q315 361 226 361 Q215 361 204 360.5 Q193 360 192 360 L192 72 L242 72 Z M192 432 Q194 432 209 433 Q224 434 239 434 Q302 434 353 420 Q404 406 440.5 378.5 Q477 351 497 311 Q517 271 517 219 Q517 170 500.5 129.5 Q484 89 450.5 60.5 Q417 32 366 16 Q315 0 246 0 L71 0 L71 700 L192 700 L192 432 Z " />
<glyph glyph-name="afii10046" unicode="&#x42c;" horiz-adv-x="555" d="M248 72 Q287 72 315 82.5 Q343 93 360 112.5 Q377 132 385 159 Q393 186 393 218 Q393 288 357 325.5 Q321 363 232 363 Q220 363 206.5 362.5 Q193 362 191 362 L191 72 L248 72 Z M191 432 Q192 432 197.5 432.5 Q203 433 210.5 433.5 Q218 434 226.5 434.5 Q235 435 242 435 Q306 435 357.5 421 Q409 407 446 379.5 Q483 352 503 312 Q523 272 523 220 Q523 171 506.5 130.5 Q490 90 456.5 61 Q423 32 372 16 Q321 0 252 0 L71 0 L71 700 L191 700 L191 432 Z " />
<glyph glyph-name="afii10047" unicode="&#x42d;" horiz-adv-x="562" d="M164 405 L384 405 Q379 527 347.5 583.5 Q316 640 254 640 Q211 640 181.5 611.5 Q152 583 138 521 L30 549 Q76 710 254 710 Q326 710 375.5 684 Q425 658 456.5 611 Q488 564 502 498 Q516 432 516 352 Q516 272 502 205.5 Q488 139 457 91 Q426 43 376 16.5 Q326 -10 254 -10 Q207 -10 169 2 Q131 14 103 35.5 Q75 57 57 86.5 Q39 116 30 152 L138 181 Q149 130 176.5 95.5 Q204 61 254 61 Q290 61 314.5 80 Q339 99 354.5 134 Q370 169 377.5 218 Q385 267 386 328 L164 328 L164 405 Z " />
<glyph glyph-name="afii10048" unicode="&#x42e;" horiz-adv-x="815" d="M71 700 L191 700 L191 405 L279 405 Q283 474 300.5 530.5 Q318 587 348.5 627 Q379 667 423 688.5 Q467 710 524 710 Q586 710 632 684 Q678 658 708.5 610.5 Q739 563 754 497 Q769 431 769 351 Q769 271 754 204.5 Q739 138 708.5 90.5 Q678 43 632 16.5 Q586 -10 524 -10 Q464 -10 418.5 14.5 Q373 39 342.5 83.5 Q312 128 295.5 190 Q279 252 278 328 L191 328 L191 0 L71 0 L71 700 Z M524 63 Q550 63 569 78 Q588 93 600.5 117 Q613 141 620.5 172 Q628 203 632.5 235 Q637 267 638 297.5 Q639 328 639 351 Q639 500 610 568 Q581 636 524 636 Q468 636 438 568 Q408 500 408 351 Q408 295 413 243.5 Q418 192 431 151.5 Q444 111 466.5 87 Q489 63 524 63 Z " />
<glyph glyph-name="afii10049" unicode="&#x42f;" horiz-adv-x="573" d="M15 69 Q44 72 63 86.5 Q82 101 93 136 L118 215 Q132 260 160 287 Q188 314 232 326 L232 328 Q194 333 164 348.5 Q134 364 113 387.5 Q92 411 80.5 440 Q69 469 69 501 Q69 548 84.5 585 Q100 622 133 647.5 Q166 673 217.5 686.5 Q269 700 342 700 L503 700 L503 0 L382 0 L382 297 L342 297 Q298 297 275 274 Q252 251 238 209 L206 115 Q183 47 142 18.5 Q101 -10 28 -10 L15 69 Z M382 370 L382 627 L342 627 Q263 627 230 593 Q197 559 197 496 Q197 429 234 399.5 Q271 370 342 370 L382 370 Z " />
<glyph glyph-name="afii10050" unicode="&#x490;" horiz-adv-x="462" d="M71 700 L336 700 L336 854 L447 854 L447 625 L192 625 L192 0 L71 0 L71 700 Z " />
<glyph glyph-name="afii10053" unicode="&#x404;" horiz-adv-x="561" d="M398 328 L177 328 Q178 267 185 218 Q192 169 207.5 134 Q223 99 247.5 80 Q272 61 308 61 Q358 61 385.5 95.5 Q413 130 424 181 L532 152 Q515 81 458.5 35.5 Q402 -10 308 -10 Q236 -10 186.5 16.5 Q137 43 105.5 91 Q74 139 60 205.5 Q46 272 46 352 Q46 432 60 498 Q74 564 105.5 611 Q137 658 186.5 684 Q236 710 308 710 Q485 710 533 549 L424 521 Q410 583 380.5 611.5 Q351 640 308 640 Q246 640 214.5 583.5 Q183 527 178 405 L398 405 L398 328 Z " />
<glyph glyph-name="afii10054" unicode="&#x405;" horiz-adv-x="515" d="M115 180 Q119 163 129.5 142.5 Q140 122 157 104 Q174 86 199 74 Q224 62 258 62 Q304 62 333 88 Q362 114 362 162 Q362 195 345.5 220 Q329 245 302.5 265.5 Q276 286 243 303.5 Q210 321 178 341 Q152 356 129 373.5 Q106 391 88 412.5 Q70 434 59.5 461 Q49 488 49 522 Q49 566 65 601 Q81 636 109.5 660.5 Q138 685 178 698 Q218 711 266 711 Q320 711 357.5 698 Q395 685 420 666.5 Q445 648 458.5 627 Q472 606 478 590 L375 551 Q371 563 362.5 578 Q354 593 340.5 607 Q327 621 307 630.5 Q287 640 259 640 Q210 640 187 613 Q164 586 164 549 Q164 518 181 494.5 Q198 471 225 451 Q252 431 285.5 413 Q319 395 352 375 Q377 359 400 341 Q423 323 440.5 301 Q458 279 468.5 251.5 Q479 224 479 190 Q479 96 419 42.5 Q359 -11 253 -11 Q193 -11 151 3.5 Q109 18 81 39.5 Q53 61 37.5 86.5 Q22 112 16 134 L115 180 Z " />
<glyph glyph-name="afii10055" unicode="&#x406;" horiz-adv-x="263" d="M71 700 L192 700 L192 0 L71 0 L71 700 Z " />
<glyph glyph-name="afii10056" unicode="&#x407;" horiz-adv-x="263" d="M71 700 L192 700 L192 0 L71 0 L71 700 Z M-18 860 L91 860 L91 756 L-18 756 L-18 860 Z M173 860 L282 860 L282 756 L173 756 L173 860 Z " />
<glyph glyph-name="afii10057" unicode="&#x408;" horiz-adv-x="320" d="M21 75 Q43 70 69 70 Q80 70 91 71.5 Q102 73 111 79.5 Q120 86 125.5 99 Q131 112 131 134 L131 700 L249 700 L249 162 Q249 74 213.5 34.5 Q178 -5 92 -5 Q68 -5 48.5 -3 Q29 -1 21 1 L21 75 Z " />
<glyph glyph-name="afii10065" unicode="&#x430;" horiz-adv-x="494" d="M328 56 Q298 27 262.5 8 Q227 -11 179 -11 Q115 -11 75.5 25 Q36 61 36 125 Q36 167 55 197 Q74 227 110 249 Q146 271 199 286 Q252 301 320 312 L320 364 Q320 409 301 433 Q282 457 239 457 Q201 457 175 435 Q149 413 134 379 L42 414 Q49 431 64 449.5 Q79 468 103.5 483 Q128 498 162.5 508 Q197 518 242 518 Q296 518 333 505.5 Q370 493 392 470 Q414 447 423.5 415 Q433 383 433 343 L433 120 Q433 76 435 46.5 Q437 17 443 0 L340 0 L328 56 Z M320 258 Q284 252 253.5 243.5 Q223 235 200.5 221.5 Q178 208 165 188 Q152 168 152 140 Q152 102 172.5 83 Q193 64 223 64 Q255 64 279 78.5 Q303 93 320 111 L320 258 Z " />
</font>
</svg>
