<?xml version="1.0" encoding="UTF-8"?>
<svg xmlns="http://www.w3.org/2000/svg" xmlns:xlink="http://www.w3.org/1999/xlink" version="1.2" >
<font id="SEB Basic Web Regular">
<font-face  font-family="SEB Basic Web" units-per-em="1000" ascent="770" descent="-230" font-style="normal" font-weight="400" font-stretch="normal" cap-height="700" x-height="503" underline-position="-90" underline-thickness="65" />
<missing-glyph  horiz-adv-x="582" d="M89 750 L493 750 L493 -70 L89 -70 L89 750 Z M440 -25 L440 705 L143 705 L143 -25 L440 -25 Z " />
<glyph glyph-name=".null" d="" />
<glyph glyph-name="nonmarkingreturn" unicode="&#xd;" horiz-adv-x="216" d="" />
<glyph glyph-name="space" unicode="&#x20;" horiz-adv-x="225" d="" />
<glyph glyph-name="A" unicode="A" horiz-adv-x="581" d="M238 700 L356 700 L557 0 L467 0 L407 208 L160 208 L98 0 L24 0 L238 700 Z M390 268 L325 495 Q307 557 299 589.5 Q291 622 287 640 L285 640 Q281 624 272 589.5 Q263 555 246 497 L178 268 L390 268 Z " />
<glyph glyph-name="B" unicode="B" horiz-adv-x="542" d="M78 700 L237 700 Q360 700 420 655 Q480 610 480 537 Q480 477 445 436 Q410 395 343 379 L343 377 Q422 364 465 318.5 Q508 273 508 201 Q508 106 442 53 Q376 0 237 0 L78 0 L78 700 Z M244 58 Q333 58 371 95.5 Q409 133 409 201 Q409 268 366.5 306 Q324 344 219 344 L167 344 L167 58 L244 58 Z M231 402 Q317 402 352.5 434.5 Q388 467 388 527 Q388 583 354 612.5 Q320 642 239 642 L167 642 L167 402 L231 402 Z " />
<glyph glyph-name="C" unicode="C" horiz-adv-x="586" d="M563 128 Q534 61 480 25.5 Q426 -10 335 -10 Q264 -10 211 17 Q158 44 122.5 92 Q87 140 69 206.5 Q51 273 51 352 Q51 434 69.5 500 Q88 566 124.5 612.5 Q161 659 214.5 684.5 Q268 710 338 710 Q426 710 479 675 Q532 640 557 579 L474 543 Q459 593 424.5 622.5 Q390 652 336 652 Q289 652 253.5 631 Q218 610 195 571 Q172 532 160.5 477 Q149 422 149 355 Q149 288 160.5 231.5 Q172 175 195 134.5 Q218 94 254 71.5 Q290 49 338 49 Q436 49 480 162 L563 128 Z " />
<glyph glyph-name="D" unicode="D" horiz-adv-x="650" d="M78 700 L263 700 Q432 700 516 608.5 Q600 517 600 351 Q600 184 516 92 Q432 0 263 0 L78 0 L78 700 Z M265 58 Q330 58 375 78.5 Q420 99 448 137 Q476 175 488.5 229 Q501 283 501 351 Q501 418 488.5 472 Q476 526 448 564 Q420 602 375 622 Q330 642 265 642 L167 642 L167 58 L265 58 Z " />
<glyph glyph-name="E" unicode="E" horiz-adv-x="504" d="M78 700 L454 700 L454 642 L167 642 L167 396 L411 396 L411 338 L167 338 L167 58 L465 58 L465 0 L78 0 L78 700 Z " />
<glyph glyph-name="F" unicode="F" horiz-adv-x="487" d="M78 700 L465 700 L465 642 L167 642 L167 382 L424 382 L424 324 L167 324 L167 0 L78 0 L78 700 Z " />
<glyph glyph-name="G" unicode="G" horiz-adv-x="639" d="M500 60 Q467 31 425 11 Q383 -9 328 -9 Q265 -9 214 16 Q163 41 126.5 87.5 Q90 134 70.5 200.5 Q51 267 51 351 Q51 432 71 498 Q91 564 128.5 611.5 Q166 659 220.5 684.5 Q275 710 344 710 Q390 710 426.5 700 Q463 690 490 672.5 Q517 655 535.5 632.5 Q554 610 565 585 L486 553 Q480 566 469.5 583.5 Q459 601 441.5 616 Q424 631 399 641.5 Q374 652 338 652 Q248 652 198.5 578.5 Q149 505 149 355 Q149 280 163 223.5 Q177 167 202 128.5 Q227 90 262.5 70.5 Q298 51 340 51 Q366 51 389.5 58 Q413 65 432.5 76.5 Q452 88 467.5 102 Q483 116 493 131 L493 279 L358 279 L358 337 L577 337 L577 0 L511 0 L500 60 Z " />
<glyph glyph-name="H" unicode="H" horiz-adv-x="648" d="M78 700 L167 700 L167 398 L481 398 L481 700 L570 700 L570 0 L481 0 L481 338 L167 338 L167 0 L78 0 L78 700 Z " />
<glyph glyph-name="I" unicode="I" horiz-adv-x="246" d="M78 700 L167 700 L167 0 L78 0 L78 700 Z " />
<glyph glyph-name="J" unicode="J" horiz-adv-x="303" d="M23 61 Q45 56 73 56 Q83 56 94 58 Q105 60 114 66 Q123 72 129 84.5 Q135 97 135 118 L135 700 L225 700 L225 142 Q225 68 194.5 31.5 Q164 -5 89 -5 Q66 -5 48.5 -3 Q31 -1 23 1 L23 61 Z " />
<glyph glyph-name="K" unicode="K" horiz-adv-x="550" d="M78 700 L167 700 L167 367 L169 367 L446 700 L532 700 L300 423 L544 0 L445 0 L241 356 L167 272 L167 0 L78 0 L78 700 Z " />
<glyph glyph-name="L" unicode="L" horiz-adv-x="466" d="M78 700 L167 700 L167 58 L438 58 L438 0 L78 0 L78 700 Z " />
<glyph glyph-name="M" unicode="M" horiz-adv-x="764" d="M78 700 L207 700 L317 350 Q327 318 337 285 Q347 252 356.5 220.5 Q366 189 373 160.5 Q380 132 384 110 L386 110 Q390 132 397 160.5 Q404 189 413 220.5 Q422 252 432 285 Q442 318 451 348 L560 700 L686 700 L686 0 L603 0 L603 380 Q603 457 603 518.5 Q603 580 605 625 L603 625 Q591 577 574 515 Q557 453 534 381 L414 0 L340 0 L219 384 Q193 466 177 522.5 Q161 579 151 617 L149 617 Q150 598 150.5 571.5 Q151 545 151 514.5 Q151 484 151 449.5 Q151 415 151 380 L151 0 L78 0 L78 700 Z " />
<glyph glyph-name="N" unicode="N" horiz-adv-x="658" d="M78 700 L156 700 L381 359 Q396 336 413.5 308 Q431 280 448 251.5 Q465 223 480 196.5 Q495 170 506 151 L508 151 Q506 201 506 260.5 Q506 320 506 388 L506 700 L580 700 L580 0 L513 0 L268 370 Q254 392 237.5 417.5 Q221 443 205 469.5 Q189 496 175 520.5 Q161 545 152 564 L150 564 Q152 518 152 462 Q152 406 152 339 L152 0 L78 0 L78 700 Z " />
<glyph glyph-name="O" unicode="O" horiz-adv-x="684" d="M342 -10 Q273 -10 219 16 Q165 42 127.5 90 Q90 138 70.5 204.5 Q51 271 51 352 Q51 433 70.5 499 Q90 565 127.5 612 Q165 659 219 684.5 Q273 710 342 710 Q411 710 465 684.5 Q519 659 556.5 612.5 Q594 566 613.5 499.5 Q633 433 633 351 Q633 269 613.5 202.5 Q594 136 556.5 88.5 Q519 41 465 15.5 Q411 -10 342 -10 Z M342 47 Q390 47 426 69 Q462 91 486 131.5 Q510 172 522 227.5 Q534 283 534 351 Q534 418 522 473.5 Q510 529 486 568.5 Q462 608 426 630 Q390 652 342 652 Q294 652 257.5 630.5 Q221 609 197 569 Q173 529 161 473.5 Q149 418 149 351 Q149 284 161 228 Q173 172 197 132 Q221 92 257.5 69.5 Q294 47 342 47 Z " />
<glyph glyph-name="P" unicode="P" horiz-adv-x="550" d="M78 700 L239 700 Q298 700 348.5 690 Q399 680 436 656 Q473 632 494 593 Q515 554 515 497 Q515 440 494 401 Q473 362 436 338 Q399 314 348.5 303.5 Q298 293 240 293 L167 293 L167 0 L78 0 L78 700 Z M244 351 Q288 351 320.5 358.5 Q353 366 374.5 383 Q396 400 406.5 428 Q417 456 417 497 Q417 539 406.5 566.5 Q396 594 375 611 Q354 628 321 635 Q288 642 243 642 L167 642 L167 351 L244 351 Z " />
<glyph glyph-name="Q" unicode="Q" horiz-adv-x="684" d="M634 -75 Q566 -75 526.5 -48 Q487 -21 466 16 Q413 -10 342 -10 Q273 -10 219 16 Q165 42 127.5 90 Q90 138 70.5 204.5 Q51 271 51 352 Q51 433 70.5 499 Q90 565 127.5 612 Q165 659 219 684.5 Q273 710 342 710 Q411 710 465 684.5 Q519 659 556.5 612.5 Q594 566 613.5 499.5 Q633 433 633 351 Q633 250 604 173 Q575 96 518 49 Q529 32 551 23.5 Q573 15 608 15 Q614 15 619 15 Q624 15 627 16 Q631 16 634 17 L634 -75 Z M342 47 Q390 47 426 69 Q462 91 486 131.5 Q510 172 522 227.5 Q534 283 534 351 Q534 418 522 473.5 Q510 529 486 568.5 Q462 608 426 630 Q390 652 342 652 Q294 652 257.5 630.5 Q221 609 197 569 Q173 529 161 473.5 Q149 418 149 351 Q149 284 161 228 Q173 172 197 132 Q221 92 257.5 69.5 Q294 47 342 47 Z " />
<glyph glyph-name="R" unicode="R" horiz-adv-x="573" d="M78 700 L235 700 Q295 700 345.5 689.5 Q396 679 432 655 Q468 631 488.5 592.5 Q509 554 509 499 Q509 425 470.5 380 Q432 335 371 314 L538 0 L441 0 L287 297 Q276 296 264 296 Q252 296 240 296 L167 296 L167 0 L78 0 L78 700 Z M240 354 Q329 354 370.5 387 Q412 420 412 499 Q412 578 371 610 Q330 642 238 642 L167 642 L167 354 L240 354 Z " />
<glyph glyph-name="S" unicode="S" horiz-adv-x="506" d="M94 169 Q99 152 110 131.5 Q121 111 139.5 92 Q158 73 185 60.5 Q212 48 249 48 Q305 48 340 79 Q375 110 375 169 Q375 197 364 219.5 Q353 242 334.5 260 Q316 278 292 293.5 Q268 309 242 324 Q204 345 170.5 364.5 Q137 384 112 408 Q87 432 72 461.5 Q57 491 57 532 Q57 573 72 606 Q87 639 114 662 Q141 685 179 697.5 Q217 710 264 710 Q316 710 351 698 Q386 686 409.5 668.5 Q433 651 446 630.5 Q459 610 467 592 L387 560 Q383 572 374 587.5 Q365 603 349.5 617.5 Q334 632 311 642 Q288 652 257 652 Q198 652 172 621.5 Q146 591 146 547 Q146 520 158.5 499 Q171 478 192 460 Q213 442 240 426 Q267 410 296 394 Q327 376 357.5 356.5 Q388 337 412 312.5 Q436 288 451 257 Q466 226 466 185 Q466 142 451 106 Q436 70 407.5 44.5 Q379 19 338.5 4.5 Q298 -10 246 -10 Q186 -10 145.5 5 Q105 20 79 41.5 Q53 63 38 87.5 Q23 112 16 130 L94 169 Z " />
<glyph glyph-name="T" unicode="T" horiz-adv-x="532" d="M222 642 L23 642 L23 700 L510 700 L510 642 L310 642 L310 0 L222 0 L222 642 Z " />
<glyph glyph-name="U" unicode="U" horiz-adv-x="646" d="M78 700 L167 700 L167 268 Q167 205 180 164 Q193 123 216 100 Q239 77 269.5 68 Q300 59 335 59 Q371 59 400.5 68 Q430 77 450.5 99.5 Q471 122 482.5 160 Q494 198 494 257 L494 700 L568 700 L568 244 Q568 171 549 122 Q530 73 497.5 44 Q465 15 421 2.5 Q377 -10 326 -10 Q278 -10 233.5 1 Q189 12 154.5 41 Q120 70 99 120 Q78 170 78 247 L78 700 Z " />
<glyph glyph-name="V" unicode="V" horiz-adv-x="579" d="M24 700 L113 700 L230 297 Q252 220 269.5 159 Q287 98 293 67 L296 67 Q303 98 320 157 Q337 216 359 291 L479 700 L555 700 L345 0 L225 0 L24 700 Z " />
<glyph glyph-name="W" unicode="W" horiz-adv-x="849" d="M29 700 L119 700 L209 295 Q222 239 232 185 Q242 131 250 86 L252 86 Q261 131 272 185 Q283 239 296 296 L389 700 L476 700 L564 295 Q576 240 586.5 183.5 Q597 127 604 86 L606 86 Q614 127 624.5 180 Q635 233 649 291 L745 700 L820 700 L650 0 L545 0 L464 367 Q458 393 452.5 421.5 Q447 450 442 477.5 Q437 505 433 530 Q429 555 426 573 L424 573 Q421 555 416 530 Q411 505 405.5 477 Q400 449 394 420.5 Q388 392 382 367 L296 0 L187 0 L29 700 Z " />
<glyph glyph-name="X" unicode="X" horiz-adv-x="527" d="M210 369 L28 700 L125 700 L265 441 L410 700 L490 700 L307 380 L515 0 L418 0 L252 304 L93 0 L12 0 L210 369 Z " />
<glyph glyph-name="Y" unicode="Y" horiz-adv-x="511" d="M209 321 L18 700 L115 700 L263 395 L265 395 L415 700 L493 700 L297 317 L297 0 L209 0 L209 321 Z " />
<glyph glyph-name="Z" unicode="Z" horiz-adv-x="545" d="M23 48 L418 642 L49 642 L49 700 L521 700 L521 652 L126 58 L510 58 L510 0 L23 0 L23 48 Z " />
<glyph glyph-name="Agrave" unicode="&#xc0;" horiz-adv-x="581" d="M238 700 L356 700 L557 0 L467 0 L407 208 L160 208 L98 0 L24 0 L238 700 Z M390 268 L325 495 Q307 557 299 589.5 Q291 622 287 640 L285 640 Q281 624 272 589.5 Q263 555 246 497 L178 268 L390 268 Z M251 868 L350 753 L285 753 L146 868 L251 868 Z " />
<glyph glyph-name="Aacute" unicode="&#xc1;" horiz-adv-x="581" d="M238 700 L356 700 L557 0 L467 0 L407 208 L160 208 L98 0 L24 0 L238 700 Z M390 268 L325 495 Q307 557 299 589.5 Q291 622 287 640 L285 640 Q281 624 272 589.5 Q263 555 246 497 L178 268 L390 268 Z M339 868 L444 868 L304 753 L240 753 L339 868 Z " />
<glyph glyph-name="Acircumflex" unicode="&#xc2;" horiz-adv-x="581" d="M238 700 L356 700 L557 0 L467 0 L407 208 L160 208 L98 0 L24 0 L238 700 Z M390 268 L325 495 Q307 557 299 589.5 Q291 622 287 640 L285 640 Q281 624 272 589.5 Q263 555 246 497 L178 268 L390 268 Z M238 868 L348 868 L425 753 L371 753 L294 825 L292 825 L215 753 L161 753 L238 868 Z " />
<glyph glyph-name="Atilde" unicode="&#xc3;" horiz-adv-x="581" d="M238 700 L356 700 L557 0 L467 0 L407 208 L160 208 L98 0 L24 0 L238 700 Z M390 268 L325 495 Q307 557 299 589.5 Q291 622 287 640 L285 640 Q281 624 272 589.5 Q263 555 246 497 L178 268 L390 268 Z M144 761 Q145 778 150 795 Q155 812 165 825.5 Q175 839 190 847 Q205 855 227 855 Q245 855 262 849.5 Q279 844 295 838 Q311 832 326 826.5 Q341 821 356 821 Q370 821 376.5 828 Q383 835 386 852 L441 852 Q436 813 418 785 Q400 757 365 757 Q348 757 330.5 762.5 Q313 768 295.5 775 Q278 782 262 787.5 Q246 793 232 793 Q216 793 208.5 785.5 Q201 778 197 761 L144 761 Z " />
<glyph glyph-name="Adieresis" unicode="&#xc4;" horiz-adv-x="581" d="M238 700 L356 700 L557 0 L467 0 L407 208 L160 208 L98 0 L24 0 L238 700 Z M390 268 L325 495 Q307 557 299 589.5 Q291 622 287 640 L285 640 Q281 624 272 589.5 Q263 555 246 497 L178 268 L390 268 Z M160 847 L247 847 L247 760 L160 760 L160 847 Z M336 847 L423 847 L423 760 L336 760 L336 847 Z " />
<glyph glyph-name="Amacron" unicode="&#x100;" horiz-adv-x="581" d="M238 700 L356 700 L557 0 L467 0 L407 208 L160 208 L98 0 L24 0 L238 700 Z M390 268 L325 495 Q307 557 299 589.5 Q291 622 287 640 L285 640 Q281 624 272 589.5 Q263 555 246 497 L178 268 L390 268 Z M152 828 L429 828 L429 770 L152 770 L152 828 Z " />
<glyph glyph-name="Abreve" unicode="&#x102;" horiz-adv-x="581" d="M238 700 L356 700 L557 0 L467 0 L407 208 L160 208 L98 0 L24 0 L238 700 Z M390 268 L325 495 Q307 557 299 589.5 Q291 622 287 640 L285 640 Q281 624 272 589.5 Q263 555 246 497 L178 268 L390 268 Z M213 861 Q218 838 237 820 Q256 802 292 802 Q327 802 346.5 820 Q366 838 371 861 L417 861 Q415 838 407 816 Q399 794 384 777.5 Q369 761 346 751 Q323 741 292 741 Q260 741 237 750.5 Q214 760 199 776.5 Q184 793 176 815 Q168 837 166 861 L213 861 Z " />
<glyph glyph-name="Aring" unicode="&#xc5;" horiz-adv-x="581" d="M236 699 L357 699 L557 4 L467 4 L407 212 L160 212 L98 4 L24 4 L236 699 Z M390 272 L325 499 Q307 561 299 593.5 Q291 626 287 644 L285 644 Q281 628 272 593.5 Q263 559 246 501 L178 272 L390 272 Z M186 826 Q186 849 194.5 868 Q203 887 218 900.5 Q233 914 252.5 921.5 Q272 929 294 929 Q316 929 335.5 921.5 Q355 914 370 900.5 Q385 887 393.5 868 Q402 849 402 826 Q402 803 393.5 784.5 Q385 766 370 752.5 Q355 739 335.5 731.5 Q316 724 294 724 Q272 724 252.5 731.5 Q233 739 218 752.5 Q203 766 194.5 784.5 Q186 803 186 826 Z M294 764 Q323 764 339 782 Q355 800 355 826 Q355 852 339 870.5 Q323 889 294 889 Q265 889 249.5 870.5 Q234 852 234 826 Q234 800 249.5 782 Q265 764 294 764 Z " />
<glyph glyph-name="Aogonek" unicode="&#x104;" horiz-adv-x="581" d="M238 700 L356 700 L557 0 Q537 -8 518 -20.5 Q499 -33 484.5 -47.5 Q470 -62 461 -79 Q452 -96 452 -113 Q452 -148 491 -148 Q507 -148 522 -142 Q537 -136 548 -128 L567 -152 Q551 -170 527.5 -184 Q504 -198 469 -198 Q427 -198 405 -179 Q383 -160 383 -126 Q383 -97 402.5 -64 Q422 -31 467 0 L407 208 L160 208 L98 0 L24 0 L238 700 Z M390 268 L325 495 Q307 557 299 589.5 Q291 622 287 640 L285 640 Q281 624 272 589.5 Q263 555 246 497 L178 268 L390 268 Z " />
<glyph glyph-name="AE" unicode="&#xc6;" horiz-adv-x="795" d="M318 700 L746 700 L746 642 L459 642 L459 397 L703 397 L703 337 L459 337 L459 58 L757 58 L757 0 L370 0 L370 208 L165 208 L65 0 L-12 0 L318 700 Z M370 268 L370 644 L366 644 L190 268 L370 268 Z " />
<glyph glyph-name="AEacute" unicode="&#x1fc;" horiz-adv-x="795" d="M318 700 L746 700 L746 642 L459 642 L459 397 L703 397 L703 337 L459 337 L459 58 L757 58 L757 0 L370 0 L370 208 L165 208 L65 0 L-12 0 L318 700 Z M370 268 L370 644 L366 644 L190 268 L370 268 Z M545 868 L650 868 L510 753 L446 753 L545 868 Z " />
<glyph glyph-name="Cacute" unicode="&#x106;" horiz-adv-x="586" d="M563 128 Q534 61 480 25.5 Q426 -10 335 -10 Q264 -10 211 17 Q158 44 122.5 92 Q87 140 69 206.5 Q51 273 51 352 Q51 434 69.5 500 Q88 566 124.5 612.5 Q161 659 214.5 684.5 Q268 710 338 710 Q426 710 479 675 Q532 640 557 579 L474 543 Q459 593 424.5 622.5 Q390 652 336 652 Q289 652 253.5 631 Q218 610 195 571 Q172 532 160.5 477 Q149 422 149 355 Q149 288 160.5 231.5 Q172 175 195 134.5 Q218 94 254 71.5 Q290 49 338 49 Q436 49 480 162 L563 128 Z M367 868 L472 868 L332 753 L268 753 L367 868 Z " />
<glyph glyph-name="Ccircumflex" unicode="&#x108;" horiz-adv-x="586" d="M563 128 Q534 61 480 25.5 Q426 -10 335 -10 Q264 -10 211 17 Q158 44 122.5 92 Q87 140 69 206.5 Q51 273 51 352 Q51 434 69.5 500 Q88 566 124.5 612.5 Q161 659 214.5 684.5 Q268 710 338 710 Q426 710 479 675 Q532 640 557 579 L474 543 Q459 593 424.5 622.5 Q390 652 336 652 Q289 652 253.5 631 Q218 610 195 571 Q172 532 160.5 477 Q149 422 149 355 Q149 288 160.5 231.5 Q172 175 195 134.5 Q218 94 254 71.5 Q290 49 338 49 Q436 49 480 162 L563 128 Z M284 868 L394 868 L471 753 L417 753 L340 825 L338 825 L261 753 L207 753 L284 868 Z " />
<glyph glyph-name="Ccaron" unicode="&#x10c;" horiz-adv-x="586" d="M563 128 Q534 61 480 25.5 Q426 -10 335 -10 Q264 -10 211 17 Q158 44 122.5 92 Q87 140 69 206.5 Q51 273 51 352 Q51 434 69.5 500 Q88 566 124.5 612.5 Q161 659 214.5 684.5 Q268 710 338 710 Q426 710 479 675 Q532 640 557 579 L474 543 Q459 593 424.5 622.5 Q390 652 336 652 Q289 652 253.5 631 Q218 610 195 571 Q172 532 160.5 477 Q149 422 149 355 Q149 288 160.5 231.5 Q172 175 195 134.5 Q218 94 254 71.5 Q290 49 338 49 Q436 49 480 162 L563 128 Z M197 868 L251 868 L328 796 L330 796 L407 868 L461 868 L384 753 L274 753 L197 868 Z " />
<glyph glyph-name="Cdotaccent" unicode="&#x10a;" horiz-adv-x="586" d="M563 128 Q534 61 480 25.5 Q426 -10 335 -10 Q264 -10 211 17 Q158 44 122.5 92 Q87 140 69 206.5 Q51 273 51 352 Q51 434 69.5 500 Q88 566 124.5 612.5 Q161 659 214.5 684.5 Q268 710 338 710 Q426 710 479 675 Q532 640 557 579 L474 543 Q459 593 424.5 622.5 Q390 652 336 652 Q289 652 253.5 631 Q218 610 195 571 Q172 532 160.5 477 Q149 422 149 355 Q149 288 160.5 231.5 Q172 175 195 134.5 Q218 94 254 71.5 Q290 49 338 49 Q436 49 480 162 L563 128 Z M283 848 L367 848 L367 761 L283 761 L283 848 Z " />
<glyph glyph-name="Ccedilla" unicode="&#xc7;" horiz-adv-x="586" d="M249 -140 Q257 -147 274 -151.5 Q291 -156 309 -156 Q331 -156 339 -146.5 Q347 -137 347 -124 Q347 -111 338.5 -102.5 Q330 -94 318 -89 Q306 -84 292.5 -82 Q279 -80 269 -80 L293 -7 Q233 0 187.5 30 Q142 60 112 107 Q82 154 66.5 216.5 Q51 279 51 352 Q51 434 69.5 500 Q88 566 124.5 612.5 Q161 659 214.5 684.5 Q268 710 338 710 Q426 710 479 675 Q532 640 557 579 L474 543 Q460 593 425 622.5 Q390 652 336 652 Q289 652 253.5 631 Q218 610 195 571 Q172 532 160.5 477 Q149 422 149 355 Q149 288 160.5 231.5 Q172 175 195 134.5 Q218 94 254 71 Q290 48 338 48 Q386 48 422.5 76 Q459 104 480 162 L563 128 Q534 61 480 25.5 Q426 -10 335 -10 L333 -10 L320 -43 Q370 -51 393 -72 Q416 -93 416 -125 Q416 -154 394.5 -175.5 Q373 -197 327 -197 Q298 -197 274 -190 Q250 -183 236 -171 L249 -140 Z " />
<glyph glyph-name="Dcaron" unicode="&#x10e;" horiz-adv-x="650" d="M78 700 L263 700 Q432 700 516 608.5 Q600 517 600 351 Q600 184 516 92 Q432 0 263 0 L78 0 L78 700 Z M265 58 Q330 58 375 78.5 Q420 99 448 137 Q476 175 488.5 229 Q501 283 501 351 Q501 418 488.5 472 Q476 526 448 564 Q420 602 375 622 Q330 642 265 642 L167 642 L167 58 L265 58 Z M162 868 L216 868 L293 796 L295 796 L372 868 L426 868 L349 753 L239 753 L162 868 Z " />
<glyph glyph-name="Dcroat" unicode="&#x110;" horiz-adv-x="661" d="M89 338 L31 338 L31 398 L89 398 L89 700 L274 700 Q443 700 527 608.5 Q611 517 611 351 Q611 184 527 92 Q443 0 274 0 L89 0 L89 338 Z M276 58 Q341 58 386 78.5 Q431 99 459 137 Q487 175 499.5 229 Q512 283 512 351 Q512 418 499.5 472 Q487 526 459 564 Q431 602 386 622 Q341 642 276 642 L178 642 L178 398 L337 398 L337 338 L178 338 L178 58 L276 58 Z " />
<glyph glyph-name="Egrave" unicode="&#xc8;" horiz-adv-x="504" d="M78 700 L454 700 L454 642 L167 642 L167 396 L411 396 L411 338 L167 338 L167 58 L465 58 L465 0 L78 0 L78 700 Z M237 868 L336 753 L271 753 L132 868 L237 868 Z " />
<glyph glyph-name="Eacute" unicode="&#xc9;" horiz-adv-x="504" d="M78 700 L454 700 L454 642 L167 642 L167 396 L411 396 L411 338 L167 338 L167 58 L465 58 L465 0 L78 0 L78 700 Z M300 868 L405 868 L265 753 L201 753 L300 868 Z " />
<glyph glyph-name="Ecircumflex" unicode="&#xca;" horiz-adv-x="504" d="M78 700 L454 700 L454 642 L167 642 L167 396 L411 396 L411 338 L167 338 L167 58 L465 58 L465 0 L78 0 L78 700 Z M208 868 L318 868 L395 753 L341 753 L264 825 L262 825 L185 753 L131 753 L208 868 Z " />
<glyph glyph-name="Ecaron" unicode="&#x11a;" horiz-adv-x="504" d="M78 700 L454 700 L454 642 L167 642 L167 396 L411 396 L411 338 L167 338 L167 58 L465 58 L465 0 L78 0 L78 700 Z M129 868 L183 868 L260 796 L262 796 L339 868 L393 868 L316 753 L206 753 L129 868 Z " />
<glyph glyph-name="Edieresis" unicode="&#xcb;" horiz-adv-x="504" d="M78 700 L454 700 L454 642 L167 642 L167 396 L411 396 L411 338 L167 338 L167 58 L465 58 L465 0 L78 0 L78 700 Z M124 847 L211 847 L211 760 L124 760 L124 847 Z M300 847 L387 847 L387 760 L300 760 L300 847 Z " />
<glyph glyph-name="Emacron" unicode="&#x112;" horiz-adv-x="504" d="M78 700 L454 700 L454 642 L167 642 L167 396 L411 396 L411 338 L167 338 L167 58 L465 58 L465 0 L78 0 L78 700 Z M119 828 L396 828 L396 770 L119 770 L119 828 Z " />
<glyph glyph-name="Ebreve" unicode="&#x114;" horiz-adv-x="504" d="M78 700 L454 700 L454 642 L167 642 L167 396 L411 396 L411 338 L167 338 L167 58 L465 58 L465 0 L78 0 L78 700 Z M186 861 Q191 838 210 820 Q229 802 265 802 Q300 802 319.5 820 Q339 838 344 861 L390 861 Q388 838 380 816 Q372 794 357 777.5 Q342 761 319 751 Q296 741 265 741 Q233 741 210 750.5 Q187 760 172 776.5 Q157 793 149 815 Q141 837 139 861 L186 861 Z " />
<glyph glyph-name="Edotaccent" unicode="&#x116;" horiz-adv-x="504" d="M78 700 L454 700 L454 642 L167 642 L167 396 L411 396 L411 338 L167 338 L167 58 L465 58 L465 0 L78 0 L78 700 Z M211 848 L295 848 L295 761 L211 761 L211 848 Z " />
<glyph glyph-name="Eogonek" unicode="&#x118;" horiz-adv-x="504" d="M78 700 L454 700 L454 642 L167 642 L167 396 L411 396 L411 338 L167 338 L167 58 L465 58 L465 0 Q410 -20 379 -49 Q348 -78 348 -113 Q348 -148 387 -148 Q403 -148 418 -142 Q433 -136 444 -128 L463 -152 Q447 -170 423.5 -184 Q400 -198 365 -198 Q323 -198 301 -179 Q279 -160 279 -126 Q279 -95 302 -62 Q325 -29 379 0 L78 0 L78 700 Z " />
<glyph glyph-name="Gcircumflex" unicode="&#x11c;" horiz-adv-x="639" d="M500 60 Q467 31 425 11 Q383 -9 328 -9 Q265 -9 214 16 Q163 41 126.5 87.5 Q90 134 70.5 200.5 Q51 267 51 351 Q51 432 71 498 Q91 564 128.5 611.5 Q166 659 220.5 684.5 Q275 710 344 710 Q390 710 426.5 700 Q463 690 490 672.5 Q517 655 535.5 632.5 Q554 610 565 585 L486 553 Q480 566 469.5 583.5 Q459 601 441.5 616 Q424 631 399 641.5 Q374 652 338 652 Q248 652 198.5 578.5 Q149 505 149 355 Q149 280 163 223.5 Q177 167 202 128.5 Q227 90 262.5 70.5 Q298 51 340 51 Q366 51 389.5 58 Q413 65 432.5 76.5 Q452 88 467.5 102 Q483 116 493 131 L493 279 L358 279 L358 337 L577 337 L577 0 L511 0 L500 60 Z M287 868 L397 868 L474 753 L420 753 L343 825 L341 825 L264 753 L210 753 L287 868 Z " />
<glyph glyph-name="Gbreve" unicode="&#x11e;" horiz-adv-x="639" d="M500 60 Q467 31 425 11 Q383 -9 328 -9 Q265 -9 214 16 Q163 41 126.5 87.5 Q90 134 70.5 200.5 Q51 267 51 351 Q51 432 71 498 Q91 564 128.5 611.5 Q166 659 220.5 684.5 Q275 710 344 710 Q390 710 426.5 700 Q463 690 490 672.5 Q517 655 535.5 632.5 Q554 610 565 585 L486 553 Q480 566 469.5 583.5 Q459 601 441.5 616 Q424 631 399 641.5 Q374 652 338 652 Q248 652 198.5 578.5 Q149 505 149 355 Q149 280 163 223.5 Q177 167 202 128.5 Q227 90 262.5 70.5 Q298 51 340 51 Q366 51 389.5 58 Q413 65 432.5 76.5 Q452 88 467.5 102 Q483 116 493 131 L493 279 L358 279 L358 337 L577 337 L577 0 L511 0 L500 60 Z M262 861 Q267 838 286 820 Q305 802 341 802 Q376 802 395.5 820 Q415 838 420 861 L466 861 Q464 838 456 816 Q448 794 433 777.5 Q418 761 395 751 Q372 741 341 741 Q309 741 286 750.5 Q263 760 248 776.5 Q233 793 225 815 Q217 837 215 861 L262 861 Z " />
<glyph glyph-name="Gdotaccent" unicode="&#x120;" horiz-adv-x="639" d="M500 60 Q467 31 425 11 Q383 -9 328 -9 Q265 -9 214 16 Q163 41 126.5 87.5 Q90 134 70.5 200.5 Q51 267 51 351 Q51 432 71 498 Q91 564 128.5 611.5 Q166 659 220.5 684.5 Q275 710 344 710 Q390 710 426.5 700 Q463 690 490 672.5 Q517 655 535.5 632.5 Q554 610 565 585 L486 553 Q480 566 469.5 583.5 Q459 601 441.5 616 Q424 631 399 641.5 Q374 652 338 652 Q248 652 198.5 578.5 Q149 505 149 355 Q149 280 163 223.5 Q177 167 202 128.5 Q227 90 262.5 70.5 Q298 51 340 51 Q366 51 389.5 58 Q413 65 432.5 76.5 Q452 88 467.5 102 Q483 116 493 131 L493 279 L358 279 L358 337 L577 337 L577 0 L511 0 L500 60 Z M298 848 L382 848 L382 761 L298 761 L298 848 Z " />
<glyph glyph-name="Gcommaaccent" unicode="&#x122;" horiz-adv-x="639" d="M500 60 Q467 31 425 11 Q383 -9 328 -9 Q265 -9 214 16 Q163 41 126.5 87.5 Q90 134 70.5 200.5 Q51 267 51 351 Q51 432 71 498 Q91 564 128.5 611.5 Q166 659 220.5 684.5 Q275 710 344 710 Q390 710 426.5 700 Q463 690 490 672.5 Q517 655 535.5 632.5 Q554 610 565 585 L486 553 Q480 566 469.5 583.5 Q459 601 441.5 616 Q424 631 399 641.5 Q374 652 338 652 Q248 652 198.5 578.5 Q149 505 149 355 Q149 280 163 223.5 Q177 167 202 128.5 Q227 90 262.5 70.5 Q298 51 340 51 Q366 51 389.5 58 Q413 65 432.5 76.5 Q452 88 467.5 102 Q483 116 493 131 L493 279 L358 279 L358 337 L577 337 L577 0 L511 0 L500 60 Z M351 -145 L309 -145 L309 -58 L404 -58 L404 -140 L355 -233 L307 -233 L351 -145 Z " />
<glyph glyph-name="Hcircumflex" unicode="&#x124;" horiz-adv-x="648" d="M78 700 L167 700 L167 398 L481 398 L481 700 L570 700 L570 0 L481 0 L481 338 L167 338 L167 0 L78 0 L78 700 Z M269 868 L379 868 L456 753 L402 753 L325 825 L323 825 L246 753 L192 753 L269 868 Z " />
<glyph glyph-name="Hbar" unicode="&#x126;" horiz-adv-x="648" d="M78 535 L28 535 L28 585 L78 585 L78 700 L167 700 L167 585 L481 585 L481 700 L570 700 L570 585 L620 585 L620 535 L570 535 L570 0 L481 0 L481 338 L167 338 L167 0 L78 0 L78 535 Z M481 398 L481 535 L167 535 L167 398 L481 398 Z " />
<glyph glyph-name="Igrave" unicode="&#xcc;" horiz-adv-x="246" d="M78 700 L167 700 L167 0 L78 0 L78 700 Z M67 868 L166 753 L101 753 L-38 868 L67 868 Z " />
<glyph glyph-name="Iacute" unicode="&#xcd;" horiz-adv-x="246" d="M78 700 L167 700 L167 0 L78 0 L78 700 Z M179 868 L284 868 L144 753 L80 753 L179 868 Z " />
<glyph glyph-name="Icircumflex" unicode="&#xce;" horiz-adv-x="246" d="M78 700 L167 700 L167 0 L78 0 L78 700 Z M68 868 L178 868 L255 753 L201 753 L124 825 L122 825 L45 753 L-9 753 L68 868 Z " />
<glyph glyph-name="Itilde" unicode="&#x128;" horiz-adv-x="246" d="M78 700 L167 700 L167 0 L78 0 L78 700 Z M-25 761 Q-24 778 -19 795 Q-14 812 -4 825.5 Q6 839 21 847 Q36 855 58 855 Q76 855 93 849.5 Q110 844 126 838 Q142 832 157 826.5 Q172 821 187 821 Q201 821 207.5 828 Q214 835 217 852 L272 852 Q267 813 249 785 Q231 757 196 757 Q179 757 161.5 762.5 Q144 768 126.5 775 Q109 782 93 787.5 Q77 793 63 793 Q47 793 39.5 785.5 Q32 778 28 761 L-25 761 Z " />
<glyph glyph-name="Idieresis" unicode="&#xcf;" horiz-adv-x="246" d="M78 700 L167 700 L167 0 L78 0 L78 700 Z M-8 847 L79 847 L79 760 L-8 760 L-8 847 Z M168 847 L255 847 L255 760 L168 760 L168 847 Z " />
<glyph glyph-name="Imacron" unicode="&#x12a;" horiz-adv-x="246" d="M78 700 L167 700 L167 0 L78 0 L78 700 Z M-15 828 L262 828 L262 770 L-15 770 L-15 828 Z " />
<glyph glyph-name="Ibreve" unicode="&#x12c;" horiz-adv-x="246" d="M78 700 L167 700 L167 0 L78 0 L78 700 Z M45 861 Q50 838 69 820 Q88 802 124 802 Q159 802 178.5 820 Q198 838 203 861 L249 861 Q247 838 239 816 Q231 794 216 777.5 Q201 761 178 751 Q155 741 124 741 Q92 741 69 750.5 Q46 760 31 776.5 Q16 793 8 815 Q0 837 -2 861 L45 861 Z " />
<glyph glyph-name="Idotaccent" unicode="&#x130;" horiz-adv-x="246" d="M78 700 L167 700 L167 0 L78 0 L78 700 Z M81 848 L165 848 L165 761 L81 761 L81 848 Z " />
<glyph glyph-name="Iogonek" unicode="&#x12e;" horiz-adv-x="246" d="M182 -152 Q166 -170 142.5 -184 Q119 -198 84 -198 Q42 -198 20 -179 Q-2 -160 -2 -126 Q-2 -97 16.5 -64.5 Q35 -32 78 0 L78 700 L167 700 L167 0 Q113 -23 90 -53.5 Q67 -84 67 -113 Q67 -129 77 -138.5 Q87 -148 106 -148 Q122 -148 137 -142 Q152 -136 163 -128 L182 -152 Z " />
<glyph glyph-name="IJ" unicode="&#x132;" horiz-adv-x="549" d="M78 700 L167 700 L167 0 L78 0 L78 700 Z M269 61 Q291 56 319 56 Q329 56 340 58 Q351 60 360 66 Q369 72 375 84.5 Q381 97 381 118 L381 700 L471 700 L471 142 Q471 68 440.5 31.5 Q410 -5 335 -5 Q312 -5 294.5 -3 Q277 -1 269 1 L269 61 Z " />
<glyph glyph-name="Jcircumflex" unicode="&#x134;" horiz-adv-x="303" d="M23 61 Q45 56 73 56 Q83 56 94 58 Q105 60 114 66 Q123 72 129 84.5 Q135 97 135 118 L135 700 L225 700 L225 142 Q225 68 194.5 31.5 Q164 -5 89 -5 Q66 -5 48.5 -3 Q31 -1 23 1 L23 61 Z M125 868 L235 868 L312 753 L258 753 L181 825 L179 825 L102 753 L48 753 L125 868 Z " />
<glyph glyph-name="Kcommaaccent" unicode="&#x136;" horiz-adv-x="550" d="M78 700 L167 700 L167 367 L169 367 L446 700 L532 700 L300 423 L544 0 L445 0 L241 356 L167 272 L167 0 L78 0 L78 700 Z M279 -145 L237 -145 L237 -58 L332 -58 L332 -140 L283 -233 L235 -233 L279 -145 Z " />
<glyph glyph-name="Lacute" unicode="&#x139;" horiz-adv-x="466" d="M78 700 L167 700 L167 58 L438 58 L438 0 L78 0 L78 700 Z M182 868 L287 868 L147 753 L83 753 L182 868 Z " />
<glyph glyph-name="Lcaron" unicode="&#x13d;" horiz-adv-x="466" d="M78 700 L167 700 L167 58 L438 58 L438 0 L78 0 L78 700 Z M294 601 L259 601 L259 700 L339 700 L339 606 L291 498 L251 498 L294 601 Z " />
<glyph glyph-name="Lcommaaccent" unicode="&#x13b;" horiz-adv-x="466" d="M78 700 L167 700 L167 58 L438 58 L438 0 L78 0 L78 700 Z M247 -145 L205 -145 L205 -58 L300 -58 L300 -140 L251 -233 L203 -233 L247 -145 Z " />
<glyph glyph-name="Lslash" unicode="&#x141;" horiz-adv-x="466" d="M89 213 L21 177 L21 239 L89 275 L89 700 L178 700 L178 323 L344 413 L344 350 L178 261 L178 58 L449 58 L449 0 L89 0 L89 213 Z " />
<glyph glyph-name="Ldot" unicode="&#x13f;" horiz-adv-x="466" d="M78 700 L167 700 L167 58 L438 58 L438 0 L78 0 L78 700 Z M278 417 L362 417 L362 330 L278 330 L278 417 Z " />
<glyph glyph-name="Nacute" unicode="&#x143;" horiz-adv-x="650" d="M74 700 L152 700 L377 359 Q392 336 409.5 308 Q427 280 444 251.5 Q461 223 476 196.5 Q491 170 502 151 L504 151 Q502 201 502 260.5 Q502 320 502 388 L502 700 L576 700 L576 0 L509 0 L264 370 Q250 392 233.5 417.5 Q217 443 201 469.5 Q185 496 171 520.5 Q157 545 148 564 L146 564 Q148 518 148 462 Q148 406 148 339 L148 0 L74 0 L74 700 Z M396 868 L501 868 L361 753 L297 753 L396 868 Z " />
<glyph glyph-name="Ncaron" unicode="&#x147;" horiz-adv-x="650" d="M74 700 L152 700 L377 359 Q392 336 409.5 308 Q427 280 444 251.5 Q461 223 476 196.5 Q491 170 502 151 L504 151 Q502 201 502 260.5 Q502 320 502 388 L502 700 L576 700 L576 0 L509 0 L264 370 Q250 392 233.5 417.5 Q217 443 201 469.5 Q185 496 171 520.5 Q157 545 148 564 L146 564 Q148 518 148 462 Q148 406 148 339 L148 0 L74 0 L74 700 Z M199 868 L253 868 L330 796 L332 796 L409 868 L463 868 L386 753 L276 753 L199 868 Z " />
<glyph glyph-name="Ntilde" unicode="&#xd1;" horiz-adv-x="650" d="M74 700 L152 700 L377 359 Q392 336 409.5 308 Q427 280 444 251.5 Q461 223 476 196.5 Q491 170 502 151 L504 151 Q502 201 502 260.5 Q502 320 502 388 L502 700 L576 700 L576 0 L509 0 L264 370 Q250 392 233.5 417.5 Q217 443 201 469.5 Q185 496 171 520.5 Q157 545 148 564 L146 564 Q148 518 148 462 Q148 406 148 339 L148 0 L74 0 L74 700 Z M187 761 Q188 778 193 795 Q198 812 208 825.5 Q218 839 233 847 Q248 855 270 855 Q288 855 305 849.5 Q322 844 338 838 Q354 832 369 826.5 Q384 821 399 821 Q413 821 419.5 828 Q426 835 429 852 L484 852 Q479 813 461 785 Q443 757 408 757 Q391 757 373.5 762.5 Q356 768 338.5 775 Q321 782 305 787.5 Q289 793 275 793 Q259 793 251.5 785.5 Q244 778 240 761 L187 761 Z " />
<glyph glyph-name="Ncommaaccent" unicode="&#x145;" horiz-adv-x="650" d="M74 700 L152 700 L377 359 Q392 336 409.5 308 Q427 280 444 251.5 Q461 223 476 196.5 Q491 170 502 151 L504 151 Q502 201 502 260.5 Q502 320 502 388 L502 700 L576 700 L576 0 L509 0 L264 370 Q250 392 233.5 417.5 Q217 443 201 469.5 Q185 496 171 520.5 Q157 545 148 564 L146 564 Q148 518 148 462 Q148 406 148 339 L148 0 L74 0 L74 700 Z M327 -145 L285 -145 L285 -58 L380 -58 L380 -140 L331 -233 L283 -233 L327 -145 Z " />
<glyph glyph-name="Ograve" unicode="&#xd2;" horiz-adv-x="684" d="M342 -10 Q273 -10 219 16 Q165 42 127.5 90 Q90 138 70.5 204.5 Q51 271 51 352 Q51 433 70.5 499 Q90 565 127.5 612 Q165 659 219 684.5 Q273 710 342 710 Q411 710 465 684.5 Q519 659 556.5 612.5 Q594 566 613.5 499.5 Q633 433 633 351 Q633 269 613.5 202.5 Q594 136 556.5 88.5 Q519 41 465 15.5 Q411 -10 342 -10 Z M342 47 Q390 47 426 69 Q462 91 486 131.5 Q510 172 522 227.5 Q534 283 534 351 Q534 418 522 473.5 Q510 529 486 568.5 Q462 608 426 630 Q390 652 342 652 Q294 652 257.5 630.5 Q221 609 197 569 Q173 529 161 473.5 Q149 418 149 351 Q149 284 161 228 Q173 172 197 132 Q221 92 257.5 69.5 Q294 47 342 47 Z M303 868 L402 753 L337 753 L198 868 L303 868 Z " />
<glyph glyph-name="Oacute" unicode="&#xd3;" horiz-adv-x="684" d="M342 -10 Q273 -10 219 16 Q165 42 127.5 90 Q90 138 70.5 204.5 Q51 271 51 352 Q51 433 70.5 499 Q90 565 127.5 612 Q165 659 219 684.5 Q273 710 342 710 Q411 710 465 684.5 Q519 659 556.5 612.5 Q594 566 613.5 499.5 Q633 433 633 351 Q633 269 613.5 202.5 Q594 136 556.5 88.5 Q519 41 465 15.5 Q411 -10 342 -10 Z M342 47 Q390 47 426 69 Q462 91 486 131.5 Q510 172 522 227.5 Q534 283 534 351 Q534 418 522 473.5 Q510 529 486 568.5 Q462 608 426 630 Q390 652 342 652 Q294 652 257.5 630.5 Q221 609 197 569 Q173 529 161 473.5 Q149 418 149 351 Q149 284 161 228 Q173 172 197 132 Q221 92 257.5 69.5 Q294 47 342 47 Z M380 868 L485 868 L345 753 L281 753 L380 868 Z " />
<glyph glyph-name="Ocircumflex" unicode="&#xd4;" horiz-adv-x="684" d="M342 -10 Q273 -10 219 16 Q165 42 127.5 90 Q90 138 70.5 204.5 Q51 271 51 352 Q51 433 70.5 499 Q90 565 127.5 612 Q165 659 219 684.5 Q273 710 342 710 Q411 710 465 684.5 Q519 659 556.5 612.5 Q594 566 613.5 499.5 Q633 433 633 351 Q633 269 613.5 202.5 Q594 136 556.5 88.5 Q519 41 465 15.5 Q411 -10 342 -10 Z M342 47 Q390 47 426 69 Q462 91 486 131.5 Q510 172 522 227.5 Q534 283 534 351 Q534 418 522 473.5 Q510 529 486 568.5 Q462 608 426 630 Q390 652 342 652 Q294 652 257.5 630.5 Q221 609 197 569 Q173 529 161 473.5 Q149 418 149 351 Q149 284 161 228 Q173 172 197 132 Q221 92 257.5 69.5 Q294 47 342 47 Z M287 868 L397 868 L474 753 L420 753 L343 825 L341 825 L264 753 L210 753 L287 868 Z " />
<glyph glyph-name="Otilde" unicode="&#xd5;" horiz-adv-x="684" d="M342 -10 Q273 -10 219 16 Q165 42 127.5 90 Q90 138 70.5 204.5 Q51 271 51 352 Q51 433 70.5 499 Q90 565 127.5 612 Q165 659 219 684.5 Q273 710 342 710 Q411 710 465 684.5 Q519 659 556.5 612.5 Q594 566 613.5 499.5 Q633 433 633 351 Q633 269 613.5 202.5 Q594 136 556.5 88.5 Q519 41 465 15.5 Q411 -10 342 -10 Z M342 47 Q390 47 426 69 Q462 91 486 131.5 Q510 172 522 227.5 Q534 283 534 351 Q534 418 522 473.5 Q510 529 486 568.5 Q462 608 426 630 Q390 652 342 652 Q294 652 257.5 630.5 Q221 609 197 569 Q173 529 161 473.5 Q149 418 149 351 Q149 284 161 228 Q173 172 197 132 Q221 92 257.5 69.5 Q294 47 342 47 Z M193 761 Q194 778 199 795 Q204 812 214 825.5 Q224 839 239 847 Q254 855 276 855 Q294 855 311 849.5 Q328 844 344 838 Q360 832 375 826.5 Q390 821 405 821 Q419 821 425.5 828 Q432 835 435 852 L490 852 Q485 813 467 785 Q449 757 414 757 Q397 757 379.5 762.5 Q362 768 344.5 775 Q327 782 311 787.5 Q295 793 281 793 Q265 793 257.5 785.5 Q250 778 246 761 L193 761 Z " />
<glyph glyph-name="Odieresis" unicode="&#xd6;" horiz-adv-x="684" d="M342 -10 Q273 -10 219 16 Q165 42 127.5 90 Q90 138 70.5 204.5 Q51 271 51 352 Q51 433 70.5 499 Q90 565 127.5 612 Q165 659 219 684.5 Q273 710 342 710 Q411 710 465 684.5 Q519 659 556.5 612.5 Q594 566 613.5 499.5 Q633 433 633 351 Q633 269 613.5 202.5 Q594 136 556.5 88.5 Q519 41 465 15.5 Q411 -10 342 -10 Z M342 47 Q390 47 426 69 Q462 91 486 131.5 Q510 172 522 227.5 Q534 283 534 351 Q534 418 522 473.5 Q510 529 486 568.5 Q462 608 426 630 Q390 652 342 652 Q294 652 257.5 630.5 Q221 609 197 569 Q173 529 161 473.5 Q149 418 149 351 Q149 284 161 228 Q173 172 197 132 Q221 92 257.5 69.5 Q294 47 342 47 Z M210 847 L297 847 L297 760 L210 760 L210 847 Z M386 847 L473 847 L473 760 L386 760 L386 847 Z " />
<glyph glyph-name="Omacron" unicode="&#x14c;" horiz-adv-x="684" d="M342 -10 Q273 -10 219 16 Q165 42 127.5 90 Q90 138 70.5 204.5 Q51 271 51 352 Q51 433 70.5 499 Q90 565 127.5 612 Q165 659 219 684.5 Q273 710 342 710 Q411 710 465 684.5 Q519 659 556.5 612.5 Q594 566 613.5 499.5 Q633 433 633 351 Q633 269 613.5 202.5 Q594 136 556.5 88.5 Q519 41 465 15.5 Q411 -10 342 -10 Z M342 47 Q390 47 426 69 Q462 91 486 131.5 Q510 172 522 227.5 Q534 283 534 351 Q534 418 522 473.5 Q510 529 486 568.5 Q462 608 426 630 Q390 652 342 652 Q294 652 257.5 630.5 Q221 609 197 569 Q173 529 161 473.5 Q149 418 149 351 Q149 284 161 228 Q173 172 197 132 Q221 92 257.5 69.5 Q294 47 342 47 Z M203 828 L480 828 L480 770 L203 770 L203 828 Z " />
<glyph glyph-name="Obreve" unicode="&#x14e;" horiz-adv-x="684" d="M342 -10 Q273 -10 219 16 Q165 42 127.5 90 Q90 138 70.5 204.5 Q51 271 51 352 Q51 433 70.5 499 Q90 565 127.5 612 Q165 659 219 684.5 Q273 710 342 710 Q411 710 465 684.5 Q519 659 556.5 612.5 Q594 566 613.5 499.5 Q633 433 633 351 Q633 269 613.5 202.5 Q594 136 556.5 88.5 Q519 41 465 15.5 Q411 -10 342 -10 Z M342 47 Q390 47 426 69 Q462 91 486 131.5 Q510 172 522 227.5 Q534 283 534 351 Q534 418 522 473.5 Q510 529 486 568.5 Q462 608 426 630 Q390 652 342 652 Q294 652 257.5 630.5 Q221 609 197 569 Q173 529 161 473.5 Q149 418 149 351 Q149 284 161 228 Q173 172 197 132 Q221 92 257.5 69.5 Q294 47 342 47 Z M263 861 Q268 838 287 820 Q306 802 342 802 Q377 802 396.5 820 Q416 838 421 861 L467 861 Q465 838 457 816 Q449 794 434 777.5 Q419 761 396 751 Q373 741 342 741 Q310 741 287 750.5 Q264 760 249 776.5 Q234 793 226 815 Q218 837 216 861 L263 861 Z " />
<glyph glyph-name="Ohungarumlaut" unicode="&#x150;" horiz-adv-x="684" d="M342 -10 Q273 -10 219 16 Q165 42 127.5 90 Q90 138 70.5 204.5 Q51 271 51 352 Q51 433 70.5 499 Q90 565 127.5 612 Q165 659 219 684.5 Q273 710 342 710 Q411 710 465 684.5 Q519 659 556.5 612.5 Q594 566 613.5 499.5 Q633 433 633 351 Q633 269 613.5 202.5 Q594 136 556.5 88.5 Q519 41 465 15.5 Q411 -10 342 -10 Z M342 47 Q390 47 426 69 Q462 91 486 131.5 Q510 172 522 227.5 Q534 283 534 351 Q534 418 522 473.5 Q510 529 486 568.5 Q462 608 426 630 Q390 652 342 652 Q294 652 257.5 630.5 Q221 609 197 569 Q173 529 161 473.5 Q149 418 149 351 Q149 284 161 228 Q173 172 197 132 Q221 92 257.5 69.5 Q294 47 342 47 Z M281 868 L367 868 L281 751 L227 751 L281 868 Z M432 868 L518 868 L432 751 L378 751 L432 868 Z " />
<glyph glyph-name="Oslash" unicode="&#xd8;" horiz-adv-x="684" d="M208 22 Q132 63 91.5 148.5 Q51 234 51 352 Q51 433 70.5 499 Q90 565 127.5 612 Q165 659 219 684.5 Q273 710 342 710 Q401 710 452 690 L477 758 L525 747 L496 667 Q562 624 597.5 543.5 Q633 463 633 351 Q633 269 613.5 202.5 Q594 136 556.5 88.5 Q519 41 465 15.5 Q411 -10 342 -10 Q318 -10 295.5 -6.5 Q273 -3 253 3 L230 -60 L182 -49 L208 22 Z M430 629 Q392 652 342 652 Q294 652 257.5 630.5 Q221 609 197 569 Q173 529 161 473.5 Q149 418 149 351 Q149 262 169.5 194 Q190 126 232 88 L430 629 Z M274 60 Q303 47 342 47 Q390 47 426 69 Q462 91 486 131.5 Q510 172 522 227.5 Q534 283 534 351 Q534 429 517.5 491.5 Q501 554 469 594 L274 60 Z " />
<glyph glyph-name="Oslashacute" unicode="&#x1fe;" horiz-adv-x="684" d="M208 22 Q132 63 91.5 148.5 Q51 234 51 352 Q51 433 70.5 499 Q90 565 127.5 612 Q165 659 219 684.5 Q273 710 342 710 Q401 710 452 690 L477 758 L525 747 L496 667 Q562 624 597.5 543.5 Q633 463 633 351 Q633 269 613.5 202.5 Q594 136 556.5 88.5 Q519 41 465 15.5 Q411 -10 342 -10 Q318 -10 295.5 -6.5 Q273 -3 253 3 L230 -60 L182 -49 L208 22 Z M430 629 Q392 652 342 652 Q294 652 257.5 630.5 Q221 609 197 569 Q173 529 161 473.5 Q149 418 149 351 Q149 262 169.5 194 Q190 126 232 88 L430 629 Z M274 60 Q303 47 342 47 Q390 47 426 69 Q462 91 486 131.5 Q510 172 522 227.5 Q534 283 534 351 Q534 429 517.5 491.5 Q501 554 469 594 L274 60 Z M394 868 L499 868 L359 753 L295 753 L394 868 Z " />
<glyph glyph-name="OE" unicode="&#x152;" horiz-adv-x="848" d="M810 58 L810 0 L420 0 Q403 -5 383 -7.5 Q363 -10 342 -10 Q273 -10 219 16 Q165 42 127.5 90 Q90 138 70.5 204.5 Q51 271 51 352 Q51 433 70.5 499 Q90 565 127.5 612 Q165 659 219 684.5 Q273 710 342 710 Q363 710 382.5 707.5 Q402 705 421 700 L799 700 L799 642 L512 642 L512 397 L755 397 L755 337 L512 337 L512 58 L810 58 Z M423 635 Q405 645 385 648.5 Q365 652 342 652 Q294 652 257.5 630.5 Q221 609 197 569 Q173 529 161 473.5 Q149 418 149 351 Q149 284 161 228 Q173 172 197 132 Q221 92 257.5 69.5 Q294 47 342 47 Q365 47 385 51 Q405 55 423 65 L423 635 Z " />
<glyph glyph-name="Racute" unicode="&#x154;" horiz-adv-x="573" d="M78 700 L235 700 Q295 700 345.5 689.5 Q396 679 432 655 Q468 631 488.5 592.5 Q509 554 509 499 Q509 425 470.5 380 Q432 335 371 314 L538 0 L441 0 L287 297 Q276 296 264 296 Q252 296 240 296 L167 296 L167 0 L78 0 L78 700 Z M240 354 Q329 354 370.5 387 Q412 420 412 499 Q412 578 371 610 Q330 642 238 642 L167 642 L167 354 L240 354 Z M317 868 L422 868 L282 753 L218 753 L317 868 Z " />
<glyph glyph-name="Rcaron" unicode="&#x158;" horiz-adv-x="573" d="M78 700 L235 700 Q295 700 345.5 689.5 Q396 679 432 655 Q468 631 488.5 592.5 Q509 554 509 499 Q509 425 470.5 380 Q432 335 371 314 L538 0 L441 0 L287 297 Q276 296 264 296 Q252 296 240 296 L167 296 L167 0 L78 0 L78 700 Z M240 354 Q329 354 370.5 387 Q412 420 412 499 Q412 578 371 610 Q330 642 238 642 L167 642 L167 354 L240 354 Z M143 868 L197 868 L274 796 L276 796 L353 868 L407 868 L330 753 L220 753 L143 868 Z " />
<glyph glyph-name="Rcommaaccent" unicode="&#x156;" horiz-adv-x="573" d="M78 700 L235 700 Q295 700 345.5 689.5 Q396 679 432 655 Q468 631 488.5 592.5 Q509 554 509 499 Q509 425 470.5 380 Q432 335 371 314 L538 0 L441 0 L287 297 Q276 296 264 296 Q252 296 240 296 L167 296 L167 0 L78 0 L78 700 Z M240 354 Q329 354 370.5 387 Q412 420 412 499 Q412 578 371 610 Q330 642 238 642 L167 642 L167 354 L240 354 Z M281 -145 L239 -145 L239 -58 L334 -58 L334 -140 L285 -233 L237 -233 L281 -145 Z " />
<glyph glyph-name="Sacute" unicode="&#x15a;" horiz-adv-x="506" d="M94 169 Q99 152 110 131.5 Q121 111 139.5 92 Q158 73 185 60.5 Q212 48 249 48 Q305 48 340 79 Q375 110 375 169 Q375 197 364 219.5 Q353 242 334.5 260 Q316 278 292 293.5 Q268 309 242 324 Q204 345 170.5 364.5 Q137 384 112 408 Q87 432 72 461.5 Q57 491 57 532 Q57 573 72 606 Q87 639 114 662 Q141 685 179 697.5 Q217 710 264 710 Q316 710 351 698 Q386 686 409.5 668.5 Q433 651 446 630.5 Q459 610 467 592 L387 560 Q383 572 374 587.5 Q365 603 349.5 617.5 Q334 632 311 642 Q288 652 257 652 Q198 652 172 621.5 Q146 591 146 547 Q146 520 158.5 499 Q171 478 192 460 Q213 442 240 426 Q267 410 296 394 Q327 376 357.5 356.5 Q388 337 412 312.5 Q436 288 451 257 Q466 226 466 185 Q466 142 451 106 Q436 70 407.5 44.5 Q379 19 338.5 4.5 Q298 -10 246 -10 Q186 -10 145.5 5 Q105 20 79 41.5 Q53 63 38 87.5 Q23 112 16 130 L94 169 Z M285 868 L390 868 L250 753 L186 753 L285 868 Z " />
<glyph glyph-name="Scircumflex" unicode="&#x15c;" horiz-adv-x="506" d="M94 169 Q99 152 110 131.5 Q121 111 139.5 92 Q158 73 185 60.5 Q212 48 249 48 Q305 48 340 79 Q375 110 375 169 Q375 197 364 219.5 Q353 242 334.5 260 Q316 278 292 293.5 Q268 309 242 324 Q204 345 170.5 364.5 Q137 384 112 408 Q87 432 72 461.5 Q57 491 57 532 Q57 573 72 606 Q87 639 114 662 Q141 685 179 697.5 Q217 710 264 710 Q316 710 351 698 Q386 686 409.5 668.5 Q433 651 446 630.5 Q459 610 467 592 L387 560 Q383 572 374 587.5 Q365 603 349.5 617.5 Q334 632 311 642 Q288 652 257 652 Q198 652 172 621.5 Q146 591 146 547 Q146 520 158.5 499 Q171 478 192 460 Q213 442 240 426 Q267 410 296 394 Q327 376 357.5 356.5 Q388 337 412 312.5 Q436 288 451 257 Q466 226 466 185 Q466 142 451 106 Q436 70 407.5 44.5 Q379 19 338.5 4.5 Q298 -10 246 -10 Q186 -10 145.5 5 Q105 20 79 41.5 Q53 63 38 87.5 Q23 112 16 130 L94 169 Z M205 868 L315 868 L392 753 L338 753 L261 825 L259 825 L182 753 L128 753 L205 868 Z " />
<glyph glyph-name="Scaron" unicode="&#x160;" horiz-adv-x="506" d="M94 169 Q99 152 110 131.5 Q121 111 139.5 92 Q158 73 185 60.5 Q212 48 249 48 Q305 48 340 79 Q375 110 375 169 Q375 197 364 219.5 Q353 242 334.5 260 Q316 278 292 293.5 Q268 309 242 324 Q204 345 170.5 364.5 Q137 384 112 408 Q87 432 72 461.5 Q57 491 57 532 Q57 573 72 606 Q87 639 114 662 Q141 685 179 697.5 Q217 710 264 710 Q316 710 351 698 Q386 686 409.5 668.5 Q433 651 446 630.5 Q459 610 467 592 L387 560 Q383 572 374 587.5 Q365 603 349.5 617.5 Q334 632 311 642 Q288 652 257 652 Q198 652 172 621.5 Q146 591 146 547 Q146 520 158.5 499 Q171 478 192 460 Q213 442 240 426 Q267 410 296 394 Q327 376 357.5 356.5 Q388 337 412 312.5 Q436 288 451 257 Q466 226 466 185 Q466 142 451 106 Q436 70 407.5 44.5 Q379 19 338.5 4.5 Q298 -10 246 -10 Q186 -10 145.5 5 Q105 20 79 41.5 Q53 63 38 87.5 Q23 112 16 130 L94 169 Z M121 868 L175 868 L252 796 L254 796 L331 868 L385 868 L308 753 L198 753 L121 868 Z " />
<glyph glyph-name="Scedilla" unicode="&#x15e;" horiz-adv-x="506" d="M177 -140 Q185 -147 202 -151.5 Q219 -156 237 -156 Q259 -156 267 -146.5 Q275 -137 275 -124 Q275 -111 266.5 -102.5 Q258 -94 246 -89 Q234 -84 220.5 -82 Q207 -80 197 -80 L221 -9 Q177 -6 145 5 Q105 20 79 41.5 Q53 63 38 87.5 Q23 112 16 130 L94 169 Q99 152 110 131.5 Q121 111 139.5 92 Q158 73 185 60.5 Q212 48 249 48 Q305 48 340 79 Q375 110 375 169 Q375 197 364 219.5 Q353 242 334.5 260 Q316 278 292 293.5 Q268 309 242 324 Q204 345 170.5 364.5 Q137 384 112 408 Q87 432 72 461.5 Q57 491 57 532 Q57 573 72 606 Q87 639 114 662 Q141 685 179 697.5 Q217 710 264 710 Q316 710 351 698 Q386 686 409.5 668.5 Q433 651 446 630.5 Q459 610 467 592 L387 560 Q383 572 374 587.5 Q365 603 349.5 617.5 Q334 632 311 642 Q288 652 257 652 Q198 652 172 621.5 Q146 591 146 547 Q146 520 158.5 499 Q171 478 192 460 Q213 442 240 426 Q267 410 296 394 Q327 376 357.5 356.5 Q388 337 412 312.5 Q436 288 451 257 Q466 226 466 185 Q466 142 451 106 Q436 70 407.5 44.5 Q379 19 338 4 Q304 -8 261 -10 L248 -43 Q298 -51 321 -72 Q344 -93 344 -125 Q344 -154 322.5 -175.5 Q301 -197 255 -197 Q226 -197 202 -190 Q178 -183 164 -171 L177 -140 Z " />
<glyph glyph-name="Scommaaccent" unicode="&#x218;" horiz-adv-x="506" d="M94 169 Q99 152 110 131.5 Q121 111 139.5 92 Q158 73 185 60.5 Q212 48 249 48 Q305 48 340 79 Q375 110 375 169 Q375 197 364 219.5 Q353 242 334.5 260 Q316 278 292 293.5 Q268 309 242 324 Q204 345 170.5 364.5 Q137 384 112 408 Q87 432 72 461.5 Q57 491 57 532 Q57 573 72 606 Q87 639 114 662 Q141 685 179 697.5 Q217 710 264 710 Q316 710 351 698 Q386 686 409.5 668.5 Q433 651 446 630.5 Q459 610 467 592 L387 560 Q383 572 374 587.5 Q365 603 349.5 617.5 Q334 632 311 642 Q288 652 257 652 Q198 652 172 621.5 Q146 591 146 547 Q146 520 158.5 499 Q171 478 192 460 Q213 442 240 426 Q267 410 296 394 Q327 376 357.5 356.5 Q388 337 412 312.5 Q436 288 451 257 Q466 226 466 185 Q466 142 451 106 Q436 70 407.5 44.5 Q379 19 338.5 4.5 Q298 -10 246 -10 Q186 -10 145.5 5 Q105 20 79 41.5 Q53 63 38 87.5 Q23 112 16 130 L94 169 Z M241 -145 L199 -145 L199 -58 L294 -58 L294 -140 L245 -233 L197 -233 L241 -145 Z " />
<glyph glyph-name="Tcaron" unicode="&#x164;" horiz-adv-x="532" d="M222 642 L23 642 L23 700 L510 700 L510 642 L310 642 L310 0 L222 0 L222 642 Z M134 868 L188 868 L265 796 L267 796 L344 868 L398 868 L321 753 L211 753 L134 868 Z " />
<glyph glyph-name="Tcommaaccent" unicode="&#x162;" horiz-adv-x="532" d="M199 -140 Q207 -147 224 -151.5 Q241 -156 259 -156 Q281 -156 289 -146.5 Q297 -137 297 -124 Q297 -111 288.5 -102.5 Q280 -94 268 -89 Q256 -84 242.5 -82 Q229 -80 219 -80 L246 0 L222 0 L222 642 L23 642 L23 700 L510 700 L510 642 L310 642 L310 0 L286 0 L270 -43 Q320 -51 343 -72 Q366 -93 366 -125 Q366 -154 344.5 -175.5 Q323 -197 277 -197 Q248 -197 224 -190 Q200 -183 186 -171 L199 -140 Z " />
<glyph glyph-name="uni021A" unicode="&#x21a;" horiz-adv-x="532" d="M222 642 L23 642 L23 700 L510 700 L510 642 L310 642 L310 0 L222 0 L222 642 Z M261 -145 L219 -145 L219 -58 L314 -58 L314 -140 L265 -233 L217 -233 L261 -145 Z " />
<glyph glyph-name="Tbar" unicode="&#x166;" horiz-adv-x="532" d="M222 376 L100 376 L100 426 L222 426 L222 642 L23 642 L23 700 L510 700 L510 642 L310 642 L310 426 L431 426 L431 376 L310 376 L310 0 L222 0 L222 376 Z " />
<glyph glyph-name="Ugrave" unicode="&#xd9;" horiz-adv-x="642" d="M78 700 L167 700 L167 268 Q167 205 180 164 Q193 123 216 100 Q239 77 269.5 68 Q300 59 335 59 Q371 59 400.5 68 Q430 77 450.5 99.5 Q471 122 482.5 160 Q494 198 494 257 L494 700 L568 700 L568 244 Q568 171 549 122 Q530 73 497.5 44 Q465 15 421 2.5 Q377 -10 326 -10 Q278 -10 233.5 1 Q189 12 154.5 41 Q120 70 99 120 Q78 170 78 247 L78 700 Z M293 868 L392 753 L327 753 L188 868 L293 868 Z " />
<glyph glyph-name="Uacute" unicode="&#xda;" horiz-adv-x="642" d="M78 700 L167 700 L167 268 Q167 205 180 164 Q193 123 216 100 Q239 77 269.5 68 Q300 59 335 59 Q371 59 400.5 68 Q430 77 450.5 99.5 Q471 122 482.5 160 Q494 198 494 257 L494 700 L568 700 L568 244 Q568 171 549 122 Q530 73 497.5 44 Q465 15 421 2.5 Q377 -10 326 -10 Q278 -10 233.5 1 Q189 12 154.5 41 Q120 70 99 120 Q78 170 78 247 L78 700 Z M389 868 L494 868 L354 753 L290 753 L389 868 Z " />
<glyph glyph-name="Ucircumflex" unicode="&#xdb;" horiz-adv-x="642" d="M78 700 L167 700 L167 268 Q167 205 180 164 Q193 123 216 100 Q239 77 269.5 68 Q300 59 335 59 Q371 59 400.5 68 Q430 77 450.5 99.5 Q471 122 482.5 160 Q494 198 494 257 L494 700 L568 700 L568 244 Q568 171 549 122 Q530 73 497.5 44 Q465 15 421 2.5 Q377 -10 326 -10 Q278 -10 233.5 1 Q189 12 154.5 41 Q120 70 99 120 Q78 170 78 247 L78 700 Z M276 868 L386 868 L463 753 L409 753 L332 825 L330 825 L253 753 L199 753 L276 868 Z " />
<glyph glyph-name="Utilde" unicode="&#x168;" horiz-adv-x="642" d="M78 700 L167 700 L167 268 Q167 205 180 164 Q193 123 216 100 Q239 77 269.5 68 Q300 59 335 59 Q371 59 400.5 68 Q430 77 450.5 99.5 Q471 122 482.5 160 Q494 198 494 257 L494 700 L568 700 L568 244 Q568 171 549 122 Q530 73 497.5 44 Q465 15 421 2.5 Q377 -10 326 -10 Q278 -10 233.5 1 Q189 12 154.5 41 Q120 70 99 120 Q78 170 78 247 L78 700 Z M182 761 Q183 778 188 795 Q193 812 203 825.5 Q213 839 228 847 Q243 855 265 855 Q283 855 300 849.5 Q317 844 333 838 Q349 832 364 826.5 Q379 821 394 821 Q408 821 414.5 828 Q421 835 424 852 L479 852 Q474 813 456 785 Q438 757 403 757 Q386 757 368.5 762.5 Q351 768 333.5 775 Q316 782 300 787.5 Q284 793 270 793 Q254 793 246.5 785.5 Q239 778 235 761 L182 761 Z " />
<glyph glyph-name="Udieresis" unicode="&#xdc;" horiz-adv-x="642" d="M78 700 L167 700 L167 268 Q167 205 180 164 Q193 123 216 100 Q239 77 269.5 68 Q300 59 335 59 Q371 59 400.5 68 Q430 77 450.5 99.5 Q471 122 482.5 160 Q494 198 494 257 L494 700 L568 700 L568 244 Q568 171 549 122 Q530 73 497.5 44 Q465 15 421 2.5 Q377 -10 326 -10 Q278 -10 233.5 1 Q189 12 154.5 41 Q120 70 99 120 Q78 170 78 247 L78 700 Z M200 847 L287 847 L287 760 L200 760 L200 847 Z M376 847 L463 847 L463 760 L376 760 L376 847 Z " />
<glyph glyph-name="Umacron" unicode="&#x16a;" horiz-adv-x="642" d="M78 700 L167 700 L167 268 Q167 205 180 164 Q193 123 216 100 Q239 77 269.5 68 Q300 59 335 59 Q371 59 400.5 68 Q430 77 450.5 99.5 Q471 122 482.5 160 Q494 198 494 257 L494 700 L568 700 L568 244 Q568 171 549 122 Q530 73 497.5 44 Q465 15 421 2.5 Q377 -10 326 -10 Q278 -10 233.5 1 Q189 12 154.5 41 Q120 70 99 120 Q78 170 78 247 L78 700 Z M192 828 L469 828 L469 770 L192 770 L192 828 Z " />
<glyph glyph-name="Ubreve" unicode="&#x16c;" horiz-adv-x="642" d="M78 700 L167 700 L167 268 Q167 205 180 164 Q193 123 216 100 Q239 77 269.5 68 Q300 59 335 59 Q371 59 400.5 68 Q430 77 450.5 99.5 Q471 122 482.5 160 Q494 198 494 257 L494 700 L568 700 L568 244 Q568 171 549 122 Q530 73 497.5 44 Q465 15 421 2.5 Q377 -10 326 -10 Q278 -10 233.5 1 Q189 12 154.5 41 Q120 70 99 120 Q78 170 78 247 L78 700 Z M262 861 Q267 838 286 820 Q305 802 341 802 Q376 802 395.5 820 Q415 838 420 861 L466 861 Q464 838 456 816 Q448 794 433 777.5 Q418 761 395 751 Q372 741 341 741 Q309 741 286 750.5 Q263 760 248 776.5 Q233 793 225 815 Q217 837 215 861 L262 861 Z " />
<glyph glyph-name="Uring" unicode="&#x16e;" horiz-adv-x="642" d="M78 700 L167 700 L167 268 Q167 205 180 164 Q193 123 216 100 Q239 77 269.5 68 Q300 59 335 59 Q371 59 400.5 68 Q430 77 450.5 99.5 Q471 122 482.5 160 Q494 198 494 257 L494 700 L568 700 L568 244 Q568 171 549 122 Q530 73 497.5 44 Q465 15 421 2.5 Q377 -10 326 -10 Q278 -10 233.5 1 Q189 12 154.5 41 Q120 70 99 120 Q78 170 78 247 L78 700 Z M228 826 Q228 849 236.5 868 Q245 887 260 900.5 Q275 914 294.5 921.5 Q314 929 336 929 Q358 929 377.5 921.5 Q397 914 412 900.5 Q427 887 435.5 868 Q444 849 444 826 Q444 803 435.5 784.5 Q427 766 412 752.5 Q397 739 377.5 731.5 Q358 724 336 724 Q314 724 294.5 731.5 Q275 739 260 752.5 Q245 766 236.5 784.5 Q228 803 228 826 Z M336 764 Q365 764 381 782 Q397 800 397 826 Q397 852 381 870.5 Q365 889 336 889 Q307 889 291.5 870.5 Q276 852 276 826 Q276 800 291.5 782 Q307 764 336 764 Z " />
<glyph glyph-name="Uhungarumlaut" unicode="&#x170;" horiz-adv-x="642" d="M78 700 L167 700 L167 268 Q167 205 180 164 Q193 123 216 100 Q239 77 269.5 68 Q300 59 335 59 Q371 59 400.5 68 Q430 77 450.5 99.5 Q471 122 482.5 160 Q494 198 494 257 L494 700 L568 700 L568 244 Q568 171 549 122 Q530 73 497.5 44 Q465 15 421 2.5 Q377 -10 326 -10 Q278 -10 233.5 1 Q189 12 154.5 41 Q120 70 99 120 Q78 170 78 247 L78 700 Z M279 868 L365 868 L279 751 L225 751 L279 868 Z M430 868 L516 868 L430 751 L376 751 L430 868 Z " />
<glyph glyph-name="Uogonek" unicode="&#x172;" horiz-adv-x="642" d="M78 700 L167 700 L167 268 Q167 205 180 164 Q193 123 216 100 Q239 77 269.5 68 Q300 59 335 59 Q371 59 400.5 68 Q430 77 450.5 99.5 Q471 122 482.5 160 Q494 198 494 257 L494 700 L568 700 L568 244 Q568 155 541.5 104 Q515 53 469 21 Q424 -11 397 -44.5 Q370 -78 370 -113 Q370 -129 380 -138.5 Q390 -148 409 -148 Q425 -148 440 -142 Q455 -136 466 -128 L485 -152 Q469 -170 445.5 -184 Q422 -198 387 -198 Q345 -198 323 -179 Q301 -160 301 -126 Q301 -99 317 -68.5 Q333 -38 371 -7 Q350 -10 326 -10 Q278 -10 233.5 1 Q189 12 154.5 41 Q120 70 99 120 Q78 170 78 247 L78 700 Z " />
<glyph glyph-name="Wgrave" unicode="&#x1e80;" horiz-adv-x="842" d="M29 700 L119 700 L209 295 Q222 239 232 185 Q242 131 250 86 L252 86 Q261 131 272 185 Q283 239 296 296 L389 700 L476 700 L564 295 Q576 240 586.5 183.5 Q597 127 604 86 L606 86 Q614 127 624.5 180 Q635 233 649 291 L745 700 L820 700 L650 0 L545 0 L464 367 Q458 393 452.5 421.5 Q447 450 442 477.5 Q437 505 433 530 Q429 555 426 573 L424 573 Q421 555 416 530 Q411 505 405.5 477 Q400 449 394 420.5 Q388 392 382 367 L296 0 L187 0 L29 700 Z M373 868 L472 753 L407 753 L268 868 L373 868 Z " />
<glyph glyph-name="Wacute" unicode="&#x1e82;" horiz-adv-x="842" d="M29 700 L119 700 L209 295 Q222 239 232 185 Q242 131 250 86 L252 86 Q261 131 272 185 Q283 239 296 296 L389 700 L476 700 L564 295 Q576 240 586.5 183.5 Q597 127 604 86 L606 86 Q614 127 624.5 180 Q635 233 649 291 L745 700 L820 700 L650 0 L545 0 L464 367 Q458 393 452.5 421.5 Q447 450 442 477.5 Q437 505 433 530 Q429 555 426 573 L424 573 Q421 555 416 530 Q411 505 405.5 477 Q400 449 394 420.5 Q388 392 382 367 L296 0 L187 0 L29 700 Z M487 868 L592 868 L452 753 L388 753 L487 868 Z " />
<glyph glyph-name="Wcircumflex" unicode="&#x174;" horiz-adv-x="842" d="M29 700 L119 700 L209 295 Q222 239 232 185 Q242 131 250 86 L252 86 Q261 131 272 185 Q283 239 296 296 L389 700 L476 700 L564 295 Q576 240 586.5 183.5 Q597 127 604 86 L606 86 Q614 127 624.5 180 Q635 233 649 291 L745 700 L820 700 L650 0 L545 0 L464 367 Q458 393 452.5 421.5 Q447 450 442 477.5 Q437 505 433 530 Q429 555 426 573 L424 573 Q421 555 416 530 Q411 505 405.5 477 Q400 449 394 420.5 Q388 392 382 367 L296 0 L187 0 L29 700 Z M374 868 L484 868 L561 753 L507 753 L430 825 L428 825 L351 753 L297 753 L374 868 Z " />
<glyph glyph-name="Wdieresis" unicode="&#x1e84;" horiz-adv-x="842" d="M29 700 L119 700 L209 295 Q222 239 232 185 Q242 131 250 86 L252 86 Q261 131 272 185 Q283 239 296 296 L389 700 L476 700 L564 295 Q576 240 586.5 183.5 Q597 127 604 86 L606 86 Q614 127 624.5 180 Q635 233 649 291 L745 700 L820 700 L650 0 L545 0 L464 367 Q458 393 452.5 421.5 Q447 450 442 477.5 Q437 505 433 530 Q429 555 426 573 L424 573 Q421 555 416 530 Q411 505 405.5 477 Q400 449 394 420.5 Q388 392 382 367 L296 0 L187 0 L29 700 Z M300 847 L387 847 L387 760 L300 760 L300 847 Z M476 847 L563 847 L563 760 L476 760 L476 847 Z " />
<glyph glyph-name="Ygrave" unicode="&#x1ef2;" horiz-adv-x="511" d="M209 321 L18 700 L115 700 L263 395 L265 395 L415 700 L493 700 L297 317 L297 0 L209 0 L209 321 Z M228 868 L327 753 L262 753 L123 868 L228 868 Z " />
<glyph glyph-name="Yacute" unicode="&#xdd;" horiz-adv-x="511" d="M209 321 L18 700 L115 700 L263 395 L265 395 L415 700 L493 700 L297 317 L297 0 L209 0 L209 321 Z M316 868 L421 868 L281 753 L217 753 L316 868 Z " />
<glyph glyph-name="Ycircumflex" unicode="&#x176;" horiz-adv-x="511" d="M209 321 L18 700 L115 700 L263 395 L265 395 L415 700 L493 700 L297 317 L297 0 L209 0 L209 321 Z M204 868 L314 868 L391 753 L337 753 L260 825 L258 825 L181 753 L127 753 L204 868 Z " />
<glyph glyph-name="Ydieresis" unicode="&#x178;" horiz-adv-x="511" d="M209 321 L18 700 L115 700 L263 395 L265 395 L415 700 L493 700 L297 317 L297 0 L209 0 L209 321 Z M124 847 L211 847 L211 760 L124 760 L124 847 Z M300 847 L387 847 L387 760 L300 760 L300 847 Z " />
<glyph glyph-name="Zacute" unicode="&#x179;" horiz-adv-x="545" d="M23 48 L418 642 L49 642 L49 700 L521 700 L521 652 L126 58 L510 58 L510 0 L23 0 L23 48 Z M340 868 L445 868 L305 753 L241 753 L340 868 Z " />
<glyph glyph-name="Zcaron" unicode="&#x17d;" horiz-adv-x="545" d="M23 48 L418 642 L49 642 L49 700 L521 700 L521 652 L126 58 L510 58 L510 0 L23 0 L23 48 Z M180 868 L234 868 L311 796 L313 796 L390 868 L444 868 L367 753 L257 753 L180 868 Z " />
<glyph glyph-name="Zdotaccent" unicode="&#x17b;" horiz-adv-x="545" d="M23 48 L418 642 L49 642 L49 700 L521 700 L521 652 L126 58 L510 58 L510 0 L23 0 L23 48 Z M253 848 L337 848 L337 761 L253 761 L253 848 Z " />
<glyph glyph-name="Eng" unicode="&#x14a;" horiz-adv-x="658" d="M78 700 L156 700 L380 361 Q396 337 413.5 308.5 Q431 280 448 251 Q465 222 480 195.5 Q495 169 506 150 L508 150 Q506 200 506 259.5 Q506 319 506 387 L506 700 L580 700 L580 24 Q580 -17 574.5 -46.5 Q569 -76 555 -95 Q541 -114 517.5 -123.5 Q494 -133 457 -133 Q418 -133 400 -128 L400 -67 Q408 -69 420 -70.5 Q432 -72 441 -72 Q470 -72 488.5 -62 Q507 -52 507 -18 L507 9 L267 371 Q253 392 236.5 418 Q220 444 204 470 Q188 496 174.5 520.5 Q161 545 152 564 L150 564 Q152 518 152 462 Q152 406 152 339 L152 0 L78 0 L78 700 Z " />
<glyph glyph-name="Eth" unicode="&#xd0;" horiz-adv-x="661" d="M89 338 L31 338 L31 398 L89 398 L89 700 L274 700 Q443 700 527 608.5 Q611 517 611 351 Q611 184 527 92 Q443 0 274 0 L89 0 L89 338 Z M276 58 Q341 58 386 78.5 Q431 99 459 137 Q487 175 499.5 229 Q512 283 512 351 Q512 418 499.5 472 Q487 526 459 564 Q431 602 386 622 Q341 642 276 642 L178 642 L178 398 L337 398 L337 338 L178 338 L178 58 L276 58 Z " />
<glyph glyph-name="Thorn" unicode="&#xde;" horiz-adv-x="543" d="M78 700 L167 700 L167 589 L239 589 Q297 589 347 579 Q397 569 434.5 545 Q472 521 493.5 482.5 Q515 444 515 387 Q515 330 494 291 Q473 252 436 228 Q399 204 348.5 193.5 Q298 183 240 183 L167 183 L167 0 L78 0 L78 700 Z M244 241 Q289 241 321.5 248.5 Q354 256 375.5 273 Q397 290 407 318 Q417 346 417 387 Q417 428 407 456 Q397 484 375.5 500.5 Q354 517 321 524 Q288 531 243 531 L167 531 L167 241 L244 241 Z " />
<glyph glyph-name="a" unicode="a" horiz-adv-x="480" d="M335 56 Q300 25 264.5 7.5 Q229 -10 181 -10 Q118 -10 79 25 Q40 60 40 124 Q40 164 57.5 193.5 Q75 223 111 245 Q147 267 201 282.5 Q255 298 328 310 L328 359 Q328 408 306.5 434.5 Q285 461 235 461 Q191 461 162 438.5 Q133 416 114 383 L45 415 Q52 431 67.5 448 Q83 465 107 479.5 Q131 494 163.5 503.5 Q196 513 238 513 Q288 513 321.5 501 Q355 489 375.5 468 Q396 447 404.5 417.5 Q413 388 413 353 L413 107 Q413 72 415 44.5 Q417 17 422 0 L347 0 L335 56 Z M328 262 Q283 253 246 242.5 Q209 232 182.5 217 Q156 202 141 181.5 Q126 161 126 131 Q126 94 149.5 72.5 Q173 51 209 51 Q246 51 276 68.5 Q306 86 328 108 L328 262 Z " />
<glyph glyph-name="b" unicode="b" horiz-adv-x="529" d="M68 750 L152 750 L152 447 Q162 458 176 470 Q190 482 208 491.5 Q226 501 248 507 Q270 513 296 513 Q342 513 377.5 494 Q413 475 438 440.5 Q463 406 476 358.5 Q489 311 489 255 Q489 198 475.5 149.5 Q462 101 436.5 65.5 Q411 30 374 10 Q337 -10 291 -10 Q244 -10 206 9.5 Q168 29 143 56 L141 56 L126 0 L68 0 L68 750 Z M152 114 Q161 102 174 90.5 Q187 79 203 69.5 Q219 60 237.5 54 Q256 48 276 48 Q337 48 366 101 Q395 154 395 252 Q395 351 365.5 402 Q336 453 276 453 Q236 453 203.5 430.5 Q171 408 152 381 L152 114 Z " />
<glyph glyph-name="c" unicode="c" horiz-adv-x="443" d="M426 90 Q417 72 403.5 54 Q390 36 369.5 22 Q349 8 321.5 -1 Q294 -10 258 -10 Q199 -10 157.5 12 Q116 34 90 70.5 Q64 107 52 154.5 Q40 202 40 253 Q40 305 52 352 Q64 399 90 435 Q116 471 156.5 492 Q197 513 254 513 Q290 513 317 505.5 Q344 498 364.5 484.5 Q385 471 399.5 452.5 Q414 434 424 412 L347 383 Q341 397 333 411 Q325 425 314 436.5 Q303 448 288 455 Q273 462 253 462 Q222 462 199.5 447.5 Q177 433 162 406.5 Q147 380 140 343 Q133 306 133 261 Q133 220 139 181 Q145 142 159.5 111.5 Q174 81 197 62.5 Q220 44 255 44 Q298 44 319.5 67 Q341 90 353 122 L426 90 Z " />
<glyph glyph-name="d" unicode="d" horiz-adv-x="528" d="M386 65 L384 65 Q373 53 358.5 40 Q344 27 325 16 Q306 5 282 -2.5 Q258 -10 230 -10 Q185 -10 150 9.5 Q115 29 90.5 63 Q66 97 53 144 Q40 191 40 247 Q40 304 54 352.5 Q68 401 94.5 437 Q121 473 158.5 493 Q196 513 243 513 Q286 513 319 498 Q352 483 377 460 L377 750 L461 750 L461 0 L400 0 L386 65 Z M377 397 Q359 420 327 438 Q295 456 257 456 Q194 456 163.5 403 Q133 350 133 250 Q133 152 162.5 101 Q192 50 254 50 Q292 50 324 71.5 Q356 93 377 121 L377 397 Z " />
<glyph glyph-name="e" unicode="e" horiz-adv-x="482" d="M441 90 Q432 72 417 54.5 Q402 37 381 22.5 Q360 8 331 -1 Q302 -10 265 -10 Q204 -10 161.5 11.5 Q119 33 92 69 Q65 105 52.5 152.5 Q40 200 40 253 Q40 308 53 355.5 Q66 403 92.5 438 Q119 473 158 493 Q197 513 248 513 Q297 513 334 495 Q371 477 396 445 Q421 413 433.5 370 Q446 327 446 278 L446 250 L133 250 Q134 212 140 175 Q146 138 161 108.5 Q176 79 201.5 61 Q227 43 267 43 Q308 43 332 65.5 Q356 88 371 121 L441 90 Z M359 302 Q359 329 353 358 Q347 387 333.5 410 Q320 433 298.5 448 Q277 463 244 463 Q215 463 195 451 Q175 439 161.5 418 Q148 397 141 367.5 Q134 338 133 302 L359 302 Z " />
<glyph glyph-name="f" unicode="f" horiz-adv-x="308" d="M97 449 L18 449 L18 503 L97 503 L97 587 Q97 681 136 720.5 Q175 760 247 760 Q267 760 281.5 757.5 Q296 755 301 753 L301 693 Q293 698 277 701.5 Q261 705 246 705 Q234 705 222.5 702 Q211 699 201.5 690.5 Q192 682 186.5 665.5 Q181 649 181 622 L181 503 L293 503 L293 449 L181 449 L181 0 L97 0 L97 449 Z " />
<glyph glyph-name="g" unicode="g" horiz-adv-x="509" d="M116 31 Q91 42 75.5 59 Q60 76 60 102 Q60 136 84 158 Q108 180 139 194 Q101 217 80 254.5 Q59 292 59 340 Q59 379 73.5 410.5 Q88 442 113.5 465 Q139 488 174 500.5 Q209 513 251 513 Q329 513 381 473 Q385 492 393.5 510 Q402 528 416.5 541.5 Q431 555 452 563 Q473 571 500 571 L500 489 Q494 491 478 491 Q446 491 429.5 476.5 Q413 462 408 443 Q425 422 434 395.5 Q443 369 443 339 Q443 300 428.5 267.5 Q414 235 388.5 212 Q363 189 328.5 176.5 Q294 164 253 164 Q213 164 182 174 Q161 165 145 152 Q129 139 129 122 Q129 110 139.5 102.5 Q150 95 171.5 90 Q193 85 225.5 81.5 Q258 78 302 72 Q333 68 367 62.5 Q401 57 430 44.5 Q459 32 478 10.5 Q497 -11 497 -48 Q497 -120 433.5 -157 Q370 -194 258 -194 Q144 -194 87 -159 Q30 -124 30 -69 Q30 -37 50.5 -12 Q71 13 116 30 L116 31 Z M251 212 Q303 212 329.5 247.5 Q356 283 356 340 Q356 395 329.5 430.5 Q303 466 251 466 Q198 466 172 430.5 Q146 395 146 340 Q146 284 172 248 Q198 212 251 212 Z M156 18 Q136 7 123 -10.5 Q110 -28 110 -54 Q110 -98 152 -122 Q194 -146 272 -146 Q337 -146 377.5 -126 Q418 -106 418 -68 Q418 -48 404 -35.5 Q390 -23 367.5 -15.5 Q345 -8 316.5 -4.5 Q288 -1 258 2 Q232 5 205.5 9 Q179 13 156 18 Z " />
<glyph glyph-name="h" unicode="h" horiz-adv-x="527" d="M68 750 L152 750 L152 434 Q162 446 178 459.5 Q194 473 214.5 485 Q235 497 260.5 505 Q286 513 317 513 Q382 513 420.5 470 Q459 427 459 339 L459 0 L375 0 L375 336 Q375 394 354 422 Q333 450 295 450 Q273 450 251.5 441.5 Q230 433 211 421 Q192 409 176.5 394.5 Q161 380 152 368 L152 0 L68 0 L68 750 Z " />
<glyph glyph-name="i" unicode="i" horiz-adv-x="219" d="M68 700 L152 700 L152 613 L68 613 L68 700 Z M68 503 L152 503 L152 0 L68 0 L68 503 Z " />
<glyph glyph-name="j" unicode="j" horiz-adv-x="225" d="M-18 -125 Q-10 -127 1.5 -128 Q13 -129 18 -129 Q33 -129 43.5 -126.5 Q54 -124 60.5 -116 Q67 -108 70 -93.5 Q73 -79 73 -56 L73 503 L157 503 L157 -38 Q157 -73 152.5 -100 Q148 -127 134.5 -145.5 Q121 -164 96 -174 Q71 -184 31 -184 Q27 -184 20.5 -183.5 Q14 -183 7 -182.5 Q0 -182 -7 -181 Q-14 -180 -18 -179 L-18 -125 Z M73 700 L157 700 L157 613 L73 613 L73 700 Z " />
<glyph glyph-name="k" unicode="k" horiz-adv-x="462" d="M68 750 L152 750 L152 271 L154 271 L358 503 L443 503 L276 319 L449 0 L360 0 L221 258 L152 184 L152 0 L68 0 L68 750 Z " />
<glyph glyph-name="l" unicode="l" horiz-adv-x="220" d="M68 750 L152 750 L152 0 L68 0 L68 750 Z " />
<glyph glyph-name="m" unicode="m" horiz-adv-x="789" d="M68 503 L135 503 L144 427 L146 427 Q156 439 170.5 454 Q185 469 204 482 Q223 495 247.5 504 Q272 513 303 513 Q399 513 425 427 L427 427 Q437 439 451.5 454 Q466 469 486 482 Q506 495 532 504 Q558 513 590 513 Q721 513 721 339 L721 0 L637 0 L637 336 Q637 396 621 423 Q605 450 569 450 Q548 450 528.5 442.5 Q509 435 492 423.5 Q475 412 460 397.5 Q445 383 435 370 Q436 362 436 354 Q436 346 436 337 L436 0 L352 0 L352 336 Q352 396 336.5 423 Q321 450 284 450 Q263 450 243.5 442 Q224 434 207.5 422 Q191 410 176.5 395.5 Q162 381 152 368 L152 0 L68 0 L68 503 Z " />
<glyph glyph-name="n" unicode="n" horiz-adv-x="527" d="M68 503 L135 503 L144 427 L146 427 Q156 438 171.5 453 Q187 468 208.5 481.5 Q230 495 257 504 Q284 513 317 513 Q382 513 420.5 470 Q459 427 459 339 L459 0 L375 0 L375 336 Q375 394 354 422 Q333 450 295 450 Q273 450 251.5 441.5 Q230 433 211 421 Q192 409 176.5 394.5 Q161 380 152 368 L152 0 L68 0 L68 503 Z " />
<glyph glyph-name="o" unicode="o" horiz-adv-x="522" d="M261 -10 Q210 -10 169.5 8.5 Q129 27 100 61.5 Q71 96 55.5 144 Q40 192 40 252 Q40 311 55.5 359.5 Q71 408 100 442 Q129 476 169.5 494.5 Q210 513 261 513 Q312 513 352.5 494.5 Q393 476 422 442 Q451 408 466.5 359.5 Q482 311 482 252 Q482 192 466.5 144 Q451 96 422 61.5 Q393 27 352.5 8.5 Q312 -10 261 -10 Z M261 41 Q297 41 321.5 57.5 Q346 74 361 103 Q376 132 382.5 170 Q389 208 389 252 Q389 295 382.5 333.5 Q376 372 361 400.5 Q346 429 321.5 446 Q297 463 261 463 Q225 463 200.5 446 Q176 429 161 400 Q146 371 139.5 333 Q133 295 133 252 Q133 208 139.5 170 Q146 132 161 103 Q176 74 200.5 57.5 Q225 41 261 41 Z " />
<glyph glyph-name="p" unicode="p" horiz-adv-x="529" d="M68 503 L135 503 L143 439 L145 439 Q156 451 170.5 464 Q185 477 204 488 Q223 499 246 506 Q269 513 296 513 Q341 513 377 494 Q413 475 438 440.5 Q463 406 476 358.5 Q489 311 489 255 Q489 198 475 149.5 Q461 101 435 65.5 Q409 30 372 10 Q335 -10 289 -10 Q248 -10 213 5 Q178 20 152 43 L152 -183 L68 -183 L68 503 Z M152 108 Q169 84 201 65.5 Q233 47 273 47 Q336 47 365.5 99 Q395 151 395 250 Q395 350 365.5 401.5 Q336 453 276 453 Q237 453 204.5 431.5 Q172 410 152 381 L152 108 Z " />
<glyph glyph-name="q" unicode="q" horiz-adv-x="528" d="M377 59 Q365 47 350.5 35 Q336 23 318 13 Q300 3 278.5 -3.5 Q257 -10 230 -10 Q185 -10 150 9.5 Q115 29 90.5 63.5 Q66 98 53 144.5 Q40 191 40 246 Q40 303 54.5 352 Q69 401 95.5 436.5 Q122 472 159.5 492.5 Q197 513 243 513 Q290 513 325 494 Q360 475 385 446 L387 446 L393 503 L461 503 L461 -183 L377 -183 L377 59 Z M377 392 Q357 417 327 436.5 Q297 456 258 456 Q193 456 163 401.5 Q133 347 133 250 Q133 50 254 50 Q293 50 325 72 Q357 94 377 121 L377 392 Z " />
<glyph glyph-name="r" unicode="r" horiz-adv-x="324" d="M68 503 L135 503 L141 414 L143 414 Q157 434 173 452 Q189 470 208.5 483.5 Q228 497 250.5 505 Q273 513 300 513 L300 417 Q297 418 287.5 418.5 Q278 419 268 419 Q237 419 206 405 Q175 391 152 365 L152 0 L68 0 L68 503 Z " />
<glyph glyph-name="s" unicode="s" horiz-adv-x="410" d="M89 129 Q95 116 103.5 101 Q112 86 125.5 72.5 Q139 59 157 50 Q175 41 201 41 Q240 41 265 62 Q290 83 290 121 Q290 146 277 164 Q264 182 244 195.5 Q224 209 198.5 220.5 Q173 232 148 245 Q128 255 109.5 267 Q91 279 77 294 Q63 309 54.5 328.5 Q46 348 46 374 Q46 434 89.5 473.5 Q133 513 214 513 Q251 513 278 505 Q305 497 324 484.5 Q343 472 355 456 Q367 440 375 424 L304 397 Q300 405 293 416.5 Q286 428 274.5 438.5 Q263 449 246.5 456 Q230 463 208 463 Q175 463 151.5 444 Q128 425 128 389 Q128 367 140 351 Q152 335 171 322.5 Q190 310 214 299 Q238 288 262 276 Q283 265 303 252.5 Q323 240 338.5 223.5 Q354 207 363.5 186.5 Q373 166 373 139 Q373 103 360 75 Q347 47 324 28 Q301 9 269 -0.5 Q237 -10 198 -10 Q159 -10 129.5 -1 Q100 8 78.5 23 Q57 38 43.5 56.5 Q30 75 23 95 L89 129 Z " />
<glyph glyph-name="t" unicode="t" horiz-adv-x="315" d="M95 449 L18 449 L18 503 L100 503 L100 629 L179 629 L179 503 L289 503 L289 449 L179 449 L179 128 Q179 85 191 66 Q203 47 242 47 Q258 47 271 51 Q284 55 292 60 L292 1 Q281 -3 263.5 -6.5 Q246 -10 222 -10 Q184 -10 159 -1.5 Q134 7 120 24 Q106 41 100.5 67.5 Q95 94 95 129 L95 449 Z " />
<glyph glyph-name="u" unicode="u" horiz-adv-x="518" d="M68 503 L152 503 L152 171 Q152 106 174 81.5 Q196 57 237 57 Q269 57 305 73.5 Q341 90 366 119 L366 503 L450 503 L450 0 L389 0 L375 65 Q361 52 343 38.5 Q325 25 304 14.5 Q283 4 258.5 -3 Q234 -10 206 -10 Q137 -10 102.5 33.5 Q68 77 68 159 L68 503 Z " />
<glyph glyph-name="v" unicode="v" horiz-adv-x="460" d="M23 503 L110 503 L206 182 Q217 144 223.5 115.5 Q230 87 233 69 L235 69 Q240 86 247.5 116 Q255 146 265 180 L362 503 L437 503 L277 0 L177 0 L23 503 Z " />
<glyph glyph-name="w" unicode="w" horiz-adv-x="670" d="M29 503 L117 503 L184 228 Q193 192 199 160 Q205 128 210 102 L212 102 Q217 127 223.5 159.5 Q230 192 238 227 L304 503 L391 503 L454 228 Q462 192 467 160.5 Q472 129 477 103 L479 103 Q484 129 490.5 161 Q497 193 505 230 L568 503 L641 503 L513 0 L434 0 L372 260 Q358 317 352 353.5 Q346 390 344 409 L341 409 Q338 391 331 354.5 Q324 318 310 261 L246 0 L164 0 L29 503 Z " />
<glyph glyph-name="x" unicode="x" horiz-adv-x="439" d="M173 256 L27 503 L118 503 L225 318 L336 503 L414 503 L264 265 L424 0 L333 0 L214 202 L92 0 L15 0 L173 256 Z " />
<glyph glyph-name="y" unicode="y" horiz-adv-x="439" d="M25 -116 Q30 -118 46 -119.5 Q62 -121 76 -121 Q97 -121 112 -116 Q127 -111 139.5 -95.5 Q152 -80 164.5 -50.5 Q177 -21 192 27 L24 503 L112 503 L191 269 Q218 188 232 131 L234 131 Q241 159 248.5 189.5 Q256 220 271 268 L345 503 L421 503 L233 -51 Q221 -87 208 -112 Q195 -137 177.5 -153.5 Q160 -170 137 -177.5 Q114 -185 82 -185 Q62 -185 47 -184 Q32 -183 25 -181 L25 -116 Z " />
<glyph glyph-name="z" unicode="z" horiz-adv-x="426" d="M22 41 L299 449 L42 449 L42 503 L399 503 L399 462 L122 54 L403 54 L403 0 L22 0 L22 41 Z " />
<glyph glyph-name="agrave" unicode="&#xe0;" horiz-adv-x="480" d="M335 56 Q300 25 264.5 7.5 Q229 -10 181 -10 Q118 -10 79 25 Q40 60 40 124 Q40 164 57.5 193.5 Q75 223 111 245 Q147 267 201 282.5 Q255 298 328 310 L328 359 Q328 408 306.5 434.5 Q285 461 235 461 Q191 461 162 438.5 Q133 416 114 383 L45 415 Q52 431 67.5 448 Q83 465 107 479.5 Q131 494 163.5 503.5 Q196 513 238 513 Q288 513 321.5 501 Q355 489 375.5 468 Q396 447 404.5 417.5 Q413 388 413 353 L413 107 Q413 72 415 44.5 Q417 17 422 0 L347 0 L335 56 Z M328 262 Q283 253 246 242.5 Q209 232 182.5 217 Q156 202 141 181.5 Q126 161 126 131 Q126 94 149.5 72.5 Q173 51 209 51 Q246 51 276 68.5 Q306 86 328 108 L328 262 Z M211 723 L310 586 L246 586 L106 723 L211 723 Z " />
<glyph glyph-name="aacute" unicode="&#xe1;" horiz-adv-x="480" d="M335 56 Q300 25 264.5 7.5 Q229 -10 181 -10 Q118 -10 79 25 Q40 60 40 124 Q40 164 57.5 193.5 Q75 223 111 245 Q147 267 201 282.5 Q255 298 328 310 L328 359 Q328 408 306.5 434.5 Q285 461 235 461 Q191 461 162 438.5 Q133 416 114 383 L45 415 Q52 431 67.5 448 Q83 465 107 479.5 Q131 494 163.5 503.5 Q196 513 238 513 Q288 513 321.5 501 Q355 489 375.5 468 Q396 447 404.5 417.5 Q413 388 413 353 L413 107 Q413 72 415 44.5 Q417 17 422 0 L347 0 L335 56 Z M328 262 Q283 253 246 242.5 Q209 232 182.5 217 Q156 202 141 181.5 Q126 161 126 131 Q126 94 149.5 72.5 Q173 51 209 51 Q246 51 276 68.5 Q306 86 328 108 L328 262 Z M266 723 L371 723 L230 586 L167 586 L266 723 Z " />
<glyph glyph-name="acircumflex" unicode="&#xe2;" horiz-adv-x="480" d="M335 56 Q300 25 264.5 7.5 Q229 -10 181 -10 Q118 -10 79 25 Q40 60 40 124 Q40 164 57.5 193.5 Q75 223 111 245 Q147 267 201 282.5 Q255 298 328 310 L328 359 Q328 408 306.5 434.5 Q285 461 235 461 Q191 461 162 438.5 Q133 416 114 383 L45 415 Q52 431 67.5 448 Q83 465 107 479.5 Q131 494 163.5 503.5 Q196 513 238 513 Q288 513 321.5 501 Q355 489 375.5 468 Q396 447 404.5 417.5 Q413 388 413 353 L413 107 Q413 72 415 44.5 Q417 17 422 0 L347 0 L335 56 Z M328 262 Q283 253 246 242.5 Q209 232 182.5 217 Q156 202 141 181.5 Q126 161 126 131 Q126 94 149.5 72.5 Q173 51 209 51 Q246 51 276 68.5 Q306 86 328 108 L328 262 Z M187 723 L292 723 L372 586 L318 586 L241 675 L239 675 L162 586 L108 586 L187 723 Z " />
<glyph glyph-name="atilde" unicode="&#xe3;" horiz-adv-x="480" d="M335 56 Q300 25 264.5 7.5 Q229 -10 181 -10 Q118 -10 79 25 Q40 60 40 124 Q40 164 57.5 193.5 Q75 223 111 245 Q147 267 201 282.5 Q255 298 328 310 L328 359 Q328 408 306.5 434.5 Q285 461 235 461 Q191 461 162 438.5 Q133 416 114 383 L45 415 Q52 431 67.5 448 Q83 465 107 479.5 Q131 494 163.5 503.5 Q196 513 238 513 Q288 513 321.5 501 Q355 489 375.5 468 Q396 447 404.5 417.5 Q413 388 413 353 L413 107 Q413 72 415 44.5 Q417 17 422 0 L347 0 L335 56 Z M328 262 Q283 253 246 242.5 Q209 232 182.5 217 Q156 202 141 181.5 Q126 161 126 131 Q126 94 149.5 72.5 Q173 51 209 51 Q246 51 276 68.5 Q306 86 328 108 L328 262 Z M91 608 Q92 625 97 642 Q102 659 112 672 Q122 685 137 693 Q152 701 174 701 Q192 701 209 696 Q226 691 242 684.5 Q258 678 273 673 Q288 668 303 668 Q317 668 323.5 675 Q330 682 333 699 L388 699 Q383 660 365 631.5 Q347 603 312 603 Q295 603 277.5 608.5 Q260 614 242.5 621 Q225 628 209 633.5 Q193 639 179 639 Q163 639 155.5 632 Q148 625 144 608 L91 608 Z " />
<glyph glyph-name="adieresis" unicode="&#xe4;" horiz-adv-x="480" d="M335 56 Q300 25 264.5 7.5 Q229 -10 181 -10 Q118 -10 79 25 Q40 60 40 124 Q40 164 57.5 193.5 Q75 223 111 245 Q147 267 201 282.5 Q255 298 328 310 L328 359 Q328 408 306.5 434.5 Q285 461 235 461 Q191 461 162 438.5 Q133 416 114 383 L45 415 Q52 431 67.5 448 Q83 465 107 479.5 Q131 494 163.5 503.5 Q196 513 238 513 Q288 513 321.5 501 Q355 489 375.5 468 Q396 447 404.5 417.5 Q413 388 413 353 L413 107 Q413 72 415 44.5 Q417 17 422 0 L347 0 L335 56 Z M328 262 Q283 253 246 242.5 Q209 232 182.5 217 Q156 202 141 181.5 Q126 161 126 131 Q126 94 149.5 72.5 Q173 51 209 51 Q246 51 276 68.5 Q306 86 328 108 L328 262 Z M113 696 L200 696 L200 608 L113 608 L113 696 Z M284 696 L371 696 L371 608 L284 608 L284 696 Z " />
<glyph glyph-name="amacron" unicode="&#x101;" horiz-adv-x="480" d="M335 56 Q300 25 264.5 7.5 Q229 -10 181 -10 Q118 -10 79 25 Q40 60 40 124 Q40 164 57.5 193.5 Q75 223 111 245 Q147 267 201 282.5 Q255 298 328 310 L328 359 Q328 408 306.5 434.5 Q285 461 235 461 Q191 461 162 438.5 Q133 416 114 383 L45 415 Q52 431 67.5 448 Q83 465 107 479.5 Q131 494 163.5 503.5 Q196 513 238 513 Q288 513 321.5 501 Q355 489 375.5 468 Q396 447 404.5 417.5 Q413 388 413 353 L413 107 Q413 72 415 44.5 Q417 17 422 0 L347 0 L335 56 Z M328 262 Q283 253 246 242.5 Q209 232 182.5 217 Q156 202 141 181.5 Q126 161 126 131 Q126 94 149.5 72.5 Q173 51 209 51 Q246 51 276 68.5 Q306 86 328 108 L328 262 Z M104 678 L381 678 L381 620 L104 620 L104 678 Z " />
<glyph glyph-name="abreve" unicode="&#x103;" horiz-adv-x="480" d="M335 56 Q300 25 264.5 7.5 Q229 -10 181 -10 Q118 -10 79 25 Q40 60 40 124 Q40 164 57.5 193.5 Q75 223 111 245 Q147 267 201 282.5 Q255 298 328 310 L328 359 Q328 408 306.5 434.5 Q285 461 235 461 Q191 461 162 438.5 Q133 416 114 383 L45 415 Q52 431 67.5 448 Q83 465 107 479.5 Q131 494 163.5 503.5 Q196 513 238 513 Q288 513 321.5 501 Q355 489 375.5 468 Q396 447 404.5 417.5 Q413 388 413 353 L413 107 Q413 72 415 44.5 Q417 17 422 0 L347 0 L335 56 Z M328 262 Q283 253 246 242.5 Q209 232 182.5 217 Q156 202 141 181.5 Q126 161 126 131 Q126 94 149.5 72.5 Q173 51 209 51 Q246 51 276 68.5 Q306 86 328 108 L328 262 Z M162 709 Q167 686 186 667.5 Q205 649 241 649 Q276 649 295.5 667.5 Q315 686 320 709 L366 709 Q364 686 356 664 Q348 642 333 625 Q318 608 295 598 Q272 588 241 588 Q209 588 186 598 Q163 608 148 624.5 Q133 641 125 663 Q117 685 115 709 L162 709 Z " />
<glyph glyph-name="aring" unicode="&#xe5;" horiz-adv-x="480" d="M335 56 Q300 25 264.5 7.5 Q229 -10 181 -10 Q118 -10 79 25 Q40 60 40 124 Q40 164 57.5 193.5 Q75 223 111 245 Q147 267 201 282.5 Q255 298 328 310 L328 359 Q328 408 306.5 434.5 Q285 461 235 461 Q191 461 162 438.5 Q133 416 114 383 L45 415 Q52 431 67.5 448 Q83 465 107 479.5 Q131 494 163.5 503.5 Q196 513 238 513 Q288 513 321.5 501 Q355 489 375.5 468 Q396 447 404.5 417.5 Q413 388 413 353 L413 107 Q413 72 415 44.5 Q417 17 422 0 L347 0 L335 56 Z M328 262 Q283 253 246 242.5 Q209 232 182.5 217 Q156 202 141 181.5 Q126 161 126 131 Q126 94 149.5 72.5 Q173 51 209 51 Q246 51 276 68.5 Q306 86 328 108 L328 262 Z M133 671 Q133 694 141.5 713 Q150 732 165 745.5 Q180 759 199.5 766.5 Q219 774 241 774 Q263 774 282.5 766.5 Q302 759 317 745.5 Q332 732 340.5 713 Q349 694 349 671 Q349 648 340.5 629.5 Q332 611 317 597.5 Q302 584 282.5 576.5 Q263 569 241 569 Q219 569 199.5 576.5 Q180 584 165 597.5 Q150 611 141.5 629.5 Q133 648 133 671 Z M241 609 Q270 609 286 627 Q302 645 302 671 Q302 697 286 715.5 Q270 734 241 734 Q212 734 196.5 715.5 Q181 697 181 671 Q181 645 196.5 627 Q212 609 241 609 Z " />
<glyph glyph-name="aogonek" unicode="&#x105;" horiz-adv-x="480" d="M424 -152 Q408 -170 384.5 -184 Q361 -198 326 -198 Q284 -198 262 -179 Q240 -160 240 -126 Q240 -94 265.5 -61.5 Q291 -29 346 2 L335 56 Q300 25 264.5 7.5 Q229 -10 181 -10 Q118 -10 79 25 Q40 60 40 124 Q40 164 57.5 193.5 Q75 223 111 245 Q147 267 201 282.5 Q255 298 328 310 L328 359 Q328 408 306.5 434.5 Q285 461 235 461 Q191 461 162 438.5 Q133 416 114 383 L45 415 Q52 431 67.5 448 Q83 465 107 479.5 Q131 494 163.5 503.5 Q196 513 238 513 Q288 513 321.5 501 Q355 489 375.5 468 Q396 447 404.5 417.5 Q413 388 413 353 L413 107 Q413 72 415 44.5 Q417 17 422 0 Q309 -43 309 -113 Q309 -129 319 -138.5 Q329 -148 348 -148 Q364 -148 379 -142 Q394 -136 405 -128 L424 -152 Z M328 262 Q283 253 246 242.5 Q209 232 182.5 217 Q156 202 141 181.5 Q126 161 126 131 Q126 94 149.5 72.5 Q173 51 209 51 Q246 51 276 68.5 Q306 86 328 108 L328 262 Z " />
<glyph glyph-name="ae" unicode="&#xe6;" horiz-adv-x="759" d="M45 415 Q53 431 68.5 448.5 Q84 466 107.5 480.5 Q131 495 163 504 Q195 513 236 513 Q352 513 390 449 Q444 513 537 513 Q586 513 622.5 495 Q659 477 684 445 Q709 413 721.5 370 Q734 327 734 278 L734 250 L421 250 Q422 212 428 175 Q434 138 449 108.5 Q464 79 489.5 61 Q515 43 556 43 Q597 43 620.5 65.5 Q644 88 659 121 L729 90 Q719 71 704 53 Q689 35 668 21 Q647 7 618.5 -1.5 Q590 -10 554 -10 Q491 -10 446.5 13.5 Q402 37 376 75 Q355 56 334.5 40.5 Q314 25 291 13.5 Q268 2 241.5 -4 Q215 -10 181 -10 Q118 -10 79 25 Q40 60 40 122 Q40 164 58 194 Q76 224 112 245.5 Q148 267 202 282.5 Q256 298 328 310 L328 358 Q328 404 308.5 432.5 Q289 461 235 461 Q193 461 162.5 438.5 Q132 416 114 383 L45 415 Z M351 120 Q339 153 333.5 186.5 Q328 220 328 262 Q289 254 252.5 244.5 Q216 235 188 220 Q160 205 143 183.5 Q126 162 126 131 Q126 93 150 72 Q174 51 209 51 Q233 51 254.5 57.5 Q276 64 293.5 74 Q311 84 325.5 96 Q340 108 351 120 Z M647 302 Q647 329 641 358 Q635 387 621.5 410 Q608 433 586.5 448 Q565 463 533 463 Q504 463 483.5 451 Q463 439 449.5 418 Q436 397 429 367.5 Q422 338 421 302 L647 302 Z " />
<glyph glyph-name="aeacute" unicode="&#x1fd;" horiz-adv-x="759" d="M45 415 Q53 431 68.5 448.5 Q84 466 107.5 480.5 Q131 495 163 504 Q195 513 236 513 Q352 513 390 449 Q444 513 537 513 Q586 513 622.5 495 Q659 477 684 445 Q709 413 721.5 370 Q734 327 734 278 L734 250 L421 250 Q422 212 428 175 Q434 138 449 108.5 Q464 79 489.5 61 Q515 43 556 43 Q597 43 620.5 65.5 Q644 88 659 121 L729 90 Q719 71 704 53 Q689 35 668 21 Q647 7 618.5 -1.5 Q590 -10 554 -10 Q491 -10 446.5 13.5 Q402 37 376 75 Q355 56 334.5 40.5 Q314 25 291 13.5 Q268 2 241.5 -4 Q215 -10 181 -10 Q118 -10 79 25 Q40 60 40 122 Q40 164 58 194 Q76 224 112 245.5 Q148 267 202 282.5 Q256 298 328 310 L328 358 Q328 404 308.5 432.5 Q289 461 235 461 Q193 461 162.5 438.5 Q132 416 114 383 L45 415 Z M351 120 Q339 153 333.5 186.5 Q328 220 328 262 Q289 254 252.5 244.5 Q216 235 188 220 Q160 205 143 183.5 Q126 162 126 131 Q126 93 150 72 Q174 51 209 51 Q233 51 254.5 57.5 Q276 64 293.5 74 Q311 84 325.5 96 Q340 108 351 120 Z M647 302 Q647 329 641 358 Q635 387 621.5 410 Q608 433 586.5 448 Q565 463 533 463 Q504 463 483.5 451 Q463 439 449.5 418 Q436 397 429 367.5 Q422 338 421 302 L647 302 Z M466 723 L571 723 L430 586 L367 586 L466 723 Z " />
<glyph glyph-name="cacute" unicode="&#x107;" horiz-adv-x="443" d="M426 90 Q417 72 403.5 54 Q390 36 369.5 22 Q349 8 321.5 -1 Q294 -10 258 -10 Q199 -10 157.5 12 Q116 34 90 70.5 Q64 107 52 154.5 Q40 202 40 253 Q40 305 52 352 Q64 399 90 435 Q116 471 156.5 492 Q197 513 254 513 Q290 513 317 505.5 Q344 498 364.5 484.5 Q385 471 399.5 452.5 Q414 434 424 412 L347 383 Q341 397 333 411 Q325 425 314 436.5 Q303 448 288 455 Q273 462 253 462 Q222 462 199.5 447.5 Q177 433 162 406.5 Q147 380 140 343 Q133 306 133 261 Q133 220 139 181 Q145 142 159.5 111.5 Q174 81 197 62.5 Q220 44 255 44 Q298 44 319.5 67 Q341 90 353 122 L426 90 Z M292 723 L397 723 L256 586 L193 586 L292 723 Z " />
<glyph glyph-name="ccircumflex" unicode="&#x109;" horiz-adv-x="443" d="M426 90 Q417 72 403.5 54 Q390 36 369.5 22 Q349 8 321.5 -1 Q294 -10 258 -10 Q199 -10 157.5 12 Q116 34 90 70.5 Q64 107 52 154.5 Q40 202 40 253 Q40 305 52 352 Q64 399 90 435 Q116 471 156.5 492 Q197 513 254 513 Q290 513 317 505.5 Q344 498 364.5 484.5 Q385 471 399.5 452.5 Q414 434 424 412 L347 383 Q341 397 333 411 Q325 425 314 436.5 Q303 448 288 455 Q273 462 253 462 Q222 462 199.5 447.5 Q177 433 162 406.5 Q147 380 140 343 Q133 306 133 261 Q133 220 139 181 Q145 142 159.5 111.5 Q174 81 197 62.5 Q220 44 255 44 Q298 44 319.5 67 Q341 90 353 122 L426 90 Z M205 723 L310 723 L390 586 L336 586 L259 675 L257 675 L180 586 L126 586 L205 723 Z " />
<glyph glyph-name="ccaron" unicode="&#x10d;" horiz-adv-x="443" d="M426 90 Q417 72 403.5 54 Q390 36 369.5 22 Q349 8 321.5 -1 Q294 -10 258 -10 Q199 -10 157.5 12 Q116 34 90 70.5 Q64 107 52 154.5 Q40 202 40 253 Q40 305 52 352 Q64 399 90 435 Q116 471 156.5 492 Q197 513 254 513 Q290 513 317 505.5 Q344 498 364.5 484.5 Q385 471 399.5 452.5 Q414 434 424 412 L347 383 Q341 397 333 411 Q325 425 314 436.5 Q303 448 288 455 Q273 462 253 462 Q222 462 199.5 447.5 Q177 433 162 406.5 Q147 380 140 343 Q133 306 133 261 Q133 220 139 181 Q145 142 159.5 111.5 Q174 81 197 62.5 Q220 44 255 44 Q298 44 319.5 67 Q341 90 353 122 L426 90 Z M127 723 L181 723 L258 634 L260 634 L337 723 L391 723 L311 586 L206 586 L127 723 Z " />
<glyph glyph-name="cdotaccent" unicode="&#x10b;" horiz-adv-x="443" d="M426 90 Q417 72 403.5 54 Q390 36 369.5 22 Q349 8 321.5 -1 Q294 -10 258 -10 Q199 -10 157.5 12 Q116 34 90 70.5 Q64 107 52 154.5 Q40 202 40 253 Q40 305 52 352 Q64 399 90 435 Q116 471 156.5 492 Q197 513 254 513 Q290 513 317 505.5 Q344 498 364.5 484.5 Q385 471 399.5 452.5 Q414 434 424 412 L347 383 Q341 397 333 411 Q325 425 314 436.5 Q303 448 288 455 Q273 462 253 462 Q222 462 199.5 447.5 Q177 433 162 406.5 Q147 380 140 343 Q133 306 133 261 Q133 220 139 181 Q145 142 159.5 111.5 Q174 81 197 62.5 Q220 44 255 44 Q298 44 319.5 67 Q341 90 353 122 L426 90 Z M210 700 L294 700 L294 613 L210 613 L210 700 Z " />
<glyph glyph-name="ccedilla" unicode="&#xe7;" horiz-adv-x="443" d="M174 -140 Q182 -147 199 -151.5 Q216 -156 234 -156 Q256 -156 264 -146.5 Q272 -137 272 -124 Q272 -111 263.5 -102.5 Q255 -94 243 -89 Q231 -84 217.5 -82 Q204 -80 194 -80 L219 -7 Q171 0 137 24 Q103 48 81.5 83 Q60 118 50 162 Q40 206 40 253 Q40 305 52 352 Q64 399 90 435 Q116 471 156.5 492 Q197 513 254 513 Q290 513 317 505.5 Q344 498 364.5 484.5 Q385 471 399.5 452.5 Q414 434 424 412 L347 383 Q341 397 333 411 Q325 425 314 436.5 Q303 448 288 455 Q273 462 253 462 Q222 462 199.5 447.5 Q177 433 162 406.5 Q147 380 140 343 Q133 306 133 261 Q133 220 139 181 Q145 142 159.5 111.5 Q174 81 197 62.5 Q220 44 255 44 Q298 44 319.5 67 Q341 90 353 122 L426 90 Q417 72 403.5 54 Q390 36 369.5 22 Q349 8 321.5 -1 Q294 -10 258 -10 L245 -43 Q295 -51 318 -72 Q341 -93 341 -125 Q341 -154 319.5 -175.5 Q298 -197 252 -197 Q223 -197 199 -190 Q175 -183 161 -171 L174 -140 Z " />
<glyph glyph-name="dcaron" unicode="&#x10f;" horiz-adv-x="624" d="M386 65 L384 65 Q373 53 358.5 40 Q344 27 325 16 Q306 5 282 -2.5 Q258 -10 230 -10 Q185 -10 150 9.5 Q115 29 90.5 63 Q66 97 53 144 Q40 191 40 247 Q40 304 54 352.5 Q68 401 94.5 437 Q121 473 158.5 493 Q196 513 243 513 Q286 513 319 498 Q352 483 377 460 L377 750 L461 750 L461 0 L400 0 L386 65 Z M377 397 Q359 420 327 438 Q295 456 257 456 Q194 456 163.5 403 Q133 350 133 250 Q133 152 162.5 101 Q192 50 254 50 Q292 50 324 71.5 Q356 93 377 121 L377 397 Z M569 651 L534 651 L534 750 L614 750 L614 656 L566 548 L526 548 L569 651 Z " />
<glyph glyph-name="dcroat" unicode="&#x111;" horiz-adv-x="528" d="M386 65 L384 65 Q373 53 358.5 40 Q344 27 325 16 Q306 5 282 -2.5 Q258 -10 230 -10 Q185 -10 150 9.5 Q115 29 90.5 63 Q66 97 53 144 Q40 191 40 247 Q40 304 54 352.5 Q68 401 94.5 437 Q121 473 158.5 493 Q196 513 243 513 Q286 513 319 498 Q352 483 377 460 L377 598 L236 598 L236 648 L377 648 L377 750 L461 750 L461 648 L515 648 L515 598 L461 598 L461 0 L400 0 L386 65 Z M377 397 Q359 420 327 438 Q295 456 257 456 Q194 456 163.5 403 Q133 350 133 250 Q133 152 162.5 101 Q192 50 254 50 Q292 50 324 71.5 Q356 93 377 121 L377 397 Z " />
<glyph glyph-name="egrave" unicode="&#xe8;" horiz-adv-x="482" d="M441 90 Q432 72 417 54.5 Q402 37 381 22.5 Q360 8 331 -1 Q302 -10 265 -10 Q204 -10 161.5 11.5 Q119 33 92 69 Q65 105 52.5 152.5 Q40 200 40 253 Q40 308 53 355.5 Q66 403 92.5 438 Q119 473 158 493 Q197 513 248 513 Q297 513 334 495 Q371 477 396 445 Q421 413 433.5 370 Q446 327 446 278 L446 250 L133 250 Q134 212 140 175 Q146 138 161 108.5 Q176 79 201.5 61 Q227 43 267 43 Q308 43 332 65.5 Q356 88 371 121 L441 90 Z M359 302 Q359 329 353 358 Q347 387 333.5 410 Q320 433 298.5 448 Q277 463 244 463 Q215 463 195 451 Q175 439 161.5 418 Q148 397 141 367.5 Q134 338 133 302 L359 302 Z M227 723 L326 586 L262 586 L122 723 L227 723 Z " />
<glyph glyph-name="eacute" unicode="&#xe9;" horiz-adv-x="482" d="M441 90 Q432 72 417 54.5 Q402 37 381 22.5 Q360 8 331 -1 Q302 -10 265 -10 Q204 -10 161.5 11.5 Q119 33 92 69 Q65 105 52.5 152.5 Q40 200 40 253 Q40 308 53 355.5 Q66 403 92.5 438 Q119 473 158 493 Q197 513 248 513 Q297 513 334 495 Q371 477 396 445 Q421 413 433.5 370 Q446 327 446 278 L446 250 L133 250 Q134 212 140 175 Q146 138 161 108.5 Q176 79 201.5 61 Q227 43 267 43 Q308 43 332 65.5 Q356 88 371 121 L441 90 Z M359 302 Q359 329 353 358 Q347 387 333.5 410 Q320 433 298.5 448 Q277 463 244 463 Q215 463 195 451 Q175 439 161.5 418 Q148 397 141 367.5 Q134 338 133 302 L359 302 Z M285 723 L390 723 L249 586 L186 586 L285 723 Z " />
<glyph glyph-name="ecircumflex" unicode="&#xea;" horiz-adv-x="482" d="M441 90 Q432 72 417 54.5 Q402 37 381 22.5 Q360 8 331 -1 Q302 -10 265 -10 Q204 -10 161.5 11.5 Q119 33 92 69 Q65 105 52.5 152.5 Q40 200 40 253 Q40 308 53 355.5 Q66 403 92.5 438 Q119 473 158 493 Q197 513 248 513 Q297 513 334 495 Q371 477 396 445 Q421 413 433.5 370 Q446 327 446 278 L446 250 L133 250 Q134 212 140 175 Q146 138 161 108.5 Q176 79 201.5 61 Q227 43 267 43 Q308 43 332 65.5 Q356 88 371 121 L441 90 Z M359 302 Q359 329 353 358 Q347 387 333.5 410 Q320 433 298.5 448 Q277 463 244 463 Q215 463 195 451 Q175 439 161.5 418 Q148 397 141 367.5 Q134 338 133 302 L359 302 Z M194 723 L299 723 L379 586 L325 586 L248 675 L246 675 L169 586 L115 586 L194 723 Z " />
<glyph glyph-name="ecaron" unicode="&#x11b;" horiz-adv-x="482" d="M441 90 Q432 72 417 54.5 Q402 37 381 22.5 Q360 8 331 -1 Q302 -10 265 -10 Q204 -10 161.5 11.5 Q119 33 92 69 Q65 105 52.5 152.5 Q40 200 40 253 Q40 308 53 355.5 Q66 403 92.5 438 Q119 473 158 493 Q197 513 248 513 Q297 513 334 495 Q371 477 396 445 Q421 413 433.5 370 Q446 327 446 278 L446 250 L133 250 Q134 212 140 175 Q146 138 161 108.5 Q176 79 201.5 61 Q227 43 267 43 Q308 43 332 65.5 Q356 88 371 121 L441 90 Z M359 302 Q359 329 353 358 Q347 387 333.5 410 Q320 433 298.5 448 Q277 463 244 463 Q215 463 195 451 Q175 439 161.5 418 Q148 397 141 367.5 Q134 338 133 302 L359 302 Z M118 723 L172 723 L249 634 L251 634 L328 723 L382 723 L302 586 L197 586 L118 723 Z " />
<glyph glyph-name="edieresis" unicode="&#xeb;" horiz-adv-x="482" d="M441 90 Q432 72 417 54.5 Q402 37 381 22.5 Q360 8 331 -1 Q302 -10 265 -10 Q204 -10 161.5 11.5 Q119 33 92 69 Q65 105 52.5 152.5 Q40 200 40 253 Q40 308 53 355.5 Q66 403 92.5 438 Q119 473 158 493 Q197 513 248 513 Q297 513 334 495 Q371 477 396 445 Q421 413 433.5 370 Q446 327 446 278 L446 250 L133 250 Q134 212 140 175 Q146 138 161 108.5 Q176 79 201.5 61 Q227 43 267 43 Q308 43 332 65.5 Q356 88 371 121 L441 90 Z M359 302 Q359 329 353 358 Q347 387 333.5 410 Q320 433 298.5 448 Q277 463 244 463 Q215 463 195 451 Q175 439 161.5 418 Q148 397 141 367.5 Q134 338 133 302 L359 302 Z M120 696 L207 696 L207 608 L120 608 L120 696 Z M291 696 L378 696 L378 608 L291 608 L291 696 Z " />
<glyph glyph-name="emacron" unicode="&#x113;" horiz-adv-x="482" d="M441 90 Q432 72 417 54.5 Q402 37 381 22.5 Q360 8 331 -1 Q302 -10 265 -10 Q204 -10 161.5 11.5 Q119 33 92 69 Q65 105 52.5 152.5 Q40 200 40 253 Q40 308 53 355.5 Q66 403 92.5 438 Q119 473 158 493 Q197 513 248 513 Q297 513 334 495 Q371 477 396 445 Q421 413 433.5 370 Q446 327 446 278 L446 250 L133 250 Q134 212 140 175 Q146 138 161 108.5 Q176 79 201.5 61 Q227 43 267 43 Q308 43 332 65.5 Q356 88 371 121 L441 90 Z M359 302 Q359 329 353 358 Q347 387 333.5 410 Q320 433 298.5 448 Q277 463 244 463 Q215 463 195 451 Q175 439 161.5 418 Q148 397 141 367.5 Q134 338 133 302 L359 302 Z M110 678 L387 678 L387 620 L110 620 L110 678 Z " />
<glyph glyph-name="ebreve" unicode="&#x115;" horiz-adv-x="482" d="M441 90 Q432 72 417 54.5 Q402 37 381 22.5 Q360 8 331 -1 Q302 -10 265 -10 Q204 -10 161.5 11.5 Q119 33 92 69 Q65 105 52.5 152.5 Q40 200 40 253 Q40 308 53 355.5 Q66 403 92.5 438 Q119 473 158 493 Q197 513 248 513 Q297 513 334 495 Q371 477 396 445 Q421 413 433.5 370 Q446 327 446 278 L446 250 L133 250 Q134 212 140 175 Q146 138 161 108.5 Q176 79 201.5 61 Q227 43 267 43 Q308 43 332 65.5 Q356 88 371 121 L441 90 Z M359 302 Q359 329 353 358 Q347 387 333.5 410 Q320 433 298.5 448 Q277 463 244 463 Q215 463 195 451 Q175 439 161.5 418 Q148 397 141 367.5 Q134 338 133 302 L359 302 Z M166 709 Q171 686 190 667.5 Q209 649 245 649 Q280 649 299.5 667.5 Q319 686 324 709 L370 709 Q368 686 360 664 Q352 642 337 625 Q322 608 299 598 Q276 588 245 588 Q213 588 190 598 Q167 608 152 624.5 Q137 641 129 663 Q121 685 119 709 L166 709 Z " />
<glyph glyph-name="edotaccent" unicode="&#x117;" horiz-adv-x="482" d="M441 90 Q432 72 417 54.5 Q402 37 381 22.5 Q360 8 331 -1 Q302 -10 265 -10 Q204 -10 161.5 11.5 Q119 33 92 69 Q65 105 52.5 152.5 Q40 200 40 253 Q40 308 53 355.5 Q66 403 92.5 438 Q119 473 158 493 Q197 513 248 513 Q297 513 334 495 Q371 477 396 445 Q421 413 433.5 370 Q446 327 446 278 L446 250 L133 250 Q134 212 140 175 Q146 138 161 108.5 Q176 79 201.5 61 Q227 43 267 43 Q308 43 332 65.5 Q356 88 371 121 L441 90 Z M359 302 Q359 329 353 358 Q347 387 333.5 410 Q320 433 298.5 448 Q277 463 244 463 Q215 463 195 451 Q175 439 161.5 418 Q148 397 141 367.5 Q134 338 133 302 L359 302 Z M200 700 L284 700 L284 613 L200 613 L200 700 Z " />
<glyph glyph-name="eogonek" unicode="&#x119;" horiz-adv-x="482" d="M406 -152 Q390 -170 366.5 -184 Q343 -198 308 -198 Q266 -198 244 -179 Q222 -160 222 -126 Q222 -98 239 -69 Q256 -40 295 -8 Q287 -9 280 -9.5 Q273 -10 265 -10 Q204 -10 161.5 11.5 Q119 33 92 69 Q65 105 52.5 152.5 Q40 200 40 253 Q40 308 53 355.5 Q66 403 92.5 438 Q119 473 158 493 Q197 513 248 513 Q297 513 334 495 Q371 477 396 445 Q421 413 433.5 370 Q446 327 446 278 L446 250 L133 250 Q134 212 140 175 Q146 138 161 108.5 Q176 79 201.5 61 Q227 43 267 43 Q308 43 332 65.5 Q356 88 371 121 L441 90 Q432 73 419.5 57.5 Q407 42 389 28 Q338 -11 314.5 -44.5 Q291 -78 291 -113 Q291 -129 301 -138.5 Q311 -148 330 -148 Q346 -148 361 -142 Q376 -136 387 -128 L406 -152 Z M359 302 Q359 329 353 358 Q347 387 333.5 410 Q320 433 298.5 448 Q277 463 244 463 Q215 463 195 451 Q175 439 161.5 418 Q148 397 141 367.5 Q134 338 133 302 L359 302 Z " />
<glyph glyph-name="gcircumflex" unicode="&#x11d;" horiz-adv-x="509" d="M116 31 Q91 42 75.5 59 Q60 76 60 102 Q60 136 84 158 Q108 180 139 194 Q101 217 80 254.5 Q59 292 59 340 Q59 379 73.5 410.5 Q88 442 113.5 465 Q139 488 174 500.5 Q209 513 251 513 Q329 513 381 473 Q385 492 393.5 510 Q402 528 416.5 541.5 Q431 555 452 563 Q473 571 500 571 L500 489 Q494 491 478 491 Q446 491 429.5 476.5 Q413 462 408 443 Q425 422 434 395.5 Q443 369 443 339 Q443 300 428.5 267.5 Q414 235 388.5 212 Q363 189 328.5 176.5 Q294 164 253 164 Q213 164 182 174 Q161 165 145 152 Q129 139 129 122 Q129 110 139.5 102.5 Q150 95 171.5 90 Q193 85 225.5 81.5 Q258 78 302 72 Q333 68 367 62.5 Q401 57 430 44.5 Q459 32 478 10.5 Q497 -11 497 -48 Q497 -120 433.5 -157 Q370 -194 258 -194 Q144 -194 87 -159 Q30 -124 30 -69 Q30 -37 50.5 -12 Q71 13 116 30 L116 31 Z M251 212 Q303 212 329.5 247.5 Q356 283 356 340 Q356 395 329.5 430.5 Q303 466 251 466 Q198 466 172 430.5 Q146 395 146 340 Q146 284 172 248 Q198 212 251 212 Z M156 18 Q136 7 123 -10.5 Q110 -28 110 -54 Q110 -98 152 -122 Q194 -146 272 -146 Q337 -146 377.5 -126 Q418 -106 418 -68 Q418 -48 404 -35.5 Q390 -23 367.5 -15.5 Q345 -8 316.5 -4.5 Q288 -1 258 2 Q232 5 205.5 9 Q179 13 156 18 Z M200 723 L305 723 L385 586 L331 586 L254 675 L252 675 L175 586 L121 586 L200 723 Z " />
<glyph glyph-name="gbreve" unicode="&#x11f;" horiz-adv-x="509" d="M116 31 Q91 42 75.5 59 Q60 76 60 102 Q60 136 84 158 Q108 180 139 194 Q101 217 80 254.5 Q59 292 59 340 Q59 379 73.5 410.5 Q88 442 113.5 465 Q139 488 174 500.5 Q209 513 251 513 Q329 513 381 473 Q385 492 393.5 510 Q402 528 416.5 541.5 Q431 555 452 563 Q473 571 500 571 L500 489 Q494 491 478 491 Q446 491 429.5 476.5 Q413 462 408 443 Q425 422 434 395.5 Q443 369 443 339 Q443 300 428.5 267.5 Q414 235 388.5 212 Q363 189 328.5 176.5 Q294 164 253 164 Q213 164 182 174 Q161 165 145 152 Q129 139 129 122 Q129 110 139.5 102.5 Q150 95 171.5 90 Q193 85 225.5 81.5 Q258 78 302 72 Q333 68 367 62.5 Q401 57 430 44.5 Q459 32 478 10.5 Q497 -11 497 -48 Q497 -120 433.5 -157 Q370 -194 258 -194 Q144 -194 87 -159 Q30 -124 30 -69 Q30 -37 50.5 -12 Q71 13 116 30 L116 31 Z M251 212 Q303 212 329.5 247.5 Q356 283 356 340 Q356 395 329.5 430.5 Q303 466 251 466 Q198 466 172 430.5 Q146 395 146 340 Q146 284 172 248 Q198 212 251 212 Z M156 18 Q136 7 123 -10.5 Q110 -28 110 -54 Q110 -98 152 -122 Q194 -146 272 -146 Q337 -146 377.5 -126 Q418 -106 418 -68 Q418 -48 404 -35.5 Q390 -23 367.5 -15.5 Q345 -8 316.5 -4.5 Q288 -1 258 2 Q232 5 205.5 9 Q179 13 156 18 Z M170 709 Q175 686 194 667.5 Q213 649 249 649 Q284 649 303.5 667.5 Q323 686 328 709 L374 709 Q372 686 364 664 Q356 642 341 625 Q326 608 303 598 Q280 588 249 588 Q217 588 194 598 Q171 608 156 624.5 Q141 641 133 663 Q125 685 123 709 L170 709 Z " />
<glyph glyph-name="gdotaccent" unicode="&#x121;" horiz-adv-x="509" d="M116 31 Q91 42 75.5 59 Q60 76 60 102 Q60 136 84 158 Q108 180 139 194 Q101 217 80 254.5 Q59 292 59 340 Q59 379 73.5 410.5 Q88 442 113.5 465 Q139 488 174 500.5 Q209 513 251 513 Q329 513 381 473 Q385 492 393.5 510 Q402 528 416.5 541.5 Q431 555 452 563 Q473 571 500 571 L500 489 Q494 491 478 491 Q446 491 429.5 476.5 Q413 462 408 443 Q425 422 434 395.5 Q443 369 443 339 Q443 300 428.5 267.5 Q414 235 388.5 212 Q363 189 328.5 176.5 Q294 164 253 164 Q213 164 182 174 Q161 165 145 152 Q129 139 129 122 Q129 110 139.5 102.5 Q150 95 171.5 90 Q193 85 225.5 81.5 Q258 78 302 72 Q333 68 367 62.5 Q401 57 430 44.5 Q459 32 478 10.5 Q497 -11 497 -48 Q497 -120 433.5 -157 Q370 -194 258 -194 Q144 -194 87 -159 Q30 -124 30 -69 Q30 -37 50.5 -12 Q71 13 116 30 L116 31 Z M251 212 Q303 212 329.5 247.5 Q356 283 356 340 Q356 395 329.5 430.5 Q303 466 251 466 Q198 466 172 430.5 Q146 395 146 340 Q146 284 172 248 Q198 212 251 212 Z M156 18 Q136 7 123 -10.5 Q110 -28 110 -54 Q110 -98 152 -122 Q194 -146 272 -146 Q337 -146 377.5 -126 Q418 -106 418 -68 Q418 -48 404 -35.5 Q390 -23 367.5 -15.5 Q345 -8 316.5 -4.5 Q288 -1 258 2 Q232 5 205.5 9 Q179 13 156 18 Z M211 700 L295 700 L295 613 L211 613 L211 700 Z " />
<glyph glyph-name="gcommaaccent" unicode="&#x123;" horiz-adv-x="509" d="M116 31 Q91 42 75.5 59 Q60 76 60 102 Q60 136 84 158 Q108 180 139 194 Q101 217 80 254.5 Q59 292 59 340 Q59 379 73.5 410.5 Q88 442 113.5 465 Q139 488 174 500.5 Q209 513 251 513 Q329 513 381 473 Q385 492 393.5 510 Q402 528 416.5 541.5 Q431 555 452 563 Q473 571 500 571 L500 489 Q494 491 478 491 Q446 491 429.5 476.5 Q413 462 408 443 Q425 422 434 395.5 Q443 369 443 339 Q443 300 428.5 267.5 Q414 235 388.5 212 Q363 189 328.5 176.5 Q294 164 253 164 Q213 164 182 174 Q161 165 145 152 Q129 139 129 122 Q129 110 139.5 102.5 Q150 95 171.5 90 Q193 85 225.5 81.5 Q258 78 302 72 Q333 68 367 62.5 Q401 57 430 44.5 Q459 32 478 10.5 Q497 -11 497 -48 Q497 -120 433.5 -157 Q370 -194 258 -194 Q144 -194 87 -159 Q30 -124 30 -69 Q30 -37 50.5 -12 Q71 13 116 30 L116 31 Z M251 212 Q303 212 329.5 247.5 Q356 283 356 340 Q356 395 329.5 430.5 Q303 466 251 466 Q198 466 172 430.5 Q146 395 146 340 Q146 284 172 248 Q198 212 251 212 Z M156 18 Q136 7 123 -10.5 Q110 -28 110 -54 Q110 -98 152 -122 Q194 -146 272 -146 Q337 -146 377.5 -126 Q418 -106 418 -68 Q418 -48 404 -35.5 Q390 -23 367.5 -15.5 Q345 -8 316.5 -4.5 Q288 -1 258 2 Q232 5 205.5 9 Q179 13 156 18 Z M208 671 L257 765 L304 765 L261 676 L303 676 L303 590 L208 590 L208 671 Z " />
<glyph glyph-name="hcircumflex" unicode="&#x125;" horiz-adv-x="527" d="M68 750 L152 750 L152 434 Q162 446 178 459.5 Q194 473 214.5 485 Q235 497 260.5 505 Q286 513 317 513 Q382 513 420.5 470 Q459 427 459 339 L459 0 L375 0 L375 336 Q375 394 354 422 Q333 450 295 450 Q273 450 251.5 441.5 Q230 433 211 421 Q192 409 176.5 394.5 Q161 380 152 368 L152 0 L68 0 L68 750 Z M56 887 L166 887 L243 772 L189 772 L112 844 L110 844 L33 772 L-21 772 L56 887 Z " />
<glyph glyph-name="hbar" unicode="&#x127;" horiz-adv-x="527" d="M68 598 L15 598 L15 648 L68 648 L68 750 L152 750 L152 648 L292 648 L292 598 L152 598 L152 434 Q162 446 178 459.5 Q194 473 214.5 485 Q235 497 260.5 505 Q286 513 317 513 Q382 513 420.5 470 Q459 427 459 339 L459 0 L375 0 L375 336 Q375 394 354 422 Q333 450 295 450 Q273 450 251.5 441.5 Q230 433 211 421 Q192 409 176.5 394.5 Q161 380 152 368 L152 0 L68 0 L68 598 Z " />
<glyph glyph-name="igrave" unicode="&#xec;" horiz-adv-x="219" d="M68 503 L152 503 L152 0 L68 0 L68 503 Z M62 723 L161 586 L97 586 L-43 723 L62 723 Z " />
<glyph glyph-name="iacute" unicode="&#xed;" horiz-adv-x="219" d="M68 503 L152 503 L152 0 L68 0 L68 503 Z M154 723 L259 723 L118 586 L55 586 L154 723 Z " />
<glyph glyph-name="icircumflex" unicode="&#xee;" horiz-adv-x="219" d="M68 503 L152 503 L152 0 L68 0 L68 503 Z M57 723 L162 723 L242 586 L188 586 L111 675 L109 675 L32 586 L-22 586 L57 723 Z " />
<glyph glyph-name="itilde" unicode="&#x129;" horiz-adv-x="219" d="M68 503 L152 503 L152 0 L68 0 L68 503 Z M-35 608 Q-34 625 -29 642 Q-24 659 -14 672 Q-4 685 11 693 Q26 701 48 701 Q66 701 83 696 Q100 691 116 684.5 Q132 678 147 673 Q162 668 177 668 Q191 668 197.5 675 Q204 682 207 699 L262 699 Q257 660 239 631.5 Q221 603 186 603 Q169 603 151.5 608.5 Q134 614 116.5 621 Q99 628 83 633.5 Q67 639 53 639 Q37 639 29.5 632 Q22 625 18 608 L-35 608 Z " />
<glyph glyph-name="idieresis" unicode="&#xef;" horiz-adv-x="219" d="M68 503 L152 503 L152 0 L68 0 L68 503 Z M-18 696 L69 696 L69 608 L-18 608 L-18 696 Z M153 696 L240 696 L240 608 L153 608 L153 696 Z " />
<glyph glyph-name="imacron" unicode="&#x12b;" horiz-adv-x="219" d="M68 503 L152 503 L152 0 L68 0 L68 503 Z M-32 678 L245 678 L245 620 L-32 620 L-32 678 Z " />
<glyph glyph-name="ibreve" unicode="&#x12d;" horiz-adv-x="219" d="M68 503 L152 503 L152 0 L68 0 L68 503 Z M31 709 Q36 686 55 667.5 Q74 649 110 649 Q145 649 164.5 667.5 Q184 686 189 709 L235 709 Q233 686 225 664 Q217 642 202 625 Q187 608 164 598 Q141 588 110 588 Q78 588 55 598 Q32 608 17 624.5 Q2 641 -6 663 Q-14 685 -16 709 L31 709 Z " />
<glyph glyph-name="iogonek" unicode="&#x12f;" horiz-adv-x="219" d="M170 -152 Q154 -170 130.5 -184 Q107 -198 72 -198 Q30 -198 8 -179 Q-14 -160 -14 -126 Q-14 -97 3 -65 Q20 -33 68 1 L68 503 L152 503 L152 0 Q108 -22 81.5 -50 Q55 -78 55 -113 Q55 -129 65 -138.5 Q75 -148 94 -148 Q110 -148 125 -142 Q140 -136 151 -128 L170 -152 Z M68 700 L152 700 L152 613 L68 613 L68 700 Z " />
<glyph glyph-name="dotlessi" unicode="&#x131;" horiz-adv-x="219" d="M68 503 L152 503 L152 0 L68 0 L68 503 Z " />
<glyph glyph-name="ij" unicode="&#x133;" horiz-adv-x="444" d="M68 700 L152 700 L152 613 L68 613 L68 700 Z M68 503 L152 503 L152 0 L68 0 L68 503 Z M201 -125 Q209 -127 220.5 -128 Q232 -129 237 -129 Q252 -129 262.5 -126.5 Q273 -124 279.5 -116 Q286 -108 289 -93.5 Q292 -79 292 -56 L292 503 L376 503 L376 -38 Q376 -73 371.5 -100 Q367 -127 353.5 -145.5 Q340 -164 315 -174 Q290 -184 250 -184 Q246 -184 239.5 -183.5 Q233 -183 226 -182.5 Q219 -182 212 -181 Q205 -180 201 -179 L201 -125 Z M292 700 L376 700 L376 613 L292 613 L292 700 Z " />
<glyph glyph-name="dotlessj" unicode="&#x237;" horiz-adv-x="225" d="M-18 -129 Q-10 -131 1.5 -132 Q13 -133 18 -133 Q34 -133 44.5 -130.5 Q55 -128 61.5 -120 Q68 -112 70.5 -97.5 Q73 -83 73 -60 L73 503 L157 503 L157 -22 Q157 -63 152.5 -93 Q148 -123 134.5 -143.5 Q121 -164 96 -174 Q71 -184 31 -184 Q23 -184 7 -183 Q-9 -182 -18 -178 L-18 -129 Z " />
<glyph glyph-name="jcircumflex" unicode="&#x135;" horiz-adv-x="225" d="M-18 -129 Q-10 -131 1.5 -132 Q13 -133 18 -133 Q34 -133 44.5 -130.5 Q55 -128 61.5 -120 Q68 -112 70.5 -97.5 Q73 -83 73 -60 L73 503 L157 503 L157 -22 Q157 -63 152.5 -93 Q148 -123 134.5 -143.5 Q121 -164 96 -174 Q71 -184 31 -184 Q23 -184 7 -183 Q-9 -182 -18 -178 L-18 -129 Z M60 723 L165 723 L245 586 L191 586 L114 675 L112 675 L35 586 L-19 586 L60 723 Z " />
<glyph glyph-name="kcommaaccent" unicode="&#x137;" horiz-adv-x="462" d="M68 750 L152 750 L152 271 L154 271 L358 503 L443 503 L276 319 L449 0 L360 0 L221 258 L152 184 L152 0 L68 0 L68 750 Z M226 -145 L184 -145 L184 -58 L279 -58 L279 -140 L230 -233 L182 -233 L226 -145 Z " />
<glyph glyph-name="kgreenlandic" unicode="&#x138;" horiz-adv-x="462" d="M68 503 L152 503 L152 271 L154 271 L358 503 L443 503 L276 319 L449 0 L360 0 L221 258 L152 184 L152 0 L68 0 L68 503 Z " />
<glyph glyph-name="lacute" unicode="&#x13a;" horiz-adv-x="219" d="M68 750 L152 750 L152 0 L68 0 L68 750 Z M166 887 L271 887 L135 785 L71 785 L166 887 Z " />
<glyph glyph-name="lcaron" unicode="&#x13e;" horiz-adv-x="319" d="M68 750 L152 750 L152 0 L68 0 L68 750 Z M264 651 L229 651 L229 750 L309 750 L309 656 L261 548 L221 548 L264 651 Z " />
<glyph glyph-name="lcommaaccent" unicode="&#x13c;" horiz-adv-x="219" d="M68 750 L152 750 L152 0 L68 0 L68 750 Z M104 -145 L62 -145 L62 -58 L157 -58 L157 -140 L108 -233 L60 -233 L104 -145 Z " />
<glyph glyph-name="lslash" unicode="&#x142;" horiz-adv-x="284" d="M100 252 L23 197 L23 258 L100 313 L100 750 L184 750 L184 374 L261 430 L261 369 L184 313 L184 0 L100 0 L100 252 Z " />
<glyph glyph-name="ldot" unicode="&#x140;" horiz-adv-x="346" d="M68 750 L152 750 L152 0 L68 0 L68 750 Z M236 427 L320 427 L320 340 L236 340 L236 427 Z " />
<glyph glyph-name="nacute" unicode="&#x144;" horiz-adv-x="527" d="M68 503 L135 503 L144 427 L146 427 Q156 438 171.5 453 Q187 468 208.5 481.5 Q230 495 257 504 Q284 513 317 513 Q382 513 420.5 470 Q459 427 459 339 L459 0 L375 0 L375 336 Q375 394 354 422 Q333 450 295 450 Q273 450 251.5 441.5 Q230 433 211 421 Q192 409 176.5 394.5 Q161 380 152 368 L152 0 L68 0 L68 503 Z M312 723 L417 723 L276 586 L213 586 L312 723 Z " />
<glyph glyph-name="ncaron" unicode="&#x148;" horiz-adv-x="527" d="M68 503 L135 503 L144 427 L146 427 Q156 438 171.5 453 Q187 468 208.5 481.5 Q230 495 257 504 Q284 513 317 513 Q382 513 420.5 470 Q459 427 459 339 L459 0 L375 0 L375 336 Q375 394 354 422 Q333 450 295 450 Q273 450 251.5 441.5 Q230 433 211 421 Q192 409 176.5 394.5 Q161 380 152 368 L152 0 L68 0 L68 503 Z M141 723 L195 723 L272 634 L274 634 L351 723 L405 723 L325 586 L220 586 L141 723 Z " />
<glyph glyph-name="ntilde" unicode="&#xf1;" horiz-adv-x="527" d="M68 503 L135 503 L144 427 L146 427 Q156 438 171.5 453 Q187 468 208.5 481.5 Q230 495 257 504 Q284 513 317 513 Q382 513 420.5 470 Q459 427 459 339 L459 0 L375 0 L375 336 Q375 394 354 422 Q333 450 295 450 Q273 450 251.5 441.5 Q230 433 211 421 Q192 409 176.5 394.5 Q161 380 152 368 L152 0 L68 0 L68 503 Z M125 608 Q126 625 131 642 Q136 659 146 672 Q156 685 171 693 Q186 701 208 701 Q226 701 243 696 Q260 691 276 684.5 Q292 678 307 673 Q322 668 337 668 Q351 668 357.5 675 Q364 682 367 699 L422 699 Q417 660 399 631.5 Q381 603 346 603 Q329 603 311.5 608.5 Q294 614 276.5 621 Q259 628 243 633.5 Q227 639 213 639 Q197 639 189.5 632 Q182 625 178 608 L125 608 Z " />
<glyph glyph-name="ncommaaccent" unicode="&#x146;" horiz-adv-x="527" d="M68 503 L135 503 L144 427 L146 427 Q156 438 171.5 453 Q187 468 208.5 481.5 Q230 495 257 504 Q284 513 317 513 Q382 513 420.5 470 Q459 427 459 339 L459 0 L375 0 L375 336 Q375 394 354 422 Q333 450 295 450 Q273 450 251.5 441.5 Q230 433 211 421 Q192 409 176.5 394.5 Q161 380 152 368 L152 0 L68 0 L68 503 Z M259 -145 L217 -145 L217 -58 L312 -58 L312 -140 L263 -233 L215 -233 L259 -145 Z " />
<glyph glyph-name="napostrophe" unicode="&#x149;" horiz-adv-x="527" d="M68 503 L135 503 L144 427 L146 427 Q156 438 171.5 453 Q187 468 208.5 481.5 Q230 495 257 504 Q284 513 317 513 Q382 513 420.5 470 Q459 427 459 339 L459 0 L375 0 L375 336 Q375 394 354 422 Q333 450 295 450 Q273 450 251.5 441.5 Q230 433 211 421 Q192 409 176.5 394.5 Q161 380 152 368 L152 0 L68 0 L68 503 Z M111 663 L69 663 L69 750 L164 750 L164 668 L115 575 L67 575 L111 663 Z " />
<glyph glyph-name="ograve" unicode="&#xf2;" horiz-adv-x="522" d="M261 -10 Q210 -10 169.5 8.5 Q129 27 100 61.5 Q71 96 55.5 144 Q40 192 40 252 Q40 311 55.5 359.5 Q71 408 100 442 Q129 476 169.5 494.5 Q210 513 261 513 Q312 513 352.5 494.5 Q393 476 422 442 Q451 408 466.5 359.5 Q482 311 482 252 Q482 192 466.5 144 Q451 96 422 61.5 Q393 27 352.5 8.5 Q312 -10 261 -10 Z M261 41 Q297 41 321.5 57.5 Q346 74 361 103 Q376 132 382.5 170 Q389 208 389 252 Q389 295 382.5 333.5 Q376 372 361 400.5 Q346 429 321.5 446 Q297 463 261 463 Q225 463 200.5 446 Q176 429 161 400 Q146 371 139.5 333 Q133 295 133 252 Q133 208 139.5 170 Q146 132 161 103 Q176 74 200.5 57.5 Q225 41 261 41 Z M230 723 L329 586 L265 586 L125 723 L230 723 Z " />
<glyph glyph-name="oacute" unicode="&#xf3;" horiz-adv-x="522" d="M261 -10 Q210 -10 169.5 8.5 Q129 27 100 61.5 Q71 96 55.5 144 Q40 192 40 252 Q40 311 55.5 359.5 Q71 408 100 442 Q129 476 169.5 494.5 Q210 513 261 513 Q312 513 352.5 494.5 Q393 476 422 442 Q451 408 466.5 359.5 Q482 311 482 252 Q482 192 466.5 144 Q451 96 422 61.5 Q393 27 352.5 8.5 Q312 -10 261 -10 Z M261 41 Q297 41 321.5 57.5 Q346 74 361 103 Q376 132 382.5 170 Q389 208 389 252 Q389 295 382.5 333.5 Q376 372 361 400.5 Q346 429 321.5 446 Q297 463 261 463 Q225 463 200.5 446 Q176 429 161 400 Q146 371 139.5 333 Q133 295 133 252 Q133 208 139.5 170 Q146 132 161 103 Q176 74 200.5 57.5 Q225 41 261 41 Z M316 723 L421 723 L280 586 L217 586 L316 723 Z " />
<glyph glyph-name="ocircumflex" unicode="&#xf4;" horiz-adv-x="522" d="M261 -10 Q210 -10 169.5 8.5 Q129 27 100 61.5 Q71 96 55.5 144 Q40 192 40 252 Q40 311 55.5 359.5 Q71 408 100 442 Q129 476 169.5 494.5 Q210 513 261 513 Q312 513 352.5 494.5 Q393 476 422 442 Q451 408 466.5 359.5 Q482 311 482 252 Q482 192 466.5 144 Q451 96 422 61.5 Q393 27 352.5 8.5 Q312 -10 261 -10 Z M261 41 Q297 41 321.5 57.5 Q346 74 361 103 Q376 132 382.5 170 Q389 208 389 252 Q389 295 382.5 333.5 Q376 372 361 400.5 Q346 429 321.5 446 Q297 463 261 463 Q225 463 200.5 446 Q176 429 161 400 Q146 371 139.5 333 Q133 295 133 252 Q133 208 139.5 170 Q146 132 161 103 Q176 74 200.5 57.5 Q225 41 261 41 Z M208 723 L313 723 L393 586 L339 586 L262 675 L260 675 L183 586 L129 586 L208 723 Z " />
<glyph glyph-name="otilde" unicode="&#xf5;" horiz-adv-x="522" d="M261 -10 Q210 -10 169.5 8.5 Q129 27 100 61.5 Q71 96 55.5 144 Q40 192 40 252 Q40 311 55.5 359.5 Q71 408 100 442 Q129 476 169.5 494.5 Q210 513 261 513 Q312 513 352.5 494.5 Q393 476 422 442 Q451 408 466.5 359.5 Q482 311 482 252 Q482 192 466.5 144 Q451 96 422 61.5 Q393 27 352.5 8.5 Q312 -10 261 -10 Z M261 41 Q297 41 321.5 57.5 Q346 74 361 103 Q376 132 382.5 170 Q389 208 389 252 Q389 295 382.5 333.5 Q376 372 361 400.5 Q346 429 321.5 446 Q297 463 261 463 Q225 463 200.5 446 Q176 429 161 400 Q146 371 139.5 333 Q133 295 133 252 Q133 208 139.5 170 Q146 132 161 103 Q176 74 200.5 57.5 Q225 41 261 41 Z M112 608 Q113 625 118 642 Q123 659 133 672 Q143 685 158 693 Q173 701 195 701 Q213 701 230 696 Q247 691 263 684.5 Q279 678 294 673 Q309 668 324 668 Q338 668 344.5 675 Q351 682 354 699 L409 699 Q404 660 386 631.5 Q368 603 333 603 Q316 603 298.5 608.5 Q281 614 263.5 621 Q246 628 230 633.5 Q214 639 200 639 Q184 639 176.5 632 Q169 625 165 608 L112 608 Z " />
<glyph glyph-name="odieresis" unicode="&#xf6;" horiz-adv-x="522" d="M261 -10 Q210 -10 169.5 8.5 Q129 27 100 61.5 Q71 96 55.5 144 Q40 192 40 252 Q40 311 55.5 359.5 Q71 408 100 442 Q129 476 169.5 494.5 Q210 513 261 513 Q312 513 352.5 494.5 Q393 476 422 442 Q451 408 466.5 359.5 Q482 311 482 252 Q482 192 466.5 144 Q451 96 422 61.5 Q393 27 352.5 8.5 Q312 -10 261 -10 Z M261 41 Q297 41 321.5 57.5 Q346 74 361 103 Q376 132 382.5 170 Q389 208 389 252 Q389 295 382.5 333.5 Q376 372 361 400.5 Q346 429 321.5 446 Q297 463 261 463 Q225 463 200.5 446 Q176 429 161 400 Q146 371 139.5 333 Q133 295 133 252 Q133 208 139.5 170 Q146 132 161 103 Q176 74 200.5 57.5 Q225 41 261 41 Z M132 696 L219 696 L219 608 L132 608 L132 696 Z M303 696 L390 696 L390 608 L303 608 L303 696 Z " />
<glyph glyph-name="omacron" unicode="&#x14d;" horiz-adv-x="522" d="M261 -10 Q210 -10 169.5 8.5 Q129 27 100 61.5 Q71 96 55.5 144 Q40 192 40 252 Q40 311 55.5 359.5 Q71 408 100 442 Q129 476 169.5 494.5 Q210 513 261 513 Q312 513 352.5 494.5 Q393 476 422 442 Q451 408 466.5 359.5 Q482 311 482 252 Q482 192 466.5 144 Q451 96 422 61.5 Q393 27 352.5 8.5 Q312 -10 261 -10 Z M261 41 Q297 41 321.5 57.5 Q346 74 361 103 Q376 132 382.5 170 Q389 208 389 252 Q389 295 382.5 333.5 Q376 372 361 400.5 Q346 429 321.5 446 Q297 463 261 463 Q225 463 200.5 446 Q176 429 161 400 Q146 371 139.5 333 Q133 295 133 252 Q133 208 139.5 170 Q146 132 161 103 Q176 74 200.5 57.5 Q225 41 261 41 Z M122 678 L399 678 L399 620 L122 620 L122 678 Z " />
<glyph glyph-name="obreve" unicode="&#x14f;" horiz-adv-x="522" d="M261 -10 Q210 -10 169.5 8.5 Q129 27 100 61.5 Q71 96 55.5 144 Q40 192 40 252 Q40 311 55.5 359.5 Q71 408 100 442 Q129 476 169.5 494.5 Q210 513 261 513 Q312 513 352.5 494.5 Q393 476 422 442 Q451 408 466.5 359.5 Q482 311 482 252 Q482 192 466.5 144 Q451 96 422 61.5 Q393 27 352.5 8.5 Q312 -10 261 -10 Z M261 41 Q297 41 321.5 57.5 Q346 74 361 103 Q376 132 382.5 170 Q389 208 389 252 Q389 295 382.5 333.5 Q376 372 361 400.5 Q346 429 321.5 446 Q297 463 261 463 Q225 463 200.5 446 Q176 429 161 400 Q146 371 139.5 333 Q133 295 133 252 Q133 208 139.5 170 Q146 132 161 103 Q176 74 200.5 57.5 Q225 41 261 41 Z M182 709 Q187 686 206 667.5 Q225 649 261 649 Q296 649 315.5 667.5 Q335 686 340 709 L386 709 Q384 686 376 664 Q368 642 353 625 Q338 608 315 598 Q292 588 261 588 Q229 588 206 598 Q183 608 168 624.5 Q153 641 145 663 Q137 685 135 709 L182 709 Z " />
<glyph glyph-name="ohungarumlaut" unicode="&#x151;" horiz-adv-x="522" d="M261 -10 Q210 -10 169.5 8.5 Q129 27 100 61.5 Q71 96 55.5 144 Q40 192 40 252 Q40 311 55.5 359.5 Q71 408 100 442 Q129 476 169.5 494.5 Q210 513 261 513 Q312 513 352.5 494.5 Q393 476 422 442 Q451 408 466.5 359.5 Q482 311 482 252 Q482 192 466.5 144 Q451 96 422 61.5 Q393 27 352.5 8.5 Q312 -10 261 -10 Z M261 41 Q297 41 321.5 57.5 Q346 74 361 103 Q376 132 382.5 170 Q389 208 389 252 Q389 295 382.5 333.5 Q376 372 361 400.5 Q346 429 321.5 446 Q297 463 261 463 Q225 463 200.5 446 Q176 429 161 400 Q146 371 139.5 333 Q133 295 133 252 Q133 208 139.5 170 Q146 132 161 103 Q176 74 200.5 57.5 Q225 41 261 41 Z M206 723 L292 723 L206 586 L152 586 L206 723 Z M357 723 L443 723 L357 586 L303 586 L357 723 Z " />
<glyph glyph-name="oslash" unicode="&#xf8;" horiz-adv-x="522" d="M115 45 Q79 79 59.5 131.5 Q40 184 40 252 Q40 311 55.5 359.5 Q71 408 100 442 Q129 476 169.5 494.5 Q210 513 261 513 Q322 513 370 485 L404 545 L447 527 L407 458 Q443 423 462.5 371 Q482 319 482 252 Q482 192 466.5 144 Q451 96 422 61.5 Q393 27 352.5 8.5 Q312 -10 261 -10 Q230 -10 203 -3 Q176 4 153 17 L122 -37 L79 -18 L115 45 Z M339 432 Q325 446 305.5 454.5 Q286 463 261 463 Q225 463 200.5 446 Q176 429 161 400 Q146 371 139.5 333 Q133 295 133 252 Q133 212 138 177 Q143 142 155 114 L339 432 Z M184 70 Q213 41 261 41 Q297 41 321.5 57.5 Q346 74 361 103 Q376 132 382.5 170 Q389 208 389 252 Q389 290 383.5 325 Q378 360 367 388 L184 70 Z " />
<glyph glyph-name="oslashacute" unicode="&#x1ff;" horiz-adv-x="522" d="M115 45 Q79 79 59.5 131.5 Q40 184 40 252 Q40 311 55.5 359.5 Q71 408 100 442 Q129 476 169.5 494.5 Q210 513 261 513 Q322 513 370 485 L404 545 L447 527 L407 458 Q443 423 462.5 371 Q482 319 482 252 Q482 192 466.5 144 Q451 96 422 61.5 Q393 27 352.5 8.5 Q312 -10 261 -10 Q230 -10 203 -3 Q176 4 153 17 L122 -37 L79 -18 L115 45 Z M339 432 Q325 446 305.5 454.5 Q286 463 261 463 Q225 463 200.5 446 Q176 429 161 400 Q146 371 139.5 333 Q133 295 133 252 Q133 212 138 177 Q143 142 155 114 L339 432 Z M184 70 Q213 41 261 41 Q297 41 321.5 57.5 Q346 74 361 103 Q376 132 382.5 170 Q389 208 389 252 Q389 290 383.5 325 Q378 360 367 388 L184 70 Z M299 723 L404 723 L263 586 L200 586 L299 723 Z " />
<glyph glyph-name="oe" unicode="&#x153;" horiz-adv-x="833" d="M792 90 Q783 72 768 54.5 Q753 37 732 22.5 Q711 8 682 -1 Q653 -10 616 -10 Q550 -10 506 14 Q462 38 435 79 Q406 36 362 13 Q318 -10 261 -10 Q210 -10 169.5 8.5 Q129 27 100 61.5 Q71 96 55.5 144 Q40 192 40 252 Q40 311 55.5 359.5 Q71 408 100 442 Q129 476 169.5 494.5 Q210 513 261 513 Q318 513 361.5 490 Q405 467 434 425 Q460 466 501 489.5 Q542 513 599 513 Q648 513 685 495 Q722 477 747 445 Q772 413 784.5 370 Q797 327 797 278 L797 250 L484 250 Q485 212 491 175 Q497 138 512 108.5 Q527 79 552.5 61 Q578 43 618 43 Q659 43 683 65.5 Q707 88 722 121 L792 90 Z M261 41 Q297 41 321.5 57.5 Q346 74 361 103 Q376 132 382.5 170 Q389 208 389 252 Q389 295 382.5 333.5 Q376 372 361 400.5 Q346 429 321.5 446 Q297 463 261 463 Q225 463 200.5 446 Q176 429 161 400 Q146 371 139.5 333 Q133 295 133 252 Q133 208 139.5 170 Q146 132 161 103 Q176 74 200.5 57.5 Q225 41 261 41 Z M710 302 Q710 329 704 358 Q698 387 684.5 410 Q671 433 649.5 448 Q628 463 595 463 Q566 463 546 451 Q526 439 512.5 418 Q499 397 492 367.5 Q485 338 484 302 L710 302 Z " />
<glyph glyph-name="racute" unicode="&#x155;" horiz-adv-x="324" d="M68 503 L135 503 L141 414 L143 414 Q157 434 173 452 Q189 470 208.5 483.5 Q228 497 250.5 505 Q273 513 300 513 L300 417 Q297 418 287.5 418.5 Q278 419 268 419 Q237 419 206 405 Q175 391 152 365 L152 0 L68 0 L68 503 Z M212 723 L317 723 L176 586 L113 586 L212 723 Z " />
<glyph glyph-name="rcaron" unicode="&#x159;" horiz-adv-x="324" d="M68 503 L135 503 L141 414 L143 414 Q157 434 173 452 Q189 470 208.5 483.5 Q228 497 250.5 505 Q273 513 300 513 L300 417 Q297 418 287.5 418.5 Q278 419 268 419 Q237 419 206 405 Q175 391 152 365 L152 0 L68 0 L68 503 Z M54 723 L108 723 L185 634 L187 634 L264 723 L318 723 L238 586 L133 586 L54 723 Z " />
<glyph glyph-name="rcommaaccent" unicode="&#x157;" horiz-adv-x="324" d="M68 503 L135 503 L141 414 L143 414 Q157 434 173 452 Q189 470 208.5 483.5 Q228 497 250.5 505 Q273 513 300 513 L300 417 Q297 418 287.5 418.5 Q278 419 268 419 Q237 419 206 405 Q175 391 152 365 L152 0 L68 0 L68 503 Z M105 -145 L63 -145 L63 -58 L158 -58 L158 -140 L109 -233 L61 -233 L105 -145 Z " />
<glyph glyph-name="sacute" unicode="&#x15b;" horiz-adv-x="410" d="M89 129 Q95 116 103.5 101 Q112 86 125.5 72.5 Q139 59 157 50 Q175 41 201 41 Q240 41 265 62 Q290 83 290 121 Q290 146 277 164 Q264 182 244 195.5 Q224 209 198.5 220.5 Q173 232 148 245 Q128 255 109.5 267 Q91 279 77 294 Q63 309 54.5 328.5 Q46 348 46 374 Q46 434 89.5 473.5 Q133 513 214 513 Q251 513 278 505 Q305 497 324 484.5 Q343 472 355 456 Q367 440 375 424 L304 397 Q300 405 293 416.5 Q286 428 274.5 438.5 Q263 449 246.5 456 Q230 463 208 463 Q175 463 151.5 444 Q128 425 128 389 Q128 367 140 351 Q152 335 171 322.5 Q190 310 214 299 Q238 288 262 276 Q283 265 303 252.5 Q323 240 338.5 223.5 Q354 207 363.5 186.5 Q373 166 373 139 Q373 103 360 75 Q347 47 324 28 Q301 9 269 -0.5 Q237 -10 198 -10 Q159 -10 129.5 -1 Q100 8 78.5 23 Q57 38 43.5 56.5 Q30 75 23 95 L89 129 Z M247 723 L352 723 L211 586 L148 586 L247 723 Z " />
<glyph glyph-name="scircumflex" unicode="&#x15d;" horiz-adv-x="410" d="M89 129 Q95 116 103.5 101 Q112 86 125.5 72.5 Q139 59 157 50 Q175 41 201 41 Q240 41 265 62 Q290 83 290 121 Q290 146 277 164 Q264 182 244 195.5 Q224 209 198.5 220.5 Q173 232 148 245 Q128 255 109.5 267 Q91 279 77 294 Q63 309 54.5 328.5 Q46 348 46 374 Q46 434 89.5 473.5 Q133 513 214 513 Q251 513 278 505 Q305 497 324 484.5 Q343 472 355 456 Q367 440 375 424 L304 397 Q300 405 293 416.5 Q286 428 274.5 438.5 Q263 449 246.5 456 Q230 463 208 463 Q175 463 151.5 444 Q128 425 128 389 Q128 367 140 351 Q152 335 171 322.5 Q190 310 214 299 Q238 288 262 276 Q283 265 303 252.5 Q323 240 338.5 223.5 Q354 207 363.5 186.5 Q373 166 373 139 Q373 103 360 75 Q347 47 324 28 Q301 9 269 -0.5 Q237 -10 198 -10 Q159 -10 129.5 -1 Q100 8 78.5 23 Q57 38 43.5 56.5 Q30 75 23 95 L89 129 Z M156 723 L261 723 L341 586 L287 586 L210 675 L208 675 L131 586 L77 586 L156 723 Z " />
<glyph glyph-name="scaron" unicode="&#x161;" horiz-adv-x="410" d="M89 129 Q95 116 103.5 101 Q112 86 125.5 72.5 Q139 59 157 50 Q175 41 201 41 Q240 41 265 62 Q290 83 290 121 Q290 146 277 164 Q264 182 244 195.5 Q224 209 198.5 220.5 Q173 232 148 245 Q128 255 109.5 267 Q91 279 77 294 Q63 309 54.5 328.5 Q46 348 46 374 Q46 434 89.5 473.5 Q133 513 214 513 Q251 513 278 505 Q305 497 324 484.5 Q343 472 355 456 Q367 440 375 424 L304 397 Q300 405 293 416.5 Q286 428 274.5 438.5 Q263 449 246.5 456 Q230 463 208 463 Q175 463 151.5 444 Q128 425 128 389 Q128 367 140 351 Q152 335 171 322.5 Q190 310 214 299 Q238 288 262 276 Q283 265 303 252.5 Q323 240 338.5 223.5 Q354 207 363.5 186.5 Q373 166 373 139 Q373 103 360 75 Q347 47 324 28 Q301 9 269 -0.5 Q237 -10 198 -10 Q159 -10 129.5 -1 Q100 8 78.5 23 Q57 38 43.5 56.5 Q30 75 23 95 L89 129 Z M75 723 L129 723 L206 634 L208 634 L285 723 L339 723 L259 586 L154 586 L75 723 Z " />
<glyph glyph-name="scedilla" unicode="&#x15f;" horiz-adv-x="410" d="M127 -140 Q135 -147 152 -151.5 Q169 -156 187 -156 Q209 -156 217 -146.5 Q225 -137 225 -124 Q225 -111 216.5 -102.5 Q208 -94 196 -89 Q184 -84 170.5 -82 Q157 -80 147 -80 L171 -9 Q148 -6 129 -1 Q100 8 78.5 23 Q57 38 43.5 56.5 Q30 75 23 95 L89 129 Q95 116 103.5 101 Q112 86 125.5 72.5 Q139 59 157 50 Q175 41 201 41 Q240 41 265 62 Q290 83 290 121 Q290 146 277 164 Q264 182 244 195.5 Q224 209 198.5 220.5 Q173 232 148 245 Q128 255 109.5 267 Q91 279 77 294 Q63 309 54.5 328.5 Q46 348 46 374 Q46 434 89.5 473.5 Q133 513 214 513 Q251 513 278 505 Q305 497 324 484.5 Q343 472 355 456 Q367 440 375 424 L304 397 Q300 405 293 416.5 Q286 428 274.5 438.5 Q263 449 246.5 456 Q230 463 208 463 Q175 463 151.5 444 Q128 425 128 389 Q128 367 140 351 Q152 335 171 322.5 Q190 310 214 299 Q238 288 262 276 Q283 265 303 252.5 Q323 240 338.5 223.5 Q354 207 363.5 186.5 Q373 166 373 139 Q373 103 360 75 Q347 47 324 28 Q301 9 269 0 Q242 -8 211 -10 L198 -43 Q248 -51 271 -72 Q294 -93 294 -125 Q294 -154 272.5 -175.5 Q251 -197 205 -197 Q176 -197 152 -190 Q128 -183 114 -171 L127 -140 Z " />
<glyph glyph-name="scommaaccent" unicode="&#x219;" horiz-adv-x="410" d="M89 129 Q95 116 103.5 101 Q112 86 125.5 72.5 Q139 59 157 50 Q175 41 201 41 Q240 41 265 62 Q290 83 290 121 Q290 146 277 164 Q264 182 244 195.5 Q224 209 198.5 220.5 Q173 232 148 245 Q128 255 109.5 267 Q91 279 77 294 Q63 309 54.5 328.5 Q46 348 46 374 Q46 434 89.5 473.5 Q133 513 214 513 Q251 513 278 505 Q305 497 324 484.5 Q343 472 355 456 Q367 440 375 424 L304 397 Q300 405 293 416.5 Q286 428 274.5 438.5 Q263 449 246.5 456 Q230 463 208 463 Q175 463 151.5 444 Q128 425 128 389 Q128 367 140 351 Q152 335 171 322.5 Q190 310 214 299 Q238 288 262 276 Q283 265 303 252.5 Q323 240 338.5 223.5 Q354 207 363.5 186.5 Q373 166 373 139 Q373 103 360 75 Q347 47 324 28 Q301 9 269 -0.5 Q237 -10 198 -10 Q159 -10 129.5 -1 Q100 8 78.5 23 Q57 38 43.5 56.5 Q30 75 23 95 L89 129 Z M214 -145 L172 -145 L172 -58 L267 -58 L267 -140 L218 -233 L170 -233 L214 -145 Z " />
<glyph glyph-name="germandbls" unicode="&#xdf;" horiz-adv-x="577" d="M97 448 L18 448 L18 503 L97 503 L97 568 Q97 618 110.5 654.5 Q124 691 149 714.5 Q174 738 208.5 749 Q243 760 284 760 Q330 760 366.5 748.5 Q403 737 427.5 716.5 Q452 696 465 668.5 Q478 641 478 610 Q478 568 461 538.5 Q444 509 423 485.5 Q402 462 385 441 Q368 420 368 394 Q368 376 382 359.5 Q396 343 416.5 325 Q437 307 461 288 Q485 269 505.5 246 Q526 223 540 196 Q554 169 554 136 Q554 68 507 29 Q460 -10 376 -10 Q359 -10 341 -8 Q323 -6 307 -3.5 Q291 -1 279.5 2 Q268 5 264 8 L264 77 Q269 71 281 64 Q293 57 308.5 52 Q324 47 342.5 43.5 Q361 40 379 40 Q423 40 446 61.5 Q469 83 469 118 Q469 146 455 169.5 Q441 193 420.5 213 Q400 233 376 252 Q352 271 331.5 290 Q311 309 297 330 Q283 351 283 377 Q283 398 291.5 415 Q300 432 312.5 448 Q325 464 340 479.5 Q355 495 367.5 513.5 Q380 532 388.5 554 Q397 576 397 605 Q397 655 365.5 680.5 Q334 706 289 706 Q264 706 244 700 Q224 694 210 678 Q196 662 188.5 633 Q181 604 181 558 L181 0 L97 0 L97 448 Z " />
<glyph glyph-name="tcaron" unicode="&#x165;" horiz-adv-x="315" d="M95 449 L18 449 L18 503 L100 503 L100 629 L179 629 L179 503 L289 503 L289 449 L179 449 L179 128 Q179 85 191 66 Q203 47 242 47 Q258 47 271 51 Q284 55 292 60 L292 1 Q281 -3 263.5 -6.5 Q246 -10 222 -10 Q184 -10 159 -1.5 Q134 7 120 24 Q106 41 100.5 67.5 Q95 94 95 129 L95 449 Z M292 677 L257 677 L257 776 L337 776 L337 682 L289 574 L249 574 L292 677 Z " />
<glyph glyph-name="tcommaaccent" unicode="&#x163;" horiz-adv-x="315" d="M120 -140 Q128 -147 145 -151.5 Q162 -156 180 -156 Q202 -156 210 -146.5 Q218 -137 218 -124 Q218 -111 209.5 -102.5 Q201 -94 189 -89 Q177 -84 163.5 -82 Q150 -80 140 -80 L166 -3 Q124 8 109.5 40.5 Q95 73 95 129 L95 449 L18 449 L18 503 L100 503 L100 629 L179 629 L179 503 L289 503 L289 449 L179 449 L179 128 Q179 85 191 66 Q203 47 242 47 Q260 47 272 51 Q284 55 292 60 L292 1 Q281 -3 263.5 -6.5 Q246 -10 222 -10 Q217 -10 213 -10 Q209 -10 204 -9 L191 -43 Q241 -51 264 -72 Q287 -93 287 -125 Q287 -154 265.5 -175.5 Q244 -197 198 -197 Q169 -197 145 -190 Q121 -183 107 -171 L120 -140 Z " />
<glyph glyph-name="uni021B" unicode="&#x21b;" horiz-adv-x="315" d="M95 449 L18 449 L18 503 L100 503 L100 629 L179 629 L179 503 L289 503 L289 449 L179 449 L179 128 Q179 85 191 66 Q203 47 242 47 Q258 47 271 51 Q284 55 292 60 L292 1 Q281 -3 263.5 -6.5 Q246 -10 222 -10 Q184 -10 159 -1.5 Q134 7 120 24 Q106 41 100.5 67.5 Q95 94 95 129 L95 449 Z M192 -145 L150 -145 L150 -58 L245 -58 L245 -140 L196 -233 L148 -233 L192 -145 Z " />
<glyph glyph-name="tbar" unicode="&#x167;" horiz-adv-x="315" d="M95 271 L18 271 L18 324 L95 324 L95 449 L18 449 L18 503 L100 503 L100 629 L179 629 L179 503 L289 503 L289 449 L179 449 L179 324 L289 324 L289 271 L179 271 L179 127 Q179 84 191 65.5 Q203 47 242 47 Q260 47 272 51 Q284 55 292 60 L292 1 Q281 -3 263.5 -6.5 Q246 -10 222 -10 Q184 -10 159 -1.5 Q134 7 120 24 Q106 41 100.5 67.5 Q95 94 95 129 L95 271 Z " />
<glyph glyph-name="ugrave" unicode="&#xf9;" horiz-adv-x="518" d="M68 503 L152 503 L152 171 Q152 106 174 81.5 Q196 57 237 57 Q269 57 305 73.5 Q341 90 366 119 L366 503 L450 503 L450 0 L389 0 L375 65 Q361 52 343 38.5 Q325 25 304 14.5 Q283 4 258.5 -3 Q234 -10 206 -10 Q137 -10 102.5 33.5 Q68 77 68 159 L68 503 Z M222 723 L321 586 L257 586 L117 723 L222 723 Z " />
<glyph glyph-name="uacute" unicode="&#xfa;" horiz-adv-x="518" d="M68 503 L152 503 L152 171 Q152 106 174 81.5 Q196 57 237 57 Q269 57 305 73.5 Q341 90 366 119 L366 503 L450 503 L450 0 L389 0 L375 65 Q361 52 343 38.5 Q325 25 304 14.5 Q283 4 258.5 -3 Q234 -10 206 -10 Q137 -10 102.5 33.5 Q68 77 68 159 L68 503 Z M309 723 L414 723 L273 586 L210 586 L309 723 Z " />
<glyph glyph-name="ucircumflex" unicode="&#xfb;" horiz-adv-x="518" d="M68 503 L152 503 L152 171 Q152 106 174 81.5 Q196 57 237 57 Q269 57 305 73.5 Q341 90 366 119 L366 503 L450 503 L450 0 L389 0 L375 65 Q361 52 343 38.5 Q325 25 304 14.5 Q283 4 258.5 -3 Q234 -10 206 -10 Q137 -10 102.5 33.5 Q68 77 68 159 L68 503 Z M206 723 L311 723 L391 586 L337 586 L260 675 L258 675 L181 586 L127 586 L206 723 Z " />
<glyph glyph-name="utilde" unicode="&#x169;" horiz-adv-x="518" d="M68 503 L152 503 L152 171 Q152 106 174 81.5 Q196 57 237 57 Q269 57 305 73.5 Q341 90 366 119 L366 503 L450 503 L450 0 L389 0 L375 65 Q361 52 343 38.5 Q325 25 304 14.5 Q283 4 258.5 -3 Q234 -10 206 -10 Q137 -10 102.5 33.5 Q68 77 68 159 L68 503 Z M114 608 Q115 625 120 642 Q125 659 135 672 Q145 685 160 693 Q175 701 197 701 Q215 701 232 696 Q249 691 265 684.5 Q281 678 296 673 Q311 668 326 668 Q340 668 346.5 675 Q353 682 356 699 L411 699 Q406 660 388 631.5 Q370 603 335 603 Q318 603 300.5 608.5 Q283 614 265.5 621 Q248 628 232 633.5 Q216 639 202 639 Q186 639 178.5 632 Q171 625 167 608 L114 608 Z " />
<glyph glyph-name="udieresis" unicode="&#xfc;" horiz-adv-x="518" d="M68 503 L152 503 L152 171 Q152 106 174 81.5 Q196 57 237 57 Q269 57 305 73.5 Q341 90 366 119 L366 503 L450 503 L450 0 L389 0 L375 65 Q361 52 343 38.5 Q325 25 304 14.5 Q283 4 258.5 -3 Q234 -10 206 -10 Q137 -10 102.5 33.5 Q68 77 68 159 L68 503 Z M132 696 L219 696 L219 608 L132 608 L132 696 Z M303 696 L390 696 L390 608 L303 608 L303 696 Z " />
<glyph glyph-name="umacron" unicode="&#x16b;" horiz-adv-x="518" d="M68 503 L152 503 L152 171 Q152 106 174 81.5 Q196 57 237 57 Q269 57 305 73.5 Q341 90 366 119 L366 503 L450 503 L450 0 L389 0 L375 65 Q361 52 343 38.5 Q325 25 304 14.5 Q283 4 258.5 -3 Q234 -10 206 -10 Q137 -10 102.5 33.5 Q68 77 68 159 L68 503 Z M121 678 L398 678 L398 620 L121 620 L121 678 Z " />
<glyph glyph-name="ubreve" unicode="&#x16d;" horiz-adv-x="518" d="M68 503 L152 503 L152 171 Q152 106 174 81.5 Q196 57 237 57 Q269 57 305 73.5 Q341 90 366 119 L366 503 L450 503 L450 0 L389 0 L375 65 Q361 52 343 38.5 Q325 25 304 14.5 Q283 4 258.5 -3 Q234 -10 206 -10 Q137 -10 102.5 33.5 Q68 77 68 159 L68 503 Z M183 709 Q188 686 207 667.5 Q226 649 262 649 Q297 649 316.5 667.5 Q336 686 341 709 L387 709 Q385 686 377 664 Q369 642 354 625 Q339 608 316 598 Q293 588 262 588 Q230 588 207 598 Q184 608 169 624.5 Q154 641 146 663 Q138 685 136 709 L183 709 Z " />
<glyph glyph-name="uring" unicode="&#x16f;" horiz-adv-x="518" d="M68 503 L152 503 L152 171 Q152 106 174 81.5 Q196 57 237 57 Q269 57 305 73.5 Q341 90 366 119 L366 503 L450 503 L450 0 L389 0 L375 65 Q361 52 343 38.5 Q325 25 304 14.5 Q283 4 258.5 -3 Q234 -10 206 -10 Q137 -10 102.5 33.5 Q68 77 68 159 L68 503 Z M153 671 Q153 694 161.5 713 Q170 732 185 745.5 Q200 759 219.5 766.5 Q239 774 261 774 Q283 774 302.5 766.5 Q322 759 337 745.5 Q352 732 360.5 713 Q369 694 369 671 Q369 648 360.5 629.5 Q352 611 337 597.5 Q322 584 302.5 576.5 Q283 569 261 569 Q239 569 219.5 576.5 Q200 584 185 597.5 Q170 611 161.5 629.5 Q153 648 153 671 Z M261 609 Q290 609 306 627 Q322 645 322 671 Q322 697 306 715.5 Q290 734 261 734 Q232 734 216.5 715.5 Q201 697 201 671 Q201 645 216.5 627 Q232 609 261 609 Z " />
<glyph glyph-name="uhungarumlaut" unicode="&#x171;" horiz-adv-x="518" d="M68 503 L152 503 L152 171 Q152 106 174 81.5 Q196 57 237 57 Q269 57 305 73.5 Q341 90 366 119 L366 503 L450 503 L450 0 L389 0 L375 65 Q361 52 343 38.5 Q325 25 304 14.5 Q283 4 258.5 -3 Q234 -10 206 -10 Q137 -10 102.5 33.5 Q68 77 68 159 L68 503 Z M203 723 L289 723 L203 586 L149 586 L203 723 Z M354 723 L440 723 L354 586 L300 586 L354 723 Z " />
<glyph glyph-name="uogonek" unicode="&#x173;" horiz-adv-x="518" d="M68 503 L152 503 L152 171 Q152 106 174 81.5 Q196 57 237 57 Q269 57 305 73.5 Q341 90 366 119 L366 503 L450 503 L450 0 Q394 -23 368.5 -50.5 Q343 -78 343 -113 Q343 -129 353 -138.5 Q363 -148 382 -148 Q398 -148 413 -142 Q428 -136 439 -128 L458 -152 Q442 -170 418.5 -184 Q395 -198 360 -198 Q318 -198 296 -179 Q274 -160 274 -126 Q274 -92 298.5 -60 Q323 -28 387 7 L375 65 Q361 52 343 38.5 Q325 25 304 14.5 Q283 4 258.5 -3 Q234 -10 206 -10 Q137 -10 102.5 33.5 Q68 77 68 159 L68 503 Z " />
<glyph glyph-name="wgrave" unicode="&#x1e81;" horiz-adv-x="670" d="M29 503 L117 503 L184 228 Q193 192 199 160 Q205 128 210 102 L212 102 Q217 127 223.5 159.5 Q230 192 238 227 L304 503 L391 503 L454 228 Q462 192 467 160.5 Q472 129 477 103 L479 103 Q484 129 490.5 161 Q497 193 505 230 L568 503 L641 503 L513 0 L434 0 L372 260 Q358 317 352 353.5 Q346 390 344 409 L341 409 Q338 391 331 354.5 Q324 318 310 261 L246 0 L164 0 L29 503 Z M290 723 L389 586 L325 586 L185 723 L290 723 Z " />
<glyph glyph-name="wacute" unicode="&#x1e83;" horiz-adv-x="670" d="M29 503 L117 503 L184 228 Q193 192 199 160 Q205 128 210 102 L212 102 Q217 127 223.5 159.5 Q230 192 238 227 L304 503 L391 503 L454 228 Q462 192 467 160.5 Q472 129 477 103 L479 103 Q484 129 490.5 161 Q497 193 505 230 L568 503 L641 503 L513 0 L434 0 L372 260 Q358 317 352 353.5 Q346 390 344 409 L341 409 Q338 391 331 354.5 Q324 318 310 261 L246 0 L164 0 L29 503 Z M403 723 L508 723 L367 586 L304 586 L403 723 Z " />
<glyph glyph-name="wcircumflex" unicode="&#x175;" horiz-adv-x="670" d="M29 503 L117 503 L184 228 Q193 192 199 160 Q205 128 210 102 L212 102 Q217 127 223.5 159.5 Q230 192 238 227 L304 503 L391 503 L454 228 Q462 192 467 160.5 Q472 129 477 103 L479 103 Q484 129 490.5 161 Q497 193 505 230 L568 503 L641 503 L513 0 L434 0 L372 260 Q358 317 352 353.5 Q346 390 344 409 L341 409 Q338 391 331 354.5 Q324 318 310 261 L246 0 L164 0 L29 503 Z M292 723 L397 723 L477 586 L423 586 L346 675 L344 675 L267 586 L213 586 L292 723 Z " />
<glyph glyph-name="wdieresis" unicode="&#x1e85;" horiz-adv-x="670" d="M29 503 L117 503 L184 228 Q193 192 199 160 Q205 128 210 102 L212 102 Q217 127 223.5 159.5 Q230 192 238 227 L304 503 L391 503 L454 228 Q462 192 467 160.5 Q472 129 477 103 L479 103 Q484 129 490.5 161 Q497 193 505 230 L568 503 L641 503 L513 0 L434 0 L372 260 Q358 317 352 353.5 Q346 390 344 409 L341 409 Q338 391 331 354.5 Q324 318 310 261 L246 0 L164 0 L29 503 Z M218 696 L305 696 L305 608 L218 608 L218 696 Z M389 696 L476 696 L476 608 L389 608 L389 696 Z " />
<glyph glyph-name="ygrave" unicode="&#x1ef3;" horiz-adv-x="439" d="M25 -116 Q30 -118 46 -119.5 Q62 -121 76 -121 Q97 -121 112 -116 Q127 -111 139.5 -95.5 Q152 -80 164.5 -50.5 Q177 -21 192 27 L24 503 L112 503 L191 269 Q218 188 232 131 L234 131 Q241 159 248.5 189.5 Q256 220 271 268 L345 503 L421 503 L233 -51 Q221 -87 208 -112 Q195 -137 177.5 -153.5 Q160 -170 137 -177.5 Q114 -185 82 -185 Q62 -185 47 -184 Q32 -183 25 -181 L25 -116 Z M192 723 L291 586 L227 586 L87 723 L192 723 Z " />
<glyph glyph-name="yacute" unicode="&#xfd;" horiz-adv-x="439" d="M25 -116 Q30 -118 46 -119.5 Q62 -121 76 -121 Q97 -121 112 -116 Q127 -111 139.5 -95.5 Q152 -80 164.5 -50.5 Q177 -21 192 27 L24 503 L112 503 L191 269 Q218 188 232 131 L234 131 Q241 159 248.5 189.5 Q256 220 271 268 L345 503 L421 503 L233 -51 Q221 -87 208 -112 Q195 -137 177.5 -153.5 Q160 -170 137 -177.5 Q114 -185 82 -185 Q62 -185 47 -184 Q32 -183 25 -181 L25 -116 Z M277 723 L382 723 L241 586 L178 586 L277 723 Z " />
<glyph glyph-name="ycircumflex" unicode="&#x177;" horiz-adv-x="439" d="M25 -116 Q30 -118 46 -119.5 Q62 -121 76 -121 Q97 -121 112 -116 Q127 -111 139.5 -95.5 Q152 -80 164.5 -50.5 Q177 -21 192 27 L24 503 L112 503 L191 269 Q218 188 232 131 L234 131 Q241 159 248.5 189.5 Q256 220 271 268 L345 503 L421 503 L233 -51 Q221 -87 208 -112 Q195 -137 177.5 -153.5 Q160 -170 137 -177.5 Q114 -185 82 -185 Q62 -185 47 -184 Q32 -183 25 -181 L25 -116 Z M179 723 L284 723 L364 586 L310 586 L233 675 L231 675 L154 586 L100 586 L179 723 Z " />
<glyph glyph-name="ydieresis" unicode="&#xff;" horiz-adv-x="439" d="M25 -116 Q30 -118 46 -119.5 Q62 -121 76 -121 Q97 -121 112 -116 Q127 -111 139.5 -95.5 Q152 -80 164.5 -50.5 Q177 -21 192 27 L24 503 L112 503 L191 269 Q218 188 232 131 L234 131 Q241 159 248.5 189.5 Q256 220 271 268 L345 503 L421 503 L233 -51 Q221 -87 208 -112 Q195 -137 177.5 -153.5 Q160 -170 137 -177.5 Q114 -185 82 -185 Q62 -185 47 -184 Q32 -183 25 -181 L25 -116 Z M95 696 L182 696 L182 608 L95 608 L95 696 Z M266 696 L353 696 L353 608 L266 608 L266 696 Z " />
<glyph glyph-name="zacute" unicode="&#x17a;" horiz-adv-x="426" d="M22 41 L299 449 L42 449 L42 503 L399 503 L399 462 L122 54 L403 54 L403 0 L22 0 L22 41 Z M263 723 L368 723 L227 586 L164 586 L263 723 Z " />
<glyph glyph-name="zcaron" unicode="&#x17e;" horiz-adv-x="426" d="M22 41 L299 449 L42 449 L42 503 L399 503 L399 462 L122 54 L403 54 L403 0 L22 0 L22 41 Z M102 723 L156 723 L233 634 L235 634 L312 723 L366 723 L286 586 L181 586 L102 723 Z " />
<glyph glyph-name="zdotaccent" unicode="&#x17c;" horiz-adv-x="426" d="M22 41 L299 449 L42 449 L42 503 L399 503 L399 462 L122 54 L403 54 L403 0 L22 0 L22 41 Z M192 700 L276 700 L276 613 L192 613 L192 700 Z " />
<glyph glyph-name="eng" unicode="&#x14b;" horiz-adv-x="527" d="M68 503 L135 503 L144 427 L146 427 Q156 438 171.5 453 Q187 468 208.5 481.5 Q230 495 257 504 Q284 513 317 513 Q382 513 420.5 470 Q459 427 459 339 L459 -22 Q459 -63 454.5 -93 Q450 -123 436.5 -143.5 Q423 -164 398 -174 Q373 -184 333 -184 Q325 -184 309 -183 Q293 -182 284 -178 L284 -126 Q292 -128 303.5 -129 Q315 -130 320 -130 Q336 -130 346.5 -127.5 Q357 -125 363.5 -117 Q370 -109 372.5 -94.5 Q375 -80 375 -57 L375 336 Q375 394 354 422 Q333 450 295 450 Q273 450 251.5 441.5 Q230 433 211 421 Q192 409 176.5 394.5 Q161 380 152 368 L152 0 L68 0 L68 503 Z " />
<glyph glyph-name="eth" unicode="&#xf0;" horiz-adv-x="518" d="M197 612 L305 635 Q277 681 253 705 Q229 729 221 736 L302 758 Q318 746 340.5 719.5 Q363 693 386 653 L481 674 L491 632 L405 614 Q433 554 453 474.5 Q473 395 473 295 Q473 143 418.5 66.5 Q364 -10 261 -10 Q210 -10 169 8.5 Q128 27 99.5 61.5 Q71 96 55.5 144 Q40 192 40 252 Q40 311 55 357.5 Q70 404 97 436.5 Q124 469 161 486 Q198 503 241 503 Q288 503 320 488 Q352 473 372 453 Q363 496 350.5 531.5 Q338 567 324 596 L207 570 L197 612 Z M383 387 Q376 394 364.5 404.5 Q353 415 337 424 Q321 433 301 439.5 Q281 446 258 446 Q223 446 199 432 Q175 418 160.5 392.5 Q146 367 139.5 331 Q133 295 133 252 Q133 208 139.5 170 Q146 132 161 103 Q176 74 200.5 57.5 Q225 41 261 41 Q297 41 321.5 58 Q346 75 361 105.5 Q376 136 382.5 179 Q389 222 389 274 Q389 306 387.5 333.5 Q386 361 383 387 Z " />
<glyph glyph-name="thorn" unicode="&#xfe;" horiz-adv-x="529" d="M68 750 L152 750 L152 446 Q163 458 177 469.5 Q191 481 209 491 Q227 501 248.5 507 Q270 513 296 513 Q341 513 377 494 Q413 475 438 440.5 Q463 406 476 358.5 Q489 311 489 255 Q489 198 475 149.5 Q461 101 435 65.5 Q409 30 372 10 Q335 -10 289 -10 Q248 -10 213 5 Q178 20 152 43 L152 -183 L68 -183 L68 750 Z M152 108 Q169 84 201 65.5 Q233 47 273 47 Q336 47 365.5 99 Q395 151 395 250 Q395 350 365.5 401.5 Q336 453 276 453 Q237 453 204.5 431.5 Q172 410 152 381 L152 108 Z " />
<glyph glyph-name="longs" unicode="&#x17f;" horiz-adv-x="308" d="M97 449 L18 449 L18 503 L97 503 L97 587 Q97 681 136 720.5 Q175 760 247 760 Q267 760 281.5 757.5 Q296 755 301 753 L301 693 Q293 698 277 701.5 Q261 705 246 705 Q234 705 222.5 702 Q211 699 201.5 690.5 Q192 682 186.5 665.5 Q181 649 181 622 L181 0 L97 0 L97 449 Z " />
<glyph glyph-name="ff" unicode="&#xfb00;" horiz-adv-x="581" d="M97 449 L18 449 L18 503 L97 503 L97 577 Q97 671 136 710.5 Q175 750 247 750 Q267 750 281.5 747.5 Q296 745 301 743 L301 683 Q293 688 277 691.5 Q261 695 246 695 Q234 695 222.5 692 Q211 689 201.5 680.5 Q192 672 186.5 655.5 Q181 639 181 612 L181 503 L370 503 L370 587 Q370 681 409 720.5 Q448 760 520 760 Q540 760 555 757.5 Q570 755 575 753 L575 693 Q567 698 550.5 701.5 Q534 705 519 705 Q507 705 495.5 702 Q484 699 474.5 690.5 Q465 682 459.5 665.5 Q454 649 454 622 L454 503 L566 503 L566 449 L454 449 L454 0 L370 0 L370 449 L181 449 L181 0 L97 0 L97 449 Z " />
<glyph glyph-name="fi" unicode="&#xfb01;" horiz-adv-x="522" d="M97 449 L18 449 L18 503 L97 503 L97 587 Q97 681 136 720.5 Q175 760 247 760 Q267 760 281.5 757.5 Q296 755 301 753 L301 693 Q293 698 277 701.5 Q261 705 246 705 Q234 705 222.5 702 Q211 699 201.5 690.5 Q192 682 186.5 665.5 Q181 649 181 622 L181 503 L454 503 L454 0 L370 0 L370 449 L181 449 L181 0 L97 0 L97 449 Z M370 700 L454 700 L454 613 L370 613 L370 700 Z " />
<glyph glyph-name="ffi" unicode="&#xfb03;" horiz-adv-x="795" d="M97 449 L18 449 L18 503 L97 503 L97 577 Q97 671 136 710.5 Q175 750 247 750 Q267 750 281.5 747.5 Q296 745 301 743 L301 683 Q293 688 277 691.5 Q261 695 246 695 Q234 695 222.5 692 Q211 689 201.5 680.5 Q192 672 186.5 655.5 Q181 639 181 612 L181 503 L370 503 L370 587 Q370 681 409 720.5 Q448 760 520 760 Q540 760 555 757.5 Q570 755 575 753 L575 693 Q567 698 550.5 701.5 Q534 705 519 705 Q507 705 495.5 702 Q484 699 474.5 690.5 Q465 682 459.5 665.5 Q454 649 454 622 L454 503 L728 503 L728 0 L644 0 L644 449 L454 449 L454 0 L370 0 L370 449 L181 449 L181 0 L97 0 L97 449 Z M644 700 L728 700 L728 613 L644 613 L644 700 Z " />
<glyph glyph-name="fl" unicode="&#xfb02;" horiz-adv-x="522" d="M97 449 L18 449 L18 503 L97 503 L97 587 Q97 681 136 720.5 Q175 760 247 760 Q267 760 281.5 757.5 Q296 755 301 753 L301 693 Q293 698 277 701.5 Q261 705 246 705 Q234 705 222.5 702 Q211 699 201.5 690.5 Q192 682 186.5 665.5 Q181 649 181 622 L181 503 L293 503 L293 449 L181 449 L181 0 L97 0 L97 449 Z M370 750 L454 750 L454 0 L370 0 L370 750 Z " />
<glyph glyph-name="ffl" unicode="&#xfb04;" horiz-adv-x="795" d="M97 450 L18 450 L18 503 L97 503 L97 577 Q97 671 136.5 710.5 Q176 750 249 750 Q269 750 283.5 747.5 Q298 745 303 743 L303 683 Q293 689 277 692 Q261 695 247 695 Q218 695 199.5 679 Q181 663 181 612 L181 503 L370 503 L370 587 Q370 681 409.5 720.5 Q449 760 523 760 Q543 760 557 757.5 Q571 755 577 753 L577 693 Q568 699 551 702.5 Q534 706 520 706 Q492 706 473 689.5 Q454 673 454 622 L454 503 L567 503 L567 450 L454 450 L454 0 L370 0 L370 450 L181 450 L181 0 L97 0 L97 450 Z M644 750 L728 750 L728 0 L644 0 L644 750 Z " />
<glyph glyph-name="ampersand" unicode="&#x26;" horiz-adv-x="682" d="M503 77 Q465 38 409.5 14 Q354 -10 280 -10 Q170 -10 107.5 41 Q45 92 45 179 Q45 222 60 254.5 Q75 287 100.5 311 Q126 335 158.5 353 Q191 371 226 386 L198 418 Q166 455 150 489 Q134 523 134 563 Q134 626 181 668 Q228 710 319 710 Q364 710 399 698.5 Q434 687 458 667 Q482 647 495 619.5 Q508 592 508 559 Q508 524 494.5 497.5 Q481 471 458 450.5 Q435 430 404.5 413.5 Q374 397 340 382 L501 204 Q520 255 525 312 L606 287 Q599 250 586 212 Q573 174 553 142 L680 0 L576 0 L503 77 Z M259 347 Q241 339 220 325.5 Q199 312 182 292.5 Q165 273 153.5 246.5 Q142 220 142 185 Q142 150 153.5 124.5 Q165 99 186 82 Q207 65 235.5 56.5 Q264 48 298 48 Q350 48 392 69 Q434 90 462 125 L259 347 Z M309 420 Q344 436 366 452.5 Q388 469 400.5 486 Q413 503 417.5 520.5 Q422 538 422 556 Q422 597 396.5 626.5 Q371 656 314 656 Q269 656 245.5 633 Q222 610 222 574 Q222 542 239.5 511 Q257 480 286 446 L309 420 Z " />
<glyph glyph-name="grave" unicode="&#x60;" horiz-adv-x="311" d="M159 723 L258 586 L194 586 L54 723 L159 723 Z " />
<glyph glyph-name="acute" unicode="&#xb4;" horiz-adv-x="311" d="M153 723 L258 723 L117 586 L54 586 L153 723 Z " />
<glyph glyph-name="circumflex" unicode="&#x2c6;" horiz-adv-x="372" d="M133 723 L238 723 L318 586 L264 586 L187 675 L185 675 L108 586 L54 586 L133 723 Z " />
<glyph glyph-name="caron" unicode="&#x2c7;" horiz-adv-x="372" d="M54 723 L108 723 L185 634 L187 634 L264 723 L318 723 L238 586 L133 586 L54 723 Z " />
<glyph glyph-name="commaaccent" unicode="&#xf6c3;" horiz-adv-x="202" d="M96 -145 L54 -145 L54 -58 L149 -58 L149 -140 L100 -233 L52 -233 L96 -145 Z " />
<glyph glyph-name="tilde" unicode="&#x2dc;" horiz-adv-x="405" d="M54 608 Q55 625 60 642 Q65 659 75 672 Q85 685 100 693 Q115 701 137 701 Q155 701 172 696 Q189 691 205 684.5 Q221 678 236 673 Q251 668 266 668 Q280 668 286.5 675 Q293 682 296 699 L351 699 Q346 660 328 631.5 Q310 603 275 603 Q258 603 240.5 608.5 Q223 614 205.5 621 Q188 628 172 633.5 Q156 639 142 639 Q126 639 118.5 632 Q111 625 107 608 L54 608 Z " />
<glyph glyph-name="dieresis" unicode="&#xa8;" horiz-adv-x="366" d="M54 696 L141 696 L141 608 L54 608 L54 696 Z M225 696 L312 696 L312 608 L225 608 L225 696 Z " />
<glyph glyph-name="macron" unicode="&#xaf;" horiz-adv-x="384" d="M54 678 L331 678 L331 620 L54 620 L54 678 Z " />
<glyph glyph-name="breve" unicode="&#x2d8;" horiz-adv-x="359" d="M101 709 Q106 686 125 667.5 Q144 649 180 649 Q215 649 234.5 667.5 Q254 686 259 709 L305 709 Q303 686 295 664 Q287 642 272 625 Q257 608 234 598 Q211 588 180 588 Q148 588 125 598 Q102 608 87 624.5 Q72 641 64 663 Q56 685 54 709 L101 709 Z " />
<glyph glyph-name="ring" unicode="&#x2da;" horiz-adv-x="302" d="M43 671 Q43 694 51.5 713 Q60 732 75 745.5 Q90 759 109.5 766.5 Q129 774 151 774 Q173 774 192.5 766.5 Q212 759 227 745.5 Q242 732 250.5 713 Q259 694 259 671 Q259 648 250.5 629.5 Q242 611 227 597.5 Q212 584 192.5 576.5 Q173 569 151 569 Q129 569 109.5 576.5 Q90 584 75 597.5 Q60 611 51.5 629.5 Q43 648 43 671 Z M151 609 Q180 609 196 627 Q212 645 212 671 Q212 697 196 715.5 Q180 734 151 734 Q122 734 106.5 715.5 Q91 697 91 671 Q91 645 106.5 627 Q122 609 151 609 Z " />
<glyph glyph-name="hungarumlaut" unicode="&#x2dd;" horiz-adv-x="399" d="M108 723 L194 723 L108 586 L54 586 L108 723 Z M259 723 L345 723 L259 586 L205 586 L259 723 Z " />
<glyph glyph-name="dotaccent" unicode="&#x2d9;" horiz-adv-x="192" d="M54 700 L138 700 L138 613 L54 613 L54 700 Z " />
<glyph glyph-name="cedilla" unicode="&#xb8;" horiz-adv-x="298" d="M68 -140 Q76 -147 93 -151.5 Q110 -156 128 -156 Q150 -156 158 -146.5 Q166 -137 166 -124 Q166 -111 157.5 -102.5 Q149 -94 137 -89 Q125 -84 111.5 -82 Q98 -80 88 -80 L119 11 L160 11 L139 -43 Q189 -51 212 -72 Q235 -93 235 -125 Q235 -154 213.5 -175.5 Q192 -197 146 -197 Q117 -197 93 -190 Q69 -183 55 -171 L68 -140 Z " />
<glyph glyph-name="ogonek" unicode="&#x2db;" horiz-adv-x="291" d="M235 -152 Q219 -170 195.5 -184 Q172 -198 137 -198 Q95 -198 73 -179 Q51 -160 51 -126 Q51 -88 84.5 -43.5 Q118 1 199 41 L218 23 Q173 -11 146.5 -44.5 Q120 -78 120 -113 Q120 -129 130 -138.5 Q140 -148 159 -148 Q175 -148 190 -142 Q205 -136 216 -128 L235 -152 Z " />
<glyph glyph-name="comma" unicode="&#x2c;" horiz-adv-x="239" d="M115 0 L68 0 L68 98 L170 98 L170 4 L118 -104 L72 -104 L115 0 Z " />
<glyph glyph-name="semicolon" unicode="&#x3b;" horiz-adv-x="239" d="M115 0 L68 0 L68 98 L170 98 L170 4 L118 -104 L72 -104 L115 0 Z M74 455 L166 455 L166 357 L74 357 L74 455 Z " />
<glyph glyph-name="colon" unicode="&#x3a;" horiz-adv-x="228" d="M68 98 L160 98 L160 0 L68 0 L68 98 Z M68 455 L160 455 L160 357 L68 357 L68 455 Z " />
<glyph glyph-name="period" unicode="&#x2e;" horiz-adv-x="228" d="M68 98 L160 98 L160 0 L68 0 L68 98 Z " />
<glyph glyph-name="ellipsis" unicode="&#x2026;" horiz-adv-x="684" d="M68 98 L160 98 L160 0 L68 0 L68 98 Z M296 98 L388 98 L388 0 L296 0 L296 98 Z M524 98 L616 98 L616 0 L524 0 L524 98 Z " />
<glyph glyph-name="hyphen" unicode="&#x2d;" horiz-adv-x="344" d="M50 309 L294 309 L294 236 L50 236 L50 309 Z " />
<glyph glyph-name="exclam" unicode="&#x21;" horiz-adv-x="259" d="M80 700 L179 700 L161 184 L98 184 L80 700 Z M83 98 L176 98 L176 0 L83 0 L83 98 Z " />
<glyph glyph-name="exclamdown" unicode="&#xa1;" horiz-adv-x="248" d="M98 319 L161 319 L179 -197 L80 -197 L98 319 Z M83 503 L176 503 L176 405 L83 405 L83 503 Z " />
<glyph glyph-name="question" unicode="&#x3f;" horiz-adv-x="418" d="M180 186 Q179 209 178.5 223.5 Q178 238 177.5 247 Q177 256 177 260.5 Q177 265 177 270 Q177 298 182 318.5 Q187 339 196 356.5 Q205 374 216.5 390 Q228 406 242 426 Q254 443 266 460 Q278 477 288.5 494.5 Q299 512 305.5 531 Q312 550 312 570 Q312 603 289 629 Q266 655 214 655 Q182 655 160.5 645.5 Q139 636 124.5 621 Q110 606 101 588 Q92 570 87 554 L15 584 Q40 649 93 679.5 Q146 710 219 710 Q268 710 302.5 697.5 Q337 685 359 664 Q381 643 391 616.5 Q401 590 401 563 Q401 537 393 515.5 Q385 494 372.5 474.5 Q360 455 344.5 437 Q329 419 314 401 Q297 382 283.5 365.5 Q270 349 260.5 332 Q251 315 244.5 296.5 Q238 278 237 255 L232 186 L180 186 Z M160 98 L253 98 L253 0 L160 0 L160 98 Z " />
<glyph glyph-name="questiondown" unicode="&#xbf;" horiz-adv-x="405" d="M403 -81 Q378 -146 325 -176.5 Q272 -207 199 -207 Q150 -207 115.5 -194.5 Q81 -182 59 -161 Q37 -140 27 -113.5 Q17 -87 17 -60 Q17 -34 25 -12.5 Q33 9 45.5 28.5 Q58 48 73.5 66 Q89 84 104 102 Q120 121 134 137.5 Q148 154 157.5 171 Q167 188 173 206.5 Q179 225 181 248 L186 317 L238 317 Q239 294 239.5 279.5 Q240 265 240.5 256 Q241 247 241 242 Q241 237 241 233 Q241 205 236 184.5 Q231 164 222 146.5 Q213 129 201 112.5 Q189 96 176 77 Q164 60 152 43 Q140 26 129.5 8.5 Q119 -9 112.5 -28 Q106 -47 106 -67 Q106 -100 129 -126 Q152 -152 204 -152 Q235 -152 257 -142.5 Q279 -133 293.5 -118 Q308 -103 317 -85 Q326 -67 331 -51 L403 -81 Z M165 503 L258 503 L258 405 L165 405 L165 503 Z " />
<glyph glyph-name="quoteleft" unicode="&#x2018;" horiz-adv-x="207" d="M57 642 L105 750 L151 750 L113 646 L150 646 L150 548 L57 548 L57 642 Z " />
<glyph glyph-name="quoteright" unicode="&#x2019;" horiz-adv-x="207" d="M93 652 L57 652 L57 750 L150 750 L150 656 L102 548 L55 548 L93 652 Z " />
<glyph glyph-name="quotedblleft" unicode="&#x201c;" horiz-adv-x="367" d="M217 642 L265 750 L312 750 L274 646 L310 646 L310 548 L217 548 L217 642 Z M57 642 L105 750 L151 750 L113 646 L150 646 L150 548 L57 548 L57 642 Z " />
<glyph glyph-name="quotedblright" unicode="&#x201d;" horiz-adv-x="367" d="M93 652 L57 652 L57 750 L150 750 L150 656 L102 548 L55 548 L93 652 Z M254 652 L217 652 L217 750 L310 750 L310 656 L262 548 L216 548 L254 652 Z " />
<glyph glyph-name="quotesinglbase" unicode="&#x201a;" horiz-adv-x="207" d="M93 0 L57 0 L57 98 L150 98 L150 4 L102 -104 L55 -104 L93 0 Z " />
<glyph glyph-name="quotedblbase" unicode="&#x201e;" horiz-adv-x="367" d="M93 0 L57 0 L57 98 L150 98 L150 4 L102 -104 L55 -104 L93 0 Z M254 0 L217 0 L217 98 L310 98 L310 4 L262 -104 L216 -104 L254 0 Z " />
<glyph glyph-name="guilsinglleft" unicode="&#x2039;" horiz-adv-x="356" d="M58 264 L216 464 L298 464 L138 264 L298 70 L216 70 L58 264 Z " />
<glyph glyph-name="guilsinglright" unicode="&#x203a;" horiz-adv-x="356" d="M218 264 L58 464 L140 464 L298 264 L140 70 L58 70 L218 264 Z " />
<glyph glyph-name="guillemotleft" unicode="&#xab;" horiz-adv-x="546" d="M58 264 L216 464 L298 464 L138 264 L298 70 L216 70 L58 264 Z M248 264 L406 464 L488 464 L328 264 L488 70 L406 70 L248 264 Z " />
<glyph glyph-name="guillemotright" unicode="&#xbb;" horiz-adv-x="546" d="M408 264 L248 464 L330 464 L488 264 L330 70 L248 70 L408 264 Z M218 264 L58 464 L140 464 L298 264 L140 70 L58 70 L218 264 Z " />
<glyph glyph-name="slash" unicode="&#x2f;" horiz-adv-x="349" d="M243 750 L309 750 L106 -97 L40 -97 L243 750 Z " />
<glyph glyph-name="bar" unicode="&#x7c;" horiz-adv-x="224" d="M80 750 L144 750 L144 -184 L80 -184 L80 750 Z " />
<glyph glyph-name="endash" unicode="&#x2013;" horiz-adv-x="572" d="M39 309 L533 309 L533 246 L39 246 L39 309 Z " />
<glyph glyph-name="emdash" unicode="&#x2014;" horiz-adv-x="788" d="M39 309 L749 309 L749 246 L39 246 L39 309 Z " />
<glyph glyph-name="bullet" unicode="&#x2022;" horiz-adv-x="384" d="M60 314 Q60 341 70.5 365 Q81 389 99 407 Q117 425 141 435.5 Q165 446 192 446 Q219 446 243 435.5 Q267 425 285 407 Q303 389 313.5 365 Q324 341 324 314 Q324 287 313.5 263 Q303 239 285 221 Q267 203 243 192.5 Q219 182 192 182 Q165 182 141 192.5 Q117 203 99 221 Q81 239 70.5 263 Q60 287 60 314 Z " />
<glyph glyph-name="periodcentered" unicode="&#xb7;" horiz-adv-x="228" d="M68 353 L160 353 L160 255 L68 255 L68 353 Z " />
<glyph glyph-name="parenleft" unicode="&#x28;" horiz-adv-x="309" d="M223 -164 Q189 -133 157.5 -89.5 Q126 -46 102 9 Q78 64 63.5 131 Q49 198 49 275 Q49 352 63 418 Q77 484 101 539 Q125 594 156.5 636.5 Q188 679 223 710 L279 710 Q239 664 212.5 611 Q186 558 170 502.5 Q154 447 147 390 Q140 333 140 279 Q140 225 147 167 Q154 109 170.5 51.5 Q187 -6 213.5 -61 Q240 -116 279 -164 L223 -164 Z " />
<glyph glyph-name="parenright" unicode="&#x29;" horiz-adv-x="309" d="M31 -164 Q70 -116 96.5 -61 Q123 -6 139.5 51.5 Q156 109 163 167 Q170 225 170 279 Q170 333 163 390 Q156 447 140 502.5 Q124 558 97 611 Q70 664 31 710 L87 710 Q121 679 152.5 636.5 Q184 594 208 539 Q232 484 246 418 Q260 352 260 275 Q260 198 245.5 131 Q231 64 207 9 Q183 -46 151.5 -89.5 Q120 -133 87 -164 L31 -164 Z " />
<glyph glyph-name="bracketleft" unicode="&#x5b;" horiz-adv-x="313" d="M69 710 L275 710 L275 664 L154 664 L154 -118 L277 -118 L277 -164 L69 -164 L69 710 Z " />
<glyph glyph-name="bracketright" unicode="&#x5d;" horiz-adv-x="313" d="M36 -118 L159 -118 L159 664 L38 664 L38 710 L244 710 L244 -164 L36 -164 L36 -118 Z " />
<glyph glyph-name="braceleft" unicode="&#x7b;" horiz-adv-x="303" d="M87 164 Q87 212 65.5 232.5 Q44 253 13 255 L13 291 Q44 293 65.5 313.5 Q87 334 87 382 L87 592 Q87 653 114 681.5 Q141 710 205 710 L268 710 L268 664 L218 664 Q189 664 180.5 647.5 Q172 631 172 597 L172 401 Q172 349 151 317.5 Q130 286 85 276 L85 270 Q130 260 151 228.5 Q172 197 172 145 L172 -51 Q172 -85 180.5 -101.5 Q189 -118 218 -118 L268 -118 L268 -164 L205 -164 Q141 -164 114 -135.5 Q87 -107 87 -46 L87 164 Z " />
<glyph glyph-name="braceright" unicode="&#x7d;" horiz-adv-x="303" d="M36 -118 L86 -118 Q115 -118 123.5 -101.5 Q132 -85 132 -51 L132 145 Q132 197 153 228.5 Q174 260 219 270 L219 276 Q174 286 153 317.5 Q132 349 132 401 L132 597 Q132 631 123.5 647.5 Q115 664 86 664 L36 664 L36 710 L98 710 Q163 710 190 681.5 Q217 653 217 592 L217 382 Q217 334 238.5 313.5 Q260 293 291 291 L291 255 Q260 253 238.5 232.5 Q217 212 217 164 L217 -46 Q217 -107 190 -135.5 Q163 -164 98 -164 L36 -164 L36 -118 Z " />
<glyph glyph-name="asterisk" unicode="&#x2a;" horiz-adv-x="395" d="M171 535 L35 550 L63 634 L181 568 L154 700 L241 700 L214 568 L333 634 L360 550 L225 535 L326 443 L255 392 L198 515 L141 392 L70 443 L171 535 Z " />
<glyph glyph-name="dagger" unicode="&#x2020;" horiz-adv-x="506" d="M213 0 L223 445 L30 436 L30 509 L223 500 L212 700 L294 700 L283 500 L476 509 L476 436 L283 445 L293 0 L253 -121 L213 0 Z " />
<glyph glyph-name="daggerdbl" unicode="&#x2021;" horiz-adv-x="506" d="M213 0 L218 238 L30 231 L30 304 L220 296 L223 445 L30 436 L30 509 L223 500 L212 700 L294 700 L283 500 L476 509 L476 436 L283 445 L286 296 L476 304 L476 231 L288 238 L293 0 L253 -121 L213 0 Z " />
<glyph glyph-name="section" unicode="&#xa7;" horiz-adv-x="471" d="M115 -24 Q119 -33 128 -45 Q137 -57 152 -68 Q167 -79 188 -87 Q209 -95 237 -95 Q278 -95 302.5 -76.5 Q327 -58 327 -22 Q327 13 305 36.5 Q283 60 250.5 78.5 Q218 97 179.5 114.5 Q141 132 108.5 154.5 Q76 177 54 208.5 Q32 240 32 287 Q32 339 61 377.5 Q90 416 138 437 Q108 458 89 487 Q70 516 70 560 Q70 627 118.5 668.5 Q167 710 250 710 Q290 710 319.5 701 Q349 692 370.5 679.5 Q392 667 405.5 653 Q419 639 426 629 L365 584 Q361 592 352.5 604 Q344 616 329.5 627.5 Q315 639 294 647 Q273 655 245 655 Q203 655 179 636.5 Q155 618 155 581 Q155 546 177 523 Q199 500 231.5 482 Q264 464 302.5 447.5 Q341 431 373.5 408 Q406 385 428 352.5 Q450 320 450 271 Q450 217 422 178.5 Q394 140 346 120 Q375 100 393.5 71.5 Q412 43 412 0 Q412 -67 363.5 -108.5 Q315 -150 232 -150 Q192 -150 162.5 -141 Q133 -132 111.5 -119.5 Q90 -107 76.5 -93 Q63 -79 56 -69 L115 -24 Z M311 143 Q334 158 349 183 Q364 208 364 243 Q364 280 346 305.5 Q328 331 299.5 350 Q271 369 237 384 Q203 399 171 417 Q148 402 133 377 Q118 352 118 318 Q118 280 136 254.5 Q154 229 182.5 210 Q211 191 245 176 Q279 161 311 143 Z " />
<glyph glyph-name="paragraph" unicode="&#xb6;" horiz-adv-x="526" d="M212 308 Q172 308 137 322 Q102 336 76 361.5 Q50 387 35 423.5 Q20 460 20 504 Q20 564 46 608.5 Q72 653 116 676 Q139 688 173 694 Q207 700 260 700 L516 700 L516 640 L455 640 L455 -184 L389 -184 L389 640 L278 640 L278 -184 L212 -184 L212 308 Z " />
<glyph glyph-name="asciicircum" unicode="&#x5e;" horiz-adv-x="510" d="M234 700 L279 700 L477 270 L405 270 L255 600 L105 270 L33 270 L234 700 Z " />
<glyph glyph-name="asciitilde" unicode="&#x7e;" horiz-adv-x="510" d="M30 333 Q49 359 77.5 377.5 Q106 396 152 396 Q179 396 205.5 386.5 Q232 377 258.5 365.5 Q285 354 312 344.5 Q339 335 368 335 Q394 335 412 346 Q430 357 446 380 L480 331 Q458 299 431.5 284 Q405 269 368 269 Q335 269 306 278.5 Q277 288 250.5 299.5 Q224 311 198 320.5 Q172 330 145 330 Q113 330 95 316 Q77 302 63 285 L30 333 Z " />
<glyph glyph-name="brokenbar" unicode="&#xa6;" horiz-adv-x="224" d="M80 750 L144 750 L144 356 L80 356 L80 750 Z M80 210 L144 210 L144 -184 L80 -184 L80 210 Z " />
<glyph glyph-name="backslash" unicode="&#x5c;" horiz-adv-x="389" d="M60 750 L126 750 L329 -97 L263 -97 L60 750 Z " />
<glyph glyph-name="underscore" unicode="&#x5f;" horiz-adv-x="472" d="M0 -91 L472 -91 L472 -152 L0 -152 L0 -91 Z " />
<glyph glyph-name="quotesingle" unicode="&#x27;" horiz-adv-x="201" d="M57 750 L144 750 L122 548 L80 548 L57 750 Z " />
<glyph glyph-name="quotedbl" unicode="&#x22;" horiz-adv-x="338" d="M57 750 L134 750 L117 548 L75 548 L57 750 Z M204 750 L281 750 L264 548 L222 548 L204 750 Z " />
<glyph glyph-name="at" unicode="&#x40;" horiz-adv-x="833" d="M515 355 Q511 376 494.5 394.5 Q478 413 446 413 Q416 413 391 395 Q366 377 348.5 346.5 Q331 316 321 275 Q311 234 311 189 Q311 127 328 99.5 Q345 72 372 72 Q394 72 414.5 87.5 Q435 103 452.5 132 Q470 161 483.5 201.5 Q497 242 505 292 L515 355 Z M575 -99 Q547 -117 503 -126.5 Q459 -136 408 -136 Q333 -136 267 -114 Q201 -92 151.5 -48 Q102 -4 73.5 62 Q45 128 45 217 Q45 306 74 380 Q103 454 155.5 507 Q208 560 280 589 Q352 618 438 618 Q514 618 579 595 Q644 572 691.5 529 Q739 486 766 426 Q793 366 793 291 Q793 237 778.5 188 Q764 139 737.5 101.5 Q711 64 673 42 Q635 20 588 20 Q541 20 519.5 45 Q498 70 498 126 L496 126 Q472 81 437 51.5 Q402 22 351 22 Q293 22 261.5 64 Q230 106 230 186 Q230 241 245 290.5 Q260 340 287 377.5 Q314 415 351.5 437 Q389 459 435 459 Q473 459 495.5 444 Q518 429 531 405 L533 405 L547 451 L605 451 L572 219 Q567 184 563.5 153 Q560 122 560 109 Q560 65 600 65 Q625 65 647.5 82 Q670 99 686.5 128 Q703 157 712.5 196 Q722 235 722 280 Q722 341 703.5 393.5 Q685 446 649 484 Q613 522 560.5 544 Q508 566 440 566 Q364 566 305.5 539 Q247 512 207 465.5 Q167 419 146.5 356 Q126 293 126 220 Q126 152 144.5 96 Q163 40 200 -0.5 Q237 -41 292.5 -63 Q348 -85 423 -85 Q460 -85 494 -79 Q528 -73 556 -59 L575 -99 Z " />
<glyph glyph-name="copyright" unicode="&#xa9;" horiz-adv-x="776" d="M550 234 Q530 186 487.5 164.5 Q445 143 397 143 Q353 143 319 159 Q285 175 262 203 Q239 231 227 270 Q215 309 215 355 Q215 399 227 436 Q239 473 261.5 500 Q284 527 317.5 542.5 Q351 558 395 558 Q444 558 482.5 537.5 Q521 517 541 475 L477 451 Q464 476 445 494.5 Q426 513 395 513 Q351 513 321 475 Q291 437 291 355 Q291 310 300.5 278.5 Q310 247 325.5 227.5 Q341 208 360.5 199 Q380 190 400 190 Q440 190 459.5 210.5 Q479 231 490 256 L550 234 Z M388 -10 Q311 -10 245.5 16.5 Q180 43 132 91 Q84 139 57 205 Q30 271 30 350 Q30 429 57 495 Q84 561 132 609 Q180 657 245.5 683.5 Q311 710 388 710 Q465 710 530.5 683.5 Q596 657 644 609 Q692 561 719 495 Q746 429 746 350 Q746 271 719 205 Q692 139 644 91 Q596 43 530.5 16.5 Q465 -10 388 -10 Z M388 43 Q457 43 511.5 67 Q566 91 604.5 132.5 Q643 174 663.5 230 Q684 286 684 350 Q684 414 663.5 470 Q643 526 604.5 568 Q566 610 511 634 Q456 658 388 658 Q320 658 265 634 Q210 610 171.5 568.5 Q133 527 112.5 470.5 Q92 414 92 350 Q92 285 112.5 229 Q133 173 171.5 132 Q210 91 264.5 67 Q319 43 388 43 Z " />
<glyph glyph-name="registered" unicode="&#xae;" horiz-adv-x="579" d="M194 647 L284 647 Q316 647 337 640.5 Q358 634 371 623.5 Q384 613 389 599 Q394 585 394 570 Q394 540 380 522 Q366 504 342 497 L402 375 L337 375 L285 489 L254 489 L254 375 L194 375 L194 647 Z M280 522 Q309 522 320.5 534.5 Q332 547 332 567 Q332 587 321 600 Q310 613 281 613 L254 613 L254 522 L280 522 Z M289 259 Q236 259 190.5 277.5 Q145 296 111.5 329 Q78 362 59 408 Q40 454 40 509 Q40 564 59 610.5 Q78 657 111.5 690 Q145 723 190.5 741.5 Q236 760 289 760 Q343 760 388.5 741.5 Q434 723 467.5 690 Q501 657 520 610.5 Q539 564 539 509 Q539 454 520 408 Q501 362 467.5 329 Q434 296 388.5 277.5 Q343 259 289 259 Z M289 301 Q335 301 372.5 317.5 Q410 334 435.5 362 Q461 390 475 428 Q489 466 489 509 Q489 552 475 590.5 Q461 629 435.5 657 Q410 685 372.5 701.5 Q335 718 289 718 Q243 718 206 702 Q169 686 143.5 657.5 Q118 629 104 591 Q90 553 90 509 Q90 465 104 427.5 Q118 390 143.5 361.5 Q169 333 206 317 Q243 301 289 301 Z " />
<glyph glyph-name="trademark" unicode="&#x2122;" horiz-adv-x="748" d="M346 700 L440 700 L488 538 Q496 511 504 482 Q512 453 520 421 L523 421 Q531 456 539 484.5 Q547 513 555 541 L600 700 L698 700 L698 328 L629 328 L629 522 Q629 548 629 577 Q629 606 630 632 L627 632 Q620 606 612 578 Q604 550 596 524 L539 328 L487 328 L428 527 Q420 552 412.5 580.5 Q405 609 397 632 L394 632 Q395 606 395 579 Q395 552 395 526 L395 328 L346 328 L346 700 Z M128 658 L25 658 L25 700 L300 700 L300 658 L197 658 L197 328 L128 328 L128 658 Z " />
<glyph glyph-name="uni2117" unicode="&#x2117;" horiz-adv-x="776" d="M278 540 L399 540 Q441 540 469.5 530.5 Q498 521 514.5 504.5 Q531 488 538 467 Q545 446 545 424 Q545 404 539 383 Q533 362 516.5 344.5 Q500 327 471.5 316 Q443 305 399 305 L347 305 L347 148 L278 148 L278 540 Z M398 349 Q442 349 458.5 370.5 Q475 392 475 422 Q475 436 471.5 449.5 Q468 463 459 473.5 Q450 484 434.5 490.5 Q419 497 395 497 L347 497 L347 349 L398 349 Z M388 -10 Q311 -10 245.5 16.5 Q180 43 132 91 Q84 139 57 205 Q30 271 30 350 Q30 429 57 495 Q84 561 132 609 Q180 657 245.5 683.5 Q311 710 388 710 Q465 710 530.5 683.5 Q596 657 644 609 Q692 561 719 495 Q746 429 746 350 Q746 271 719 205 Q692 139 644 91 Q596 43 530.5 16.5 Q465 -10 388 -10 Z M388 43 Q457 43 511.5 67 Q566 91 604.5 132.5 Q643 174 663.5 230 Q684 286 684 350 Q684 414 663.5 470 Q643 526 604.5 568 Q566 610 511 634 Q456 658 388 658 Q320 658 265 634 Q210 610 171.5 568.5 Q133 527 112.5 470.5 Q92 414 92 350 Q92 285 112.5 229 Q133 173 171.5 132 Q210 91 264.5 67 Q319 43 388 43 Z " />
<glyph glyph-name="currency" unicode="&#xa4;" horiz-adv-x="681" d="M50 99 L153 202 Q117 258 117 348 Q117 440 156 499 L50 605 L87 642 L191 538 Q250 592 339 592 Q429 592 488 538 L593 642 L631 605 L525 498 Q544 469 554.5 430.5 Q565 392 565 347 Q565 302 555 265 Q545 228 528 199 L631 99 L593 60 L494 158 Q464 128 425.5 114 Q387 100 342 100 Q295 100 257 115 Q219 130 189 162 L87 60 L50 99 Z M343 150 Q410 150 452.5 199.5 Q495 249 495 345 Q495 437 454.5 489 Q414 541 342 541 Q270 541 227.5 490 Q185 439 185 348 Q185 299 197 262 Q209 225 230.5 200 Q252 175 281 162.5 Q310 150 343 150 Z " />
<glyph glyph-name="Euro" unicode="&#x20ac;" horiz-adv-x="557" d="M23 312 L97 312 L97 337 Q97 349 97 359.5 Q97 370 98 381 L23 381 L23 433 L103 433 Q121 548 182.5 613.5 Q244 679 347 679 Q419 679 465.5 646.5 Q512 614 535 563 L461 529 Q448 573 418 599 Q388 625 344 625 Q280 625 243.5 574 Q207 523 194 433 L443 433 L443 381 L190 381 Q189 370 189 359.5 Q189 349 189 338 L189 312 L443 312 L443 260 L192 260 Q203 162 241.5 103.5 Q280 45 347 45 Q387 45 417.5 70.5 Q448 96 466 147 L540 112 Q517 57 468.5 23.5 Q420 -10 345 -10 Q291 -10 249 9.5 Q207 29 176.5 64.5 Q146 100 127 149.5 Q108 199 101 260 L23 260 L23 312 Z " />
<glyph glyph-name="dollar" unicode="&#x24;" horiz-adv-x="501" d="M229 -10 Q175 -8 139 7 Q103 22 80.5 41.5 Q58 61 46.5 81.5 Q35 102 31 115 L100 156 Q105 141 114.5 123.5 Q124 106 139 90.5 Q154 75 176 63 Q198 51 229 48 L229 309 Q198 326 167.5 344.5 Q137 363 113 386 Q89 409 74 439 Q59 469 59 508 Q59 580 106 624.5 Q153 669 229 677 L229 760 L279 760 L279 678 Q321 675 351 663 Q381 651 401.5 635.5 Q422 620 433.5 603.5 Q445 587 450 575 L375 541 Q372 551 364.5 563 Q357 575 345.5 586.5 Q334 598 317.5 607.5 Q301 617 279 621 L279 382 Q310 364 341 344 Q372 324 396.5 299.5 Q421 275 436 244.5 Q451 214 451 174 Q451 98 405.5 49 Q360 0 279 -8 L279 -93 L229 -93 L229 -10 Z M279 50 Q317 58 340 83 Q363 108 363 153 Q363 195 338.5 224 Q314 253 279 277 L279 50 Z M229 622 Q184 614 164 588 Q144 562 144 526 Q144 489 168 462.5 Q192 436 229 413 L229 622 Z " />
<glyph glyph-name="cent" unicode="&#xa2;" horiz-adv-x="451" d="M223 -8 Q173 -2 138.5 22 Q104 46 82 81.5 Q60 117 50 161 Q40 205 40 253 Q40 301 50.5 345.5 Q61 390 83.5 425 Q106 460 140.5 482.5 Q175 505 223 511 L223 589 L274 589 L274 512 Q334 507 368.5 481.5 Q403 456 421 421 L348 389 Q338 413 320.5 432.5 Q303 452 274 460 L274 43 Q307 49 324.5 69 Q342 89 353 118 L424 82 Q417 68 404.5 53 Q392 38 374 25 Q356 12 331 2.5 Q306 -7 274 -9 L274 -93 L223 -93 L223 -8 Z M223 458 Q177 444 155 391.5 Q133 339 133 261 Q133 225 137.5 190.5 Q142 156 152.5 127.5 Q163 99 180.5 78 Q198 57 223 48 L223 458 Z " />
<glyph glyph-name="sterling" unicode="&#xa3;" horiz-adv-x="498" d="M60 71 Q114 104 142.5 139.5 Q171 175 171 225 Q171 252 163 275.5 Q155 299 144 322 L58 322 L58 375 L117 375 Q102 406 90 438 Q78 470 78 511 Q78 548 91 579 Q104 610 129 632 Q154 654 190 666.5 Q226 679 273 679 Q315 679 347 670 Q379 661 402 648.5 Q425 636 440 622.5 Q455 609 463 600 L402 551 Q397 560 386.5 572.5 Q376 585 359.5 596.5 Q343 608 320 616.5 Q297 625 266 625 Q160 625 160 517 Q160 476 172 442 Q184 408 199 375 L387 375 L387 322 L222 322 Q230 301 235.5 280.5 Q241 260 241 234 Q241 184 214 143.5 Q187 103 140 75 L140 73 L476 73 L476 0 L60 0 L60 71 Z " />
<glyph glyph-name="florin" unicode="&#x192;" horiz-adv-x="435" d="M-2 -115 Q8 -123 26 -126 Q44 -129 52 -129 Q67 -129 79.5 -125.5 Q92 -122 101.5 -111.5 Q111 -101 118 -82.5 Q125 -64 128 -35 L185 454 L90 454 L94 503 L189 503 L199 587 Q210 682 253 721 Q296 760 364 760 Q388 760 402.5 757.5 Q417 755 421 753 L416 692 Q411 696 403.5 698.5 Q396 701 388 702.5 Q380 704 372.5 704.5 Q365 705 361 705 Q346 705 334 701.5 Q322 698 312.5 688.5 Q303 679 296.5 660.5 Q290 642 286 612 L273 503 L385 503 L381 454 L267 454 L214 -11 Q209 -59 195 -91.5 Q181 -124 160 -144.5 Q139 -165 111 -174 Q83 -183 49 -183 Q26 -183 11 -180.5 Q-4 -178 -9 -176 L-2 -115 Z " />
<glyph glyph-name="yen" unicode="&#xa5;" horiz-adv-x="556" d="M47 225 L230 225 L230 296 L47 296 L47 348 L206 348 L43 668 L140 668 L285 370 L436 668 L513 668 L344 348 L507 348 L507 296 L319 296 L319 225 L507 225 L507 172 L319 172 L319 0 L230 0 L230 172 L47 172 L47 225 Z " />
<glyph glyph-name="ordfeminine" unicode="&#xaa;" horiz-adv-x="367" d="M250 422 Q227 400 202 386.5 Q177 373 144 373 Q99 373 72 399 Q45 425 45 471 Q45 501 58 523 Q71 545 96.5 561 Q122 577 159 588 Q196 599 244 608 L244 642 Q244 682 231 701.5 Q218 721 187 721 Q157 721 137 705 Q117 689 104 666 L55 699 Q60 707 70.5 717.5 Q81 728 97.5 737.5 Q114 747 136.5 753.5 Q159 760 189 760 Q258 760 286.5 724.5 Q315 689 315 629 L315 464 Q315 403 322 381 L258 381 L250 422 Z M244 573 Q217 568 194 561 Q171 554 154 543.5 Q137 533 127.5 517.5 Q118 502 118 480 Q118 451 132.5 435.5 Q147 420 170 420 Q193 420 212 432 Q231 444 244 459 L244 573 Z " />
<glyph glyph-name="ordmasculine" unicode="&#xba;" horiz-adv-x="406" d="M202 373 Q166 373 137 386.5 Q108 400 87.5 425.5 Q67 451 56 487 Q45 523 45 567 Q45 655 87.5 707.5 Q130 760 202 760 Q276 760 318.5 707.5 Q361 655 361 567 Q361 478 318.5 425.5 Q276 373 202 373 Z M202 412 Q225 412 240.5 424.5 Q256 437 265.5 458 Q275 479 279 507 Q283 535 283 567 Q283 598 279 626 Q275 654 265.5 675 Q256 696 240.5 708.5 Q225 721 202 721 Q179 721 164 708.5 Q149 696 139.5 675 Q130 654 126 626 Q122 598 122 567 Q122 535 126 507 Q130 479 139.5 458 Q149 437 164 424.5 Q179 412 202 412 Z " />
<glyph glyph-name="numbersign" unicode="&#x23;" horiz-adv-x="541" d="M128 225 L15 225 L21 274 L134 274 L153 426 L40 426 L46 475 L159 475 L186 700 L241 700 L214 475 L358 475 L385 700 L440 700 L413 475 L526 475 L520 426 L407 426 L388 274 L501 274 L495 225 L382 225 L355 0 L300 0 L327 225 L183 225 L156 0 L101 0 L128 225 Z M333 274 L352 426 L208 426 L189 274 L333 274 Z " />
<glyph glyph-name="zero" unicode="0" horiz-adv-x="520" d="M260 -10 Q201 -10 157 15.5 Q113 41 84 87 Q55 133 40.5 196.5 Q26 260 26 337 Q26 413 40.5 476 Q55 539 84 584 Q113 629 157 654 Q201 679 260 679 Q319 679 363 654 Q407 629 436.5 584 Q466 539 480.5 475.5 Q495 412 495 336 Q495 259 480.5 195.5 Q466 132 436.5 86.5 Q407 41 363 15.5 Q319 -10 260 -10 Z M260 45 Q301 45 328 69 Q355 93 370.5 133.5 Q386 174 392 227 Q398 280 398 337 Q398 392 392 444 Q386 496 371 536 Q356 576 329 600 Q302 624 260 624 Q219 624 192 600 Q165 576 149.5 535.5 Q134 495 128 443 Q122 391 122 335 Q122 279 128 227 Q134 175 149.5 134.5 Q165 94 191.5 69.5 Q218 45 260 45 Z " />
<glyph glyph-name="one" unicode="1" horiz-adv-x="520" d="M120 54 L233 54 L233 584 L103 584 L103 620 L295 668 L317 668 L317 54 L422 54 L422 0 L120 0 L120 54 Z " />
<glyph glyph-name="two" unicode="2" horiz-adv-x="520" d="M35 68 Q89 110 147.5 160 Q206 210 255 265.5 Q304 321 336 380.5 Q368 440 368 502 Q368 561 335.5 592.5 Q303 624 249 624 Q194 624 160 593.5 Q126 563 108 516 L39 556 Q62 613 116.5 646 Q171 679 252 679 Q352 679 405 630.5 Q458 582 458 501 Q458 436 425 375 Q392 314 342.5 259.5 Q293 205 234 159 Q175 113 123 77 L123 73 L469 73 L469 0 L35 0 L35 68 Z " />
<glyph glyph-name="three" unicode="3" horiz-adv-x="520" d="M94 135 Q100 119 112 102.5 Q124 86 141.5 73 Q159 60 182 51.5 Q205 43 234 43 Q262 43 286.5 50.5 Q311 58 329 74 Q347 90 357.5 115.5 Q368 141 368 176 Q368 222 349.5 251 Q331 280 301.5 296.5 Q272 313 234.5 319.5 Q197 326 158 326 L158 384 Q191 386 225 392.5 Q259 399 287 414.5 Q315 430 332.5 456 Q350 482 350 522 Q350 576 319 600 Q288 624 236 624 Q183 624 152.5 600.5 Q122 577 104 546 L42 589 Q67 625 114 652 Q161 679 236 679 Q329 679 384 639.5 Q439 600 439 526 Q439 462 398 422 Q357 382 286 363 L286 361 Q321 355 352 342 Q383 329 406.5 307.5 Q430 286 444 255.5 Q458 225 458 185 Q458 138 441.5 101.5 Q425 65 395.5 40.5 Q366 16 326 3 Q286 -10 239 -10 Q159 -10 108 18.5 Q57 47 29 92 L94 135 Z " />
<glyph glyph-name="four" unicode="4" horiz-adv-x="520" d="M15 224 L321 668 L408 668 L408 227 L505 227 L505 169 L408 169 L408 0 L324 0 L324 169 L15 169 L15 224 Z M324 227 L324 357 Q324 390 325 427 Q326 464 327 497 Q328 530 329 555.5 Q330 581 331 590 L328 590 Q324 582 314.5 566.5 Q305 551 292.5 531.5 Q280 512 265.5 490 Q251 468 236 446 L84 227 L324 227 Z " />
<glyph glyph-name="five" unicode="5" horiz-adv-x="520" d="M103 139 Q111 120 123.5 103 Q136 86 153.5 72.5 Q171 59 194 51 Q217 43 246 43 Q318 43 353.5 87.5 Q389 132 389 207 Q389 282 354.5 325.5 Q320 369 251 369 Q203 369 170 349.5 Q137 330 120 305 L67 305 L96 668 L441 668 L441 596 L148 596 L131 382 Q148 397 181 413 Q214 429 271 429 Q315 429 353.5 414.5 Q392 400 420.5 372.5 Q449 345 465 306 Q481 267 481 218 Q481 168 466 126 Q451 84 421 54 Q391 24 346.5 7 Q302 -10 244 -10 Q202 -10 168 -1 Q134 8 108 22.5 Q82 37 63.5 55.5 Q45 74 35 94 L103 139 Z " />
<glyph glyph-name="six" unicode="6" horiz-adv-x="520" d="M406 555 Q402 563 394 574.5 Q386 586 372.5 597 Q359 608 339.5 616 Q320 624 295 624 Q253 624 223 601.5 Q193 579 173.5 541 Q154 503 144.5 451 Q135 399 134 341 Q155 370 193.5 390 Q232 410 289 410 Q331 410 368 396.5 Q405 383 432.5 357 Q460 331 476.5 293 Q493 255 493 206 Q493 159 478 119.5 Q463 80 435 51.5 Q407 23 368.5 6.5 Q330 -10 282 -10 Q233 -10 189.5 9 Q146 28 113.5 69 Q81 110 62 174 Q43 238 43 327 Q43 417 62.5 483 Q82 549 117 592.5 Q152 636 200 657.5 Q248 679 305 679 Q340 679 368 671 Q396 663 417 651 Q438 639 451.5 624.5 Q465 610 473 596 L406 555 Z M135 278 Q138 225 147.5 182 Q157 139 175 108.5 Q193 78 219.5 61.5 Q246 45 283 45 Q315 45 337.5 57.5 Q360 70 374.5 91 Q389 112 396 139.5 Q403 167 403 198 Q403 229 395.5 257 Q388 285 372.5 306.5 Q357 328 332 340.5 Q307 353 272 353 Q221 353 186.5 330 Q152 307 135 278 Z " />
<glyph glyph-name="seven" unicode="7" horiz-adv-x="520" d="M402 596 L52 596 L52 668 L469 668 L469 604 L224 0 L132 0 L402 596 Z " />
<glyph glyph-name="eight" unicode="8" horiz-adv-x="520" d="M187 356 Q131 381 96.5 421 Q62 461 62 518 Q62 554 77 583.5 Q92 613 118 634.5 Q144 656 180.5 667.5 Q217 679 261 679 Q305 679 341.5 668 Q378 657 404.5 636 Q431 615 445.5 585 Q460 555 460 517 Q460 487 449.5 461.5 Q439 436 422 416 Q405 396 382.5 380 Q360 364 335 354 Q364 343 391.5 328 Q419 313 440 292 Q461 271 474 243 Q487 215 487 179 Q487 137 470.5 102 Q454 67 424.5 42 Q395 17 353.5 3.5 Q312 -10 261 -10 Q208 -10 166 4 Q124 18 95 42.5 Q66 67 50 102 Q34 137 34 179 Q34 214 45.5 241.5 Q57 269 77.5 290.5 Q98 312 126 328 Q154 344 187 356 Z M243 334 Q180 311 152 273.5 Q124 236 124 185 Q124 156 132 130 Q140 104 157.5 85 Q175 66 201.5 55 Q228 44 264 44 Q324 44 359.5 81 Q395 118 395 178 Q395 233 358 270.5 Q321 308 243 334 Z M272 379 Q326 397 351.5 433 Q377 469 377 514 Q377 562 348.5 593.5 Q320 625 262 625 Q203 625 174.5 594.5 Q146 564 146 519 Q146 477 176 439.5 Q206 402 272 379 Z " />
<glyph glyph-name="nine" unicode="9" horiz-adv-x="520" d="M102 120 Q107 110 116 97 Q125 84 139.5 72.5 Q154 61 174 53 Q194 45 221 45 Q265 45 295.5 65 Q326 85 345 120 Q364 155 373.5 204 Q383 253 385 311 Q365 288 327 270.5 Q289 253 240 253 Q194 253 155 267.5 Q116 282 87.5 309 Q59 336 43 374.5 Q27 413 27 462 Q27 509 41.5 548.5 Q56 588 83 617 Q110 646 149 662.5 Q188 679 238 679 Q287 679 331 660 Q375 641 407 600 Q439 559 458 495 Q477 431 477 341 Q477 251 457.5 184.5 Q438 118 403 75 Q368 32 319.5 11 Q271 -10 213 -10 Q175 -10 146.5 -2 Q118 6 96.5 18 Q75 30 60 45 Q45 60 36 74 L102 120 Z M385 371 Q383 428 373.5 474.5 Q364 521 346 554.5 Q328 588 301 606 Q274 624 236 624 Q204 624 181.5 611.5 Q159 599 144.5 577.5 Q130 556 123.5 528 Q117 500 117 469 Q117 438 124 409.5 Q131 381 146.5 359 Q162 337 188 323.5 Q214 310 253 310 Q298 310 333 328.5 Q368 347 385 371 Z " />
<glyph glyph-name="zero.superior" unicode="&#x2070;" horiz-adv-x="399" d="M201 296 Q158 296 126.5 310 Q95 324 74.5 349.5 Q54 375 44 410.5 Q34 446 34 488 Q34 530 44 565.5 Q54 601 74.5 626 Q95 651 126 665 Q157 679 199 679 Q241 679 272.5 665 Q304 651 324.5 625.5 Q345 600 355 565 Q365 530 365 487 Q365 445 355 409.5 Q345 374 324.5 349 Q304 324 273 310 Q242 296 201 296 Z M201 336 Q225 336 240.5 348.5 Q256 361 265 382 Q274 403 277.5 430.5 Q281 458 281 488 Q281 518 278 545 Q275 572 266 593 Q257 614 241.5 626.5 Q226 639 201 639 Q176 639 159.5 626.5 Q143 614 133.5 593 Q124 572 120.5 545 Q117 518 117 488 Q117 458 120.5 430.5 Q124 403 133.5 382 Q143 361 159 348.5 Q175 336 201 336 Z " />
<glyph glyph-name="one.superior" unicode="&#xb9;" horiz-adv-x="301" d="M55 340 L121 340 L121 618 L44 618 L44 647 L162 673 L195 673 L195 340 L257 340 L257 302 L55 302 L55 340 Z " />
<glyph glyph-name="two.superior" unicode="&#xb2;" horiz-adv-x="364" d="M35 354 Q68 376 105 400 Q142 424 174 452 Q206 480 227 511 Q248 542 248 577 Q248 606 228 621 Q208 636 179 636 Q144 636 127 620 Q110 604 99 578 L34 600 Q52 636 88.5 657.5 Q125 679 179 679 Q251 679 289 649 Q327 619 327 569 Q327 533 305.5 503 Q284 473 252 447.5 Q220 422 182.5 401 Q145 380 113 363 L113 361 L332 361 L332 302 L35 302 L35 354 Z " />
<glyph glyph-name="three.superior" unicode="&#xb3;" horiz-adv-x="361" d="M88 383 Q96 364 115 350 Q134 336 172 336 Q204 336 227.5 350.5 Q251 365 251 399 Q251 423 239.5 438 Q228 453 209 461.5 Q190 470 166.5 473 Q143 476 119 476 L119 515 Q139 516 160 519.5 Q181 523 198.5 531 Q216 539 227 552 Q238 565 238 586 Q238 613 220 625.5 Q202 638 171 638 Q137 638 122 625 Q107 612 98 596 L36 615 Q50 641 84 660 Q118 679 171 679 Q237 679 275.5 655 Q314 631 314 589 Q314 554 285.5 531.5 Q257 509 207 500 L207 498 Q231 495 253 488 Q275 481 291.5 469.5 Q308 458 317.5 441 Q327 424 327 402 Q327 350 285 323 Q243 296 172 296 Q118 296 81.5 313.5 Q45 331 24 361 L88 383 Z " />
<glyph glyph-name="four.superior" unicode="&#x2074;" horiz-adv-x="395" d="M25 428 L226 673 L300 673 L300 430 L361 430 L361 391 L300 391 L300 302 L227 302 L227 391 L25 391 L25 428 Z M227 430 L227 463 Q227 516 228 554 Q229 592 231 613 L229 613 Q216 593 197.5 571.5 Q179 550 151 516 L80 430 L227 430 Z " />
<glyph glyph-name="five.superior" unicode="&#x2075;" horiz-adv-x="376" d="M91 386 Q102 364 123 350 Q144 336 182 336 Q224 336 244.5 357.5 Q265 379 265 417 Q265 455 244 477.5 Q223 500 181 500 Q152 500 130 491 Q108 482 97 468 L56 468 L76 673 L315 673 L315 614 L114 614 L104 516 Q114 524 136 532 Q158 540 197 540 Q262 540 302.5 510 Q343 480 343 423 Q343 366 301 331 Q259 296 183 296 Q152 296 128.5 302 Q105 308 87 318 Q69 328 56 339.5 Q43 351 34 363 L91 386 Z " />
<glyph glyph-name="six.superior" unicode="&#x2076;" horiz-adv-x="384" d="M277 597 Q275 601 270 608 Q265 615 256 622 Q247 629 234 633.5 Q221 638 203 638 Q156 638 135.5 599.5 Q115 561 113 502 Q128 513 152.5 523 Q177 533 213 533 Q241 533 266 525.5 Q291 518 310 503.5 Q329 489 339.5 467.5 Q350 446 350 419 Q350 392 339 369.5 Q328 347 308 330.5 Q288 314 261 305 Q234 296 201 296 Q167 296 136.5 306.5 Q106 317 83.5 339.5 Q61 362 47.5 398 Q34 434 34 484 Q34 534 47.5 570.5 Q61 607 84.5 631 Q108 655 140 667 Q172 679 210 679 Q263 679 296 661 Q329 643 340 617 L277 597 Z M113 468 Q116 408 136.5 372 Q157 336 202 336 Q240 336 256.5 358 Q273 380 273 412 Q273 444 255 468.5 Q237 493 190 493 Q164 493 145 486 Q126 479 113 468 Z " />
<glyph glyph-name="seven.superior" unicode="&#x2077;" horiz-adv-x="354" d="M276 614 L28 614 L28 673 L331 673 L331 625 L163 302 L83 302 L276 614 Z " />
<glyph glyph-name="eight.superior" unicode="&#x2078;" horiz-adv-x="387" d="M133 499 Q93 513 72 533 Q51 553 51 585 Q51 606 61.5 623.5 Q72 641 91 653 Q110 665 136 672 Q162 679 193 679 Q255 679 295 654 Q335 629 335 587 Q335 554 312 533 Q289 512 251 500 Q270 493 288.5 484.5 Q307 476 321.5 464 Q336 452 344.5 436.5 Q353 421 353 401 Q353 354 309 325 Q265 296 193 296 Q121 296 77.5 325 Q34 354 34 401 Q34 441 62.5 463.5 Q91 486 133 499 Z M187 483 Q145 472 128.5 451.5 Q112 431 112 405 Q112 375 132 355.5 Q152 336 193 336 Q229 336 251.5 353 Q274 370 274 401 Q274 430 253.5 449.5 Q233 469 187 483 Z M196 515 Q231 525 246.5 543.5 Q262 562 262 585 Q262 609 244 624 Q226 639 194 639 Q162 639 144 624.5 Q126 610 126 588 Q126 565 142 546 Q158 527 196 515 Z " />
<glyph glyph-name="nine.superior" unicode="&#x2079;" horiz-adv-x="384" d="M106 378 Q108 373 113.5 366 Q119 359 128 352.5 Q137 346 150 341 Q163 336 181 336 Q228 336 248 373.5 Q268 411 270 471 Q255 458 231 450 Q207 442 170 442 Q142 442 117 449.5 Q92 457 73.5 471.5 Q55 486 44.5 507.5 Q34 529 34 556 Q34 583 45 605.5 Q56 628 75.5 644.5 Q95 661 123 670 Q151 679 184 679 Q218 679 248 668.5 Q278 658 300.5 635.5 Q323 613 336.5 577 Q350 541 350 491 Q350 441 336.5 404.5 Q323 368 299.5 344 Q276 320 243.5 308 Q211 296 173 296 Q121 296 88 314 Q55 332 44 358 L106 378 Z M269 508 Q267 569 247 604 Q227 639 182 639 Q144 639 127.5 617 Q111 595 111 563 Q111 531 129 507.5 Q147 484 194 484 Q220 484 239 490.5 Q258 497 269 508 Z " />
<glyph glyph-name="uni00A0" unicode="&#xa0;" horiz-adv-x="225" d="" />
<glyph glyph-name="fraction" unicode="&#x2044;" horiz-adv-x="178" d="M282 700 L348 700 L-103 0 L-169 0 L282 700 Z " />
<glyph glyph-name="onequarter" unicode="&#xbc;" horiz-adv-x="790" d="M63 340 L130 340 L130 618 L52 618 L52 647 L170 673 L203 673 L203 340 L265 340 L265 302 L63 302 L63 340 Z M426 126 L627 371 L701 371 L701 128 L762 128 L762 89 L701 89 L701 0 L627 0 L627 89 L426 89 L426 126 Z M627 128 L627 161 Q627 214 628.5 252 Q630 290 632 311 L630 311 Q617 292 598.5 270 Q580 248 551 214 L479 128 L627 128 Z M606 700 L672 700 L221 0 L154 0 L606 700 Z " />
<glyph glyph-name="onehalf" unicode="&#xbd;" horiz-adv-x="842" d="M63 340 L130 340 L130 618 L52 618 L52 647 L170 673 L203 673 L203 340 L265 340 L265 302 L63 302 L63 340 Z M606 700 L672 700 L221 0 L154 0 L606 700 Z M506 51 Q539 73 576 97.5 Q613 122 645 149.5 Q677 177 698 208.5 Q719 240 719 275 Q719 304 699 319 Q679 334 650 334 Q615 334 598 318 Q581 302 570 276 L504 298 Q523 334 559.5 355.5 Q596 377 650 377 Q722 377 760 347 Q798 317 798 268 Q798 232 776.5 201.5 Q755 171 723 145.5 Q691 120 653.5 99.5 Q616 79 584 61 L584 59 L803 59 L803 0 L506 0 L506 51 Z " />
<glyph glyph-name="threequarters" unicode="&#xbe;" horiz-adv-x="837" d="M94 383 Q102 364 121 350 Q140 336 177 336 Q210 336 233 350.5 Q256 365 256 399 Q256 423 244.5 438 Q233 453 214 461.5 Q195 470 171.5 473 Q148 476 124 476 L124 515 Q145 516 166 519.5 Q187 523 204.5 531 Q222 539 233 552 Q244 565 244 586 Q244 613 226 625.5 Q208 638 176 638 Q142 638 127.5 625 Q113 612 104 596 L41 615 Q55 641 89.5 660 Q124 679 177 679 Q242 679 280.5 655 Q319 631 319 589 Q319 554 290.5 531.5 Q262 509 212 500 L212 498 Q237 495 259 488 Q281 481 297.5 469.5 Q314 458 323.5 441 Q333 424 333 402 Q333 350 291 323 Q249 296 177 296 Q124 296 87.5 313.5 Q51 331 29 361 L94 383 Z M647 700 L714 700 L262 0 L196 0 L647 700 Z M472 126 L673 371 L747 371 L747 128 L808 128 L808 89 L747 89 L747 0 L673 0 L673 89 L472 89 L472 126 Z M673 128 L673 161 Q673 214 674.5 252 Q676 290 678 311 L676 311 Q663 292 644.5 270 Q626 248 597 214 L526 128 L673 128 Z " />
<glyph glyph-name="percent" unicode="&#x25;" horiz-adv-x="905" d="M215 343 Q174 343 141.5 357 Q109 371 86.5 396 Q64 421 52.5 455 Q41 489 41 529 Q41 568 53.5 601.5 Q66 635 88.5 659 Q111 683 143.5 696.5 Q176 710 215 710 Q254 710 286.5 696.5 Q319 683 342 659 Q365 635 377.5 601.5 Q390 568 390 528 Q390 488 377.5 454 Q365 420 342 395.5 Q319 371 286.5 357 Q254 343 215 343 Z M215 384 Q240 384 257.5 395 Q275 406 286.5 425.5 Q298 445 303 471.5 Q308 498 308 528 Q308 556 303 582 Q298 608 286.5 627.5 Q275 647 257.5 658.5 Q240 670 215 670 Q190 670 172.5 659 Q155 648 144.5 628.5 Q134 609 129 583 Q124 557 124 528 Q124 499 129 473 Q134 447 144.5 427 Q155 407 172.5 395.5 Q190 384 215 384 Z M689 -10 Q648 -10 615.5 4 Q583 18 560.5 43 Q538 68 526.5 102 Q515 136 515 175 Q515 215 527.5 248.5 Q540 282 562.5 306 Q585 330 617.5 343.5 Q650 357 689 357 Q728 357 760.5 343.5 Q793 330 816 306 Q839 282 851.5 248.5 Q864 215 864 175 Q864 135 851.5 101 Q839 67 816 42.5 Q793 18 760.5 4 Q728 -10 689 -10 Z M689 31 Q714 31 731.5 42 Q749 53 760.5 72.5 Q772 92 777 118.5 Q782 145 782 175 Q782 203 777 229 Q772 255 760.5 274.5 Q749 294 731.5 305.5 Q714 317 689 317 Q664 317 646.5 306 Q629 295 618 275.5 Q607 256 602 230 Q597 204 597 175 Q597 146 602 120 Q607 94 618 74 Q629 54 646.5 42.5 Q664 31 689 31 Z M643 700 L711 700 L261 0 L193 0 L643 700 Z " />
<glyph glyph-name="perthousand" unicode="&#x2030;" horiz-adv-x="1306" d="M215 343 Q174 343 141.5 357 Q109 371 86.5 396 Q64 421 52.5 455 Q41 489 41 529 Q41 568 53.5 601.5 Q66 635 88.5 659 Q111 683 143.5 696.5 Q176 710 215 710 Q254 710 286.5 696.5 Q319 683 342 659 Q365 635 377.5 601.5 Q390 568 390 528 Q390 488 377.5 454 Q365 420 342 395.5 Q319 371 286.5 357 Q254 343 215 343 Z M215 384 Q240 384 257.5 395 Q275 406 286.5 425.5 Q298 445 303 471.5 Q308 498 308 528 Q308 556 303 582 Q298 608 286.5 627.5 Q275 647 257.5 658.5 Q240 670 215 670 Q190 670 172.5 659 Q155 648 144.5 628.5 Q134 609 129 583 Q124 557 124 528 Q124 499 129 473 Q134 447 144.5 427 Q155 407 172.5 395.5 Q190 384 215 384 Z M689 -10 Q648 -10 615.5 4 Q583 18 560.5 43 Q538 68 526.5 102 Q515 136 515 175 Q515 215 527.5 248.5 Q540 282 562.5 306 Q585 330 617.5 343.5 Q650 357 689 357 Q728 357 760.5 343.5 Q793 330 816 306 Q839 282 851.5 248.5 Q864 215 864 175 Q864 135 851.5 101 Q839 67 816 42.5 Q793 18 760.5 4 Q728 -10 689 -10 Z M689 31 Q714 31 731.5 42 Q749 53 760.5 72.5 Q772 92 777 118.5 Q782 145 782 175 Q782 203 777 229 Q772 255 760.5 274.5 Q749 294 731.5 305.5 Q714 317 689 317 Q664 317 646.5 306 Q629 295 618 275.5 Q607 256 602 230 Q597 204 597 175 Q597 146 602 120 Q607 94 618 74 Q629 54 646.5 42.5 Q664 31 689 31 Z M643 700 L711 700 L261 0 L193 0 L643 700 Z M1090 -10 Q1049 -10 1016.5 4 Q984 18 961.5 43 Q939 68 927.5 102 Q916 136 916 175 Q916 215 928.5 248.5 Q941 282 963.5 306 Q986 330 1018 343.5 Q1050 357 1090 357 Q1129 357 1161.5 343.5 Q1194 330 1217 306 Q1240 282 1252.5 248.5 Q1265 215 1265 175 Q1265 135 1252.5 101 Q1240 67 1217 42.5 Q1194 18 1161.5 4 Q1129 -10 1090 -10 Z M1090 31 Q1115 31 1132.5 42 Q1150 53 1161 72.5 Q1172 92 1177 118.5 Q1182 145 1182 175 Q1182 203 1177 229 Q1172 255 1161 274.5 Q1150 294 1132.5 305.5 Q1115 317 1090 317 Q1065 317 1047.5 306 Q1030 295 1019 275.5 Q1008 256 1003 230 Q998 204 998 175 Q998 146 1003 120 Q1008 94 1019 74 Q1030 54 1047.5 42.5 Q1065 31 1090 31 Z " />
<glyph glyph-name="plus" unicode="&#x2b;" horiz-adv-x="510" d="M220 252 L35 252 L35 316 L220 316 L220 504 L290 504 L290 316 L475 316 L475 252 L290 252 L290 64 L220 64 L220 252 Z " />
<glyph glyph-name="minus" unicode="&#x2212;" horiz-adv-x="510" d="M35 306 L475 306 L475 242 L35 242 L35 306 Z " />
<glyph glyph-name="plusminus" unicode="&#xb1;" horiz-adv-x="510" d="M48 349 L220 349 L220 504 L290 504 L290 349 L462 349 L462 285 L290 285 L290 130 L220 130 L220 285 L48 285 L48 349 Z M48 80 L462 80 L462 16 L48 16 L48 80 Z " />
<glyph glyph-name="multiply" unicode="&#xd7;" horiz-adv-x="510" d="M70 134 L208 272 L68 412 L117 459 L256 320 L396 459 L440 414 L301 275 L442 134 L393 87 L253 227 L115 88 L70 134 Z " />
<glyph glyph-name="divide" unicode="&#xf7;" horiz-adv-x="510" d="M35 306 L475 306 L475 242 L35 242 L35 306 Z M201 439 Q201 462 216 477.5 Q231 493 254 493 Q277 493 292.5 477.5 Q308 462 308 439 Q308 416 292.5 401 Q277 386 254 386 Q231 386 216 401 Q201 416 201 439 Z M201 108 Q201 131 216 146.5 Q231 162 254 162 Q277 162 292.5 146.5 Q308 131 308 108 Q308 85 292.5 70 Q277 55 254 55 Q231 55 216 70 Q201 85 201 108 Z " />
<glyph glyph-name="equal" unicode="&#x3d;" horiz-adv-x="510" d="M35 383 L475 383 L475 319 L35 319 L35 383 Z M35 229 L475 229 L475 165 L35 165 L35 229 Z " />
<glyph glyph-name="notequal" unicode="&#x2260;" horiz-adv-x="510" d="M162 165 L35 165 L35 229 L199 229 L251 319 L35 319 L35 383 L288 383 L355 499 L400 473 L348 383 L475 383 L475 319 L311 319 L259 229 L475 229 L475 165 L222 165 L155 49 L110 75 L162 165 Z " />
<glyph glyph-name="approxequal" unicode="&#x2248;" horiz-adv-x="510" d="M30 373 Q49 399 77.5 417.5 Q106 436 152 436 Q179 436 205.5 426.5 Q232 417 258.5 405.5 Q285 394 312 384.5 Q339 375 368 375 Q394 375 412 386 Q430 397 446 420 L480 371 Q458 339 431.5 324 Q405 309 368 309 Q335 309 306 318.5 Q277 328 250.5 339.5 Q224 351 198 360.5 Q172 370 145 370 Q113 370 95 356 Q77 342 63 325 L30 373 Z M30 210 Q49 236 77.5 254.5 Q106 273 152 273 Q179 273 205.5 263.5 Q232 254 258.5 242.5 Q285 231 312 221.5 Q339 212 368 212 Q394 212 412 223 Q430 234 446 257 L480 208 Q458 176 431.5 161 Q405 146 368 146 Q335 146 306 155.5 Q277 165 250.5 176.5 Q224 188 198 197.5 Q172 207 145 207 Q113 207 95 193 Q77 179 63 162 L30 210 Z " />
<glyph glyph-name="less" unicode="&#x3c;" horiz-adv-x="510" d="M40 295 L470 496 L470 426 L132 274 L470 122 L470 52 L40 253 L40 295 Z " />
<glyph glyph-name="greater" unicode="&#x3e;" horiz-adv-x="510" d="M40 122 L378 274 L40 426 L40 496 L470 295 L470 253 L40 52 L40 122 Z " />
<glyph glyph-name="lessequal" unicode="&#x2264;" horiz-adv-x="510" d="M44 335 L457 516 L457 446 L145 314 L457 182 L457 112 L44 293 L44 335 Z M43 80 L467 80 L467 16 L43 16 L43 80 Z " />
<glyph glyph-name="greaterequal" unicode="&#x2265;" horiz-adv-x="510" d="M43 80 L467 80 L467 16 L43 16 L43 80 Z M44 182 L356 314 L44 446 L44 516 L457 335 L457 293 L44 112 L44 182 Z " />
<glyph glyph-name="logicalnot" unicode="&#xac;" horiz-adv-x="510" d="M35 306 L475 306 L475 84 L405 84 L405 242 L35 242 L35 306 Z " />
<glyph glyph-name="uni00AD" unicode="&#xad;" horiz-adv-x="344" d="M50 309 L294 309 L294 236 L50 236 L50 309 Z " />
<glyph glyph-name="Delta" unicode="&#x2206;" horiz-adv-x="603" d="M249 700 L367 700 L568 0 L35 0 L249 700 Z M462 57 L334 496 Q325 526 319 548 Q313 570 308.5 586.5 Q304 603 301.5 614.5 Q299 626 297 634 L296 634 Q294 626 291 614.5 Q288 603 283.5 587 Q279 571 272.5 549 Q266 527 257 497 L124 57 L462 57 Z " />
<glyph glyph-name="Omega" unicode="&#x2126;" horiz-adv-x="704" d="M43 57 L219 57 Q177 76 147 109.5 Q117 143 98 184 Q79 225 70 271 Q61 317 61 361 Q61 442 81.5 507 Q102 572 140 617 Q178 662 231.5 686 Q285 710 352 710 Q419 710 472.5 686 Q526 662 564 617 Q602 572 622.5 507 Q643 442 643 360 Q643 315 634.5 269 Q626 223 607.5 182 Q589 141 559.5 108.5 Q530 76 488 57 L661 57 L661 0 L426 0 L426 57 Q456 73 478.5 103 Q501 133 515.5 172 Q530 211 537 256.5 Q544 302 544 351 Q544 418 532 474 Q520 530 496 570 Q472 610 436 632 Q400 654 352 654 Q304 654 268 632 Q232 610 208 570 Q184 530 172 474 Q160 418 160 351 Q160 303 169 257.5 Q178 212 194 173.5 Q210 135 231.5 105 Q253 75 278 57 L278 0 L43 0 L43 57 Z " />
<glyph glyph-name="mu" unicode="&#xb5;" horiz-adv-x="518" d="M68 503 L152 503 L152 171 Q152 106 174 81 Q196 56 233 56 Q274 56 307.5 73.5 Q341 91 366 117 L366 503 L450 503 L450 0 L389 0 L375 65 Q363 53 347.5 40 Q332 27 314 16 Q296 5 275 -2.5 Q254 -10 230 -10 Q209 -10 188.5 -4 Q168 2 152 16 L150 15 Q150 9 150.5 -4.5 Q151 -18 151.5 -33.5 Q152 -49 152 -64 Q152 -79 152 -89 L152 -183 L68 -183 L68 503 Z " />
<glyph glyph-name="pi" unicode="&#x3c0;" horiz-adv-x="562" d="M116 452 L40 452 L40 504 L522 504 L522 452 L441 452 L441 127 Q441 84 452.5 65.5 Q464 47 499 47 Q511 47 522 50 L522 -6 Q505 -10 475 -10 Q438 -10 414 -1.5 Q390 7 376 24.5 Q362 42 356.5 68.5 Q351 95 351 131 L351 452 L206 452 L206 0 L116 0 L116 452 Z " />
<glyph glyph-name="degree" unicode="&#xb0;" horiz-adv-x="375" d="M50 572 Q50 600 59.5 625.5 Q69 651 87 669.5 Q105 688 130.5 699 Q156 710 187 710 Q218 710 243.5 699 Q269 688 287 669.5 Q305 651 315 625.5 Q325 600 325 572 Q325 544 315 519 Q305 494 287 475.5 Q269 457 243.5 446 Q218 435 187 435 Q156 435 130.5 446 Q105 457 87 475.5 Q69 494 59.5 519 Q50 544 50 572 Z M187 483 Q208 483 223.5 490.5 Q239 498 249 511 Q259 524 264 539.5 Q269 555 269 572 Q269 588 264 604.5 Q259 621 249 633.5 Q239 646 223.5 654 Q208 662 187 662 Q166 662 150.5 654 Q135 646 125 633.5 Q115 621 110.5 604.5 Q106 588 106 572 Q106 555 110.5 539.5 Q115 524 125 511 Q135 498 150.5 490.5 Q166 483 187 483 Z " />
<glyph glyph-name="infinity" unicode="&#x221e;" horiz-adv-x="886" d="M446 315 Q467 335 490 356 Q513 377 539.5 394 Q566 411 596 422 Q626 433 661 433 Q695 433 725.5 422.5 Q756 412 778 391.5 Q800 371 813 340 Q826 309 826 269 Q826 228 813 197 Q800 166 777.5 144.5 Q755 123 725 112 Q695 101 661 101 Q628 101 597.5 112.5 Q567 124 539.5 142 Q512 160 488 181.5 Q464 203 443 223 Q421 201 397.5 179.5 Q374 158 347 140.5 Q320 123 289.5 112 Q259 101 225 101 Q196 101 167 110.5 Q138 120 114 140.5 Q90 161 75 193 Q60 225 60 269 Q60 314 74.5 345 Q89 376 112.5 395.5 Q136 415 165.5 424 Q195 433 225 433 Q261 433 291.5 422.5 Q322 412 348.5 395.5 Q375 379 399 357.5 Q423 336 446 315 Z M401 267 Q387 283 368 301.5 Q349 320 327 335.5 Q305 351 280 361 Q255 371 229 371 Q178 371 152.5 342.5 Q127 314 127 271 Q127 250 133 230.5 Q139 211 152 196 Q165 181 185 172 Q205 163 233 163 Q256 163 279 173 Q302 183 323.5 198 Q345 213 364.5 231.5 Q384 250 401 267 Z M489 269 Q534 221 573.5 192 Q613 163 658 163 Q706 163 732 193 Q758 223 758 269 Q758 315 731.5 343 Q705 371 656 371 Q632 371 609.5 362 Q587 353 566.5 338.5 Q546 324 527 306 Q508 288 489 269 Z " />
<glyph glyph-name="partialdiff" unicode="&#x2202;" horiz-adv-x="488" d="M290 758 Q309 743 336 705 Q363 667 388 608.5 Q413 550 430.5 471.5 Q448 393 448 296 Q448 143 396 66.5 Q344 -10 246 -10 Q197 -10 158 8.5 Q119 27 91.5 61.5 Q64 96 49.5 144 Q35 192 35 252 Q35 312 49.5 358.5 Q64 405 89 437.5 Q114 470 148.5 487 Q183 504 223 504 Q265 504 293 488.5 Q321 473 341 455 Q327 524 306.5 573.5 Q286 623 265 657 Q244 691 226.5 709.5 Q209 728 202 735 L290 758 Z M352 389 Q346 396 336.5 406 Q327 416 313 425 Q299 434 281.5 440.5 Q264 447 243 447 Q212 447 191 432.5 Q170 418 157.5 392 Q145 366 139.5 330.5 Q134 295 134 252 Q134 209 139.5 170.5 Q145 132 158 103 Q171 74 192.5 57 Q214 40 246 40 Q277 40 298.5 57.5 Q320 75 333.5 106 Q347 137 352.5 180 Q358 223 358 274 Q358 336 352 389 Z " />
<glyph glyph-name="integral" unicode="&#x222b;" horiz-adv-x="408" d="M6 -116 Q15 -124 31.5 -126.5 Q48 -129 56 -129 Q69 -129 80.5 -125.5 Q92 -122 101 -111.5 Q110 -101 116 -83 Q122 -65 125 -35 L191 587 Q201 682 243 721 Q285 760 352 760 Q375 760 389 757.5 Q403 755 408 753 L402 692 Q393 700 376.5 702.5 Q360 705 352 705 Q338 705 327 701.5 Q316 698 307 687.5 Q298 677 292 659 Q286 641 283 611 L217 -11 Q207 -106 165 -145 Q123 -184 56 -184 Q33 -184 19 -181.5 Q5 -179 0 -177 L6 -116 Z " />
<glyph glyph-name="radical" unicode="&#x221a;" horiz-adv-x="529" d="M79 454 L10 454 L10 504 L160 504 L244 190 Q255 150 261.5 120.5 Q268 91 271 73 L273 73 Q277 91 284 121 Q291 151 302 188 L445 700 L519 700 L313 0 L208 0 L79 454 Z " />
<glyph glyph-name="summation" unicode="&#x2211;" horiz-adv-x="490" d="M30 48 L230 360 L37 652 L37 700 L460 700 L460 640 L147 640 L332 360 L139 60 L460 60 L460 0 L30 0 L30 48 Z " />
<glyph glyph-name="product" unicode="&#x220f;" horiz-adv-x="608" d="M70 700 L538 700 L538 0 L443 0 L443 640 L165 640 L165 0 L70 0 L70 700 Z " />
<glyph glyph-name="lozenge" unicode="&#x25ca;" horiz-adv-x="524" d="M40 350 L234 700 L293 700 L484 350 L290 0 L231 0 L40 350 Z M407 350 L262 621 L117 350 L262 79 L407 350 Z " />
<glyph glyph-name="afii10017" unicode="&#x410;" horiz-adv-x="581" d="M238 700 L356 700 L557 0 L467 0 L407 208 L160 208 L98 0 L24 0 L238 700 Z M390 268 L325 495 Q307 557 299 589.5 Q291 622 287 640 L285 640 Q281 624 272 589.5 Q263 555 246 497 L178 268 L390 268 Z " />
<glyph glyph-name="afii10018" unicode="&#x411;" horiz-adv-x="550" d="M246 58 Q292 58 324 70 Q356 82 376.5 103 Q397 124 406.5 152.5 Q416 181 416 215 Q416 288 372.5 328.5 Q329 369 222 369 Q215 369 205.5 368.5 Q196 368 187.5 368 Q179 368 173 367.5 Q167 367 167 367 L167 58 L246 58 Z M78 700 L469 700 L469 641 L167 641 L167 423 Q167 423 173.5 423.5 Q180 424 191 424.5 Q202 425 215 425.5 Q228 426 240 426 Q300 426 351 413 Q402 400 438.5 373.5 Q475 347 495.5 307.5 Q516 268 516 215 Q516 168 499.5 128.5 Q483 89 450 60.5 Q417 32 366 16 Q315 0 246 0 L78 0 L78 700 Z " />
<glyph glyph-name="afii10019" unicode="&#x412;" horiz-adv-x="542" d="M78 700 L237 700 Q360 700 420 655 Q480 610 480 537 Q480 477 445 436 Q410 395 343 379 L343 377 Q422 364 465 318.5 Q508 273 508 201 Q508 106 442 53 Q376 0 237 0 L78 0 L78 700 Z M244 58 Q333 58 371 95.5 Q409 133 409 201 Q409 268 366.5 306 Q324 344 219 344 L167 344 L167 58 L244 58 Z M231 402 Q317 402 352.5 434.5 Q388 467 388 527 Q388 583 354 612.5 Q320 642 239 642 L167 642 L167 402 L231 402 Z " />
<glyph glyph-name="afii10020" unicode="&#x413;" horiz-adv-x="467" d="M78 700 L449 700 L449 641 L167 641 L167 0 L78 0 L78 700 Z " />
<glyph glyph-name="afii10021" unicode="&#x414;" horiz-adv-x="649" d="M18 59 L76 59 Q114 118 139 187 Q164 256 179 335.5 Q194 415 200 506 Q206 597 206 700 L544 700 L544 59 L624 59 L624 -154 L544 -154 L544 0 L98 0 L98 -154 L18 -154 L18 59 Z M456 59 L456 643 L271 643 Q271 558 264.5 476 Q258 394 244 319.5 Q230 245 207.5 179 Q185 113 154 59 L456 59 Z " />
<glyph glyph-name="afii10022" unicode="&#x415;" horiz-adv-x="504" d="M78 700 L454 700 L454 642 L167 642 L167 396 L411 396 L411 338 L167 338 L167 58 L465 58 L465 0 L78 0 L78 700 Z " />
<glyph glyph-name="afii10023" unicode="&#x401;" horiz-adv-x="504" d="M78 700 L454 700 L454 642 L167 642 L167 396 L411 396 L411 338 L167 338 L167 58 L465 58 L465 0 L78 0 L78 700 Z M138 847 L225 847 L225 760 L138 760 L138 847 Z M314 847 L401 847 L401 760 L314 760 L314 847 Z " />
<glyph glyph-name="afii10024" unicode="&#x416;" horiz-adv-x="860" d="M17 52 Q50 55 69.5 68.5 Q89 82 97 109 L147 277 Q157 309 184 332.5 Q211 356 253 365 L253 367 Q241 370 226.5 378 Q212 386 198.5 398 Q185 410 174 425 Q163 440 158 458 L123 580 Q112 618 89 632 Q66 646 39 650 L52 710 Q119 710 151.5 682.5 Q184 655 198 605 L235 471 Q245 434 273.5 413.5 Q302 393 356 393 L385 393 L385 700 L474 700 L474 393 L504 393 Q558 393 586 413.5 Q614 434 625 471 L662 605 Q676 655 708 682.5 Q740 710 808 710 L820 650 Q793 646 770.5 632 Q748 618 737 580 L702 458 Q697 440 686 425 Q675 410 661.5 398 Q648 386 633.5 378 Q619 370 607 367 L607 365 Q652 356 677.5 332.5 Q703 309 713 277 L763 109 Q771 82 790.5 68.5 Q810 55 842 52 L831 -10 Q765 -9 725.5 16 Q686 41 672 96 L626 267 Q617 301 592.5 318 Q568 335 516 335 L474 335 L474 0 L385 0 L385 335 L344 335 Q292 335 267.5 318 Q243 301 234 267 L188 96 Q173 41 134 16 Q95 -9 28 -10 L17 52 Z " />
<glyph glyph-name="afii10025" unicode="&#x417;" horiz-adv-x="525" d="M113 161 Q127 100 166 74 Q205 48 254 48 Q314 48 349 83.5 Q384 119 384 197 Q384 273 339.5 306 Q295 339 218 339 L192 339 L192 398 L218 398 Q295 398 327.5 432.5 Q360 467 360 530 Q360 598 329 625.5 Q298 653 248 653 Q208 653 176 630 Q144 607 130 554 L54 576 Q64 614 86 640 Q108 666 136 681.5 Q164 697 194 703.5 Q224 710 251 710 Q302 710 339.5 697 Q377 684 402 660.5 Q427 637 439.5 604.5 Q452 572 452 533 Q452 505 443.5 478.5 Q435 452 417 431 Q399 410 372.5 395 Q346 380 310 376 L310 374 Q347 371 378 357 Q409 343 431 320 Q453 297 465.5 265.5 Q478 234 478 196 Q478 148 461 110 Q444 72 414 45.5 Q384 19 342 4.5 Q300 -10 250 -10 Q165 -10 109.5 29.5 Q54 69 34 139 L113 161 Z " />
<glyph glyph-name="afii10026" unicode="&#x418;" horiz-adv-x="634" d="M78 700 L167 700 L167 277 Q167 234 165.5 194 Q164 154 160 116 L162 116 Q176 139 192 172 Q208 205 232 250 L469 700 L556 700 L556 0 L467 0 L467 375 Q467 433 468.5 488.5 Q470 544 473 582 L471 582 Q457 553 438.5 517.5 Q420 482 394 433 L165 0 L78 0 L78 700 Z " />
<glyph glyph-name="afii10027" unicode="&#x419;" horiz-adv-x="634" d="M78 700 L167 700 L167 277 Q167 234 165.5 194 Q164 154 160 116 L162 116 Q176 139 192 172 Q208 205 232 250 L469 700 L556 700 L556 0 L467 0 L467 375 Q467 433 468.5 488.5 Q470 544 473 582 L471 582 Q457 553 438.5 517.5 Q420 482 394 433 L165 0 L78 0 L78 700 Z M208 877 Q218 840 245 818 Q272 796 314 796 Q357 796 384 818.5 Q411 841 420 877 L483 852 Q468 799 425.5 770.5 Q383 742 314 742 Q245 742 202.5 770.5 Q160 799 145 852 L208 877 Z " />
<glyph glyph-name="afii10028" unicode="&#x41a;" horiz-adv-x="583" d="M78 700 L167 700 L167 393 L226 393 Q276 393 303.5 415 Q331 437 348 481 L390 587 Q402 618 415 641 Q428 664 445 679.5 Q462 695 485.5 702.5 Q509 710 542 710 L556 651 Q529 647 507.5 630 Q486 613 467 567 L423 464 Q406 426 376 400 Q346 374 319 368 L319 366 Q361 358 388.5 330.5 Q416 303 432 261 L483 126 Q498 85 515.5 69.5 Q533 54 567 51 L555 -10 Q487 -9 453 17 Q419 43 399 99 L344 254 Q336 276 327 292 Q318 308 304.5 318 Q291 328 272 332.5 Q253 337 226 337 L167 337 L167 0 L78 0 L78 700 Z " />
<glyph glyph-name="afii10029" unicode="&#x41b;" horiz-adv-x="597" d="M5 51 Q53 70 84 112.5 Q115 155 134.5 231.5 Q154 308 164.5 423 Q175 538 182 700 L519 700 L519 0 L430 0 L430 641 L255 641 Q249 479 238 365.5 Q227 252 202.5 176 Q178 100 136.5 56 Q95 12 29 -10 L5 51 Z " />
<glyph glyph-name="afii10030" unicode="&#x41c;" horiz-adv-x="767" d="M109 700 L233 700 L328 356 Q337 323 345.5 289 Q354 255 361.5 222.5 Q369 190 375 161.5 Q381 133 384 112 L387 112 Q391 133 397.5 163.5 Q404 194 412 228 Q420 262 428.5 295.5 Q437 329 444 355 L538 700 L670 700 L728 0 L640 0 L609 383 Q606 422 603 459 Q600 496 597.5 529 Q595 562 593 588 Q591 614 591 631 L589 631 Q586 614 578.5 587.5 Q571 561 562 528 Q553 495 542.5 457.5 Q532 420 522 383 L416 0 L333 0 L229 383 Q206 469 190.5 532.5 Q175 596 170 624 L168 624 Q167 610 165 581 Q163 552 161 517 Q159 482 156 446.5 Q153 411 151 383 L120 0 L50 0 L109 700 Z " />
<glyph glyph-name="afii10031" unicode="&#x41d;" horiz-adv-x="606" d="M78 700 L167 700 L167 397 L439 397 L439 700 L528 700 L528 0 L439 0 L439 337 L167 337 L167 0 L78 0 L78 700 Z " />
<glyph glyph-name="afii10032" unicode="&#x41e;" horiz-adv-x="684" d="M342 -10 Q273 -10 219 16 Q165 42 127.5 90 Q90 138 70.5 204.5 Q51 271 51 352 Q51 433 70.5 499 Q90 565 127.5 612 Q165 659 219 684.5 Q273 710 342 710 Q411 710 465 684.5 Q519 659 556.5 612.5 Q594 566 613.5 499.5 Q633 433 633 351 Q633 269 613.5 202.5 Q594 136 556.5 88.5 Q519 41 465 15.5 Q411 -10 342 -10 Z M342 47 Q390 47 426 69 Q462 91 486 131.5 Q510 172 522 227.5 Q534 283 534 351 Q534 418 522 473.5 Q510 529 486 568.5 Q462 608 426 630 Q390 652 342 652 Q294 652 257.5 630.5 Q221 609 197 569 Q173 529 161 473.5 Q149 418 149 351 Q149 284 161 228 Q173 172 197 132 Q221 92 257.5 69.5 Q294 47 342 47 Z " />
<glyph glyph-name="afii10033" unicode="&#x41f;" horiz-adv-x="599" d="M78 700 L520 700 L520 0 L431 0 L431 642 L167 642 L167 0 L78 0 L78 700 Z " />
<glyph glyph-name="afii10034" unicode="&#x420;" horiz-adv-x="550" d="M78 700 L239 700 Q298 700 348.5 690 Q399 680 436 656 Q473 632 494 593 Q515 554 515 497 Q515 440 494 401 Q473 362 436 338 Q399 314 348.5 303.5 Q298 293 240 293 L167 293 L167 0 L78 0 L78 700 Z M244 351 Q288 351 320.5 358.5 Q353 366 374.5 383 Q396 400 406.5 428 Q417 456 417 497 Q417 539 406.5 566.5 Q396 594 375 611 Q354 628 321 635 Q288 642 243 642 L167 642 L167 351 L244 351 Z " />
<glyph glyph-name="afii10035" unicode="&#x421;" horiz-adv-x="586" d="M563 128 Q534 61 480 25.5 Q426 -10 335 -10 Q264 -10 211 17 Q158 44 122.5 92 Q87 140 69 206.5 Q51 273 51 352 Q51 434 69.5 500 Q88 566 124.5 612.5 Q161 659 214.5 684.5 Q268 710 338 710 Q426 710 479 675 Q532 640 557 579 L474 543 Q459 593 424.5 622.5 Q390 652 336 652 Q289 652 253.5 631 Q218 610 195 571 Q172 532 160.5 477 Q149 422 149 355 Q149 288 160.5 231.5 Q172 175 195 134.5 Q218 94 254 71.5 Q290 49 338 49 Q436 49 480 162 L563 128 Z " />
<glyph glyph-name="afii10036" unicode="&#x422;" horiz-adv-x="532" d="M222 642 L23 642 L23 700 L510 700 L510 642 L310 642 L310 0 L222 0 L222 642 Z " />
<glyph glyph-name="afii10037" unicode="&#x423;" horiz-adv-x="511" d="M49 74 Q66 66 86 61.5 Q106 57 126 57 Q165 57 189.5 86 Q214 115 237 166 L15 700 L105 700 L203 451 Q213 427 223.5 400 Q234 373 243.5 348 Q253 323 260 303.5 Q267 284 270 275 L272 275 Q275 284 281 303.5 Q287 323 295.5 347.5 Q304 372 313 399.5 Q322 427 331 452 L415 700 L502 700 L317 177 Q302 136 286 101.5 Q270 67 247.5 42.5 Q225 18 194.5 4 Q164 -10 121 -10 Q71 -10 35 4 L49 74 Z " />
<glyph glyph-name="afii10038" unicode="&#x424;" horiz-adv-x="762" d="M337 65 L319 65 Q270 65 219 79.5 Q168 94 126 128 Q84 162 57.5 216.5 Q31 271 31 351 Q31 431 58 486.5 Q85 542 126.5 576.5 Q168 611 217 626.5 Q266 642 310 642 L337 642 L337 710 L426 710 L426 642 L452 642 Q496 642 545.5 626.5 Q595 611 636.5 576.5 Q678 542 705 486.5 Q732 431 732 351 Q732 271 705.5 216.5 Q679 162 637 128 Q595 94 544 79.5 Q493 65 444 65 L426 65 L426 -10 L337 -10 L337 65 Z M337 122 L337 585 L322 585 Q231 585 179.5 525.5 Q128 466 128 351 Q128 236 179.5 179 Q231 122 322 122 L337 122 Z M440 122 Q531 122 583 179 Q635 236 635 351 Q635 466 583 525.5 Q531 585 440 585 L426 585 L426 122 L440 122 Z " />
<glyph glyph-name="afii10039" unicode="&#x425;" horiz-adv-x="525" d="M208 369 L26 700 L123 700 L263 441 L408 700 L488 700 L305 380 L513 0 L416 0 L250 304 L91 0 L10 0 L208 369 Z " />
<glyph glyph-name="afii10040" unicode="&#x426;" horiz-adv-x="665" d="M78 700 L167 700 L167 58 L435 58 L435 700 L524 700 L524 58 L605 58 L605 -154 L525 -154 L525 0 L78 0 L78 700 Z " />
<glyph glyph-name="afii10041" unicode="&#x427;" horiz-adv-x="577" d="M410 292 Q376 279 338.5 271.5 Q301 264 258 264 Q199 264 161.5 276.5 Q124 289 102 312 Q80 335 72 368 Q64 401 64 442 L64 700 L152 700 L152 444 Q152 387 179 353.5 Q206 320 275 320 Q316 320 347 326.5 Q378 333 410 347 L410 700 L499 700 L499 0 L410 0 L410 292 Z " />
<glyph glyph-name="afii10042" unicode="&#x428;" horiz-adv-x="913" d="M78 700 L167 700 L167 58 L412 58 L412 700 L501 700 L501 58 L746 58 L746 700 L835 700 L835 0 L78 0 L78 700 Z " />
<glyph glyph-name="afii10043" unicode="&#x429;" horiz-adv-x="983" d="M78 700 L167 700 L167 58 L412 58 L412 700 L501 700 L501 58 L746 58 L746 700 L835 700 L835 58 L924 58 L924 -154 L843 -154 L843 0 L78 0 L78 700 Z " />
<glyph glyph-name="afii10044" unicode="&#x42a;" horiz-adv-x="647" d="M181 642 L17 642 L17 700 L269 700 L269 422 Q268 422 274.5 422.5 Q281 423 291.5 424 Q302 425 315 425.5 Q328 426 341 426 Q403 426 453.5 412.5 Q504 399 539.5 372 Q575 345 594.5 305.5 Q614 266 614 215 Q614 167 597.5 127.5 Q581 88 548 59.5 Q515 31 464 15.5 Q413 0 344 0 L181 0 L181 642 Z M340 57 Q434 57 474 100 Q514 143 514 213 Q514 251 504 280.5 Q494 310 471.5 330 Q449 350 412 360 Q375 370 322 370 Q313 370 303.5 369.5 Q294 369 286 369 Q278 369 273 368.5 Q268 368 269 368 L269 57 L340 57 Z " />
<glyph glyph-name="afii10045" unicode="&#x42b;" horiz-adv-x="795" d="M628 700 L717 700 L717 0 L628 0 L628 700 Z M242 57 Q336 57 376 99.5 Q416 142 416 213 Q416 251 406 280.5 Q396 310 373.5 330 Q351 350 314 360 Q277 370 224 370 Q215 370 204.5 369.5 Q194 369 186 369 Q176 368 167 368 L167 57 L242 57 Z M78 700 L167 700 L167 422 Q167 422 173.5 422.5 Q180 423 190.5 424 Q201 425 214 425.5 Q227 426 239 426 Q368 426 442 372 Q516 318 516 215 Q516 167 499.5 127.5 Q483 88 450 59.5 Q417 31 366 15.5 Q315 0 246 0 L78 0 L78 700 Z " />
<glyph glyph-name="afii10046" unicode="&#x42c;" horiz-adv-x="546" d="M237 57 Q332 57 372 100 Q412 143 412 213 Q412 251 402 280.5 Q392 310 369.5 330 Q347 350 310 360 Q273 370 220 370 Q203 370 184.5 369 Q166 368 167 368 L167 57 L237 57 Z M78 700 L167 700 L167 422 Q167 422 173 422.5 Q179 423 189.5 424 Q200 425 212.5 425.5 Q225 426 238 426 Q369 426 440.5 372 Q512 318 512 215 Q512 167 495.5 127.5 Q479 88 446 59.5 Q413 31 362 15.5 Q311 0 242 0 L78 0 L78 700 Z " />
<glyph glyph-name="afii10047" unicode="&#x42d;" horiz-adv-x="546" d="M108 161 Q120 113 152 80.5 Q184 48 240 48 Q283 48 312.5 68 Q342 88 360.5 125 Q379 162 387 215.5 Q395 269 396 337 L169 337 L169 397 L395 397 Q390 532 351 592.5 Q312 653 240 653 Q191 653 157.5 629.5 Q124 606 107 540 L26 561 Q46 633 99.5 671.5 Q153 710 240 710 Q308 710 356.5 684.5 Q405 659 435.5 612 Q466 565 480.5 499 Q495 433 495 352 Q495 272 481.5 205.5 Q468 139 438 91 Q408 43 359.5 16.5 Q311 -10 240 -10 Q152 -10 99 31.5 Q46 73 30 139 L108 161 Z " />
<glyph glyph-name="afii10048" unicode="&#x42e;" horiz-adv-x="812" d="M78 700 L167 700 L167 397 L275 397 Q279 468 296 525.5 Q313 583 343 624 Q373 665 417 687.5 Q461 710 519 710 Q580 710 626 684 Q672 658 702 610.5 Q732 563 747 497 Q762 431 762 351 Q762 271 747 204.5 Q732 138 702 90.5 Q672 43 626 16.5 Q580 -10 519 -10 Q458 -10 412.5 15 Q367 40 336.5 86 Q306 132 290.5 195.5 Q275 259 274 337 L167 337 L167 0 L78 0 L78 700 Z M519 45 Q552 45 575 61 Q598 77 614 102.5 Q630 128 639 161 Q648 194 653 228 Q658 262 659.5 294 Q661 326 661 351 Q661 510 625 582 Q589 654 519 654 Q449 654 412 582.5 Q375 511 375 351 Q375 292 381 236.5 Q387 181 403.5 138.5 Q420 96 447.5 70.5 Q475 45 519 45 Z " />
</font>
</svg>
