<?xml version="1.0" standalone="no"?>
<!DOCTYPE svg PUBLIC "-//W3C//DTD SVG 1.1//EN" "http://www.w3.org/Graphics/SVG/1.1/DTD/svg11.dtd" >
<svg xmlns="http://www.w3.org/2000/svg">
<metadata>
This is a custom SVG webfont generated by Font Squirrel.
Copyright   : Copyright c 2009 by Skandinaviska Enskilda Banken AB publ SEB Basic is a corporate typeface developed for SEB Group The typeface is the property of SEB Group and protected by copyright law It may not be used by others without prior written permission If you have any questions regarding SEB Basic please contact SEB Marketing and Communications
Designer    : NordlingSoderstrom
</metadata>
<defs>
<font id="SEBBasicItalic" horiz-adv-x="1044" >
<font-face units-per-em="2048" ascent="1577" descent="-471" />
<missing-glyph horiz-adv-x="430" />
<glyph unicode=" "  horiz-adv-x="430" />
<glyph unicode="&#x09;" horiz-adv-x="430" />
<glyph unicode="&#xa0;" horiz-adv-x="430" />
<glyph unicode="!" horiz-adv-x="477" d="M102 0l31 211h193l-31 -211h-193zM188 383l109 1051h211l-191 -1051h-129z" />
<glyph unicode="&#x22;" horiz-adv-x="671" d="M256 1106l20 430h170l-98 -430h-92zM553 1106l20 430h170l-98 -430h-92z" />
<glyph unicode="#" horiz-adv-x="1112" d="M72 461l18 100h232l59 311h-229l18 101h231l88 461h113l-88 -461h295l88 461h113l-88 -461h231l-18 -101h-234l-59 -311h231l-18 -100h-232l-88 -461h-112l88 461h-295l-88 -461h-113l88 461h-231zM434 561h295l59 311h-294z" />
<glyph unicode="$" horiz-adv-x="933" d="M63 156l107 131q68 -154 219 -189l74 525q-68 57 -100.5 86.5t-79.5 84t-67.5 111t-20.5 121.5q0 147 102 249.5t272 110.5l25 170h98l-24 -172q182 -20 274 -139l-117 -119q-53 113 -174 140l-71 -502l56 -45q46 -37 59.5 -50.5t49 -47t49 -55t33 -56.5t26.5 -69.5 t7 -75.5q0 -174 -102.5 -275.5t-288.5 -109.5l-23 -170h-98l25 174q-222 18 -310 172zM371 1073q0 -117 123 -233l59 430q-182 -19 -182 -197zM485 90q88 6 143.5 63.5t55.5 155.5q0 70 -33 120t-102 116z" />
<glyph unicode="%" horiz-adv-x="1751" d="M184 1008q0 190 113 318t285 128q137 0 214.5 -83t77.5 -222q0 -190 -114.5 -319.5t-284.5 -129.5q-139 0 -215 84.5t-76 223.5zM336 0l1055 1434h145l-1055 -1434h-145zM358 985q0 -199 129 -199q98 0 155.5 113t57.5 272q0 199 -131 199q-98 0 -154.5 -112.5 t-56.5 -272.5zM997 287q0 190 115 318t285 128q137 0 215 -83t78 -222q0 -190 -115 -319t-285 -129q-139 0 -216 84t-77 223zM1171 262q0 -197 132 -196q98 0 155.5 112.5t57.5 272.5q0 199 -132 198q-98 0 -155.5 -113.5t-57.5 -273.5z" />
<glyph unicode="&#x26;" horiz-adv-x="1249" d="M82 307q0 92 37 171t103.5 136.5t127 94t142.5 73.5l-29 43q-102 156 -103 293q0 143 99.5 239.5t265.5 96.5q147 0 237.5 -79t90.5 -195q0 -262 -340 -412l241 -369q47 92 68 224l147 -54q-35 -152 -135 -290l185 -279h-205l-101 150q-195 -170 -446 -170 q-186 0 -285.5 88.5t-99.5 238.5zM283 326q0 -102 60 -165t169 -63q201 0 338 148l-305 454q-100 -45 -181 -136t-81 -238zM535 1149q0 -111 92 -250l28 -43q94 45 146.5 105.5t65 106.5t12.5 108q0 72 -42 122t-116 50q-100 0 -143 -59.5t-43 -139.5z" />
<glyph unicode="'" horiz-adv-x="385" d="M256 1106l10 430h191l-109 -430h-92z" />
<glyph unicode="(" horiz-adv-x="569" d="M94 336q0 315 117 612t344 506h121q-197 -223 -297 -528t-100 -633q0 -377 145 -629h-121q-209 246 -209 672z" />
<glyph unicode=")" horiz-adv-x="569" d="M-47 -336q197 233 300 543.5t103 640.5q0 365 -151 606h121q213 -238 213 -661q0 -317 -118 -616.5t-347 -512.5h-121z" />
<glyph unicode="*" horiz-adv-x="788" d="M184 1126l58 172l241 -135l-55 271h178l-55 -271l244 135l55 -172l-277 -30l207 -189l-145 -104l-117 252l-117 -252l-145 104l207 189z" />
<glyph unicode="+" d="M92 496v131h379v385h143v-385h379v-131h-379v-385h-143v385h-379z" />
<glyph unicode="," horiz-adv-x="448" d="M57 -219l123 219h-96l31 211h211l-31 -203l-135 -227h-103z" />
<glyph unicode="-" horiz-adv-x="641" d="M113 483l22 154h457l-23 -154h-456z" />
<glyph unicode="." horiz-adv-x="428" d="M82 0l31 211h192l-31 -211h-192z" />
<glyph unicode="/" horiz-adv-x="694" d="M0 -199l647 1735h139l-647 -1735h-139z" />
<glyph unicode="0" d="M111 477q0 131 28.5 277.5t89 295t175 245t266.5 96.5q176 0 266 -130.5t90 -357.5q0 -102 -15.5 -217t-56.5 -244t-101 -229t-160.5 -166.5t-223.5 -66.5q-178 0 -268 132t-90 365zM309 416q0 -324 176 -324q90 0 161 93.5t108 235.5t55 281.5t18 258.5q0 319 -174 319 q-90 0 -160.5 -93t-108.5 -234.5t-56.5 -279.5t-18.5 -257z" />
<glyph unicode="1" horiz-adv-x="798" d="M72 0l14 111h209l154 1085h-238l12 80l363 92h65l-178 -1257h193l-15 -111h-579z" />
<glyph unicode="2" horiz-adv-x="985" d="M20 0l19 143q119 92 197.5 158t191.5 172.5t181.5 195.5t118.5 199.5t50 208.5q0 201 -176 201q-182 0 -278 -223l-144 80q131 256 447 256q166 0 256 -81t90 -229q0 -133 -71 -268t-197.5 -258t-238.5 -210t-253 -181l-2 -8h651l-20 -156h-822z" />
<glyph unicode="3" horiz-adv-x="919" d="M0 170l143 102q20 -74 80 -127t158 -53q119 0 198.5 83t79.5 243q0 254 -344 254l17 110q391 25 391 322q0 176 -174 176q-150 0 -256 -166l-123 88q127 188 389 189q168 0 259 -72t91 -197q0 -145 -94 -241.5t-250 -141.5v-4q121 -23 206 -99.5t85 -205.5 q0 -211 -141.5 -330.5t-341.5 -119.5q-285 0 -373 190z" />
<glyph unicode="4" horiz-adv-x="1017" d="M51 348l17 115l688 905h190l-129 -901h174l-16 -119h-174l-49 -348h-179l50 348h-572zM207 467h432l35 242q45 324 78 485h-7q-35 -66 -204 -287z" />
<glyph unicode="5" horiz-adv-x="983" d="M49 195l152 92q18 -84 77.5 -139.5t157.5 -55.5q141 0 223 116t82 304q0 113 -55 177.5t-164 64.5q-143 0 -233 -131h-117l158 745h651l-23 -156h-546l-97 -438q123 104 271 105q158 0 254 -94.5t96 -260.5q0 -238 -142.5 -391t-375.5 -153q-154 0 -245 60.5t-124 154.5z " />
<glyph unicode="6" horiz-adv-x="1024" d="M119 469q0 139 32.5 288.5t99 297t189.5 242t283 94.5q127 0 207 -49.5t108 -127.5l-159 -79q-8 31 -24.5 59.5t-58.5 57t-98 28.5q-270 0 -364 -575q121 137 299 137q147 0 241.5 -90t94.5 -248q0 -223 -134.5 -373.5t-332.5 -150.5q-178 0 -280.5 120.5t-102.5 368.5z M311 430q0 -338 201 -338q121 0 190.5 121t69.5 279q0 231 -201 231q-152 0 -252 -145q-8 -72 -8 -148z" />
<glyph unicode="7" horiz-adv-x="880" d="M121 0l680 1212h-668l23 156h805l-21 -137l-621 -1231h-198z" />
<glyph unicode="8" horiz-adv-x="1007" d="M68 307q0 287 340 422q-188 98 -189 279q0 166 123 274.5t311 108.5q152 0 246 -78t94 -205q0 -125 -78.5 -223.5t-207.5 -159.5q236 -100 235 -301q0 -195 -138 -319.5t-353 -124.5q-176 0 -279.5 90t-103.5 237zM262 315q0 -102 51.5 -162.5t151.5 -60.5q131 0 207 91 t76 218q0 102 -53.5 170t-168.5 115q-264 -95 -264 -371zM397 1018q0 -174 181 -246q113 39 173 128t60 200q0 80 -44 130t-130 50q-111 0 -175.5 -75.5t-64.5 -186.5z" />
<glyph unicode="9" horiz-adv-x="1011" d="M45 158l156 90q10 -59 59 -107.5t146 -48.5q264 0 354 539q-111 -115 -295 -115q-145 0 -238.5 94.5t-93.5 255.5q0 221 135 373t334 152q174 0 276.5 -121t102.5 -367q0 -109 -18.5 -226.5t-63.5 -244.5t-110.5 -226.5t-172 -162.5t-235.5 -63q-254 0 -336 178zM328 881 q0 -246 200 -246q154 0 250 119q10 102 10 174q0 352 -198 352q-121 0 -191.5 -120.5t-70.5 -278.5z" />
<glyph unicode=":" horiz-adv-x="428" d="M82 0l31 211h192l-31 -211h-192zM184 725l31 211h193l-31 -211h-193z" />
<glyph unicode=";" horiz-adv-x="448" d="M57 -219l123 219h-96l31 211h211l-31 -203l-135 -227h-103zM186 725l31 211h193l-31 -211h-193z" />
<glyph unicode="&#x3c;" d="M102 518v86l881 412v-144l-692 -311l692 -311v-144z" />
<glyph unicode="=" d="M113 338v131h901v-131h-901zM113 653v131h901v-131h-901z" />
<glyph unicode="&#x3e;" d="M154 106v144l692 311l-692 311v144l880 -412v-86z" />
<glyph unicode="?" horiz-adv-x="782" d="M154 1210q98 244 397 244q158 0 248 -71.5t90 -194.5q0 -29 -6 -57.5t-14.5 -52t-28 -53.5t-30.5 -48.5t-38 -49t-39 -44t-44 -47t-42 -43.5q-55 -61 -79.5 -91t-50 -79.5t-38.5 -106.5l-26 -133h-113l12 141q2 35 7.5 64.5t17.5 59.5t18 46.5t26.5 46t27 38.5t35 45 t34.5 44q68 84 95.5 123t53 95.5t25.5 107.5q0 141 -157 141q-92 0 -151.5 -60.5t-86.5 -148.5zM246 0l30 211h193l-31 -211h-192z" />
<glyph unicode="@" horiz-adv-x="1742" d="M133 401q0 381 235.5 623t589.5 242q313 0 513 -174t200 -461q0 -240 -123 -415t-309 -175q-104 0 -144 50t-40 167h-4q-121 -213 -299 -213q-115 0 -178.5 79t-63.5 222q0 250 126 422t325 172q127 0 182 -111h4l33 95h118l-84 -475q-33 -186 -32 -224q0 -92 78 -92 q111 0 188.5 137.5t77.5 347.5q0 238 -150.5 389.5t-423.5 151.5q-301 0 -477 -216t-176 -540q0 -266 153.5 -421.5t436.5 -155.5q160 0 272 53l37 -82q-121 -76 -352 -76q-309 0 -511 181.5t-202 498.5zM678 350q0 -203 121 -203q86 0 164.5 123t117.5 328l25 129 q-8 47 -41 83t-90 36q-131 0 -214 -143.5t-83 -352.5z" />
<glyph unicode="A" horiz-adv-x="1085" d="M-6 0l592 1434h252l163 -1434h-184l-49 426h-446l-170 -426h-158zM371 549h383l-49 446q-20 182 -27 310h-6q-29 -82 -117 -301z" />
<glyph unicode="B" horiz-adv-x="1021" d="M98 0l201 1434h244q240 0 354.5 -88.5t114.5 -233.5q0 -135 -83 -227t-212 -117v-4q106 -25 181 -110t75 -210q0 -211 -139.5 -327.5t-399.5 -116.5h-336zM303 119h146q164 0 244.5 83t80.5 234q0 139 -82 204t-254 65h-53zM401 823h129q143 0 218 73t75 206 q0 111 -63.5 162t-198.5 51h-90z" />
<glyph unicode="C" horiz-adv-x="1105" d="M135 551q0 158 39 310.5t115 288.5t208 220t302 84q145 0 241.5 -69.5t124.5 -188.5l-170 -74q-41 213 -219 213q-117 0 -206 -86t-137 -219t-70.5 -264t-22.5 -250q0 -193 65.5 -304.5t192.5 -111.5q182 0 293 238l168 -72q-68 -133 -188.5 -209.5t-278.5 -76.5 q-227 0 -342 150.5t-115 420.5z" />
<glyph unicode="D" horiz-adv-x="1212" d="M98 0l201 1434h338q557 0 557 -541q0 -135 -25.5 -260t-83 -242t-141.5 -203t-210 -137t-279 -51h-357zM303 119h168q117 0 208 50t148.5 129t94 185.5t51 211t14.5 214.5q0 199 -86 302.5t-280 103.5h-150z" />
<glyph unicode="E" horiz-adv-x="937" d="M98 0l201 1434h709l-19 -123h-520l-70 -496h428l-18 -127h-426l-80 -565h541l-17 -123h-729z" />
<glyph unicode="F" horiz-adv-x="907" d="M98 0l201 1434h729l-18 -123h-541l-72 -520h430l-18 -127h-430l-92 -664h-189z" />
<glyph unicode="G" horiz-adv-x="1187" d="M135 551q0 123 21.5 245t73 242.5t126 211.5t189 147.5t256.5 56.5q158 0 259 -74.5t130 -181.5l-170 -63q-49 201 -238 200q-123 0 -214 -85t-138 -218t-68.5 -261t-21.5 -245q0 -207 70.5 -315.5t197.5 -108.5q84 0 162 54.5t127 128.5l39 270h-236l17 123h416 l-95 -678h-145l-6 121q-141 -141 -320 -141q-207 0 -319.5 148.5t-112.5 422.5z" />
<glyph unicode="H" horiz-adv-x="1208" d="M98 0l201 1434h188l-88 -621h553l88 621h189l-201 -1434h-188l96 690h-553l-96 -690h-189z" />
<glyph unicode="I" horiz-adv-x="466" d="M98 0l201 1434h188l-200 -1434h-189z" />
<glyph unicode="J" horiz-adv-x="589" d="M4 2l16 123q41 -12 95 -12q59 0 94 32.5t49 128.5l162 1160h190l-157 -1119q-27 -182 -98.5 -253.5t-229.5 -71.5q-84 0 -121 12z" />
<glyph unicode="K" horiz-adv-x="1040" d="M98 0l201 1434h188l-96 -691h2l596 691h185l-510 -574l323 -860h-201l-266 725l-158 -176l-75 -549h-189z" />
<glyph unicode="L" horiz-adv-x="868" d="M98 0l201 1434h188l-184 -1311h492l-17 -123h-680z" />
<glyph unicode="M" horiz-adv-x="1417" d="M92 0l201 1434h266l94 -699q51 -395 52 -483h4q45 145 184 479l287 703h258l-201 -1434h-176l106 768q43 305 74 485h-4q-51 -139 -193 -483l-317 -770h-147l-111 776q-43 307 -57 463h-4q-4 -37 -62 -471l-106 -768h-148z" />
<glyph unicode="N" horiz-adv-x="1204" d="M98 0l201 1434h154l305 -689q125 -283 166 -403h4q16 145 61 461l88 631h148l-201 -1434h-135l-332 748q-129 289 -156 374h-4q-27 -217 -55 -436l-96 -686h-148z" />
<glyph unicode="O" horiz-adv-x="1275" d="M135 551q0 393 185.5 648t478.5 255q217 0 335.5 -147.5t118.5 -411.5q0 -115 -21.5 -235.5t-71.5 -243.5t-123.5 -219.5t-189.5 -156.5t-255 -60q-221 0 -339 147.5t-118 423.5zM340 528q0 -205 67.5 -317.5t198.5 -112.5q119 0 209 88t138 223.5t71 267.5t23 251 q0 193 -66 300t-199 107q-119 0 -210 -84t-138 -214t-70.5 -260t-23.5 -249z" />
<glyph unicode="P" d="M98 0l201 1434h281q496 0 495 -359q0 -170 -83 -281.5t-206.5 -155.5t-287.5 -44h-129l-82 -594h-189zM385 713h129q176 0 266 85t90 269q0 133 -69.5 190.5t-225.5 57.5h-104z" />
<glyph unicode="Q" horiz-adv-x="1275" d="M135 551q0 393 185.5 648t478.5 255q217 0 335.5 -147.5t118.5 -411.5q0 -219 -78.5 -442.5t-234.5 -352.5q45 -68 160 -67l49 4l-27 -197q-223 0 -291 193q-113 -53 -239 -53q-221 0 -339 147.5t-118 423.5zM340 528q0 -205 67.5 -317.5t198.5 -112.5q119 0 209 88 t138 223.5t71 267.5t23 251q0 193 -66 300t-199 107q-119 0 -210 -84t-138 -214t-70.5 -260t-23.5 -249z" />
<glyph unicode="R" horiz-adv-x="1077" d="M98 0l201 1434h266q506 0 506 -361q0 -319 -317 -428l219 -645h-203l-195 606q-70 -4 -104 -4h-100l-84 -602h-189zM387 721h123q356 0 356 352q0 131 -79.5 186.5t-262.5 55.5h-53z" />
<glyph unicode="S" horiz-adv-x="950" d="M55 154l115 139q18 -39 46 -76t95.5 -78t149.5 -41q106 0 167.5 58.5t61.5 171.5q0 90 -50 167.5t-123 137t-145.5 120t-122.5 144.5t-50 182q0 156 109.5 265.5t312.5 109.5q131 0 221 -46t123 -99l-123 -123q-27 59 -86.5 104t-151.5 45q-109 0 -164 -63.5t-55 -155.5 q0 -68 37 -129t91 -105t118.5 -98.5t119 -106.5t91.5 -131t37 -169q0 -182 -113 -289.5t-315 -107.5q-115 0 -208 36.5t-130.5 70.5t-57.5 67z" />
<glyph unicode="T" horiz-adv-x="995" d="M180 1311l19 123h917l-18 -123h-365l-182 -1311h-189l183 1311h-365z" />
<glyph unicode="U" horiz-adv-x="1193" d="M162 346q0 92 22 260l115 828h188l-118 -838q-16 -121 -17 -203q0 -262 248 -262q141 0 223 86t113 303l131 914h147l-133 -947q-39 -279 -164.5 -393t-334.5 -114q-420 -1 -420 366z" />
<glyph unicode="V" horiz-adv-x="1079" d="M199 1434h188l92 -816q49 -401 51 -466h5q33 98 176 456l329 826h158l-586 -1434h-241z" />
<glyph unicode="W" horiz-adv-x="1579" d="M209 1434h184l47 -820q10 -193 15 -419h4q51 174 137 421l278 818h183l43 -818q6 -121 12 -421h4q74 233 135 413l285 826h154l-510 -1434h-215l-39 733q-12 262 -13 412h-4q-49 -158 -135 -412l-252 -733h-223z" />
<glyph unicode="X" horiz-adv-x="985" d="M-27 0l476 760l-242 674h192l181 -527l333 527h160l-432 -662l277 -772h-193l-215 621l-377 -621h-160z" />
<glyph unicode="Y" horiz-adv-x="960" d="M190 1434h195l180 -621h4l361 621h160l-474 -775l-90 -659h-188l92 664z" />
<glyph unicode="Z" horiz-adv-x="1015" d="M-2 0l12 98l889 1213h-670l19 123h887l-15 -99l-889 -1212h699l-17 -123h-915z" />
<glyph unicode="[" horiz-adv-x="569" d="M25 -336l251 1790h388l-13 -98h-213l-225 -1594h217l-14 -98h-391z" />
<glyph unicode="\" horiz-adv-x="745" d="M287 1536h125l159 -1735h-125z" />
<glyph unicode="]" horiz-adv-x="569" d="M-35 -336l15 98h219l225 1594h-215l12 98h387l-252 -1790h-391z" />
<glyph unicode="^" d="M98 553l412 881h92l406 -881h-148l-307 684l-307 -684h-148z" />
<glyph unicode="_" horiz-adv-x="901" d="M-41 -182h901v-133h-901v133z" />
<glyph unicode="`" horiz-adv-x="598" d="M250 1483h213l141 -285h-133z" />
<glyph unicode="a" horiz-adv-x="995" d="M102 340q0 178 56.5 339t169 266.5t258.5 105.5q141 0 211 -125h4l35 106h133l-84 -596q-33 -244 -34 -372q0 -37 3 -64h-158q-5 39 -5 83q0 65 11 140h-4q-125 -244 -321 -243q-133 0 -204 94t-71 266zM291 340q0 -244 135 -244q96 0 184 140.5t121 371.5l29 201 q-10 53 -50 94t-106 41q-139 0 -226 -186.5t-87 -417.5z" />
<glyph unicode="b" horiz-adv-x="1007" d="M84 0l215 1536h178l-96 -680h4q121 197 299 197q135 0 206 -97.5t71 -259.5q0 -287 -133.5 -500.5t-335.5 -213.5q-166 0 -234 124h-4l-39 -106h-131zM293 219q14 -53 56 -92t110 -39q139 0 225 184.5t86 421.5q0 242 -135 242q-100 0 -190.5 -139.5t-120.5 -358.5z" />
<glyph unicode="c" horiz-adv-x="843" d="M102 391q0 281 130 471.5t356 190.5q115 0 188.5 -44t104.5 -114l-146 -90q-35 145 -162 145q-80 0 -138 -63.5t-85.5 -159.5t-40 -182t-12.5 -160q0 -299 176 -299q117 0 184 154l140 -86q-111 -174 -344 -174q-184 0 -267.5 112.5t-83.5 298.5z" />
<glyph unicode="d" horiz-adv-x="993" d="M102 340q0 178 56.5 339t169 266.5t258.5 105.5q131 0 188 -97h4l82 582h178l-153 -1100q-33 -244 -34 -372q0 -37 3 -64h-158q-5 39 -5 83q0 65 11 140h-4q-125 -244 -321 -243q-133 0 -204 94t-71 266zM291 340q0 -244 135 -244q96 0 184 140.5t121 371.5l31 215 q-8 45 -50 83t-108 38q-139 0 -226 -186.5t-87 -417.5z" />
<glyph unicode="e" horiz-adv-x="923" d="M102 391q0 276 132.5 469t347.5 193q154 0 231.5 -101.5t77.5 -269.5q0 -72 -17 -166h-573q-6 -51 -6 -131q0 -299 188 -299q131 0 199 154l135 -90q-123 -170 -354 -170q-184 0 -272.5 113.5t-88.5 297.5zM315 618h392q6 41 6 91q0 242 -154 241q-187 0 -244 -332z" />
<glyph unicode="f" horiz-adv-x="587" d="M123 922l14 110h144l22 154q29 201 114 285.5t228 84.5q78 0 107 -14l-19 -125q-33 25 -96 25q-59 0 -94 -36t-49 -134l-35 -240h203l-15 -110h-203l-129 -922h-178l129 922h-143z" />
<glyph unicode="g" horiz-adv-x="993" d="M57 -260l101 135q80 -154 258 -154q102 0 160.5 77t89.5 268l30 188h-4q-113 -231 -299 -231q-139 0 -210.5 97t-71.5 253q0 174 58 329.5t166.5 252t239.5 96.5q141 0 220 -125h4l35 106h133l-121 -874q-41 -289 -144.5 -416t-308.5 -127q-234 0 -336 125zM299 369 q0 -229 135 -230q102 0 185 136.5t110 326.5l31 221q-16 45 -58.5 82t-103.5 37q-129 0 -214 -166.5t-85 -406.5z" />
<glyph unicode="h" horiz-adv-x="993" d="M86 0l215 1536h178l-96 -692q143 209 328 209q125 0 182 -92q40 -65 40 -170q0 -45 -7 -97l-97 -694h-178l97 688q8 53 7 95q0 141 -91 141q-96 0 -200 -115t-126 -279l-74 -530h-178z" />
<glyph unicode="i" horiz-adv-x="432" d="M86 0l143 1032h179l-144 -1032h-178zM258 1249l27 185h178l-27 -185h-178z" />
<glyph unicode="j" horiz-adv-x="432" d="M-133 -367l14 103q25 -8 68 -8q55 0 80.5 31.5t40.5 123.5l159 1149h179l-150 -1077q-25 -178 -86 -256t-203 -78q-77 0 -102 12zM258 1249l27 185h178l-27 -185h-178z" />
<glyph unicode="k" horiz-adv-x="878" d="M84 0l215 1536h178l-137 -977h4l440 473h179l-371 -385l231 -647h-184l-182 530l-142 -147l-53 -383h-178z" />
<glyph unicode="l" horiz-adv-x="434" d="M86 0l215 1536h178l-215 -1536h-178z" />
<glyph unicode="m" horiz-adv-x="1478" d="M86 0l143 1032h144l-8 -207h4q129 227 321 228q190 0 203 -222h4q133 221 311 222q209 0 209 -251q0 -49 -8 -108l-96 -694h-178l96 688q9 60 9 104q0 131 -77 132q-90 0 -184 -116t-117 -276l-74 -532h-178l97 688q9 62 9 107q0 128 -73 129q-94 0 -188.5 -116 t-116.5 -276l-74 -532h-178z" />
<glyph unicode="n" horiz-adv-x="993" d="M86 0l143 1032h144l-8 -211h4q147 231 342 232q125 0 182 -92q40 -65 40 -170q0 -45 -7 -97l-97 -694h-178l97 688q8 53 7 95q0 141 -91 141q-98 0 -201 -119t-125 -279l-74 -526h-178z" />
<glyph unicode="o" horiz-adv-x="1005" d="M98 393q0 291 145.5 475.5t360.5 184.5q166 0 259 -111t93 -305q0 -291 -144 -474t-359 -183q-166 0 -260.5 110t-94.5 303zM293 354q0 -272 174 -272q135 0 216 174t81 422q0 272 -174 272q-137 0 -217 -175t-80 -421z" />
<glyph unicode="p" horiz-adv-x="1009" d="M33 -377l196 1409h144l-8 -211h4q45 86 129 159t194 73q133 0 202 -97.5t69 -259.5q0 -287 -133.5 -500.5t-335.5 -213.5q-152 0 -220 100l-63 -459h-178zM295 219q14 -53 56 -92t110 -39q139 0 225 184.5t86 421.5q0 236 -127 236q-100 0 -194.5 -135.5t-124.5 -356.5z " />
<glyph unicode="q" horiz-adv-x="993" d="M102 340q0 178 56.5 339t169 266.5t258.5 105.5q141 0 211 -125h4l35 106h133l-197 -1409h-178l39 277q14 100 53 323h-4q-127 -244 -309 -243q-133 0 -202 94t-69 266zM291 340q0 -244 125 -244q98 0 193.5 162t127.5 393l23 158q-10 53 -50 94t-106 41 q-139 0 -226 -186.5t-87 -417.5z" />
<glyph unicode="r" horiz-adv-x="616" d="M86 0l143 1032h144l-15 -233h4q47 98 135.5 176t182.5 78l-31 -207q-12 4 -37 4q-94 0 -173 -77t-105 -269l-70 -504h-178z" />
<glyph unicode="s" horiz-adv-x="729" d="M25 104l100 123q27 -55 81 -100t132 -45q70 0 109.5 43t39.5 110.5t-54 131t-118.5 109.5t-119 121t-54.5 163q0 125 90.5 209t233.5 84q80 0 143.5 -24.5t86 -45t34.5 -39.5l-104 -117q-10 25 -27.5 48.5t-57.5 49t-91 25.5q-66 0 -102 -42t-36 -105q0 -61 54.5 -123 t119 -109t118.5 -123.5t54 -162.5q0 -129 -88 -217t-250 -88q-212 -1 -294 124z" />
<glyph unicode="t" horiz-adv-x="598" d="M123 922l14 110h150l37 258h168l-37 -258h200l-14 -110h-201l-94 -666q-5 -36 -5 -63q0 -41 11 -62q18 -35 76 -35q68 0 111 31l-19 -119q-57 -29 -153 -28q-137 0 -179 71q-26 45 -25 130q0 51 9 116l90 625h-139z" />
<glyph unicode="u" horiz-adv-x="978" d="M131 369l92 663h178l-92 -665q-9 -65 -9 -113q0 -57 13 -87q25 -56 90 -56q92 0 185.5 119.5t124.5 340.5l63 461h178l-84 -596q-34 -244 -34 -369q0 -40 4 -67h-158q-5 39 -5 82q0 65 11 141h-4q-135 -244 -344 -243q-218 0 -218 266q-1 56 9 123z" />
<glyph unicode="v" horiz-adv-x="878" d="M143 1032h183l77 -637q23 -176 25 -239h4q27 80 90 239l252 637h156l-436 -1032h-211z" />
<glyph unicode="w" horiz-adv-x="1280" d="M154 1032h182l43 -557q10 -127 10 -262h4q37 121 84 260l195 559h184l29 -512q10 -186 10 -305h4q59 193 84 260l193 557h145l-379 -1032h-178l-31 516q-10 182 -10 313h-4q-20 -72 -105 -315l-176 -514h-186z" />
<glyph unicode="x" horiz-adv-x="843" d="M-10 0l370 528l-198 504h182l137 -373l250 373h154l-344 -485l221 -547h-182l-156 412l-279 -412h-155z" />
<glyph unicode="y" horiz-adv-x="849" d="M-41 -373l18 137q35 -10 97 -10q80 0 124 44t89 161l35 90l-177 983h183l71 -469q33 -231 37 -293h4q49 143 113 291l195 471h153l-495 -1128q-68 -158 -143 -221.5t-195 -63.5q-68 0 -109 8z" />
<glyph unicode="z" horiz-adv-x="823" d="M0 0l10 84l625 838h-469l14 110h674l-10 -88l-621 -833h510l-14 -111h-719z" />
<glyph unicode="{" horiz-adv-x="557" d="M47 520l12 78q135 10 160 186l62 428q16 125 75.5 183.5t173.5 58.5h123l-12 -98h-82q-51 0 -73.5 -32t-32.5 -105l-56 -398q-31 -217 -196 -256l-2 -12q156 -39 125 -256l-56 -397q-10 -74 2.5 -106t63.5 -32h82l-15 -98h-122q-115 0 -157 57.5t-26 184.5l60 428 q24 176 -109 186z" />
<glyph unicode="|" horiz-adv-x="458" d="M215 -377v1913h131v-1913h-131z" />
<glyph unicode="}" horiz-adv-x="557" d="M-35 -336l15 98h83q51 0 74 32t33 106l55 397q31 217 193 256l2 12q-152 39 -121 256l55 398q10 74 -2 105.5t-63 31.5h-84l12 98h123q117 0 160 -57.5t26 -184.5l-61 -428q-25 -176 110 -186l-12 -78q-137 -10 -162 -186l-59 -428q-16 -125 -76.5 -183.5t-177.5 -58.5 h-123z" />
<glyph unicode="~" d="M102 682q92 129 250 129q74 0 219.5 -62.5t223.5 -62.5q94 0 159 92l70 -100q-86 -127 -229 -127q-94 0 -240.5 62.5t-216.5 62.5q-96 0 -168 -92z" />
<glyph unicode="&#xa1;" horiz-adv-x="462" d="M37 -401l190 1050h129l-108 -1050h-211zM219 821l31 211h192l-30 -211h-193z" />
<glyph unicode="&#xa2;" horiz-adv-x="901" d="M113 391q0 262 118.5 450.5t321.5 209.5l22 157h99l-23 -159q182 -18 244 -148l-131 -90q-39 111 -127 133l-119 -856q102 16 162 152l137 -90q-115 -158 -315 -168l-23 -172h-98l25 174q-152 18 -222.5 127.5t-70.5 279.5zM307 385q0 -242 115 -287l117 844 q-66 -18 -114 -87t-71.5 -158t-35 -167.5t-11.5 -144.5z" />
<glyph unicode="&#xa3;" horiz-adv-x="964" d="M68 0l20 152q119 72 186.5 157.5t67.5 214.5q0 66 -20 133h-168l14 107h115q-41 127 -41 213q0 180 114.5 297t311.5 117q250 0 356 -166l-147 -105q-18 55 -73.5 105.5t-156.5 50.5q-117 0 -173 -77t-56 -198q0 -98 39 -237h352l-14 -107h-312q14 -90 15 -118 q0 -223 -248 -377l-2 -4h643l-21 -158h-802z" />
<glyph unicode="&#xa4;" horiz-adv-x="1394" d="M156 203l211 211q-74 115 -74 299q0 188 80 309l-217 217l75 76l213 -213q121 111 304 110q184 0 305 -110l215 213l78 -76l-218 -219q82 -127 82 -309q0 -178 -75 -303l211 -205l-78 -80l-203 201q-119 -119 -311 -119q-195 0 -314 127l-209 -209zM432 713 q0 -193 91 -299.5t232.5 -106.5t226.5 104.5t85 295.5q0 186 -84 293.5t-229 107.5q-147 0 -234.5 -105.5t-87.5 -289.5z" />
<glyph unicode="&#xa5;" horiz-adv-x="1011" d="M102 354l17 107h315l21 149h-316l15 107h276l-203 651h189l174 -604h6l350 604h156l-395 -651h286l-14 -107h-336l-20 -149h335l-16 -107h-334l-49 -354h-188l49 354h-318z" />
<glyph unicode="&#xa6;" horiz-adv-x="458" d="M215 -377v807h131v-807h-131zM215 729v807h131v-807h-131z" />
<glyph unicode="&#xa7;" horiz-adv-x="958" d="M61 -141l129 92q18 -53 71.5 -99.5t152.5 -46.5q90 0 145 46.5t55 130.5q0 68 -53 122t-128 94t-149.5 84t-128 111.5t-53.5 153.5q0 119 65.5 209t178.5 139q-109 88 -108 211q0 156 108.5 252t284.5 96q236 0 327 -166l-135 -92q-14 51 -65 98t-152 47 q-90 0 -146.5 -46t-56.5 -132q0 -68 52.5 -121t128 -92t151.5 -81t128 -111.5t52 -159.5q0 -125 -65.5 -215t-177.5 -137q106 -86 106 -207q0 -156 -107.5 -251t-283.5 -95q-139 0 -216 52.5t-110 113.5zM272 614q0 -51 18.5 -92t58.5 -73.5t75 -54t94.5 -53.5t87.5 -50 q139 86 139 241q0 49 -18 90.5t-58 74t-75 54t-95.5 53.5t-88.5 50q-138 -86 -138 -240z" />
<glyph unicode="&#xa8;" horiz-adv-x="702" d="M231 1241l25 186h180l-24 -186h-181zM559 1241l25 186h178l-25 -186h-178z" />
<glyph unicode="&#xa9;" horiz-adv-x="1589" d="M113 716.5q0 323.5 207.5 530.5t525 207t525.5 -207t208 -530.5t-208 -530t-525.5 -206.5t-525 206.5t-207.5 530zM240 716.5q0 -270.5 165.5 -449.5t440 -179t440.5 180.5t166 448.5t-167 449.5t-439 181.5q-274 0 -440 -180.5t-166 -451zM492 727q0 184 97 300t271 116 q172 0 273 -127l-105 -78q-57 113 -168 113q-96 0 -154.5 -81t-58.5 -243q0 -174 64.5 -256t165.5 -82q70 0 106.5 33t71.5 102l106 -73q-111 -158 -297 -158q-176 0 -274 119.5t-98 314.5z" />
<glyph unicode="&#xaa;" horiz-adv-x="743" d="M174 936q0 131 106.5 199.5t331.5 109.5l6 37q8 68 9 88q0 106 -95 107q-104 0 -180 -113l-98 63q35 51 109.5 90t175.5 39q225 0 225 -202q0 -55 -10 -119l-41 -285q-12 -82 -13 -133q0 -27 2 -37h-127l-4 84q-104 -100 -209 -100q-88 0 -138 44t-50 128zM324 961 q0 -100 96 -101q74 0 149 80l33 234q-135 -27 -206.5 -73t-71.5 -140z" />
<glyph unicode="&#xab;" horiz-adv-x="1015" d="M123 541l348 409h166l-350 -409l237 -398h-166zM481 541l346 409h168l-352 -409l240 -398h-168z" />
<glyph unicode="&#xac;" d="M72 496v131h901v-455h-144v324h-757z" />
<glyph unicode="&#xad;" horiz-adv-x="641" d="M113 483l22 154h457l-23 -154h-456z" />
<glyph unicode="&#xae;" horiz-adv-x="1185" d="M174 1042q0 225 145.5 369.5t364.5 144.5q221 0 366.5 -144t145.5 -369.5t-145.5 -369t-366.5 -143.5q-219 0 -364.5 144.5t-145.5 367.5zM276 1042q0 -182 112 -304t296 -122q186 0 298 122t112 304.5t-112 305t-298 122.5q-184 0 -296 -122t-112 -306zM489 768v557h185 q225 0 225 -158q0 -119 -106 -149l122 -250h-133l-106 233h-64v-233h-123zM612 1069h54q106 0 106 92q0 94 -104 94h-56v-186z" />
<glyph unicode="&#xaf;" horiz-adv-x="727" d="M254 1266l18 127h531l-19 -127h-530z" />
<glyph unicode="&#xb0;" horiz-adv-x="727" d="M201 1171.5q0 118.5 77.5 200.5t202.5 82t204 -82t79 -200.5t-79 -199.5t-204 -81t-202.5 81t-77.5 199.5zM315 1171.5q0 -75.5 42 -129t124 -53.5t125 54.5t43 127.5q0 76 -43 130.5t-125 54.5t-124 -54.5t-42 -130z" />
<glyph unicode="&#xb1;" d="M119 33v131h848v-131h-848zM119 584v131h352v317h143v-317h353v-131h-353v-318h-143v318h-352z" />
<glyph unicode="&#xb2;" horiz-adv-x="692" d="M111 616l14 103q84 53 122 77.5t115.5 83t116.5 100.5t73 101.5t34 114.5q0 104 -107 104q-104 0 -164 -120l-131 47q74 164 297 164q127 0 194.5 -51.5t67.5 -143.5q0 -63 -28.5 -120.5t-66.5 -98.5t-107.5 -88t-119.5 -74t-134 -67v-5h405l-16 -127h-565z" />
<glyph unicode="&#xb3;" horiz-adv-x="694" d="M131 737l121 49q31 -98 154 -98q61 0 102 36t41 116q0 143 -219 143l12 78q240 0 240 160q0 86 -107 86q-92 0 -153 -90l-119 51q82 123 282 123q113 0 179.5 -44t66.5 -120q0 -80 -59.5 -132.5t-163.5 -70.5v-4q197 -29 197 -178q0 -113 -88.5 -175.5t-227.5 -62.5 q-205 0 -258 133z" />
<glyph unicode="&#xb4;" horiz-adv-x="598" d="M246 1198l217 285h221l-301 -285h-137z" />
<glyph unicode="&#xb5;" horiz-adv-x="997" d="M45 -377l199 1409h178l-96 -680q-33 -233 112 -233q131 0 244 123l111 790h178l-146 -1032h-133l-8 137h-2q-158 -158 -272 -157q-84 0 -129 51l-5 -2q-4 -59 -26 -215l-27 -191h-178z" />
<glyph unicode="&#x3bc;" horiz-adv-x="997" d="M45 -377l199 1409h178l-96 -680q-33 -233 112 -233q131 0 244 123l111 790h178l-146 -1032h-133l-8 137h-2q-158 -158 -272 -157q-84 0 -129 51l-5 -2q-4 -59 -26 -215l-27 -191h-178z" />
<glyph unicode="&#xb6;" d="M137 967q0 139 69.5 251.5t178.5 165.5q98 49 291 50h510l-19 -123h-123l-235 -1688h-131l235 1688h-219l-235 -1688h-131l141 1008q-145 0 -238.5 92t-93.5 244z" />
<glyph unicode="&#xb7;" horiz-adv-x="428" d="M143 516l31 211h193l-31 -211h-193z" />
<glyph unicode="&#xb8;" horiz-adv-x="548" d="M10 -352l31 65q39 -39 115 -39q72 0 71 76q0 78 -133 84l82 189h82l-55 -121q164 -31 164 -154q0 -68 -49.5 -113t-135.5 -45q-123 1 -172 58z" />
<glyph unicode="&#xb9;" horiz-adv-x="573" d="M168 616l12 82h119l78 564h-144l11 63l225 53h82l-96 -680h114l-12 -82h-389z" />
<glyph unicode="&#xba;" horiz-adv-x="784" d="M184 1067q0 217 107.5 353t267.5 136q127 0 196.5 -80.5t69.5 -224.5q0 -215 -108.5 -351t-270.5 -136q-123 0 -192.5 81t-69.5 222zM336 1040q0 -197 123 -196q98 0 155.5 129t57.5 305q0 199 -125 199q-100 0 -155.5 -130.5t-55.5 -306.5z" />
<glyph unicode="&#xbb;" horiz-adv-x="1013" d="M92 143l350 398l-237 409h168l231 -409l-344 -398h-168zM451 143l348 398l-236 409h166l234 -409l-347 -398h-165z" />
<glyph unicode="&#xbc;" horiz-adv-x="1529" d="M174 616l12 82h119l78 564h-143l10 63l225 53h82l-96 -680h114l-12 -82h-389zM246 0l1054 1434h146l-1055 -1434h-145zM821 180l10 80l457 502h139l-71 -498h110l-12 -84h-108l-27 -180h-156l27 180h-369zM936 264h264l57 350h-4z" />
<glyph unicode="&#xbd;" horiz-adv-x="1636" d="M174 616l12 82h119l78 564h-143l10 63l225 53h82l-96 -680h114l-12 -82h-389zM246 0l1054 1434h146l-1055 -1434h-145zM973 0l14 102q84 53 122 78t116 83.5t116.5 100.5t72.5 101t34 115q0 104 -107 104q-104 0 -163 -121l-131 47q74 164 296 164q127 0 195 -51t68 -143 q0 -63 -29 -121t-66.5 -99t-107.5 -88t-120 -73.5t-134 -67.5v-4h405l-16 -127h-565z" />
<glyph unicode="&#xbe;" horiz-adv-x="1603" d="M131 737l121 49q31 -98 154 -98q61 0 102 36t41 116q0 143 -219 143l12 78q240 0 240 160q0 86 -107 86q-92 0 -153 -90l-119 51q82 123 282 123q113 0 179.5 -44t66.5 -120q0 -80 -59.5 -132.5t-163.5 -70.5v-4q197 -29 197 -178q0 -113 -88.5 -175.5t-227.5 -62.5 q-205 0 -258 133zM328 0l1054 1434h146l-1055 -1434h-145zM895 180l10 80l457 502h139l-71 -498h110l-12 -84h-109l-26 -180h-156l27 180h-369zM1010 264h264l57 350h-4z" />
<glyph unicode="&#xbf;" horiz-adv-x="753" d="M-33 -156q0 29 6.5 57.5t14.5 52t27.5 53.5t30.5 48.5t38 49t39 44t44 47t42 44.5q55 61 79.5 90.5t50.5 79t38 106.5l26 133h113l-12 -141q-2 -35 -7 -64.5t-17.5 -59.5t-18.5 -46t-26.5 -46t-27 -39t-35 -45t-34.5 -44q-68 -84 -95.5 -123t-53 -95.5t-25.5 -107.5 q0 -141 158 -141q92 0 151 60.5t86 148.5l143 -84q-98 -244 -397 -244q-158 0 -248 71.5t-90 194.5zM387 821l31 211h192l-30 -211h-193z" />
<glyph unicode="&#xc0;" horiz-adv-x="1085" d="M-6 0l592 1434h252l163 -1434h-184l-49 426h-446l-170 -426h-158zM371 549h383l-49 446q-20 182 -27 310h-6q-29 -82 -117 -301zM463 1780h213l145 -240h-135z" />
<glyph unicode="&#xc1;" horiz-adv-x="1085" d="M-6 0l592 1434h252l163 -1434h-184l-49 426h-446l-170 -426h-158zM371 549h383l-49 446q-20 182 -27 310h-6q-29 -82 -117 -301zM616 1540l213 240h222l-295 -240h-140z" />
<glyph unicode="&#xc2;" horiz-adv-x="1085" d="M-6 0l592 1434h252l163 -1434h-184l-49 426h-446l-170 -426h-158zM371 549h383l-49 446q-20 182 -27 310h-6q-29 -82 -117 -301zM455 1540l180 240h219l117 -240h-117l-115 148h-4l-162 -148h-118z" />
<glyph unicode="&#xc3;" horiz-adv-x="1085" d="M-6 0l592 1434h252l163 -1434h-184l-49 426h-446l-170 -426h-158zM371 549h383l-49 446q-20 182 -27 310h-6q-29 -82 -117 -301zM428 1556q45 197 188 197q49 0 125 -33.5t111 -33.5q45 0 68 63h108q-49 -199 -174 -199q-47 0 -129 36t-115 36q-53 0 -73 -66h-109z" />
<glyph unicode="&#xc4;" horiz-adv-x="1085" d="M-6 0l592 1434h252l163 -1434h-184l-49 426h-446l-170 -426h-158zM371 549h383l-49 446q-20 182 -27 310h-6q-29 -82 -117 -301zM463 1554l26 187h181l-27 -187h-180zM799 1554l26 187h181l-27 -187h-180z" />
<glyph unicode="&#xc5;" horiz-adv-x="1085" d="M-6 0l592 1434h252l163 -1434h-184l-49 426h-446l-170 -426h-158zM371 549h383l-49 446q-20 182 -27 310h-6q-29 -82 -117 -301zM549 1651q0 96 65.5 154.5t151.5 58.5q72 0 119 -41t47 -113q0 -92 -62.5 -151.5t-154.5 -59.5q-74 0 -120 40t-46 112zM651 1659 q0 -82 76 -82q47 0 74.5 38t27.5 89q0 82 -73 82q-47 0 -76 -37t-29 -90z" />
<glyph unicode="&#xc6;" horiz-adv-x="1484" d="M-68 0l803 1434h819l-18 -123h-520l-70 -498h406l-17 -123h-405l-80 -567h541l-17 -123h-729l60 426h-373l-238 -426h-162zM399 549h322l106 762h-6z" />
<glyph unicode="&#xc7;" horiz-adv-x="1105" d="M135 530q0 117 20.5 238t69.5 246t122 221t186.5 157.5t252.5 61.5q152 0 248 -66.5t131 -183.5l-170 -82q-18 98 -76.5 155.5t-148.5 57.5q-119 0 -209 -88t-135 -223t-65.5 -264t-20.5 -244q0 -195 65.5 -305.5t194.5 -110.5q180 0 291 238l168 -72 q-150 -279 -463 -286l-35 -78q164 -31 164 -154q0 -68 -49 -113t-135 -45q-123 0 -172 58l30 65q39 -39 115 -39q72 0 72 76q0 78 -133 84l63 150q-188 20 -284.5 164t-96.5 382z" />
<glyph unicode="&#xc8;" horiz-adv-x="937" d="M98 0l201 1434h709l-19 -123h-520l-70 -496h428l-18 -127h-426l-80 -565h541l-17 -123h-729zM412 1780h213l145 -240h-135z" />
<glyph unicode="&#xc9;" horiz-adv-x="937" d="M98 0l201 1434h709l-19 -123h-520l-70 -496h428l-18 -127h-426l-80 -565h541l-17 -123h-729zM559 1540l213 240h221l-295 -240h-139z" />
<glyph unicode="&#xca;" horiz-adv-x="937" d="M98 0l201 1434h709l-19 -123h-520l-70 -496h428l-18 -127h-426l-80 -565h541l-17 -123h-729zM401 1540l181 240h219l117 -240h-117l-115 148h-4l-162 -148h-119z" />
<glyph unicode="&#xcb;" horiz-adv-x="937" d="M98 0l201 1434h709l-19 -123h-520l-70 -496h428l-18 -127h-426l-80 -565h541l-17 -123h-729zM401 1554l27 187h180l-26 -187h-181zM737 1554l27 187h180l-26 -187h-181z" />
<glyph unicode="&#xcc;" horiz-adv-x="466" d="M98 0l201 1434h188l-200 -1434h-189zM121 1780h213l145 -240h-135z" />
<glyph unicode="&#xcd;" horiz-adv-x="466" d="M98 0l201 1434h188l-200 -1434h-189zM324 1540l213 240h221l-295 -240h-139z" />
<glyph unicode="&#xce;" horiz-adv-x="466" d="M98 0l201 1434h188l-200 -1434h-189zM150 1540l180 240h219l117 -240h-117l-115 148h-4l-162 -148h-118z" />
<glyph unicode="&#xcf;" horiz-adv-x="466" d="M98 0l201 1434h188l-200 -1434h-189zM147 1554l27 187h180l-26 -187h-181zM483 1554l27 187h180l-26 -187h-181z" />
<glyph unicode="&#xd0;" horiz-adv-x="1232" d="M96 690l19 127h116l88 617h338q557 0 557 -541q0 -135 -25.5 -260t-82.5 -242t-141 -203t-210 -137t-280 -51h-356l96 690h-119zM324 119h168q117 0 208 50t148 129t94 185.5t51.5 211t14.5 214.5q0 199 -86 302.5t-281 103.5h-149l-72 -498h301l-19 -127h-299z" />
<glyph unicode="&#xd1;" horiz-adv-x="1204" d="M98 0l201 1434h154l305 -689q125 -283 166 -403h4q16 145 61 461l88 631h148l-201 -1434h-135l-332 748q-129 289 -156 374h-4q-27 -217 -55 -436l-96 -686h-148zM502 1556q45 197 188 197q49 0 125 -33.5t111 -33.5q45 0 67 63h109q-49 -199 -174 -199q-47 0 -129 36 t-115 36q-53 0 -74 -66h-108z" />
<glyph unicode="&#xd2;" horiz-adv-x="1275" d="M135 551q0 393 185.5 648t478.5 255q217 0 335.5 -147.5t118.5 -411.5q0 -115 -21.5 -235.5t-71.5 -243.5t-123.5 -219.5t-189.5 -156.5t-255 -60q-221 0 -339 147.5t-118 423.5zM340 528q0 -205 67.5 -317.5t198.5 -112.5q119 0 209 88t138 223.5t71 267.5t23 251 q0 193 -66 300t-199 107q-119 0 -210 -84t-138 -214t-70.5 -260t-23.5 -249zM539 1780h213l145 -240h-135z" />
<glyph unicode="&#xd3;" horiz-adv-x="1275" d="M135 551q0 393 185.5 648t478.5 255q217 0 335.5 -147.5t118.5 -411.5q0 -115 -21.5 -235.5t-71.5 -243.5t-123.5 -219.5t-189.5 -156.5t-255 -60q-221 0 -339 147.5t-118 423.5zM340 528q0 -205 67.5 -317.5t198.5 -112.5q119 0 209 88t138 223.5t71 267.5t23 251 q0 193 -66 300t-199 107q-119 0 -210 -84t-138 -214t-70.5 -260t-23.5 -249zM719 1540l213 240h221l-295 -240h-139z" />
<glyph unicode="&#xd4;" horiz-adv-x="1275" d="M135 551q0 393 185.5 648t478.5 255q217 0 335.5 -147.5t118.5 -411.5q0 -115 -21.5 -235.5t-71.5 -243.5t-123.5 -219.5t-189.5 -156.5t-255 -60q-221 0 -339 147.5t-118 423.5zM340 528q0 -205 67.5 -317.5t198.5 -112.5q119 0 209 88t138 223.5t71 267.5t23 251 q0 193 -66 300t-199 107q-119 0 -210 -84t-138 -214t-70.5 -260t-23.5 -249zM565 1540l180 240h220l116 -240h-116l-115 148h-4l-162 -148h-119z" />
<glyph unicode="&#xd5;" horiz-adv-x="1275" d="M135 551q0 393 185.5 648t478.5 255q217 0 335.5 -147.5t118.5 -411.5q0 -115 -21.5 -235.5t-71.5 -243.5t-123.5 -219.5t-189.5 -156.5t-255 -60q-221 0 -339 147.5t-118 423.5zM340 528q0 -205 67.5 -317.5t198.5 -112.5q119 0 209 88t138 223.5t71 267.5t23 251 q0 193 -66 300t-199 107q-119 0 -210 -84t-138 -214t-70.5 -260t-23.5 -249zM553 1556q45 197 188 197q49 0 125 -33.5t111 -33.5q45 0 67 63h109q-49 -199 -174 -199q-45 0 -127 36t-117 36q-53 0 -73 -66h-109z" />
<glyph unicode="&#xd6;" horiz-adv-x="1275" d="M135 551q0 393 185.5 648t478.5 255q217 0 335.5 -147.5t118.5 -411.5q0 -115 -21.5 -235.5t-71.5 -243.5t-123.5 -219.5t-189.5 -156.5t-255 -60q-221 0 -339 147.5t-118 423.5zM340 528q0 -205 67.5 -317.5t198.5 -112.5q119 0 209 88t138 223.5t71 267.5t23 251 q0 193 -66 300t-199 107q-119 0 -210 -84t-138 -214t-70.5 -260t-23.5 -249zM569 1554l27 187h180l-26 -187h-181zM905 1554l27 187h180l-27 -187h-180z" />
<glyph unicode="&#xd7;" d="M180 844l101 98l284 -287l285 287l92 -94l-285 -285l289 -287l-100 -98l-287 287l-283 -285l-92 94l283 283z" />
<glyph unicode="&#xd8;" horiz-adv-x="1275" d="M135 539q0 408 184.5 661.5t477.5 253.5q109 0 198 -39l64 131l94 -22l-76 -160q176 -141 176 -463q0 -117 -21.5 -238.5t-72.5 -245.5t-124.5 -220.5t-189.5 -156.5t-255 -60q-86 0 -166 26l-64 -135l-92 23l74 153q-207 138 -207 492zM340 516q0 -207 74 -317l518 1083 q-59 53 -152 53q-98 0 -177 -59t-126 -149.5t-79.5 -205t-45 -215t-12.5 -190.5zM483 129q53 -31 123 -31q98 0 177 59.5t126 149.5t80 205t45.5 217t12.5 193q0 172 -52 274z" />
<glyph unicode="&#xd9;" horiz-adv-x="1193" d="M162 346q0 92 22 260l115 828h188l-118 -838q-16 -121 -17 -203q0 -262 248 -262q141 0 223 86t113 303l131 914h147l-133 -947q-39 -279 -164.5 -393t-334.5 -114q-420 -1 -420 366zM541 1780h213l145 -240h-135z" />
<glyph unicode="&#xda;" horiz-adv-x="1193" d="M162 346q0 92 22 260l115 828h188l-118 -838q-16 -121 -17 -203q0 -262 248 -262q141 0 223 86t113 303l131 914h147l-133 -947q-39 -279 -164.5 -393t-334.5 -114q-420 -1 -420 366zM686 1540l213 240h221l-295 -240h-139z" />
<glyph unicode="&#xdb;" horiz-adv-x="1193" d="M162 346q0 92 22 260l115 828h188l-118 -838q-16 -121 -17 -203q0 -262 248 -262q141 0 223 86t113 303l131 914h147l-133 -947q-39 -279 -164.5 -393t-334.5 -114q-420 -1 -420 366zM526 1540l181 240h219l116 -240h-116l-115 148h-4l-162 -148h-119z" />
<glyph unicode="&#xdc;" horiz-adv-x="1193" d="M162 346q0 92 22 260l115 828h188l-118 -838q-16 -121 -17 -203q0 -262 248 -262q141 0 223 86t113 303l131 914h147l-133 -947q-39 -279 -164.5 -393t-334.5 -114q-420 -1 -420 366zM518 1554l27 187h180l-27 -187h-180zM854 1554l27 187h180l-27 -187h-180z" />
<glyph unicode="&#xdd;" horiz-adv-x="960" d="M190 1434h195l180 -621h4l361 621h160l-474 -775l-90 -659h-188l92 664zM571 1540l213 240h222l-295 -240h-140z" />
<glyph unicode="&#xde;" horiz-adv-x="1034" d="M98 0l201 1434h188l-34 -238h82q496 0 495 -358q0 -170 -83 -282t-207 -156t-287 -44h-117l-49 -356h-189zM352 475h117q176 0 266 85t90 269q0 133 -69.5 190.5t-225.5 57.5h-94z" />
<glyph unicode="&#xdf;" horiz-adv-x="1083" d="M123 922l14 110h144l16 125q27 201 138.5 300t279.5 99q156 0 245 -73.5t89 -192.5q0 -92 -42 -169t-93.5 -121t-93.5 -97t-42 -100q0 -45 43 -100.5t94.5 -102.5t94.5 -123t43 -158q0 -154 -107.5 -246.5t-283.5 -92.5q-158 0 -201 36l20 144q16 -29 82 -53.5t135 -24.5 q82 0 126 50t44 140q0 66 -42 131.5t-93 110.5t-93 109.5t-42 128.5q0 51 28.5 99t69.5 90t82 88t70 110.5t29 138.5q0 80 -45.5 125t-122.5 45q-96 0 -153.5 -66.5t-82.5 -242.5l-160 -1139h-178l131 922h-143z" />
<glyph unicode="&#xe0;" horiz-adv-x="995" d="M102 340q0 178 56.5 339t169 266.5t258.5 105.5q141 0 211 -125h4l35 106h133l-84 -596q-43 -313 -31 -436h-158q-12 98 6 223h-4q-125 -244 -321 -243q-133 0 -204 94t-71 266zM291 340q0 -244 135 -244q96 0 184 140.5t121 371.5l29 201q-10 53 -50 94t-106 41 q-139 0 -226 -186.5t-87 -417.5zM395 1483h213l142 -285h-134z" />
<glyph unicode="&#xe1;" horiz-adv-x="995" d="M102 340q0 178 56.5 339t169 266.5t258.5 105.5q141 0 211 -125h4l35 106h133l-84 -596q-43 -313 -31 -436h-158q-12 98 6 223h-4q-125 -244 -321 -243q-133 0 -204 94t-71 266zM291 340q0 -244 135 -244q96 0 184 140.5t121 371.5l29 201q-10 53 -50 94t-106 41 q-139 0 -226 -186.5t-87 -417.5zM567 1198l217 285h222l-301 -285h-138z" />
<glyph unicode="&#xe2;" horiz-adv-x="995" d="M102 340q0 178 56.5 339t169 266.5t258.5 105.5q141 0 211 -125h4l35 106h133l-84 -596q-43 -313 -31 -436h-158q-12 98 6 223h-4q-125 -244 -321 -243q-133 0 -204 94t-71 266zM291 340q0 -244 135 -244q96 0 184 140.5t121 371.5l29 201q-10 53 -50 94t-106 41 q-139 0 -226 -186.5t-87 -417.5zM389 1198l189 285h217l110 -285h-117l-112 182h-4l-164 -182h-119z" />
<glyph unicode="&#xe3;" horiz-adv-x="995" d="M102 340q0 178 56.5 339t169 266.5t258.5 105.5q141 0 211 -125h4l35 106h133l-84 -596q-43 -313 -31 -436h-158q-12 98 6 223h-4q-125 -244 -321 -243q-133 0 -204 94t-71 266zM291 340q0 -244 135 -244q96 0 184 140.5t121 371.5l29 201q-10 53 -50 94t-106 41 q-139 0 -226 -186.5t-87 -417.5zM360 1241q18 84 63.5 140.5t123.5 56.5q49 0 126 -34t111 -34q45 0 66 64h108q-20 -86 -64 -142.5t-110 -56.5q-47 0 -129 36t-114 36q-51 0 -72 -66h-109z" />
<glyph unicode="&#xe4;" horiz-adv-x="995" d="M102 340q0 178 56.5 339t169 266.5t258.5 105.5q141 0 211 -125h4l35 106h133l-84 -596q-43 -313 -31 -436h-158q-12 98 6 223h-4q-125 -244 -321 -243q-133 0 -204 94t-71 266zM291 340q0 -244 135 -244q96 0 184 140.5t121 371.5l29 201q-10 53 -50 94t-106 41 q-139 0 -226 -186.5t-87 -417.5zM420 1241l24 186h181l-25 -186h-180zM748 1241l24 186h178l-24 -186h-178z" />
<glyph unicode="&#xe5;" horiz-adv-x="995" d="M102 340q0 178 56.5 339t169 266.5t258.5 105.5q141 0 211 -125h4l35 106h133l-84 -596q-43 -313 -31 -436h-158q-12 98 6 223h-4q-125 -244 -321 -243q-133 0 -204 94t-71 266zM291 340q0 -244 135 -244q96 0 184 140.5t121 371.5l29 201q-10 53 -50 94t-106 41 q-139 0 -226 -186.5t-87 -417.5zM477 1315q0 102 63.5 161.5t155.5 59.5q74 0 119 -41t45 -115q0 -90 -60.5 -155.5t-156.5 -65.5q-74 0 -120 41t-46 115zM580 1321q0 -84 73 -84q47 0 76 41t29 96q0 84 -72 84q-49 0 -77.5 -41t-28.5 -96z" />
<glyph unicode="&#xe6;" horiz-adv-x="1433" d="M55 203q0 184 148.5 282.5t443.5 145.5l6 41q14 102 15 125q0 154 -136 153q-78 0 -139 -48t-96 -116l-131 86q49 74 144.5 127.5t230.5 53.5q203 0 268 -123q119 123 283 123q154 0 231.5 -101.5t77.5 -269.5q0 -72 -17 -166h-573q-6 -51 -6 -131q0 -299 188 -299 q131 0 199 154l135 -90q-123 -170 -354 -170q-217 0 -307 161q-172 -162 -371 -161q-113 0 -176.5 58.5t-63.5 164.5zM244 233q0 -63 34.5 -97t94.5 -34q123 0 256 138q-12 55 -13 118q0 92 13 174q-180 -31 -282.5 -97.5t-102.5 -201.5zM825 618h392q6 41 6 91 q0 242 -154 241q-187 0 -244 -332z" />
<glyph unicode="&#xe7;" horiz-adv-x="856" d="M102 391q0 279 132.5 470.5t353.5 191.5q111 0 188.5 -41t108.5 -111l-131 -90q-49 139 -174 139q-80 0 -138.5 -63.5t-88 -158.5t-43 -182t-13.5 -161q0 -299 182 -299q123 0 191 154l137 -90q-121 -166 -340 -170l-35 -78q164 -31 164 -154q0 -68 -49 -113t-135 -45 q-123 0 -172 58l30 65q39 -39 115 -39q72 0 72 76q0 78 -133 84l65 152q-150 20 -218.5 128.5t-68.5 276.5z" />
<glyph unicode="&#xe8;" horiz-adv-x="923" d="M102 391q0 276 132.5 469t347.5 193q154 0 231.5 -101.5t77.5 -269.5q0 -72 -17 -166h-573q-6 -51 -6 -131q0 -299 188 -299q131 0 199 154l135 -90q-123 -170 -354 -170q-184 0 -272.5 113.5t-88.5 297.5zM315 618h392q6 41 6 91q0 242 -154 241q-187 0 -244 -332z M375 1483h213l141 -285h-133z" />
<glyph unicode="&#xe9;" horiz-adv-x="923" d="M102 391q0 276 132.5 469t347.5 193q154 0 231.5 -101.5t77.5 -269.5q0 -72 -17 -166h-573q-6 -51 -6 -131q0 -299 188 -299q131 0 199 154l135 -90q-123 -170 -354 -170q-184 0 -272.5 113.5t-88.5 297.5zM315 618h392q6 41 6 91q0 242 -154 241q-187 0 -244 -332z M510 1198l217 285h221l-301 -285h-137z" />
<glyph unicode="&#xea;" horiz-adv-x="923" d="M102 391q0 276 132.5 469t347.5 193q154 0 231.5 -101.5t77.5 -269.5q0 -72 -17 -166h-573q-6 -51 -6 -131q0 -299 188 -299q131 0 199 154l135 -90q-123 -170 -354 -170q-184 0 -272.5 113.5t-88.5 297.5zM315 618h392q6 41 6 91q0 242 -154 241q-187 0 -244 -332z M344 1198l188 285h218l110 -285h-117l-112 182h-4l-164 -182h-119z" />
<glyph unicode="&#xeb;" horiz-adv-x="923" d="M102 391q0 276 132.5 469t347.5 193q154 0 231.5 -101.5t77.5 -269.5q0 -72 -17 -166h-573q-6 -51 -6 -131q0 -299 188 -299q131 0 199 154l135 -90q-123 -170 -354 -170q-184 0 -272.5 113.5t-88.5 297.5zM315 618h392q6 41 6 91q0 242 -154 241q-187 0 -244 -332z M367 1241l24 186h180l-24 -186h-180zM694 1241l25 186h178l-25 -186h-178z" />
<glyph unicode="&#xec;" horiz-adv-x="432" d="M59 1483h213l142 -285h-133zM86 0l143 1032h179l-144 -1032h-178z" />
<glyph unicode="&#xed;" horiz-adv-x="432" d="M86 0l143 1032h179l-144 -1032h-178zM260 1198l217 285h221l-301 -285h-137z" />
<glyph unicode="&#xee;" horiz-adv-x="432" d="M76 1198l188 285h217l111 -285h-117l-113 182h-4l-163 -182h-119zM86 0l143 1032h179l-144 -1032h-178z" />
<glyph unicode="&#xef;" horiz-adv-x="432" d="M82 1241l24 186h181l-25 -186h-180zM86 0l143 1032h179l-144 -1032h-178zM410 1241l24 186h178l-24 -186h-178z" />
<glyph unicode="&#xf0;" horiz-adv-x="999" d="M96 418q0 272 137.5 443t317.5 171q121 0 221 -100q-8 154 -47 285l-236 -52l-12 80l223 49q-49 125 -127 211l172 47q61 -57 123 -221l172 39l13 -80l-160 -35q53 -184 53 -393q0 -428 -133 -655t-364 -227q-168 0 -260.5 114.5t-92.5 323.5zM287 356q0 -274 176 -274 q143 0 223 202.5t86 510.5q-25 43 -75 81.5t-124 38.5q-137 0 -211.5 -157.5t-74.5 -401.5z" />
<glyph unicode="&#xf1;" horiz-adv-x="993" d="M86 0l143 1032h144l-8 -211h4q147 231 342 232q125 0 182 -92.5t33 -266.5l-97 -694h-178l97 688q35 236 -84 236q-98 0 -201 -119t-125 -279l-74 -526h-178zM354 1241q18 84 63.5 140.5t123.5 56.5q49 0 125.5 -34t111.5 -34q45 0 66 64h108q-20 -86 -64 -142.5 t-110 -56.5q-45 0 -127 36t-116 36q-51 0 -72 -66h-109z" />
<glyph unicode="&#xf2;" horiz-adv-x="1005" d="M98 393q0 291 145.5 475.5t360.5 184.5q166 0 259 -111t93 -305q0 -291 -144 -474t-359 -183q-166 0 -260.5 110t-94.5 303zM293 354q0 -272 174 -272q135 0 216 174t81 422q0 272 -174 272q-137 0 -217 -175t-80 -421zM369 1483h213l141 -285h-133z" />
<glyph unicode="&#xf3;" horiz-adv-x="1005" d="M98 393q0 291 145.5 475.5t360.5 184.5q166 0 259 -111t93 -305q0 -291 -144 -474t-359 -183q-166 0 -260.5 110t-94.5 303zM293 354q0 -272 174 -272q135 0 216 174t81 422q0 272 -174 272q-137 0 -217 -175t-80 -421zM535 1198l217 285h221l-301 -285h-137z" />
<glyph unicode="&#xf4;" horiz-adv-x="1005" d="M98 393q0 291 145.5 475.5t360.5 184.5q166 0 259 -111t93 -305q0 -291 -144 -474t-359 -183q-166 0 -260.5 110t-94.5 303zM293 354q0 -272 174 -272q135 0 216 174t81 422q0 272 -174 272q-137 0 -217 -175t-80 -421zM375 1198l188 285h217l111 -285h-117l-112 182h-5 l-163 -182h-119z" />
<glyph unicode="&#xf5;" horiz-adv-x="1005" d="M98 393q0 291 145.5 475.5t360.5 184.5q166 0 259 -111t93 -305q0 -291 -144 -474t-359 -183q-166 0 -260.5 110t-94.5 303zM293 354q0 -272 174 -272q135 0 216 174t81 422q0 272 -174 272q-137 0 -217 -175t-80 -421zM354 1241q18 84 63.5 140.5t123.5 56.5 q49 0 125.5 -34t111.5 -34q45 0 66 64h108q-20 -86 -64 -142.5t-110 -56.5q-45 0 -127 36t-116 36q-51 0 -72 -66h-109z" />
<glyph unicode="&#xf6;" horiz-adv-x="1005" d="M98 393q0 291 145.5 475.5t360.5 184.5q166 0 259 -111t93 -305q0 -291 -144 -474t-359 -183q-166 0 -260.5 110t-94.5 303zM293 354q0 -272 174 -272q135 0 216 174t81 422q0 272 -174 272q-137 0 -217 -175t-80 -421zM385 1241l25 186h180l-25 -186h-180zM713 1241 l24 186h178l-24 -186h-178z" />
<glyph unicode="&#xf7;" d="M113 496v131h901v-131h-901zM453 221q0 47 31.5 79t76.5 32t78 -33t33 -78t-32 -76.5t-79 -31.5q-45 0 -76.5 31.5t-31.5 76.5zM453 899q0 47 31.5 79t76.5 32t78 -32t33 -79q0 -45 -32 -76.5t-79 -31.5q-45 0 -76.5 30.5t-31.5 77.5z" />
<glyph unicode="&#xf8;" horiz-adv-x="1005" d="M98 393q0 291 145.5 475.5t360.5 184.5q119 0 201 -58l86 125l80 -39l-101 -147q86 -111 86 -297q0 -291 -144 -474t-359 -183q-111 0 -195 51l-74 -109l-78 39l87 127q-95 110 -95 305zM293 354q0 -63 8 -106l422 626q-43 76 -133 76q-137 0 -217 -175t-80 -421z M338 147q43 -66 129 -65q135 0 216 174t81 422q0 47 -6 88z" />
<glyph unicode="&#xf9;" horiz-adv-x="978" d="M131 369l92 663h178l-92 -665q-20 -143 4.5 -199.5t89.5 -56.5q92 0 185.5 119.5t124.5 340.5l63 461h178l-84 -596q-45 -322 -30 -436h-158q-12 96 6 223h-4q-135 -244 -344 -243q-264 0 -209 389zM356 1483h213l142 -285h-133z" />
<glyph unicode="&#xfa;" horiz-adv-x="978" d="M131 369l92 663h178l-92 -665q-20 -143 4.5 -199.5t89.5 -56.5q92 0 185.5 119.5t124.5 340.5l63 461h178l-84 -596q-45 -322 -30 -436h-158q-12 96 6 223h-4q-135 -244 -344 -243q-264 0 -209 389zM518 1198l217 285h221l-301 -285h-137z" />
<glyph unicode="&#xfb;" horiz-adv-x="978" d="M131 369l92 663h178l-92 -665q-20 -143 4.5 -199.5t89.5 -56.5q92 0 185.5 119.5t124.5 340.5l63 461h178l-84 -596q-45 -322 -30 -436h-158q-12 96 6 223h-4q-135 -244 -344 -243q-264 0 -209 389zM340 1198l188 285h217l111 -285h-117l-112 182h-4l-164 -182h-119z" />
<glyph unicode="&#xfc;" horiz-adv-x="978" d="M131 369l92 663h178l-92 -665q-20 -143 4.5 -199.5t89.5 -56.5q92 0 185.5 119.5t124.5 340.5l63 461h178l-84 -596q-45 -322 -30 -436h-158q-12 96 6 223h-4q-135 -244 -344 -243q-264 0 -209 389zM354 1241l25 186h180l-24 -186h-181zM682 1241l25 186h178l-25 -186 h-178z" />
<glyph unicode="&#xfd;" horiz-adv-x="849" d="M-41 -373l18 137q35 -10 97 -10q80 0 124 44t89 161l35 90l-177 983h183l71 -469q33 -231 37 -293h4q49 143 113 291l195 471h153l-495 -1128q-68 -158 -143 -221.5t-195 -63.5q-68 0 -109 8zM463 1198l217 285h221l-301 -285h-137z" />
<glyph unicode="&#xfe;" horiz-adv-x="1009" d="M33 -377l268 1913h178l-100 -698q49 84 130 149.5t183 65.5q133 0 202 -97.5t69 -259.5q0 -287 -133.5 -500.5t-335.5 -213.5q-152 0 -220 100l-63 -459h-178zM295 219q14 -53 56 -92t110 -39q139 0 225 184.5t86 421.5q0 236 -127 236q-100 0 -194.5 -135.5 t-124.5 -356.5z" />
<glyph unicode="&#xff;" horiz-adv-x="849" d="M-41 -373l18 137q35 -10 97 -10q80 0 124 44t89 161l35 90l-177 983h183l71 -469q33 -231 37 -293h4q49 143 113 291l195 471h153l-495 -1128q-68 -158 -143 -221.5t-195 -63.5q-68 0 -109 8zM295 1241l24 186h181l-25 -186h-180zM623 1241l24 186h178l-24 -186h-178z " />
<glyph unicode="&#x152;" horiz-adv-x="1581" d="M135 539q0 408 183.5 661.5t478.5 253.5q76 0 151 -20h703l-19 -123h-522l-70 -498h406l-16 -123h-406l-80 -567h541l-19 -123h-721q-82 -20 -155 -20q-219 0 -337 149.5t-118 409.5zM342 514q0 -195 66.5 -305.5t197.5 -110.5q80 0 150 41l164 1153q-63 43 -140 43 q-98 0 -177 -60.5t-126 -150.5t-78.5 -204.5t-44 -215t-12.5 -190.5z" />
<glyph unicode="&#x153;" horiz-adv-x="1572" d="M98 393q0 291 145.5 475.5t360.5 184.5q207 0 297 -168q131 168 330 168q154 0 231.5 -101.5t77.5 -269.5q0 -72 -16 -166h-574q-6 -51 -6 -131q0 -299 189 -299q131 0 198 154l135 -90q-123 -170 -354 -170q-225 0 -311 170q-141 -170 -348 -170q-166 0 -260.5 110 t-94.5 303zM293 354q0 -272 174 -272q135 0 216 174t81 422q0 272 -174 272q-137 0 -217 -175t-80 -421zM965 618h391q6 41 6 91q0 242 -154 241q-186 0 -243 -332z" />
<glyph unicode="&#x178;" horiz-adv-x="960" d="M190 1434h195l180 -621h4l361 621h160l-474 -775l-90 -659h-188l92 664zM401 1554l27 187h180l-26 -187h-181zM737 1554l27 187h180l-26 -187h-181z" />
<glyph unicode="&#x2c6;" horiz-adv-x="714" d="M246 1198l188 285h217l111 -285h-117l-113 182h-4l-163 -182h-119z" />
<glyph unicode="&#x2dc;" horiz-adv-x="768" d="M240 1241q18 84 63 140.5t123 56.5q49 0 126 -34t112 -34q45 0 65 64h109q-20 -86 -64.5 -142.5t-109.5 -56.5q-45 0 -127 36t-117 36q-51 0 -72 -66h-108z" />
<glyph unicode="&#x2000;" horiz-adv-x="931" />
<glyph unicode="&#x2001;" horiz-adv-x="1863" />
<glyph unicode="&#x2002;" horiz-adv-x="931" />
<glyph unicode="&#x2003;" horiz-adv-x="1863" />
<glyph unicode="&#x2004;" horiz-adv-x="620" />
<glyph unicode="&#x2005;" horiz-adv-x="464" />
<glyph unicode="&#x2006;" horiz-adv-x="309" />
<glyph unicode="&#x2007;" horiz-adv-x="309" />
<glyph unicode="&#x2008;" horiz-adv-x="231" />
<glyph unicode="&#x2009;" horiz-adv-x="372" />
<glyph unicode="&#x200a;" horiz-adv-x="102" />
<glyph unicode="&#x2010;" horiz-adv-x="641" d="M113 483l22 154h457l-23 -154h-456z" />
<glyph unicode="&#x2011;" horiz-adv-x="641" d="M113 483l22 154h457l-23 -154h-456z" />
<glyph unicode="&#x2012;" horiz-adv-x="641" d="M113 483l22 154h457l-23 -154h-456z" />
<glyph unicode="&#x2013;" horiz-adv-x="1056" d="M92 504l19 133h913l-18 -133h-914z" />
<glyph unicode="&#x2014;" horiz-adv-x="1454" d="M92 504l19 133h1310l-18 -133h-1311z" />
<glyph unicode="&#x2018;" horiz-adv-x="409" d="M225 1106l29 201l129 229h98l-106 -219h76l-31 -211h-195z" />
<glyph unicode="&#x2019;" horiz-adv-x="389" d="M215 1106l107 219h-76l30 211h195l-29 -201l-129 -229h-98z" />
<glyph unicode="&#x201a;" horiz-adv-x="391" d="M45 -219l109 219h-76l28 211h195l-29 -201l-129 -229h-98z" />
<glyph unicode="&#x201c;" horiz-adv-x="722" d="M225 1106l29 201l129 229h98l-106 -219h76l-31 -211h-195zM541 1106l28 201l127 229h99l-107 -219h76l-31 -211h-192z" />
<glyph unicode="&#x201d;" horiz-adv-x="702" d="M215 1106l107 219h-76l30 211h195l-29 -201l-129 -229h-98zM530 1106l107 219h-76l31 211h192l-28 -201l-129 -229h-97z" />
<glyph unicode="&#x201e;" horiz-adv-x="704" d="M45 -219l109 219h-76l28 211h195l-29 -201l-129 -229h-98zM360 -219l109 219h-76l29 211h192l-28 -201l-129 -229h-97z" />
<glyph unicode="&#x2022;" horiz-adv-x="786" d="M164 643q0 113 79 191.5t191.5 78.5t191.5 -78.5t79 -191.5t-79 -191.5t-191.5 -78.5t-191.5 78.5t-79 191.5z" />
<glyph unicode="&#x2026;" horiz-adv-x="1284" d="M82 0l31 211h192l-31 -211h-192zM510 0l31 211h192l-31 -211h-192zM938 0l31 211h192l-31 -211h-192z" />
<glyph unicode="&#x202f;" horiz-adv-x="372" />
<glyph unicode="&#x2039;" horiz-adv-x="659" d="M123 541l348 409h168l-352 -409l239 -398h-168z" />
<glyph unicode="&#x203a;" horiz-adv-x="657" d="M92 143l350 398l-237 409h168l233 -409l-346 -398h-168z" />
<glyph unicode="&#x205f;" horiz-adv-x="464" />
<glyph unicode="&#x20ac;" horiz-adv-x="1071" d="M57 532l15 107h139l6 51q8 55 14 90h-139l14 107h152q68 238 206 371t331 133q135 0 220 -64.5t115 -177.5l-172 -72q-10 92 -58 146.5t-126 54.5q-111 0 -193.5 -103.5t-129.5 -287.5h467l-15 -107h-475q-6 -29 -14 -86l-6 -55h475l-15 -107h-471q-8 -205 46.5 -321.5 t170.5 -116.5q152 0 246 213l150 -74q-139 -254 -416 -253q-201 0 -300 148t-91 404h-146z" />
<glyph unicode="&#x2122;" horiz-adv-x="1593" d="M174 1348v86h563v-86h-211v-676h-141v676h-211zM842 672v762h192l164 -553h6l158 553h201v-762h-142v612h-6l-178 -612h-107l-182 612h-6v-612h-100z" />
<glyph unicode="&#xe000;" horiz-adv-x="1030" d="M0 1030h1030v-1030h-1030v1030z" />
<glyph unicode="&#xfb01;" horiz-adv-x="1005" d="M123 922l14 110h144l22 154q29 201 114 285.5t228 84.5q78 0 107 -14l-19 -125q-37 27 -98 27q-59 0 -93 -36t-48 -136l-35 -240h522l-143 -1032h-179l129 922h-344l-129 -922h-178l129 922h-143zM831 1249l27 185h178l-26 -185h-179z" />
<glyph unicode="&#xfb02;" horiz-adv-x="1005" d="M123 922l14 110h144l22 154q29 201 114 285.5t228 84.5q78 0 107 -14l-19 -125q-37 27 -98 27q-59 0 -93 -36t-48 -136l-35 -240h203l-15 -110h-203l-129 -922h-178l129 922h-143zM657 0l215 1536h179l-215 -1536h-179z" />
<glyph unicode="&#xfb03;" horiz-adv-x="1527" d="M123 922l14 110h144l18 133q29 201 113 286t229 85q78 0 107 -14l-19 -125q-37 27 -98 26q-59 0 -93 -35.5t-49 -136.5l-30 -219h344l22 154q29 201 113 285.5t229 84.5q78 0 107 -14l-19 -125q-37 27 -98 27q-59 0 -93 -36t-48 -136l-35 -240h522l-143 -1032h-178 l129 922h-344l-129 -922h-179l129 922h-344l-129 -922h-178l129 922h-143zM1354 1249l26 185h179l-27 -185h-178z" />
<glyph unicode="&#xfb04;" horiz-adv-x="1527" d="M123 922l14 110h144l18 133q29 201 113 286t229 85q78 0 107 -14l-19 -125q-37 27 -98 26q-59 0 -93 -35.5t-49 -136.5l-30 -219h344l22 154q29 201 113 285.5t229 84.5q78 0 107 -14l-19 -125q-37 27 -98 27q-59 0 -93 -36t-48 -136l-35 -240h203l-15 -110h-202 l-129 -922h-179l129 922h-344l-129 -922h-178l129 922h-143zM1180 0l215 1536h178l-215 -1536h-178z" />
<glyph horiz-adv-x="430" />
</font>
</defs>
</svg>
