<?xml version="1.0" standalone="no"?>
<!DOCTYPE svg PUBLIC "-//W3C//DTD SVG 1.1//EN" "http://www.w3.org/Graphics/SVG/1.1/DTD/svg11.dtd" >
<svg xmlns="http://www.w3.org/2000/svg">
<metadata>
This is a custom SVG webfont generated by Font Squirrel.
Copyright   : Copyright c 2009 by Skandinaviska Enskilda Banken AB publ SEB Basic is a corporate typeface developed for SEB Group The typeface is the property of SEB Group and protected by copyright law It may not be used by others without prior written permission If you have any questions regarding SEB Basic please contact SEB Marketing and Communications
Designer    : NordlingSoderstrom
</metadata>
<defs>
<font id="SEBBasicLight" horiz-adv-x="1044" >
<font-face units-per-em="2048" ascent="1577" descent="-471" />
<missing-glyph horiz-adv-x="409" />
<glyph unicode=" "  horiz-adv-x="409" />
<glyph unicode="&#x09;" horiz-adv-x="409" />
<glyph unicode="&#xa0;" horiz-adv-x="409" />
<glyph unicode="!" horiz-adv-x="454" d="M154 1434h147l-33 -1096h-82zM158 0v162h141v-162h-141z" />
<glyph unicode="&#x22;" horiz-adv-x="606" d="M113 1536h118l-26 -397h-68zM373 1536h121l-27 -397h-68z" />
<glyph unicode="#" horiz-adv-x="1107" d="M31 461l10 80h242l45 352h-242l8 80h242l55 461h92l-55 -461h315l56 461h92l-55 -461h241l-8 -80h-242l-45 -352h242l-10 -80h-242l-55 -461h-92l55 461h-315l-56 -461h-92l55 461h-241zM375 541h315l45 352h-315z" />
<glyph unicode="$" horiz-adv-x="923" d="M61 250l105 57q10 -37 27.5 -71.5t48 -73.5t80 -65.5t110.5 -33.5v605q-80 49 -116.5 75.5t-91 76.5t-78 109.5t-23.5 133.5q0 135 84 224t225 99v170h80v-170q219 -20 311 -219l-108 -51q-55 158 -203 184v-548q80 -49 120 -78t95 -81t79.5 -113.5t24.5 -137.5 q0 -152 -84.5 -249t-234.5 -111v-172h-80v172q-94 4 -169 37.5t-114.5 83t-58.5 83t-29 64.5zM242 1073q0 -84 49 -147.5t141 -122.5v500q-96 -8 -143 -71t-47 -159zM512 66q90 12 143.5 76.5t53.5 176.5q0 98 -51.5 167t-145.5 130v-550z" />
<glyph unicode="%" horiz-adv-x="1701" d="M98 1087q0 162 84 263.5t225.5 101.5t227.5 -102.5t86 -264.5q0 -164 -86 -269t-227 -105q-145 0 -227.5 105t-82.5 271zM225 1085q0 -129 44 -216t138.5 -87t140.5 86t46 217q0 125 -46 211t-140.5 86t-138.5 -84t-44 -213zM362 0l857 1434h102l-856 -1434h-103z M977 356q0 162 85 264.5t226 102.5q143 0 229.5 -102.5t86.5 -266.5t-86 -268t-230 -104q-145 0 -228 104t-83 270zM1106 354q0 -127 44 -214t138 -87t140.5 85t46.5 216q0 127 -46.5 213t-140.5 86t-138 -84t-44 -215z" />
<glyph unicode="&#x26;" horiz-adv-x="1255" d="M82 346q0 84 29.5 154.5t86 123t108.5 87t124 71.5l-37 45q-150 178 -149 328q0 135 91 217t240 82q158 0 249 -86t91 -213q0 -223 -317 -387l332 -401q41 96 57 260l133 -37q-6 -53 -37.5 -145.5t-76.5 -168.5l229 -276h-152l-149 178q-172 -195 -424 -194 q-199 0 -313.5 103t-114.5 259zM215 356q0 -139 89 -212.5t214 -73.5q219 0 350 186l-387 465q-80 -45 -129 -83t-93 -114t-44 -168zM369 1171q0 -70 31.5 -136t109.5 -161l35 -43q150 78 198 154t48 172q0 82 -52.5 147.5t-165.5 65.5q-106 0 -155 -57.5t-49 -141.5z" />
<glyph unicode="'" horiz-adv-x="358" d="M113 1536h133l-35 -397h-64z" />
<glyph unicode="(" horiz-adv-x="587" d="M113 573.5q0 290.5 89 518t230 362.5h84q-266 -334 -266 -881q0 -551 266 -909h-84q-137 135 -228 377t-91 532.5z" />
<glyph unicode=")" horiz-adv-x="587" d="M72 -336q266 358 266 909q0 547 -266 881h84q141 -135 230 -362.5t89 -518t-91 -532.5t-228 -377h-84z" />
<glyph unicode="*" horiz-adv-x="784" d="M102 1176l43 120l222 -108l-41 246h133l-43 -246l223 110l43 -124l-248 -35l180 -176l-106 -80l-115 225l-117 -225l-104 78l180 178z" />
<glyph unicode="+" d="M72 535v94h397v403h106v-403h398v-94h-398v-404h-106v404h-397z" />
<glyph unicode="," horiz-adv-x="407" d="M127 -193l76 193h-74v162h150v-156l-80 -199h-72z" />
<glyph unicode="-" horiz-adv-x="655" d="M92 512v102h471v-102h-471z" />
<glyph unicode="." horiz-adv-x="407" d="M133 0v162h141v-162h-141z" />
<glyph unicode="/" horiz-adv-x="700" d="M92 -199l416 1735h100l-415 -1735h-101z" />
<glyph unicode="0" horiz-adv-x="1024" d="M92 690q0 324 105.5 512.5t314.5 188.5t314.5 -188.5t105.5 -514.5t-106.5 -516t-313.5 -190q-209 0 -314.5 191t-105.5 517zM229 684q0 -621 283 -621t283 627q0 618 -283 618.5t-283 -624.5z" />
<glyph unicode="1" horiz-adv-x="755" d="M92 1221v51l344 96h25v-1284h213v-84h-549v84h213v1137h-246z" />
<glyph unicode="2" horiz-adv-x="942" d="M61 0v106q125 111 217.5 204t198 219t161.5 254t56 247q0 133 -60.5 205t-172.5 72q-106 0 -172 -59.5t-107 -166.5l-110 52q106 258 391 258q172 0 270 -97.5t98 -265.5q0 -104 -46 -216t-105 -197t-161.5 -190.5t-166 -161.5t-168.5 -144v-8h676v-111h-799z" />
<glyph unicode="3" horiz-adv-x="899" d="M41 190l102 64q88 -190 285 -191q123 0 195.5 76t72.5 228q0 76 -24.5 135t-64.5 94t-95 57.5t-109.5 30.5t-115.5 8v84q66 4 125 20.5t116.5 49.5t91 93t33.5 142q0 106 -57 167t-162 61q-176 0 -260 -174l-104 61q109 195 360 195q166 0 259 -85t93 -223 q0 -129 -78.5 -214t-216.5 -124v-4q141 -29 240.5 -119t99.5 -243q0 -188 -111.5 -292.5t-289.5 -104.5q-272 -1 -385 208z" />
<glyph unicode="4" horiz-adv-x="1007" d="M61 371v75l584 938h141v-921h191v-92h-191v-371h-122v371h-603zM180 463h484v280q0 276 10 523h-6q-61 -119 -183 -314z" />
<glyph unicode="5" horiz-adv-x="923" d="M61 193l107 63q74 -193 274 -193q135 0 207 99.5t72 263.5q0 342 -270 342q-170 0 -261 -145h-75l53 745h623v-111h-543l-39 -507q94 109 266 108q166 0 271.5 -110.5t105.5 -309.5q0 -207 -109.5 -331.5t-302.5 -124.5q-273 0 -379 211z" />
<glyph unicode="6" horiz-adv-x="999" d="M102 670q0 348 129 534.5t338 186.5q221 0 312 -183l-105 -53q-20 55 -71.5 104.5t-141.5 49.5q-117 0 -192.5 -92.5t-105 -228.5t-32.5 -318q39 59 122 108t190 49q162 0 267.5 -107.5t105.5 -299.5q0 -188 -104.5 -313t-278.5 -125q-195 0 -314 171t-119 517zM240 557 q4 -217 79.5 -355.5t219.5 -138.5q123 0 185 97.5t62 249.5q0 143 -64.5 235t-201.5 92q-98 0 -171.5 -53t-108.5 -127z" />
<glyph unicode="7" horiz-adv-x="862" d="M51 1257v111h760v-100l-473 -1268h-135l510 1257h-662z" />
<glyph unicode="8" horiz-adv-x="1011" d="M92 365q0 254 301 368q-246 115 -246 334q0 141 102.5 232.5t258.5 91.5q158 0 260 -90.5t102 -233.5q0 -223 -249 -334q299 -125 299 -366q0 -172 -114 -278.5t-300 -106.5q-184 0 -299 107.5t-115 275.5zM223 375q0 -133 75 -222.5t216 -89.5q125 0 197.5 80t72.5 217 q0 240 -295 334q-129 -33 -197.5 -117.5t-68.5 -201.5zM268 1069q0 -98 65.5 -179t186.5 -120q106 29 165.5 107.5t59.5 179.5q0 109 -63.5 180.5t-179.5 71.5q-113 0 -173.5 -69t-60.5 -171z" />
<glyph unicode="9" horiz-adv-x="999" d="M82 952q0 188 103.5 313.5t277.5 125.5q197 0 315.5 -170t118.5 -519q0 -350 -128 -535t-339 -185q-119 0 -202 51t-119 127l92 59q80 -156 235 -156q117 0 193 91.5t105.5 227.5t31.5 316q-41 -61 -121 -110t-190 -49q-160 0 -266.5 110t-106.5 303zM213 963 q0 -145 64.5 -239.5t201.5 -94.5q98 0 172 54t109 128q-4 217 -80 357.5t-219 140.5q-127 0 -187.5 -97t-60.5 -249z" />
<glyph unicode=":" horiz-adv-x="407" d="M133 0v162h141v-162h-141zM133 725v162h141v-162h-141z" />
<glyph unicode=";" horiz-adv-x="407" d="M127 -193l76 193h-74v162h150v-156l-80 -199h-72zM135 725v162h141v-162h-141z" />
<glyph unicode="&#x3c;" d="M82 518v86l881 412v-107l-748 -348l748 -348v-107z" />
<glyph unicode="=" d="M72 354v95h901v-95h-901zM72 674v94h901v-94h-901z" />
<glyph unicode="&#x3e;" d="M82 106v107l747 348l-747 348v107l881 -412v-86z" />
<glyph unicode="?" horiz-adv-x="782" d="M41 1217q41 109 132 173t230 64q147 0 237.5 -78t90.5 -207q0 -37 -8 -73.5t-17.5 -61t-33 -61.5t-34.5 -52.5t-44 -56.5t-43 -53q-66 -86 -92.5 -143.5t-32.5 -159.5l-10 -176h-78l-6 211q0 35 2 63.5t10 57t14.5 47t22.5 45t24.5 39t32 45t31.5 45.5q80 115 104.5 169 t24.5 126q0 76 -50 131t-150.5 55t-161 -61.5t-84.5 -145.5zM309 0v162h142v-162h-142z" />
<glyph unicode="@" horiz-adv-x="1685" d="M113 444q0 365 219 590.5t559 225.5q303 0 502.5 -182.5t199.5 -481.5q0 -233 -107.5 -394t-277.5 -161q-82 0 -131 41t-49 149q0 14 2 37h-4q-57 -106 -124.5 -164.5t-172.5 -58.5q-117 0 -177 89t-60 247q0 231 113.5 395t289.5 164q125 0 197 -111h4l24 95h86 l-63 -449q-25 -180 -25 -250q0 -106 96 -106q121 0 199 132t78 339q0 256 -157.5 421t-438.5 165q-309 0 -486.5 -204t-177.5 -521q0 -297 160 -472.5t469 -175.5q184 0 283 56l28 -56q-117 -76 -342 -75q-311 0 -513.5 185t-202.5 531zM616 387q0 -131 39 -194.5t101 -63.5 q96 0 177 127t109 342l19 141q-14 51 -55 87t-99 36q-131 0 -211 -140t-80 -335z" />
<glyph unicode="A" horiz-adv-x="1056" d="M51 0l402 1434h174l379 -1434h-125l-121 457h-475l-125 -457h-109zM309 545h428l-135 514q-55 211 -72 289h-4q-23 -98 -73 -285z" />
<glyph unicode="B" horiz-adv-x="978" d="M154 0v1434h225q231 0 347 -87t116 -251q0 -133 -68.5 -212t-175.5 -110v-4q299 -78 299 -367q0 -190 -124 -296.5t-374 -106.5h-245zM281 88h131q346 0 346 309q0 324 -365 324h-112v-633zM281 809h116q313 0 314 276q0 131 -73 196t-245 65h-112v-537z" />
<glyph unicode="C" horiz-adv-x="1077" d="M102 721q0 340 133.5 536.5t382.5 196.5q147 0 248 -78t152 -194l-121 -52q-90 238 -293 238q-176 0 -267 -174t-91 -467q0 -297 91 -477t275 -180q203 0 289 254l125 -50q-127 -295 -416 -294q-246 0 -377 203.5t-131 537.5z" />
<glyph unicode="D" horiz-adv-x="1185" d="M154 0v1434h292q317 0 477 -187.5t160 -527.5t-159.5 -529.5t-477.5 -189.5h-292zM281 88h176q485 0 485 631q0 627 -485 627h-176v-1258z" />
<glyph unicode="E" horiz-adv-x="919" d="M154 0v1434h663v-88h-536v-549h448v-88h-448v-621h557v-88h-684z" />
<glyph unicode="F" horiz-adv-x="919" d="M154 0v1434h684v-88h-557v-574h471v-90h-471v-682h-127z" />
<glyph unicode="G" horiz-adv-x="1142" d="M102 719q0 342 134.5 538.5t388.5 196.5q285 0 405 -264l-119 -49q-100 227 -293 227q-180 0 -276 -165t-96 -476t98 -486t266 -175q115 0 189.5 60t111.5 138v316h-256v88h375v-668h-88l-20 129q-123 -147 -322 -147q-231 0 -364.5 197.5t-133.5 539.5z" />
<glyph unicode="H" horiz-adv-x="1185" d="M154 0v1434h127v-635h624v635h127v-1434h-127v707h-624v-707h-127z" />
<glyph unicode="I" horiz-adv-x="434" d="M154 0v1434h127v-1434h-127z" />
<glyph unicode="J" horiz-adv-x="534" d="M51 2v86q37 -8 84 -8q57 0 88 25.5t31 113.5v1215h127v-1172q0 -143 -49 -206.5t-180 -63.5q-66 0 -101 10z" />
<glyph unicode="K" horiz-adv-x="995" d="M154 0v1434h127v-713h4l538 713h127l-432 -564l457 -870h-139l-402 770l-153 -201v-569h-127z" />
<glyph unicode="L" horiz-adv-x="847" d="M154 0v1434h127v-1346h505v-88h-632z" />
<glyph unicode="M" horiz-adv-x="1392" d="M154 0v1434h194l215 -762q111 -391 137 -527h5q27 147 129 521l215 768h190v-1434h-123v809q0 352 6 524h-4q-55 -233 -137 -522l-233 -811h-111l-236 817q-76 264 -143 518h-4q6 -147 6 -528v-807h-106z" />
<glyph unicode="N" horiz-adv-x="1208" d="M154 0v1434h100l436 -729q201 -336 264 -474h4q-10 313 -10 537v666h107v-1434h-78l-475 788q-203 338 -248 443h-4q10 -240 10 -506v-725h-106z" />
<glyph unicode="O" horiz-adv-x="1261" d="M102 721q0 334 143.5 533.5t385.5 199.5q246 0 387 -198.5t141 -536.5q0 -336 -143.5 -537.5t-385 -201.5t-385 202.5t-143.5 538.5zM244 719q0 -293 100 -473t286.5 -180t287 179t100.5 474q0 293 -100.5 471t-287 178t-286.5 -178t-100 -471z" />
<glyph unicode="P" horiz-adv-x="995" d="M154 0v1434h239q520 0 520 -402q0 -217 -138 -317.5t-382 -100.5h-112v-614h-127zM281 702h120q201 0 286 78t85 246t-86 244t-295 76h-110v-644z" />
<glyph unicode="Q" horiz-adv-x="1261" d="M102 721q0 334 143.5 533.5t385.5 199.5q246 0 387 -198.5t141 -536.5q0 -432 -225 -629q57 -78 188 -78l41 2v-135q-209 0 -295 164q-109 -63 -237 -63q-242 0 -385.5 202.5t-143.5 538.5zM244 719q0 -293 100 -473t286.5 -180t287 179t100.5 474q0 293 -100.5 471 t-287 178t-286.5 -178t-100 -471z" />
<glyph unicode="R" horiz-adv-x="1040" d="M154 0v1434h237q518 0 518 -402q0 -285 -258 -379l318 -653h-142l-297 627q-61 -6 -116 -6h-133v-621h-127zM281 709h129q188 0 273 76.5t85 242.5q0 162 -85 240t-271 78h-131v-637z" />
<glyph unicode="S" horiz-adv-x="933" d="M51 258l111 59q12 -41 32.5 -78.5t56.5 -79.5t94 -67.5t132 -25.5q117 0 187.5 67.5t70.5 196.5q0 86 -46 158.5t-114.5 119.5t-148.5 101.5t-148.5 104.5t-114.5 129t-46 175q0 150 99 243t265 93q88 0 159 -25.5t113 -66.5t64.5 -73t34.5 -62l-113 -53q-23 70 -86 132 t-178 62t-174 -64.5t-59 -173.5q0 -78 46 -144t114.5 -112.5t149.5 -101.5t149.5 -107.5t114.5 -134t46 -178.5q0 -170 -102.5 -271t-288.5 -101q-88 0 -161.5 24.5t-115.5 56t-76 76.5t-45.5 69.5t-21.5 51.5z" />
<glyph unicode="T" horiz-adv-x="991" d="M51 1346v88h889v-88h-381v-1346h-127v1346h-381z" />
<glyph unicode="U" horiz-adv-x="1155" d="M154 457v977h127v-942q0 -229 80.5 -319.5t226 -90.5t226.5 88t81 305v959h106v-967q0 -487 -423.5 -487t-423.5 477z" />
<glyph unicode="V" horiz-adv-x="1046" d="M51 1434h125l219 -854q29 -111 74 -283t53 -211h4q10 39 125 475l234 873h110l-395 -1434h-172z" />
<glyph unicode="W" horiz-adv-x="1544" d="M61 1434h127l174 -861q47 -229 84 -467h5q43 264 86 469l178 859h145l156 -834q61 -326 86 -496h4q29 205 84 455l186 875h107l-309 -1434h-160l-156 811q-61 326 -78 489h-4q-25 -176 -90 -489l-166 -811h-162z" />
<glyph unicode="X" horiz-adv-x="985" d="M41 0l379 762l-344 672h133l285 -572l292 572h115l-348 -662l395 -772h-131l-338 670l-321 -670h-117z" />
<glyph unicode="Y" horiz-adv-x="937" d="M41 1434h133l301 -672h4l309 672h109l-371 -783v-651h-127v655z" />
<glyph unicode="Z" horiz-adv-x="1021" d="M51 0v74l776 1272h-723v88h867v-74l-776 -1272h753v-88h-897z" />
<glyph unicode="[" horiz-adv-x="575" d="M143 -336v1790h346v-74h-221v-1642h226v-74h-351z" />
<glyph unicode="\" horiz-adv-x="700" d="M92 1536h101l415 -1735h-100z" />
<glyph unicode="]" horiz-adv-x="575" d="M82 -262h225v1642h-221v74h346v-1790h-350v74z" />
<glyph unicode="^" d="M68 553l411 881h92l406 -881h-109l-346 750l-346 -750h-108z" />
<glyph unicode="_" horiz-adv-x="901" d="M0 -203h901v-90h-901v90z" />
<glyph unicode="`" horiz-adv-x="555" d="M102 1475h160l191 -271h-93z" />
<glyph unicode="a" horiz-adv-x="858" d="M78 244q0 156 128 238.5t400 135.5v134q0 111 -42 163t-142 52q-154 0 -240 -164l-92 57q39 70 127 127t215 57q295 0 295 -309v-510q0 -164 18 -225h-100l-27 119q-145 -137 -282 -137q-111 0 -184.5 71.5t-73.5 190.5zM201 254q0 -94 47 -138t119 -44q117 0 239 127 v346q-405 -68 -405 -291z" />
<glyph unicode="b" horiz-adv-x="948" d="M133 0v1536h121v-633q127 141 276.5 141t242.5 -146t93 -378q0 -236 -96 -388t-252 -152q-154 0 -276 139h-4l-31 -119h-74zM254 211q41 -55 108.5 -99t137.5 -44q113 0 173 118.5t60 325.5q0 209 -61.5 324.5t-171.5 115.5q-70 0 -139.5 -47t-106.5 -104v-590z" />
<glyph unicode="c" horiz-adv-x="811" d="M82 514q0 231 93 380.5t286 149.5q115 0 192.5 -58t106.5 -134l-109 -45q-57 160 -196 160q-119 0 -179.5 -119t-60.5 -320q0 -469 250 -469q74 0 123 50.5t67 119.5l109 -53q-94 -197 -301 -196q-137 0 -225 78.5t-122 192t-34 263.5z" />
<glyph unicode="d" horiz-adv-x="948" d="M82 504q0 238 99.5 388t269.5 150q129 0 243 -118v612h121v-1536h-82l-22 131h-4q-141 -152 -283 -151q-154 0 -248 144t-94 380zM215 512q0 -207 62.5 -324.5t173.5 -117.5q68 0 136 49t107 110v588q-37 53 -99.5 97t-133.5 44q-115 0 -180.5 -120.5t-65.5 -325.5z" />
<glyph unicode="e" horiz-adv-x="886" d="M82 518q0 233 97 379.5t274 146.5q164 0 261 -134t97 -343v-35h-598q0 -90 13.5 -169.5t43 -150.5t85 -113t130.5 -42q150 0 209 170l103 -51q-98 -197 -316 -196q-199 0 -299 153.5t-100 384.5zM215 608h469q-2 90 -22.5 167t-76 134.5t-139.5 57.5q-109 0 -167 -98.5 t-64 -260.5z" />
<glyph unicode="f" horiz-adv-x="542" d="M41 944v80h145v176q0 188 62.5 269t189.5 81q70 0 94 -14v-96q-37 27 -100 26.5t-94 -42.5t-31 -162v-238h209v-80h-209v-944h-121v944h-145z" />
<glyph unicode="g" horiz-adv-x="921" d="M63 -137q0 137 154 209q-102 43 -102 141q0 100 149 182q-143 100 -143 299q0 156 94 253t242 97q150 0 241 -96q41 197 224 197v-133q-16 4 -41 4q-106 0 -140 -125q51 -86 52 -199q0 -158 -92.5 -255t-239.5 -97q-70 0 -131 22q-111 -51 -111 -131q0 -57 92 -79 q37 -10 238 -35q70 -8 108.5 -14.5t92 -23t81 -36.5t48 -57t20.5 -86q0 -133 -114.5 -210t-309.5 -77q-197 0 -304.5 69.5t-107.5 180.5zM178 -113q0 -92 83 -144t226 -52q131 0 215 47t84 139q0 74 -69.5 100.5t-239.5 45.5q-133 14 -190 26q-109 -51 -109 -162zM244 696 q0 -123 55 -201.5t157.5 -78.5t158 77.5t55.5 200.5t-54.5 199t-158.5 76q-102 0 -157.5 -76t-55.5 -197z" />
<glyph unicode="h" horiz-adv-x="937" d="M133 0v1536h121v-664q23 29 58.5 62t110.5 71.5t146 38.5q111 0 173.5 -89t62.5 -250v-705h-121v696q0 254 -145 254q-78 0 -161 -60.5t-124 -117.5v-772h-121z" />
<glyph unicode="i" horiz-adv-x="387" d="M133 0v1024h121v-1024h-121zM133 1262v153h121v-153h-121z" />
<glyph unicode="j" horiz-adv-x="397" d="M-31 -281q31 -10 74 -10q57 0 78.5 30t21.5 128v1157h121v-1128q0 -139 -42 -206t-161 -67q-66 0 -92 12v84zM143 1262v153h121v-153h-121z" />
<glyph unicode="k" horiz-adv-x="815" d="M133 0v1536h121v-1001h4l404 489h120l-315 -377l328 -647h-125l-283 559l-133 -162v-397h-121z" />
<glyph unicode="l" horiz-adv-x="387" d="M133 0v1536h121v-1536h-121z" />
<glyph unicode="m" horiz-adv-x="1406" d="M133 0v1024h90l15 -160h4q147 180 303 180q145 0 196 -180h4q158 180 308 180q221 0 221 -346v-698h-121v688q0 264 -125 264q-74 0 -148.5 -58t-119.5 -124q4 -53 4 -82v-688h-121v688q0 264 -125 264q-72 0 -148.5 -60.5t-115.5 -119.5v-772h-121z" />
<glyph unicode="n" horiz-adv-x="937" d="M133 0v1024h90l15 -160h4q170 180 327 180q109 0 172.5 -88t63.5 -251v-705h-121v696q0 254 -145 254q-78 0 -161 -60.5t-124 -117.5v-772h-121z" />
<glyph unicode="o" horiz-adv-x="946" d="M82 512q0 246 104.5 389t286.5 143t286.5 -143t104.5 -389t-104.5 -389t-286.5 -143t-286.5 143t-104.5 389zM215 512q0 -203 62.5 -329t195.5 -126q131 0 194.5 127t63.5 328q0 203 -62.5 329t-195.5 126t-195.5 -127t-62.5 -328z" />
<glyph unicode="p" horiz-adv-x="948" d="M133 -377v1401h92l15 -129h4q139 150 284 149q152 0 245 -146t93 -378q0 -238 -95 -389t-253 -151q-143 0 -264 124v-481h-121zM254 213q41 -57 108.5 -101t141.5 -44q111 0 170 118.5t59 325.5q0 209 -60.5 325.5t-168.5 116.5q-72 0 -142.5 -47t-107.5 -106v-588z" />
<glyph unicode="q" horiz-adv-x="948" d="M82 504q0 240 99.5 390t269.5 150q129 0 256 -135h4l20 115h84v-1401h-121v498q-131 -141 -272 -141q-154 0 -247 143t-93 381zM215 512q0 -207 62.5 -324.5t173.5 -117.5q68 0 137 49t106 108v588q-39 53 -104.5 98t-128.5 45q-115 0 -180.5 -120.5t-65.5 -325.5z" />
<glyph unicode="r" horiz-adv-x="561" d="M133 0v1024h90l15 -176h4q117 193 278 192v-143q-18 2 -39 2q-139 0 -227 -131v-768h-121z" />
<glyph unicode="s" horiz-adv-x="724" d="M39 176l94 62q70 -178 232 -179q176 0 176 185q0 74 -48.5 129t-117 91t-136 73.5t-115.5 101t-48 149.5q0 115 80 184.5t209 69.5q207 0 282 -168l-102 -51q-14 49 -59.5 96.5t-127.5 47.5q-80 0 -124 -43t-44 -121q0 -66 48.5 -117t117 -87t137 -76t116.5 -107.5 t48 -157.5q0 -133 -80.5 -204.5t-218.5 -71.5q-133 0 -212.5 60t-106.5 134z" />
<glyph unicode="t" horiz-adv-x="557" d="M41 944v80h149v258h113v-258h207v-80h-207v-711q0 -90 24.5 -126.5t90.5 -36.5q57 0 98 24v-86q-53 -25 -129 -24q-117 0 -161 63.5t-44 206.5v690h-141z" />
<glyph unicode="u" horiz-adv-x="921" d="M133 332v692h121v-674q0 -139 35 -205.5t112 -66.5q74 0 150 45t117 98v803h120v-1024h-79l-25 135h-4q-164 -156 -311 -155q-111 0 -173.5 90t-62.5 262z" />
<glyph unicode="v" horiz-adv-x="829" d="M51 1024h127l168 -635q47 -178 70 -285h4q4 16 74 279l174 641h110l-295 -1024h-143z" />
<glyph unicode="w" horiz-adv-x="1196" d="M61 1024h125l131 -588q37 -164 52 -286h4q12 109 49 284l123 590h143l111 -580q35 -188 49 -292h4q20 150 51 292l123 580h109l-236 -1024h-111l-118 586q-45 217 -58 332h-4q-23 -150 -63 -336l-127 -582h-111z" />
<glyph unicode="x" horiz-adv-x="800" d="M41 0l301 522l-276 502h129l217 -408l225 408h111l-285 -489l299 -535h-127l-238 438l-243 -438h-113z" />
<glyph unicode="y" horiz-adv-x="811" d="M41 -268q45 -10 88 -11q86 0 131 64.5t105 292.5l-304 946h123l154 -498q57 -182 84 -305h4q29 113 80 295l147 508h107l-354 -1145q-41 -133 -101.5 -194.5t-173.5 -61.5q-53 0 -90 8v101z" />
<glyph unicode="z" horiz-adv-x="804" d="M51 0v55l555 889h-518v80h660v-55l-553 -889h559v-80h-703z" />
<glyph unicode="{" horiz-adv-x="571" d="M51 530v58q61 4 100 53t39 143v428q0 127 47.5 184.5t165.5 57.5h86v-74h-86q-53 0 -70.5 -31.5t-17.5 -105.5v-422q0 -221 -151 -256v-12q152 -35 151 -256v-422q0 -74 17.5 -105.5t70.5 -31.5h86v-74h-86q-119 0 -166 57.5t-47 184.5v428q0 94 -39 143t-100 53z" />
<glyph unicode="|" horiz-adv-x="450" d="M174 -377v1913h102v-1913h-102z" />
<glyph unicode="}" horiz-adv-x="571" d="M82 -262h86q53 0 70.5 31.5t17.5 105.5v422q0 221 152 256v12q-152 35 -152 256v422q0 74 -17.5 105.5t-70.5 31.5h-86v74h86q119 0 166 -57.5t47 -184.5v-428q0 -94 39 -143t100 -53v-58q-61 -4 -100 -53t-39 -143v-428q0 -127 -47 -184.5t-166 -57.5h-86v74z" />
<glyph unicode="~" d="M70 682q92 129 249 129q74 0 219.5 -62.5t223.5 -62.5q94 0 160 92l53 -78q-88 -113 -213 -112q-94 0 -240.5 62.5t-218.5 62.5q-104 0 -184 -103z" />
<glyph unicode="&#xa1;" horiz-adv-x="454" d="M154 -410l32 1096h82l33 -1096h-147zM156 862v162h141v-162h-141z" />
<glyph unicode="&#xa2;" horiz-adv-x="876" d="M102 514q0 215 81 360.5t249 165.5v162h78v-160q102 -6 174 -64t96 -128l-108 -43q-51 141 -162 158v-906q63 8 106 57.5t60 112.5l108 -53q-86 -182 -274 -194v-172h-78v174q-168 20 -249 167.5t-81 362.5zM236 528q0 -416 196 -462v895q-196 -44 -196 -433z" />
<glyph unicode="&#xa3;" horiz-adv-x="919" d="M92 670v80h146q-88 197 -88 305q0 150 93 243t259 93q143 0 229 -57.5t125 -127.5l-98 -61q-76 166 -258 166q-109 0 -170.5 -65.5t-61.5 -174.5q0 -121 90 -321h349v-80h-314q43 -111 43 -199q0 -207 -223 -360h666v-111h-775v106q221 150 222 338q0 100 -54 226h-180z " />
<glyph unicode="&#xa4;" horiz-adv-x="1394" d="M109 195l223 219q-78 119 -78 299q0 193 82 311l-225 227l55 58l223 -224q119 119 305 119q188 0 307 -119l226 224l59 -58l-227 -229q86 -129 86 -311q0 -170 -80 -305l221 -211l-59 -64l-211 209q-123 -127 -314 -127q-199 0 -317 137l-219 -219zM362 715 q0 -203 95.5 -313.5t247.5 -110.5q150 0 238.5 108.5t88.5 307.5q0 197 -88 306t-243.5 109t-247 -108.5t-91.5 -298.5z" />
<glyph unicode="&#xa5;" horiz-adv-x="985" d="M92 1368h131l273 -614h4l278 614h109l-320 -666h326v-79h-346v-152h346v-80h-346v-391h-127v391h-324v80h324v152h-324v79h301z" />
<glyph unicode="&#xa6;" horiz-adv-x="450" d="M174 -377v807h102v-807h-102zM174 729v807h102v-807h-102z" />
<glyph unicode="&#xa7;" horiz-adv-x="942" d="M92 637q0 199 193 297q-127 94 -127 240q0 121 85 199.5t238 78.5q221 0 332 -162l-90 -69q-82 152 -254 151q-94 0 -147.5 -50t-53.5 -134q0 -80 60.5 -141.5t145.5 -105.5t170 -92t145.5 -126t60.5 -182q0 -100 -54.5 -177t-140.5 -120q129 -98 129 -240 q0 -121 -85 -199.5t-238 -78.5q-221 0 -332 161l90 70q82 -152 254 -152q94 0 147.5 50.5t53.5 134.5q0 80 -60.5 141.5t-145.5 105.5t-170 92t-145.5 126t-60.5 182zM201 664q0 -63 23.5 -113.5t71.5 -88.5t91 -64.5t111.5 -61.5t105.5 -57q137 96 137 235 q0 61 -23.5 111.5t-71.5 88.5t-92 64.5t-111.5 61t-104.5 57.5q-137 -96 -137 -233z" />
<glyph unicode="&#xa8;" horiz-adv-x="647" d="M113 1262v153h125v-153h-125zM410 1262v153h125v-153h-125z" />
<glyph unicode="&#xa9;" horiz-adv-x="1609" d="M72 716.5q0 323.5 207.5 530.5t525 207t525.5 -207t208 -530.5t-208 -530t-525.5 -206.5t-525 206.5t-207.5 530zM176 717q0 -283 171 -467t458 -184q291 0 460 183t169 467.5t-170 469t-459 184.5t-459 -184t-170 -469zM463 727q0 184 93 300t257 116q113 0 186.5 -50.5 t104.5 -136.5l-105 -32q-59 147 -192 147q-96 0 -157.5 -88t-61.5 -256q0 -184 66.5 -271t170.5 -87q43 0 76 13t54.5 38.5t33.5 48.5t25 55l102 -35q-82 -197 -303 -196q-168 0 -259 119.5t-91 314.5z" />
<glyph unicode="&#xaa;" horiz-adv-x="710" d="M102 971q0 117 94.5 178t299.5 100v72q0 90 -30 131t-97 41q-113 0 -187 -100l-65 51q88 111 248 110q231 0 231 -249v-363q0 -98 12 -147h-86l-16 79q-100 -94 -215 -94q-86 0 -137.5 51.5t-51.5 139.5zM205 983q0 -59 30.5 -94t81.5 -35q100 0 179 92v244 q-145 -31 -218 -74t-73 -133z" />
<glyph unicode="&#xab;" horiz-adv-x="1040" d="M123 541l299 409h127l-303 -409l303 -398h-127zM492 541l299 409h127l-304 -409l304 -398h-127z" />
<glyph unicode="&#xac;" d="M72 535v92h901v-455h-107v363h-794z" />
<glyph unicode="&#xad;" horiz-adv-x="655" d="M92 512v102h471v-102h-471z" />
<glyph unicode="&#xae;" horiz-adv-x="1157" d="M92 1069q0 215 138.5 351t347.5 136q211 0 349 -136t138 -351q0 -213 -138.5 -349t-348.5 -136q-209 0 -347.5 136t-138.5 349zM176 1069q0 -180 109.5 -299t292.5 -119q184 0 293.5 119t109.5 299q0 182 -109.5 301t-294 119t-293 -119t-108.5 -301zM412 809v528h137 q213 0 213 -149q0 -111 -100 -139l116 -240h-96l-102 221h-80v-221h-88zM500 1085h69q102 0 103 97q0 100 -101 100h-71v-197z" />
<glyph unicode="&#xaf;" horiz-adv-x="708" d="M102 1286v90h504v-90h-504z" />
<glyph unicode="&#xb0;" horiz-adv-x="751" d="M102 1180q0 115 77 194.5t196 79.5t196.5 -80t77.5 -194q0 -113 -77.5 -193t-196.5 -80q-117 0 -195 80t-78 193zM197 1180q0 -80 45 -137.5t133 -57.5q90 0 136 57.5t46 137.5t-47 138t-135 58t-133 -58t-45 -138z" />
<glyph unicode="&#xb1;" d="M98 33v90h848v-90h-848zM98 604v90h373v338h102v-338h373v-90h-373v-338h-102v338h-373z" />
<glyph unicode="&#xb2;" horiz-adv-x="692" d="M98 627v82q70 51 104 78.5t95 84t93 98.5t58.5 99t26.5 111q0 68 -33.5 105.5t-95.5 37.5q-109 0 -160 -125l-88 41q68 152 246 152q119 0 183.5 -58.5t64.5 -161.5q0 -72 -32 -136t-96.5 -122.5t-116.5 -97.5t-138 -92v-4h395v-92h-506z" />
<glyph unicode="&#xb3;" horiz-adv-x="679" d="M70 745l94 43q16 -45 58 -77.5t106 -32.5q66 0 107.5 38t41.5 107q0 166 -233 166v66q209 8 209 151q0 57 -34 89t-93 32q-90 0 -144 -92l-88 35q25 51 87.5 86t144.5 35q111 0 176 -48.5t65 -130.5q0 -141 -182 -184v-4q207 -33 207 -195q0 -100 -75 -157.5t-191 -57.5 q-186 0 -256 131z" />
<glyph unicode="&#xb4;" horiz-adv-x="555" d="M102 1204l191 271h160l-258 -271h-93z" />
<glyph unicode="&#xb5;" horiz-adv-x="921" d="M133 -371v1395h121v-692q0 -244 172 -244q119 0 242 131v805h120v-1024h-77l-29 135h-4q-139 -154 -264 -153q-94 0 -162 73l-4 -2q6 -61 6 -223v-201h-121z" />
<glyph unicode="&#x3bc;" horiz-adv-x="921" d="M133 -371v1395h121v-692q0 -244 172 -244q119 0 242 131v805h120v-1024h-77l-29 135h-4q-139 -154 -264 -153q-94 0 -162 73l-4 -2q6 -61 6 -223v-201h-121z" />
<glyph unicode="&#xb6;" horiz-adv-x="1062" d="M51 1032q0 119 53.5 212t143.5 140q96 49 295 50h489v-88h-125v-1723h-106v1723h-248v-1723h-109v1008q-166 0 -279.5 111.5t-113.5 289.5z" />
<glyph unicode="&#xb7;" horiz-adv-x="407" d="M133 526v162h141v-162h-141z" />
<glyph unicode="&#xb8;" horiz-adv-x="524" d="M102 -340l23 53q43 -35 104 -35q86 0 86 74q0 45 -49 66.5t-102 23.5l59 181h66l-43 -123q170 -35 170 -152q0 -59 -39 -97t-125 -38q-103 0 -150 47z" />
<glyph unicode="&#xb9;" horiz-adv-x="565" d="M104 1278v47l211 53h39v-688h107v-65h-336v65h119v588h-140z" />
<glyph unicode="&#xba;" horiz-adv-x="796" d="M102 1169q0 176 80 280.5t213 104.5q137 0 218 -104t81 -281q0 -178 -81 -283.5t-218 -105.5q-133 0 -213 105.5t-80 283.5zM209 1169q0 -326 186 -325q188 0 189 325q0 143 -45 232.5t-144 89.5q-186 0 -186 -322z" />
<glyph unicode="&#xbb;" horiz-adv-x="1040" d="M123 143l303 398l-303 409h127l299 -409l-299 -398h-127zM492 143l303 398l-303 409h126l300 -409l-300 -398h-126z" />
<glyph unicode="&#xbc;" horiz-adv-x="1482" d="M104 1278v47l211 53h39v-688h107v-65h-336v65h119v588h-140zM305 0l856 1434h103l-856 -1434h-103zM840 193v67l354 502h115v-500h112v-69h-112v-185h-111v185h-358zM930 262h268v103q0 174 8 292h-4q-14 -27 -141 -208z" />
<glyph unicode="&#xbd;" horiz-adv-x="1581" d="M104 1278v47l211 53h39v-688h107v-65h-336v65h119v588h-140zM305 0l856 1434h103l-856 -1434h-103zM993 10v82q70 51 103.5 79t95 84t93.5 98t58.5 99.5t26.5 110.5q0 68 -33.5 106t-95.5 38q-109 0 -160 -125l-88 41q68 152 246 151q119 0 183.5 -58.5t64.5 -160.5 q0 -72 -32 -136.5t-96.5 -122.5t-116.5 -97t-138 -93v-4h395v-92h-506z" />
<glyph unicode="&#xbe;" horiz-adv-x="1574" d="M70 745l94 43q16 -45 58 -77.5t106 -32.5q66 0 107.5 38t41.5 107q0 166 -233 166v66q209 8 209 151q0 57 -34 89t-93 32q-90 0 -144 -92l-88 35q25 51 87.5 86t144.5 35q111 0 176 -48.5t65 -130.5q0 -141 -182 -184v-4q207 -33 207 -195q0 -100 -75 -157.5t-191 -57.5 q-186 0 -256 131zM389 0l856 1434h103l-856 -1434h-103zM932 193v67l354 502h115v-500h112v-69h-112v-185h-111v185h-358zM1022 262h268v103q0 174 8 292h-4q-14 -27 -141 -208z" />
<glyph unicode="&#xbf;" horiz-adv-x="782" d="M51 -145q0 37 8.5 73.5t17.5 61t32.5 61.5t35 52.5t44 56.5t42.5 53q66 86 92.5 143.5t32.5 159.5l11 176h77l7 -211q0 -35 -2.5 -63.5t-10.5 -57t-14 -47t-22.5 -45t-24.5 -39t-31.5 -45t-32.5 -45.5q-80 -115 -104.5 -169t-24.5 -126q0 -76 50.5 -131t150.5 -55 t160.5 61.5t85.5 145.5l110 -58q-41 -109 -132 -173t-230 -64q-147 0 -237.5 78t-90.5 207zM332 862v162h141v-162h-141z" />
<glyph unicode="&#xc0;" horiz-adv-x="1056" d="M51 0l402 1434h174l379 -1434h-125l-121 457h-475l-125 -457h-109zM256 1772h160l190 -228h-96zM309 545h428l-135 514q-55 211 -72 289h-4q-23 -98 -73 -285z" />
<glyph unicode="&#xc1;" horiz-adv-x="1056" d="M51 0l402 1434h174l379 -1434h-125l-121 457h-475l-125 -457h-109zM309 545h428l-135 514q-55 211 -72 289h-4q-23 -98 -73 -285zM477 1544l191 228h159l-254 -228h-96z" />
<glyph unicode="&#xc2;" horiz-adv-x="1056" d="M51 0l402 1434h174l379 -1434h-125l-121 457h-475l-125 -457h-109zM299 1544l143 228h181l143 -228h-80l-151 156h-5l-151 -156h-80zM309 545h428l-135 514q-55 211 -72 289h-4q-23 -98 -73 -285z" />
<glyph unicode="&#xc3;" horiz-adv-x="1056" d="M51 0l402 1434h174l379 -1434h-125l-121 457h-475l-125 -457h-109zM272 1563q16 174 142 174q49 0 129 -41t114 -41q29 0 41.5 18.5t18.5 57.5h78q-14 -176 -129 -177q-43 0 -129 43t-121 43q-53 0 -68 -77h-76zM309 545h428l-135 514q-55 211 -72 289h-4 q-23 -98 -73 -285z" />
<glyph unicode="&#xc4;" horiz-adv-x="1056" d="M51 0l402 1434h174l379 -1434h-125l-121 457h-475l-125 -457h-109zM309 545h428l-135 514q-55 211 -72 289h-4q-23 -98 -73 -285zM311 1565v153h125v-153h-125zM637 1565v153h125v-153h-125z" />
<glyph unicode="&#xc5;" horiz-adv-x="1056" d="M51 0l402 1434h174l379 -1434h-125l-121 457h-475l-125 -457h-109zM309 545h428l-135 514q-55 211 -72 289h-4q-23 -98 -73 -285zM371 1669q0 80 48 125t119.5 45t119 -45t47.5 -125t-47.5 -125t-119 -45t-119.5 44t-48 126zM444 1669q0 -47 24 -80t71 -33q45 0 68.5 33 t23.5 80t-22.5 79t-69.5 32t-71 -32t-24 -79z" />
<glyph unicode="&#xc6;" horiz-adv-x="1472" d="M0 0l635 1434h735v-88h-536v-549h448v-88h-448v-621h557v-88h-684v451h-396l-198 -451h-113zM350 545h357v801h-5z" />
<glyph unicode="&#xc7;" horiz-adv-x="1077" d="M102 721q0 340 133.5 536.5t382.5 196.5q147 0 248 -78t152 -194l-121 -52q-90 238 -293 238q-176 0 -267 -174t-91 -467q0 -297 91 -477t275 -180q203 0 289 254l125 -50q-123 -285 -397 -294l-27 -80q170 -35 170 -152q0 -59 -39 -97t-125 -38q-102 0 -149 47l22 53 q43 -35 105 -35q86 0 86 74q0 45 -49.5 66.5t-102.5 23.5l45 140q-225 18 -344 220t-119 519z" />
<glyph unicode="&#xc8;" horiz-adv-x="919" d="M154 0v1434h663v-88h-536v-549h448v-88h-448v-621h557v-88h-684zM219 1772h160l190 -228h-96z" />
<glyph unicode="&#xc9;" horiz-adv-x="919" d="M154 0v1434h663v-88h-536v-549h448v-88h-448v-621h557v-88h-684zM403 1544l191 228h160l-254 -228h-97z" />
<glyph unicode="&#xca;" horiz-adv-x="919" d="M154 0v1434h663v-88h-536v-549h448v-88h-448v-621h557v-88h-684zM260 1544l143 228h181l143 -228h-80l-151 156h-4l-152 -156h-80z" />
<glyph unicode="&#xcb;" horiz-adv-x="919" d="M154 0v1434h663v-88h-536v-549h448v-88h-448v-621h557v-88h-684zM256 1565v153h125v-153h-125zM582 1565v153h125v-153h-125z" />
<glyph unicode="&#xcc;" horiz-adv-x="434" d="M-59 1772h159l191 -228h-96zM154 0v1434h127v-1434h-127z" />
<glyph unicode="&#xcd;" horiz-adv-x="434" d="M143 1544l191 228h160l-254 -228h-97zM154 0v1434h127v-1434h-127z" />
<glyph unicode="&#xce;" horiz-adv-x="434" d="M-14 1544l143 228h180l144 -228h-80l-152 156h-4l-151 -156h-80zM154 0v1434h127v-1434h-127z" />
<glyph unicode="&#xcf;" horiz-adv-x="434" d="M-8 1565v153h125v-153h-125zM154 0v1434h127v-1434h-127zM317 1565v153h125v-153h-125z" />
<glyph unicode="&#xd0;" horiz-adv-x="1220" d="M61 711v88h127v635h293q317 0 477 -187.5t160 -527.5t-159.5 -529.5t-477.5 -189.5h-293v711h-127zM315 88h177q485 0 485 631q0 627 -485 627h-177v-547h332v-88h-332v-623z" />
<glyph unicode="&#xd1;" horiz-adv-x="1208" d="M154 0v1434h100l436 -729q201 -336 264 -474h4q-10 313 -10 537v666h107v-1434h-78l-475 788q-203 338 -248 443h-4q10 -240 10 -506v-725h-106zM360 1563q16 174 142 174q49 0 129 -41t114 -41q29 0 41.5 18.5t18.5 57.5h78q-14 -176 -129 -177q-43 0 -129 43t-121 43 q-53 0 -68 -77h-76z" />
<glyph unicode="&#xd2;" horiz-adv-x="1261" d="M102 721q0 334 143.5 533.5t385.5 199.5q246 0 387 -198.5t141 -536.5q0 -336 -143.5 -537.5t-385 -201.5t-385 202.5t-143.5 538.5zM244 719q0 -293 100 -473t286.5 -180t287 179t100.5 474q0 293 -100.5 471t-287 178t-286.5 -178t-100 -471zM371 1772h159l191 -228 h-96z" />
<glyph unicode="&#xd3;" horiz-adv-x="1261" d="M102 721q0 334 143.5 533.5t385.5 199.5q246 0 387 -198.5t141 -536.5q0 -336 -143.5 -537.5t-385 -201.5t-385 202.5t-143.5 538.5zM244 719q0 -293 100 -473t286.5 -180t287 179t100.5 474q0 293 -100.5 471t-287 178t-286.5 -178t-100 -471zM535 1544l190 228h160 l-254 -228h-96z" />
<glyph unicode="&#xd4;" horiz-adv-x="1261" d="M102 721q0 334 143.5 533.5t385.5 199.5q246 0 387 -198.5t141 -536.5q0 -336 -143.5 -537.5t-385 -201.5t-385 202.5t-143.5 538.5zM244 719q0 -293 100 -473t286.5 -180t287 179t100.5 474q0 293 -100.5 471t-287 178t-286.5 -178t-100 -471zM401 1544l144 228h180 l143 -228h-80l-151 156h-4l-152 -156h-80z" />
<glyph unicode="&#xd5;" horiz-adv-x="1261" d="M102 721q0 334 143.5 533.5t385.5 199.5q246 0 387 -198.5t141 -536.5q0 -336 -143.5 -537.5t-385 -201.5t-385 202.5t-143.5 538.5zM244 719q0 -293 100 -473t286.5 -180t287 179t100.5 474q0 293 -100.5 471t-287 178t-286.5 -178t-100 -471zM381 1563q16 174 141 174 q49 0 129 -41t115 -41q29 0 41 18.5t18 57.5h78q-14 -176 -129 -177q-43 0 -129 43t-121 43q-53 0 -67 -77h-76z" />
<glyph unicode="&#xd6;" horiz-adv-x="1261" d="M102 721q0 334 143.5 533.5t385.5 199.5q246 0 387 -198.5t141 -536.5q0 -336 -143.5 -537.5t-385 -201.5t-385 202.5t-143.5 538.5zM244 719q0 -293 100 -473t286.5 -180t287 179t100.5 474q0 293 -100.5 471t-287 178t-286.5 -178t-100 -471zM408 1565v153h124v-153 h-124zM733 1565v153h125v-153h-125z" />
<glyph unicode="&#xd7;" d="M156 858l73 66l295 -299l303 299l62 -62l-301 -301l305 -303l-72 -68l-301 304l-299 -301l-61 65l297 301z" />
<glyph unicode="&#xd8;" horiz-adv-x="1261" d="M102 721q0 334 143.5 533.5t385.5 199.5q113 0 215 -49l57 151l82 -28l-65 -172q240 -188 239 -637q0 -336 -143.5 -537.5t-384.5 -201.5q-113 0 -215 49l-58 -154l-84 23l68 180q-115 92 -177.5 258t-62.5 385zM244 719q0 -356 139 -533l426 1125q-76 57 -178 57 q-186 0 -286.5 -178t-100.5 -471zM451 121q78 -55 180 -55q186 0 286.5 179t100.5 474q0 354 -139 528z" />
<glyph unicode="&#xd9;" horiz-adv-x="1155" d="M154 457v977h127v-942q0 -229 80.5 -319.5t226 -90.5t226.5 88t81 305v959h106v-967q0 -487 -423.5 -487t-423.5 477zM340 1772h160l190 -228h-96z" />
<glyph unicode="&#xda;" horiz-adv-x="1155" d="M154 457v977h127v-942q0 -229 80.5 -319.5t226 -90.5t226.5 88t81 305v959h106v-967q0 -487 -423.5 -487t-423.5 477zM504 1544l190 228h160l-254 -228h-96z" />
<glyph unicode="&#xdb;" horiz-adv-x="1155" d="M154 457v977h127v-942q0 -229 80.5 -319.5t226 -90.5t226.5 88t81 305v959h106v-967q0 -487 -423.5 -487t-423.5 477zM360 1544l144 228h180l143 -228h-79l-152 156h-4l-152 -156h-80z" />
<glyph unicode="&#xdc;" horiz-adv-x="1155" d="M154 457v977h127v-942q0 -229 80.5 -319.5t226 -90.5t226.5 88t81 305v959h106v-967q0 -487 -423.5 -487t-423.5 477zM365 1565v153h124v-153h-124zM690 1565v153h125v-153h-125z" />
<glyph unicode="&#xdd;" horiz-adv-x="937" d="M41 1434h133l301 -672h4l309 672h109l-371 -783v-651h-127v655zM393 1544l191 228h159l-254 -228h-96z" />
<glyph unicode="&#xde;" horiz-adv-x="985" d="M154 0v1434h127v-258h112q520 0 520 -402q0 -217 -138 -317.5t-382 -100.5h-112v-356h-127zM281 444h120q201 0 286 78t85 246q0 166 -85 242.5t-288 76.5h-118v-643z" />
<glyph unicode="&#xdf;" horiz-adv-x="1050" d="M41 944v80h145v150q0 188 93.5 284t246.5 96q162 0 253 -81.5t91 -212.5q0 -96 -54 -180.5t-107.5 -151t-53.5 -123.5q0 -41 36 -88t86 -93t100.5 -98.5t86 -121t35.5 -142.5q0 -127 -84 -202.5t-225 -75.5q-137 0 -203 32v119q74 -70 215 -69q82 0 129.5 48t47.5 126 q0 68 -36 130t-86 110t-100.5 95.5t-86 102.5t-35.5 110q0 49 33.5 104.5t72.5 98.5t73 111.5t34 142.5q0 106 -56.5 167t-159.5 61q-109 0 -167 -70t-58 -252v-1151h-121v944h-145z" />
<glyph unicode="&#xe0;" horiz-adv-x="858" d="M78 244q0 156 128 238.5t400 135.5v134q0 111 -42 163t-142 52q-154 0 -240 -164l-92 57q39 70 127 127t215 57q295 0 295 -309v-510q0 -164 18 -225h-100l-27 119q-145 -137 -282 -137q-111 0 -184.5 71.5t-73.5 190.5zM199 1475h159l191 -271h-92zM201 254 q0 -94 47 -138t119 -44q117 0 239 127v346q-405 -68 -405 -291z" />
<glyph unicode="&#xe1;" horiz-adv-x="858" d="M78 244q0 156 128 238.5t400 135.5v134q0 111 -42 163t-142 52q-154 0 -240 -164l-92 57q39 70 127 127t215 57q295 0 295 -309v-510q0 -164 18 -225h-100l-27 119q-145 -137 -282 -137q-111 0 -184.5 71.5t-73.5 190.5zM201 254q0 -94 47 -138t119 -44q117 0 239 127 v346q-405 -68 -405 -291zM330 1204l190 271h160l-258 -271h-92z" />
<glyph unicode="&#xe2;" horiz-adv-x="858" d="M78 244q0 156 128 238.5t400 135.5v134q0 111 -42 163t-142 52q-154 0 -240 -164l-92 57q39 70 127 127t215 57q295 0 295 -309v-510q0 -164 18 -225h-100l-27 119q-145 -137 -282 -137q-111 0 -184.5 71.5t-73.5 190.5zM195 1204l147 271h172l148 -271h-80l-152 193h-4 l-152 -193h-79zM201 254q0 -94 47 -138t119 -44q117 0 239 127v346q-405 -68 -405 -291z" />
<glyph unicode="&#xe3;" horiz-adv-x="858" d="M78 244q0 156 128 238.5t400 135.5v134q0 111 -42 163t-142 52q-154 0 -240 -164l-92 57q39 70 127 127t215 57q295 0 295 -309v-510q0 -164 18 -225h-100l-27 119q-145 -137 -282 -137q-111 0 -184.5 71.5t-73.5 190.5zM168 1253q16 174 141 174q49 0 129 -40.5 t115 -40.5q29 0 41 18t18 57h78q-14 -176 -129 -176q-43 0 -129 43t-121 43q-53 0 -67 -78h-76zM201 254q0 -94 47 -138t119 -44q117 0 239 127v346q-405 -68 -405 -291z" />
<glyph unicode="&#xe4;" horiz-adv-x="858" d="M78 244q0 156 128 238.5t400 135.5v134q0 111 -42 163t-142 52q-154 0 -240 -164l-92 57q39 70 127 127t215 57q295 0 295 -309v-510q0 -164 18 -225h-100l-27 119q-145 -137 -282 -137q-111 0 -184.5 71.5t-73.5 190.5zM201 254q0 -94 47 -138t119 -44q117 0 239 127 v346q-405 -68 -405 -291zM227 1262v153h125v-153h-125zM524 1262v153h125v-153h-125z" />
<glyph unicode="&#xe5;" horiz-adv-x="858" d="M78 244q0 156 128 238.5t400 135.5v134q0 111 -42 163t-142 52q-154 0 -240 -164l-92 57q39 70 127 127t215 57q295 0 295 -309v-510q0 -164 18 -225h-100l-27 119q-145 -137 -282 -137q-111 0 -184.5 71.5t-73.5 190.5zM201 254q0 -94 47 -138t119 -44q117 0 239 127 v346q-405 -68 -405 -291zM274 1341q0 80 48.5 125t120 45t118.5 -45t47 -124.5t-47 -125t-118.5 -45.5t-120 44t-48.5 126zM348 1341.5q0 -47.5 23.5 -80t70.5 -32.5q45 0 69 32.5t24 80t-23 79t-70 31.5t-70.5 -31.5t-23.5 -79z" />
<glyph unicode="&#xe6;" horiz-adv-x="1406" d="M78 244q0 156 128 238.5t400 135.5v134q0 111 -42 163t-142 52q-154 0 -240 -164l-92 57q39 70 127 127t215 57q203 0 266 -149q98 150 275 149q164 0 261 -134t97 -343v-35h-598q0 -90 13.5 -169.5t43 -150.5t85 -113t131.5 -42q150 0 208 170l103 -51 q-98 -197 -316 -196q-207 0 -315 178q-170 -176 -350 -176q-111 0 -184.5 71.5t-73.5 190.5zM201 254q0 -94 47 -138t119 -44q135 0 282 161q-45 115 -47 310q-401 -68 -401 -289zM735 608h469q-2 90 -22.5 167t-75.5 134.5t-139 57.5q-109 0 -167.5 -98.5t-64.5 -260.5z " />
<glyph unicode="&#xe7;" horiz-adv-x="811" d="M82 514q0 231 93 380.5t286 149.5q115 0 192.5 -58t106.5 -134l-109 -45q-57 160 -196 160q-119 0 -179.5 -119t-60.5 -320q0 -469 250 -469q74 0 123 50.5t67 119.5l109 -53q-92 -188 -287 -196l-26 -80q170 -35 170 -152q0 -59 -39 -97t-125 -38q-102 0 -150 47l23 53 q43 -35 104 -35q86 0 86 74q0 45 -49 66.5t-102 23.5l45 142q-117 12 -194 92t-107.5 190.5t-30.5 247.5z" />
<glyph unicode="&#xe8;" horiz-adv-x="886" d="M82 518q0 233 97 379.5t274 146.5q164 0 261 -134t97 -343v-35h-598q0 -90 13.5 -169.5t43 -150.5t85 -113t130.5 -42q150 0 209 170l103 -51q-98 -197 -316 -196q-199 0 -299 153.5t-100 384.5zM207 1475h160l190 -271h-92zM215 608h469q-2 90 -22.5 167t-76 134.5 t-139.5 57.5q-109 0 -167 -98.5t-64 -260.5z" />
<glyph unicode="&#xe9;" horiz-adv-x="886" d="M82 518q0 233 97 379.5t274 146.5q164 0 261 -134t97 -343v-35h-598q0 -90 13.5 -169.5t43 -150.5t85 -113t130.5 -42q150 0 209 170l103 -51q-98 -197 -316 -196q-199 0 -299 153.5t-100 384.5zM215 608h469q-2 90 -22.5 167t-76 134.5t-139.5 57.5q-109 0 -167 -98.5 t-64 -260.5zM375 1204l190 271h160l-258 -271h-92z" />
<glyph unicode="&#xea;" horiz-adv-x="886" d="M82 518q0 233 97 379.5t274 146.5q164 0 261 -134t97 -343v-35h-598q0 -90 13.5 -169.5t43 -150.5t85 -113t130.5 -42q150 0 209 170l103 -51q-98 -197 -316 -196q-199 0 -299 153.5t-100 384.5zM215 608h469q-2 90 -22.5 167t-76 134.5t-139.5 57.5q-109 0 -167 -98.5 t-64 -260.5zM227 1204l148 271h172l147 -271h-80l-151 193h-4l-152 -193h-80z" />
<glyph unicode="&#xeb;" horiz-adv-x="886" d="M82 518q0 233 97 379.5t274 146.5q164 0 261 -134t97 -343v-35h-598q0 -90 13.5 -169.5t43 -150.5t85 -113t130.5 -42q150 0 209 170l103 -51q-98 -197 -316 -196q-199 0 -299 153.5t-100 384.5zM215 608h469q-2 90 -22.5 167t-76 134.5t-139.5 57.5q-109 0 -167 -98.5 t-64 -260.5zM254 1262v153h125v-153h-125zM551 1262v153h125v-153h-125z" />
<glyph unicode="&#xec;" horiz-adv-x="387" d="M-94 1475h160l190 -271h-92zM133 0v1024h121v-1024h-121z" />
<glyph unicode="&#xed;" horiz-adv-x="387" d="M133 0v1024h121v-1024h-121zM133 1204l191 271h159l-258 -271h-92z" />
<glyph unicode="&#xee;" horiz-adv-x="387" d="M-39 1204l148 271h172l147 -271h-80l-151 193h-4l-152 -193h-80zM133 0v1024h121v-1024h-121z" />
<glyph unicode="&#xef;" horiz-adv-x="387" d="M-16 1262v153h125v-153h-125zM133 0v1024h121v-1024h-121zM281 1262v153h125v-153h-125z" />
<glyph unicode="&#xf0;" horiz-adv-x="964" d="M82 514q0 240 99.5 375t267.5 135q145 0 253 -113q-33 172 -100 320l-217 -49l-20 69l204 47q-20 37 -41.5 70t-41 58.5t-34 41t-30.5 31.5l-14 17l124 34q80 -70 160 -225l180 43l21 -70l-170 -38q129 -293 129 -652q0 -627 -389 -626q-180 0 -280.5 143t-100.5 389z M215 514q0 -201 61.5 -328t194.5 -127q131 0 193.5 139.5t62.5 364.5q0 137 -14 238q-98 135 -254 135q-244 0 -244 -422z" />
<glyph unicode="&#xf1;" horiz-adv-x="937" d="M133 0v1024h90l15 -160h4q170 180 327 180q109 0 172.5 -88t63.5 -251v-705h-121v696q0 254 -145 254q-78 0 -161 -60.5t-124 -117.5v-772h-121zM221 1253q16 174 141 174q49 0 129 -40.5t115 -40.5q29 0 41 18t19 57h77q-14 -176 -129 -176q-43 0 -129 43t-120 43 q-53 0 -68 -78h-76z" />
<glyph unicode="&#xf2;" horiz-adv-x="946" d="M82 512q0 246 104.5 389t286.5 143t286.5 -143t104.5 -389t-104.5 -389t-286.5 -143t-286.5 143t-104.5 389zM215 512q0 -203 62.5 -329t195.5 -126q131 0 194.5 127t63.5 328q0 203 -62.5 329t-195.5 126t-195.5 -127t-62.5 -328zM223 1475h160l190 -271h-92z" />
<glyph unicode="&#xf3;" horiz-adv-x="946" d="M82 512q0 246 104.5 389t286.5 143t286.5 -143t104.5 -389t-104.5 -389t-286.5 -143t-286.5 143t-104.5 389zM215 512q0 -203 62.5 -329t195.5 -126q131 0 194.5 127t63.5 328q0 203 -62.5 329t-195.5 126t-195.5 -127t-62.5 -328zM379 1204l190 271h160l-258 -271h-92z " />
<glyph unicode="&#xf4;" horiz-adv-x="946" d="M82 512q0 246 104.5 389t286.5 143t286.5 -143t104.5 -389t-104.5 -389t-286.5 -143t-286.5 143t-104.5 389zM215 512q0 -203 62.5 -329t195.5 -126q131 0 194.5 127t63.5 328q0 203 -62.5 329t-195.5 126t-195.5 -127t-62.5 -328zM244 1204l147 271h172l148 -271h-80 l-152 193h-4l-151 -193h-80z" />
<glyph unicode="&#xf5;" horiz-adv-x="946" d="M82 512q0 246 104.5 389t286.5 143t286.5 -143t104.5 -389t-104.5 -389t-286.5 -143t-286.5 143t-104.5 389zM215 512q0 -203 62.5 -329t195.5 -126q131 0 194.5 127t63.5 328q0 203 -62.5 329t-195.5 126t-195.5 -127t-62.5 -328zM217 1253q16 174 141 174 q49 0 129 -40.5t115 -40.5q29 0 41 18t19 57h77q-14 -176 -129 -176q-43 0 -129 43t-121 43q-53 0 -67 -78h-76z" />
<glyph unicode="&#xf6;" horiz-adv-x="946" d="M82 512q0 246 104.5 389t286.5 143t286.5 -143t104.5 -389t-104.5 -389t-286.5 -143t-286.5 143t-104.5 389zM215 512q0 -203 62.5 -329t195.5 -126q131 0 194.5 127t63.5 328q0 203 -62.5 329t-195.5 126t-195.5 -127t-62.5 -328zM262 1262v153h125v-153h-125zM559 1262 v153h125v-153h-125z" />
<glyph unicode="&#xf7;" d="M72 514v94h901v-94h-901zM436 221q0 35 24.5 60.5t59.5 25.5t60.5 -25.5t25.5 -60.5t-25.5 -59.5t-60.5 -24.5t-59.5 24.5t-24.5 59.5zM436 899q0 35 24.5 60.5t59.5 25.5t60.5 -25.5t25.5 -60.5t-25.5 -59.5t-60.5 -24.5t-59.5 24.5t-24.5 59.5z" />
<glyph unicode="&#xf8;" horiz-adv-x="946" d="M82 512q0 246 104.5 389t286.5 143q113 0 203 -61l65 123l76 -35l-80 -143q127 -143 127 -416q0 -246 -104.5 -389t-286.5 -143q-125 0 -213 67l-59 -113l-72 35l72 135q-119 146 -119 408zM215 512q0 -182 47 -297l367 682q-63 70 -156 70q-133 0 -195.5 -127 t-62.5 -328zM309 135q61 -78 164 -78q131 0 194.5 127t63.5 328q0 193 -51 307z" />
<glyph unicode="&#xf9;" horiz-adv-x="921" d="M133 332v692h121v-674q0 -139 35 -205.5t112 -66.5q74 0 150 45t117 98v803h120v-1024h-79l-25 135h-4q-164 -156 -311 -155q-111 0 -173.5 90t-62.5 262zM207 1475h160l190 -271h-92z" />
<glyph unicode="&#xfa;" horiz-adv-x="921" d="M133 332v692h121v-674q0 -139 35 -205.5t112 -66.5q74 0 150 45t117 98v803h120v-1024h-79l-25 135h-4q-164 -156 -311 -155q-111 0 -173.5 90t-62.5 262zM416 1204l190 271h160l-258 -271h-92z" />
<glyph unicode="&#xfb;" horiz-adv-x="921" d="M133 332v692h121v-674q0 -139 35 -205.5t112 -66.5q74 0 150 45t117 98v803h120v-1024h-79l-25 135h-4q-164 -156 -311 -155q-111 0 -173.5 90t-62.5 262zM229 1204l148 271h172l147 -271h-80l-151 193h-4l-152 -193h-80z" />
<glyph unicode="&#xfc;" horiz-adv-x="921" d="M133 332v692h121v-674q0 -139 35 -205.5t112 -66.5q74 0 150 45t117 98v803h120v-1024h-79l-25 135h-4q-164 -156 -311 -155q-111 0 -173.5 90t-62.5 262zM250 1262v153h125v-153h-125zM547 1262v153h125v-153h-125z" />
<glyph unicode="&#xfd;" horiz-adv-x="811" d="M41 -268q45 -10 88 -11q86 0 131 64.5t105 292.5l-304 946h123l154 -498q57 -182 84 -305h4q29 113 80 295l147 508h107l-354 -1145q-41 -133 -101.5 -194.5t-173.5 -61.5q-53 0 -90 8v101zM358 1204l191 271h160l-258 -271h-93z" />
<glyph unicode="&#xfe;" horiz-adv-x="948" d="M133 -377v1913h121v-631q129 139 274 139q152 0 245 -146t93 -378q0 -238 -95 -389t-253 -151q-143 0 -264 124v-481h-121zM254 213q41 -57 108.5 -101t141.5 -44q111 0 170 118.5t59 325.5q0 209 -60.5 325.5t-168.5 116.5q-72 0 -142.5 -47t-107.5 -106v-588z" />
<glyph unicode="&#xff;" horiz-adv-x="811" d="M41 -268q45 -10 88 -11q86 0 131 64.5t105 292.5l-304 946h123l154 -498q57 -182 84 -305h4q29 113 80 295l147 508h107l-354 -1145q-41 -133 -101.5 -194.5t-173.5 -61.5q-53 0 -90 8v101zM207 1262v153h125v-153h-125zM504 1262v153h125v-153h-125z" />
<glyph unicode="&#x152;" horiz-adv-x="1538" d="M102 721q0 334 143.5 533.5t385.5 199.5q80 0 147 -20h658v-88h-537v-549h449v-88h-449v-621h557v-88h-682q-76 -20 -143 -20q-242 0 -385.5 202.5t-143.5 538.5zM244 719q0 -293 100 -473t287 -180q78 0 141 30v1239q-70 33 -141 33q-186 0 -286.5 -178t-100.5 -471z " />
<glyph unicode="&#x153;" horiz-adv-x="1538" d="M82 512q0 246 104.5 389t286.5 143q219 0 324 -204q98 205 307 204q164 0 261 -134t97 -343v-35h-598v-34q6 -186 70.5 -313.5t202.5 -127.5q150 0 209 170l102 -51q-98 -197 -315 -196q-229 0 -332 215q-106 -215 -328 -215q-182 0 -286.5 143t-104.5 389zM215 512 q0 -203 62.5 -329t195.5 -126q131 0 194.5 127t63.5 328q0 203 -62.5 329t-195.5 126t-195.5 -127t-62.5 -328zM866 608h469q-2 90 -22.5 167t-75.5 134.5t-139 57.5q-109 0 -167.5 -98.5t-64.5 -260.5z" />
<glyph unicode="&#x178;" horiz-adv-x="937" d="M41 1434h133l301 -672h4l309 672h109l-371 -783v-651h-127v655zM254 1565v153h125v-153h-125zM580 1565v153h125v-153h-125z" />
<glyph unicode="&#x2c6;" horiz-adv-x="671" d="M102 1204l148 271h172l147 -271h-80l-151 193h-4l-152 -193h-80z" />
<glyph unicode="&#x2dc;" horiz-adv-x="727" d="M102 1253q16 174 142 174q49 0 129 -40.5t114 -40.5q29 0 41.5 18t18.5 57h78q-14 -176 -129 -176q-43 0 -129 43t-121 43q-53 0 -68 -78h-76z" />
<glyph unicode="&#x2000;" horiz-adv-x="919" />
<glyph unicode="&#x2001;" horiz-adv-x="1839" />
<glyph unicode="&#x2002;" horiz-adv-x="919" />
<glyph unicode="&#x2003;" horiz-adv-x="1839" />
<glyph unicode="&#x2004;" horiz-adv-x="612" />
<glyph unicode="&#x2005;" horiz-adv-x="458" />
<glyph unicode="&#x2006;" horiz-adv-x="305" />
<glyph unicode="&#x2007;" horiz-adv-x="305" />
<glyph unicode="&#x2008;" horiz-adv-x="229" />
<glyph unicode="&#x2009;" horiz-adv-x="366" />
<glyph unicode="&#x200a;" horiz-adv-x="100" />
<glyph unicode="&#x2010;" horiz-adv-x="655" d="M92 512v102h471v-102h-471z" />
<glyph unicode="&#x2011;" horiz-adv-x="655" d="M92 512v102h471v-102h-471z" />
<glyph unicode="&#x2012;" horiz-adv-x="655" d="M92 512v102h471v-102h-471z" />
<glyph unicode="&#x2013;" horiz-adv-x="1085" d="M72 512v102h942v-102h-942z" />
<glyph unicode="&#x2014;" horiz-adv-x="1495" d="M72 512v102h1351v-102h-1351z" />
<glyph unicode="&#x2018;" horiz-adv-x="378" d="M113 1161v156l84 219h69l-78 -213h70v-162h-145z" />
<glyph unicode="&#x2019;" horiz-adv-x="378" d="M113 1161l77 213h-69v162h145v-156l-84 -219h-69z" />
<glyph unicode="&#x201a;" horiz-adv-x="378" d="M113 -213l77 213h-69v162h145v-156l-84 -219h-69z" />
<glyph unicode="&#x201c;" horiz-adv-x="659" d="M113 1161v156l84 219h69l-78 -213h70v-162h-145zM393 1161v156l84 219h70l-78 -213h70v-162h-146z" />
<glyph unicode="&#x201d;" horiz-adv-x="659" d="M113 1161l77 213h-69v162h145v-156l-84 -219h-69zM393 1161l78 213h-70v162h146v-156l-84 -219h-70z" />
<glyph unicode="&#x201e;" horiz-adv-x="659" d="M113 -213l77 213h-69v162h145v-156l-84 -219h-69zM393 -213l78 213h-70v162h146v-156l-84 -219h-70z" />
<glyph unicode="&#x2022;" horiz-adv-x="716" d="M133 657.5q0 96.5 64.5 162t161 65.5t161 -65.5t64.5 -162t-64.5 -162t-161 -65.5t-161 65.5t-64.5 162z" />
<glyph unicode="&#x2026;" horiz-adv-x="1222" d="M133 0v162h141v-162h-141zM541 0v162h141v-162h-141zM948 0v162h142v-162h-142z" />
<glyph unicode="&#x202f;" horiz-adv-x="366" />
<glyph unicode="&#x2039;" horiz-adv-x="671" d="M123 541l299 409h127l-303 -409l303 -398h-127z" />
<glyph unicode="&#x203a;" horiz-adv-x="671" d="M123 143l303 398l-303 409h127l299 -409l-299 -398h-127z" />
<glyph unicode="&#x205f;" horiz-adv-x="458" />
<glyph unicode="&#x20ac;" horiz-adv-x="1060" d="M41 553v80h149v65q0 55 3 84h-152v80h158q12 104 38.5 191.5t75.5 167t132 125t192 45.5q242 0 348 -205l-115 -47q-31 74 -92 122t-143 48q-266 0 -301 -447h483v-80h-487q-2 -25 -2 -77q0 -47 2 -72h487v-80h-483q43 -487 334 -487q88 0 139 47t92 143l111 -53 q-109 -221 -348 -221q-217 0 -329 157.5t-136 413.5h-156z" />
<glyph unicode="&#x2122;" horiz-adv-x="1421" d="M61 1368v66h525v-66h-211v-696h-103v696h-211zM682 672v762h139l94 -332q47 -174 76 -295h6q25 115 76 301l92 326h144v-762h-99v397q0 164 2 236h-6q-41 -156 -63 -232l-117 -401h-76l-121 407q-8 31 -30.5 111t-32.5 115h-6q2 -70 2 -228v-405h-80z" />
<glyph unicode="&#xe000;" horiz-adv-x="1025" d="M0 1025h1025v-1025h-1025v1025z" />
<glyph unicode="&#xfb01;" horiz-adv-x="929" d="M41 944v80h145v176q0 188 62.5 269t189.5 81q70 0 94 -14v-96q-37 27 -100 26.5t-94 -42.5t-31 -162v-238h490v-1024h-121v944h-369v-944h-121v944h-145zM676 1262v153h121v-153h-121z" />
<glyph unicode="&#xfb02;" horiz-adv-x="929" d="M41 944v80h145v176q0 188 62.5 269t189.5 81q70 0 94 -14v-96q-37 27 -100 26.5t-94 -42.5t-31 -162v-238h209v-80h-209v-944h-121v944h-145zM676 0v1536h121v-1536h-121z" />
<glyph unicode="&#xfb03;" horiz-adv-x="1419" d="M41 944v80h145v162q0 188 62.5 269t189.5 81q70 0 94 -14v-97q-37 27 -100 27t-94 -42t-31 -163v-223h369v176q0 188 62.5 269t189.5 81q70 0 94 -14v-96q-37 27 -100.5 26.5t-94 -42.5t-30.5 -162v-238h489v-1024h-121v944h-368v-944h-121v944h-369v-944h-121v944h-145z M1165 1262v153h121v-153h-121z" />
<glyph unicode="&#xfb04;" horiz-adv-x="1419" d="M41 944v80h145v162q0 188 62.5 269t189.5 81q70 0 94 -14v-97q-37 27 -100 27t-94 -42t-31 -163v-223h369v176q0 188 62.5 269t189.5 81q70 0 94 -14v-96q-37 27 -100.5 26.5t-94 -42.5t-30.5 -162v-238h209v-80h-209v-944h-121v944h-369v-944h-121v944h-145zM1165 0 v1536h121v-1536h-121z" />
<glyph horiz-adv-x="409" />
</font>
</defs>
</svg>
